M48
; DRILL file {KiCad 9.0.9-9.0.9~ubuntu24.04.1} date 2026-05-26T11:11:02-0700
; FORMAT={-:-/ absolute / metric / decimal}
; #@! TF.CreationDate,2026-05-26T11:11:02-07:00
; #@! TF.GenerationSoftware,Kicad,Pcbnew,9.0.9-9.0.9~ubuntu24.04.1
; #@! TF.FileFunction,Plated,1,2,PTH
FMAT,2
METRIC
; #@! TA.AperFunction,Plated,PTH,ViaDrill
T1C0.400
; #@! TA.AperFunction,Plated,PTH,ComponentDrill
T2C1.000
; #@! TA.AperFunction,Plated,PTH,ComponentDrill
T3C1.250
; #@! TA.AperFunction,Plated,PTH,ComponentDrill
T4C1.300
; #@! TA.AperFunction,Plated,PTH,ComponentDrill
T5C1.400
; #@! TA.AperFunction,Plated,PTH,ComponentDrill
T6C1.600
; #@! TA.AperFunction,Plated,PTH,ComponentDrill
T7C3.200
%
G90
G05
T1
X78.722Y-69.856
X80.322Y-63.256
X82.722Y-58.056
X84.922Y-65.499
X85.322Y-50.656
X88.922Y-49.656
X90.922Y-49.656
X90.922Y-51.856
X92.522Y-53.856
X93.722Y-77.056
X95.122Y-74.056
X96.022Y-74.956
X96.122Y-59.099
X96.322Y-55.456
X97.122Y-69.656
X98.797Y-73.106
X99.222Y-52.736
X99.522Y-66.056
X99.522Y-70.456
X99.722Y-89.256
X100.301Y-91.678
X100.722Y-78.056
X101.322Y-82.899
X101.722Y-86.056
X101.922Y-67.256
X102.122Y-70.256
X102.122Y-76.456
X102.522Y-68.856
X102.722Y-73.056
X103.122Y-74.699
X103.122Y-77.256
X103.722Y-49.656
X103.722Y-71.656
X104.022Y-98.394
X104.922Y-80.456
X105.122Y-75.056
X106.122Y-92.256
X106.722Y-64.456
X106.722Y-67.256
X107.922Y-84.056
X108.722Y-70.256
X109.522Y-86.656
X109.697Y-51.056
X109.722Y-71.656
X110.122Y-79.056
X110.322Y-56.856
X111.722Y-63.056
X111.922Y-87.561
X113.822Y-70.956
X114.722Y-73.256
X115.922Y-71.256
X116.022Y-66.956
X116.722Y-78.456
X116.847Y-75.156
X116.922Y-83.456
X118.297Y-102.344
X118.322Y-53.256
X118.322Y-55.656
X118.322Y-62.606
X118.647Y-74.076
X120.222Y-78.556
X120.522Y-68.996
X121.522Y-83.256
X121.822Y-90.894
X122.422Y-98.394
X122.572Y-72.806
X124.322Y-66.299
X124.522Y-78.699
X128.722Y-58.899
X131.122Y-90.256
X131.722Y-66.306
X131.847Y-88.056
X138.522Y-88.106
X140.322Y-56.706
X140.522Y-71.906
X140.522Y-88.106
X142.722Y-64.306
X152.122Y-106.499
X154.322Y-56.099
X154.322Y-60.306
X155.922Y-74.099
T2
X75.482Y-61.036
X75.482Y-63.576
X75.482Y-66.116
X75.482Y-68.656
X75.482Y-71.196
X75.482Y-73.736
X75.482Y-76.276
X75.482Y-78.816
X75.482Y-81.356
X75.482Y-83.896
X75.482Y-86.436
X75.482Y-88.976
X75.482Y-91.516
X75.482Y-94.056
X75.482Y-96.596
X78.122Y-105.056
X90.722Y-61.036
X90.722Y-63.576
X90.722Y-66.116
X90.722Y-68.656
X90.722Y-71.196
X90.722Y-73.736
X90.722Y-76.276
X90.722Y-78.816
X90.722Y-81.356
X90.722Y-83.896
X90.722Y-86.436
X90.722Y-88.976
X90.722Y-91.516
X90.722Y-94.056
X90.722Y-96.596
X107.902Y-58.749
X110.442Y-58.749
X112.622Y-90.594
X112.622Y-98.194
X112.982Y-58.749
X115.522Y-58.749
X155.722Y-51.099
X155.722Y-110.299
T3
X98.922Y-58.799
X98.922Y-83.099
X124.922Y-58.799
X124.922Y-83.099
T4
X140.522Y-50.056
X140.522Y-63.256
X140.522Y-65.956
X140.522Y-79.156
X140.522Y-81.856
X140.522Y-95.056
X140.522Y-97.856
X140.522Y-111.056
T5
X134.322Y-54.156
X134.322Y-59.156
X134.322Y-70.056
X134.322Y-75.056
X134.322Y-85.956
X134.322Y-90.956
X134.322Y-101.956
X134.322Y-106.956
X146.722Y-54.156
X146.722Y-59.156
X146.722Y-70.056
X146.722Y-75.056
X146.722Y-85.956
X146.722Y-90.956
X146.722Y-101.956
X146.722Y-106.956
T6
X158.922Y-69.016
X158.922Y-74.096
X158.922Y-84.941
X158.922Y-90.021
X158.922Y-95.101
X158.922Y-100.181
T7
X76.122Y-51.056
X76.122Y-111.056
X161.922Y-51.056
X161.922Y-110.256
M30
