%TF.GenerationSoftware,KiCad,Pcbnew,9.0.9-9.0.9~ubuntu24.04.1*%
%TF.CreationDate,2026-05-26T11:11:05-07:00*%
%TF.ProjectId,matter_thread_relay_r1,6d617474-6572-45f7-9468-726561645f72,rev?*%
%TF.SameCoordinates,Original*%
%TF.FileFunction,Copper,L1,Top*%
%TF.FilePolarity,Positive*%
%FSLAX46Y46*%
G04 Gerber Fmt 4.6, Leading zero omitted, Abs format (unit mm)*
G04 Created by KiCad (PCBNEW 9.0.9-9.0.9~ubuntu24.04.1) date 2026-05-26 11:11:05*
%MOMM*%
%LPD*%
G01*
G04 APERTURE LIST*
G04 Aperture macros list*
%AMRoundRect*
0 Rectangle with rounded corners*
0 $1 Rounding radius*
0 $2 $3 $4 $5 $6 $7 $8 $9 X,Y pos of 4 corners*
0 Add a 4 corners polygon primitive as box body*
4,1,4,$2,$3,$4,$5,$6,$7,$8,$9,$2,$3,0*
0 Add four circle primitives for the rounded corners*
1,1,$1+$1,$2,$3*
1,1,$1+$1,$4,$5*
1,1,$1+$1,$6,$7*
1,1,$1+$1,$8,$9*
0 Add four rect primitives between the rounded corners*
20,1,$1+$1,$2,$3,$4,$5,0*
20,1,$1+$1,$4,$5,$6,$7,0*
20,1,$1+$1,$6,$7,$8,$9,0*
20,1,$1+$1,$8,$9,$2,$3,0*%
G04 Aperture macros list end*
%TA.AperFunction,ComponentPad*%
%ADD10C,1.400000*%
%TD*%
%TA.AperFunction,ComponentPad*%
%ADD11R,1.600000X2.000000*%
%TD*%
%TA.AperFunction,ComponentPad*%
%ADD12O,1.600000X2.000000*%
%TD*%
%TA.AperFunction,ComponentPad*%
%ADD13C,2.000000*%
%TD*%
%TA.AperFunction,ComponentPad*%
%ADD14C,3.600000*%
%TD*%
%TA.AperFunction,ConnectorPad*%
%ADD15C,5.700000*%
%TD*%
%TA.AperFunction,SMDPad,CuDef*%
%ADD16RoundRect,0.250001X0.624999X-0.462499X0.624999X0.462499X-0.624999X0.462499X-0.624999X-0.462499X0*%
%TD*%
%TA.AperFunction,SMDPad,CuDef*%
%ADD17RoundRect,0.150000X0.150000X0.625000X-0.150000X0.625000X-0.150000X-0.625000X0.150000X-0.625000X0*%
%TD*%
%TA.AperFunction,SMDPad,CuDef*%
%ADD18RoundRect,0.250000X0.350000X0.650000X-0.350000X0.650000X-0.350000X-0.650000X0.350000X-0.650000X0*%
%TD*%
%TA.AperFunction,ComponentPad*%
%ADD19RoundRect,0.250001X0.949999X-0.949999X0.949999X0.949999X-0.949999X0.949999X-0.949999X-0.949999X0*%
%TD*%
%TA.AperFunction,ComponentPad*%
%ADD20C,2.400000*%
%TD*%
%TA.AperFunction,SMDPad,CuDef*%
%ADD21RoundRect,0.250001X-0.462499X-0.624999X0.462499X-0.624999X0.462499X0.624999X-0.462499X0.624999X0*%
%TD*%
%TA.AperFunction,ComponentPad*%
%ADD22R,2.100000X2.100000*%
%TD*%
%TA.AperFunction,ComponentPad*%
%ADD23C,2.100000*%
%TD*%
%TA.AperFunction,ComponentPad*%
%ADD24C,1.950000*%
%TD*%
%TA.AperFunction,ComponentPad*%
%ADD25R,1.600000X1.600000*%
%TD*%
%TA.AperFunction,ComponentPad*%
%ADD26O,1.600000X1.600000*%
%TD*%
%TA.AperFunction,ComponentPad*%
%ADD27R,2.000000X2.000000*%
%TD*%
%TA.AperFunction,ViaPad*%
%ADD28C,0.800000*%
%TD*%
%TA.AperFunction,Conductor*%
%ADD29C,0.250000*%
%TD*%
G04 APERTURE END LIST*
D10*
%TO.P,U3,*%
%TO.N,*%
X98922100Y-58798715D03*
X98922100Y-83098715D03*
X124922100Y-58798715D03*
X124922100Y-83098715D03*
D11*
%TO.P,U3,1,Vcc*%
%TO.N,+3V3*%
X107902100Y-58748715D03*
D12*
%TO.P,U3,2,GND*%
%TO.N,GND*%
X110442100Y-58748715D03*
%TO.P,U3,3,I2C_SCL*%
%TO.N,/I2C_SCL*%
X112982100Y-58748715D03*
%TO.P,U3,4,I2C_SDA*%
%TO.N,/I2C_SDA*%
X115522100Y-58748715D03*
%TD*%
D13*
%TO.P,GND1,1,1*%
%TO.N,GND*%
X78122100Y-105056300D03*
%TD*%
D14*
%TO.P,H1,1,1*%
%TO.N,GND*%
X76122100Y-111056300D03*
D15*
X76122100Y-111056300D03*
%TD*%
D13*
%TO.P,GND2,1,1*%
%TO.N,GND*%
X155722100Y-110298715D03*
%TD*%
%TO.P,GND3,1,1*%
%TO.N,GND*%
X155722100Y-51098715D03*
%TD*%
D16*
%TO.P,D2,1,K*%
%TO.N,Net-(D2-K)*%
X104022100Y-96081300D03*
%TO.P,D2,2,A*%
%TO.N,+5V*%
X104022100Y-93106300D03*
%TD*%
D17*
%TO.P,J1,1,Pin_1*%
%TO.N,+3V3*%
X99222100Y-53256300D03*
%TO.P,J1,2,Pin_2*%
%TO.N,/I2C_SDA*%
X98222100Y-53256300D03*
%TO.P,J1,3,Pin_3*%
%TO.N,/I2C_SCL*%
X97222100Y-53256300D03*
%TO.P,J1,4,Pin_4*%
%TO.N,GND*%
X96222100Y-53256300D03*
D18*
%TO.P,J1,MP*%
%TO.N,N/C*%
X100522100Y-49381300D03*
X94922100Y-49381300D03*
%TD*%
D19*
%TO.P,J3,1,Pin_1*%
%TO.N,Net-(J3-Pin_1)*%
X158922100Y-100181300D03*
D20*
%TO.P,J3,2,Pin_2*%
%TO.N,Net-(J3-Pin_2)*%
X158922100Y-95101300D03*
%TO.P,J3,3,Pin_3*%
%TO.N,Net-(J3-Pin_3)*%
X158922100Y-90021300D03*
%TO.P,J3,4,Pin_4*%
%TO.N,Net-(J3-Pin_4)*%
X158922100Y-84941300D03*
%TD*%
D21*
%TO.P,D1,1,K*%
%TO.N,GND*%
X106547100Y-51056300D03*
%TO.P,D1,2,A*%
%TO.N,Net-(D1-A)*%
X109522100Y-51056300D03*
%TD*%
D14*
%TO.P,H6,1,1*%
%TO.N,GND*%
X161922100Y-110256300D03*
D15*
X161922100Y-110256300D03*
%TD*%
D22*
%TO.P,S3,1*%
%TO.N,GND*%
X134322100Y-85956300D03*
D23*
%TO.P,S3,2*%
X146722100Y-85956300D03*
%TO.P,S3,3*%
%TO.N,/button2*%
X134322100Y-90956300D03*
%TO.P,S3,4*%
X146722100Y-90956300D03*
D24*
%TO.P,S3,5*%
%TO.N,GND*%
X140522100Y-81856300D03*
%TO.P,S3,6*%
%TO.N,Net-(R6-Pad2)*%
X140522100Y-95056300D03*
%TD*%
D25*
%TO.P,U1,1,D1/TX*%
%TO.N,unconnected-(U1-D1{slash}TX-Pad1)*%
X90722100Y-96596300D03*
D26*
%TO.P,U1,2,D0/RX*%
%TO.N,unconnected-(U1-D0{slash}RX-Pad2)*%
X90722100Y-94056300D03*
%TO.P,U1,3,~{RESET}*%
%TO.N,unconnected-(U1-~{RESET}-Pad3)*%
X90722100Y-91516300D03*
%TO.P,U1,4,GND*%
%TO.N,GND*%
X90722100Y-88976300D03*
%TO.P,U1,5,D2*%
%TO.N,/relay1*%
X90722100Y-86436300D03*
%TO.P,U1,6,D3*%
%TO.N,/relay2*%
X90722100Y-83896300D03*
%TO.P,U1,7,D4*%
%TO.N,/relay3*%
X90722100Y-81356300D03*
%TO.P,U1,8,D5*%
%TO.N,/relay4*%
X90722100Y-78816300D03*
%TO.P,U1,9,D6*%
%TO.N,/button1*%
X90722100Y-76276300D03*
%TO.P,U1,10,D7*%
%TO.N,/button2*%
X90722100Y-73736300D03*
%TO.P,U1,11,D8*%
%TO.N,/button3*%
X90722100Y-71196300D03*
%TO.P,U1,12,D9*%
%TO.N,/button4*%
X90722100Y-68656300D03*
%TO.P,U1,13,D10/CS*%
%TO.N,/led1*%
X90722100Y-66116300D03*
%TO.P,U1,14,D11/COPI*%
%TO.N,/led2*%
X90722100Y-63576300D03*
%TO.P,U1,15,D12/CIPO*%
%TO.N,/led3*%
X90722100Y-61036300D03*
%TO.P,U1,16,D13/SCK*%
%TO.N,/Buzzer*%
X75482100Y-61036300D03*
%TO.P,U1,17,3V3*%
%TO.N,+3V3*%
X75482100Y-63576300D03*
%TO.P,U1,18,AREF*%
%TO.N,unconnected-(U1-AREF-Pad18)*%
X75482100Y-66116300D03*
%TO.P,U1,19,A0*%
%TO.N,/led4*%
X75482100Y-68656300D03*
%TO.P,U1,20,A1*%
%TO.N,unconnected-(U1-A1-Pad20)*%
X75482100Y-71196300D03*
%TO.P,U1,21,A2*%
%TO.N,unconnected-(U1-A2-Pad21)*%
X75482100Y-73736300D03*
%TO.P,U1,22,A3*%
%TO.N,unconnected-(U1-A3-Pad22)*%
X75482100Y-76276300D03*
%TO.P,U1,23,SDA/A4*%
%TO.N,/I2C_SDA*%
X75482100Y-78816300D03*
%TO.P,U1,24,SCL/A5*%
%TO.N,/I2C_SCL*%
X75482100Y-81356300D03*
%TO.P,U1,25,A6*%
%TO.N,unconnected-(U1-A6-Pad25)*%
X75482100Y-83896300D03*
%TO.P,U1,26,A7*%
%TO.N,unconnected-(U1-A7-Pad26)*%
X75482100Y-86436300D03*
%TO.P,U1,27,VUSB/5V*%
%TO.N,unconnected-(U1-VUSB{slash}5V-Pad27)*%
X75482100Y-88976300D03*
%TO.P,U1,28,NC*%
%TO.N,unconnected-(U1-NC-Pad28)*%
X75482100Y-91516300D03*
%TO.P,U1,29,GND*%
%TO.N,GND*%
X75482100Y-94056300D03*
%TO.P,U1,30,VIN*%
%TO.N,+5V*%
X75482100Y-96596300D03*
%TD*%
D22*
%TO.P,S4,1*%
%TO.N,GND*%
X134322100Y-101956300D03*
D23*
%TO.P,S4,2*%
X146722100Y-101956300D03*
%TO.P,S4,3*%
%TO.N,/button3*%
X134322100Y-106956300D03*
%TO.P,S4,4*%
X146722100Y-106956300D03*
D24*
%TO.P,S4,5*%
%TO.N,GND*%
X140522100Y-97856300D03*
%TO.P,S4,6*%
%TO.N,Net-(R7-Pad2)*%
X140522100Y-111056300D03*
%TD*%
D22*
%TO.P,S1,1*%
%TO.N,GND*%
X134322100Y-54156300D03*
D23*
%TO.P,S1,2*%
X146722100Y-54156300D03*
%TO.P,S1,3*%
%TO.N,/button4*%
X134322100Y-59156300D03*
%TO.P,S1,4*%
X146722100Y-59156300D03*
D24*
%TO.P,S1,5*%
%TO.N,GND*%
X140522100Y-50056300D03*
%TO.P,S1,6*%
%TO.N,Net-(R4-Pad2)*%
X140522100Y-63256300D03*
%TD*%
D14*
%TO.P,H2,1,1*%
%TO.N,GND*%
X76122100Y-51056300D03*
D15*
X76122100Y-51056300D03*
%TD*%
D27*
%TO.P,BZ1,1,+*%
%TO.N,+5V*%
X112622100Y-90593800D03*
D13*
%TO.P,BZ1,2,-*%
%TO.N,Net-(BZ1--)*%
X112622100Y-98193800D03*
%TD*%
D22*
%TO.P,S2,1*%
%TO.N,GND*%
X134322100Y-70056300D03*
D23*
%TO.P,S2,2*%
X146722100Y-70056300D03*
%TO.P,S2,3*%
%TO.N,/button1*%
X134322100Y-75056300D03*
%TO.P,S2,4*%
X146722100Y-75056300D03*
D24*
%TO.P,S2,5*%
%TO.N,GND*%
X140522100Y-65956300D03*
%TO.P,S2,6*%
%TO.N,Net-(R5-Pad2)*%
X140522100Y-79156300D03*
%TD*%
D14*
%TO.P,H4,1,1*%
%TO.N,GND*%
X161922100Y-51056300D03*
D15*
X161922100Y-51056300D03*
%TD*%
D19*
%TO.P,J2,1,Pin_1*%
%TO.N,GND*%
X158922100Y-74096300D03*
D20*
%TO.P,J2,2,Pin_2*%
%TO.N,+5V*%
X158922100Y-69016300D03*
%TD*%
D28*
%TO.N,GND*%
X124522100Y-78698715D03*
X96122100Y-59098715D03*
X152122100Y-106498715D03*
X124322100Y-66298715D03*
X84922100Y-65498715D03*
%TO.N,+5V*%
X100300892Y-91677507D03*
%TO.N,GND*%
X103122100Y-74698715D03*
X101322100Y-82898715D03*
%TO.N,+5V*%
X114722100Y-73256300D03*
X109522100Y-86656300D03*
X107922100Y-84056300D03*
X118322100Y-62606300D03*
X118322100Y-55656300D03*
%TO.N,GND*%
X104922100Y-80456300D03*
X121822100Y-90893800D03*
X97122100Y-69656300D03*
X108722100Y-70256300D03*
X78722100Y-69856300D03*
X154322100Y-60306300D03*
X96322100Y-55456300D03*
X92522100Y-53856300D03*
X118647100Y-74076300D03*
X99722100Y-89256300D03*
X110122100Y-79056300D03*
X118322100Y-53256300D03*
X106122100Y-92256300D03*
X111722100Y-63056300D03*
X142722100Y-64306300D03*
X128722100Y-58898715D03*
X103722100Y-49656300D03*
X85322100Y-50656300D03*
X102522100Y-68856300D03*
X154322100Y-56098715D03*
X103722100Y-71656300D03*
X155922100Y-74098715D03*
X109722100Y-71656300D03*
X110322100Y-56856300D03*
X131722100Y-66306300D03*
X116922100Y-83456300D03*
X101722100Y-86056300D03*
X82722100Y-58056300D03*
X118297100Y-102343800D03*
%TO.N,/I2C_SCL*%
X90922100Y-51856300D03*
%TO.N,Net-(D1-A)*%
X109697100Y-51056300D03*
%TO.N,+3V3*%
X99222100Y-52736200D03*
X88922100Y-49656300D03*
%TO.N,/I2C_SDA*%
X90922100Y-49656300D03*
%TO.N,Net-(D2-K)*%
X104022100Y-98393800D03*
%TO.N,/led4*%
X80322100Y-63256300D03*
%TO.N,Net-(R4-Pad2)*%
X140322100Y-56706300D03*
%TO.N,/led1*%
X105122100Y-75056300D03*
X99522100Y-66056300D03*
%TO.N,Net-(R5-Pad2)*%
X140522100Y-71906300D03*
%TO.N,Net-(R6-Pad2)*%
X140522100Y-88106300D03*
%TO.N,/led2*%
X103122100Y-77256300D03*
X131847100Y-88056300D03*
X138522100Y-88106300D03*
%TO.N,/led3*%
X100722100Y-78056300D03*
%TO.N,/Buzzer*%
X111922100Y-87561300D03*
X122422100Y-98393800D03*
%TO.N,/relay1*%
X106722100Y-64456300D03*
X116022100Y-66956300D03*
%TO.N,/relay2*%
X115922100Y-71256300D03*
X106722100Y-67256300D03*
X101922100Y-67256300D03*
X99522100Y-70456300D03*
%TO.N,/relay3*%
X102122100Y-70256300D03*
X98797100Y-73106300D03*
%TO.N,/relay4*%
X102722100Y-73056300D03*
X95122100Y-74056300D03*
%TO.N,Net-(R16-Pad2)*%
X120522100Y-68996300D03*
X121522100Y-83256300D03*
%TO.N,Net-(R17-Pad2)*%
X131122100Y-90256300D03*
X122572100Y-72806300D03*
%TO.N,Net-(R18-Pad2)*%
X113822100Y-70956300D03*
X116722100Y-78456300D03*
%TO.N,Net-(R19-Pad2)*%
X120222100Y-78556300D03*
X116847100Y-75156300D03*
%TO.N,/button1*%
X93722100Y-77056300D03*
X96022100Y-74956300D03*
X102122100Y-76456300D03*
%TD*%
D29*
%TO.N,+5V*%
X104022100Y-93106300D02*
X101729685Y-93106300D01*
X101729685Y-93106300D02*
X100300892Y-91677507D01*
%TO.N,/led3*%
X93522100Y-63856300D02*
X93922100Y-64256300D01*
X93922100Y-64256300D02*
X93922100Y-74256300D01*
X93922100Y-74256300D02*
X97722100Y-78056300D01*
X97722100Y-78056300D02*
X100722100Y-78056300D01*
%TO.N,/button3*%
X90722100Y-71196300D02*
X88522100Y-73396300D01*
X88522100Y-73396300D02*
X88522100Y-80747291D01*
X88522100Y-80747291D02*
X90546109Y-82771300D01*
X90546109Y-82771300D02*
X94594685Y-82771300D01*
X94594685Y-82771300D02*
X96522100Y-84698715D01*
X96522100Y-84698715D02*
X103764515Y-84698715D01*
X103764515Y-84698715D02*
X126022100Y-106956300D01*
X126022100Y-106956300D02*
X134322100Y-106956300D01*
%TO.N,+5V*%
X112622100Y-89756300D02*
X112622100Y-90593800D01*
X118322100Y-62606300D02*
X118172100Y-62606300D01*
X114722100Y-73256300D02*
X114722100Y-77256300D01*
X118172100Y-62606300D02*
X118122100Y-62656300D01*
X109522100Y-86656300D02*
X112622100Y-89756300D01*
X118322100Y-55656300D02*
X118322100Y-62606300D01*
X114722100Y-77256300D02*
X107922100Y-84056300D01*
%TO.N,GND*%
X96322100Y-55456300D02*
X96322100Y-53356300D01*
X96322100Y-53356300D02*
X96222100Y-53256300D01*
%TO.N,/I2C_SCL*%
X90922100Y-51856300D02*
X90922100Y-55656300D01*
X75482100Y-81356300D02*
X82522100Y-74316300D01*
X90922100Y-52256300D02*
X90922100Y-51856300D01*
X98122100Y-55856300D02*
X97222100Y-54956300D01*
X97222100Y-54956300D02*
X97222100Y-53356301D01*
X97222100Y-52556301D02*
X96722099Y-52056300D01*
X96722099Y-52056300D02*
X91122100Y-52056300D01*
X82522100Y-64056300D02*
X90922100Y-55656300D01*
X97222100Y-53331300D02*
X97222100Y-52556301D01*
X112877100Y-58011300D02*
X110722100Y-55856300D01*
X112877100Y-58826300D02*
X112877100Y-58011300D01*
X82522100Y-74316300D02*
X82522100Y-64056300D01*
X110722100Y-55856300D02*
X98122100Y-55856300D01*
X91122100Y-52056300D02*
X90922100Y-52256300D01*
%TO.N,+3V3*%
X88922100Y-50136300D02*
X88922100Y-49656300D01*
X98097100Y-50681300D02*
X93747100Y-50681300D01*
X88922100Y-48856300D02*
X88922100Y-49656300D01*
X99322100Y-52636200D02*
X99322100Y-51856300D01*
X89522100Y-48256300D02*
X88922100Y-48856300D01*
X99222100Y-52736200D02*
X99322100Y-52636200D01*
X99222100Y-53331300D02*
X99222100Y-52736200D01*
X91322100Y-48256300D02*
X89522100Y-48256300D01*
X75482100Y-63576300D02*
X88922100Y-50136300D01*
X93747100Y-50681300D02*
X91322100Y-48256300D01*
X99322100Y-51856300D02*
X98122100Y-50656300D01*
%TO.N,/I2C_SDA*%
X81722100Y-72576300D02*
X81722100Y-63256300D01*
X98222100Y-53331300D02*
X98222100Y-52556301D01*
X115417100Y-58826300D02*
X115522100Y-58721300D01*
X96908495Y-51606300D02*
X93272100Y-51606300D01*
X91322100Y-49656300D02*
X90922100Y-49656300D01*
X98722100Y-54731300D02*
X98247100Y-54256300D01*
X88822100Y-51756300D02*
X90922100Y-49656300D01*
X75482100Y-78816300D02*
X81722100Y-72576300D01*
X96958495Y-51656300D02*
X96908495Y-51606300D01*
X98247100Y-54256300D02*
X98222100Y-54256300D01*
X93272100Y-51606300D02*
X91322100Y-49656300D01*
X98222100Y-54256300D02*
X98222100Y-53356301D01*
X97322099Y-51656300D02*
X96958495Y-51656300D01*
X88822100Y-56156300D02*
X88822100Y-51756300D01*
X81722100Y-63256300D02*
X88822100Y-56156300D01*
X98222100Y-52556301D02*
X97322099Y-51656300D01*
X115522100Y-58721300D02*
X115522100Y-57256300D01*
X115522100Y-57256300D02*
X112997100Y-54731300D01*
X112997100Y-54731300D02*
X98722100Y-54731300D01*
%TO.N,Net-(D2-K)*%
X104022100Y-98393800D02*
X104022100Y-96081300D01*
%TO.N,/led4*%
X75482100Y-68656300D02*
X80322100Y-63816300D01*
X80322100Y-63816300D02*
X80322100Y-63256300D01*
%TO.N,Net-(R4-Pad2)*%
X140972100Y-56706300D02*
X140322100Y-56706300D01*
X142522100Y-61256300D02*
X142522100Y-58256300D01*
X140522100Y-63256300D02*
X142522100Y-61256300D01*
X142522100Y-58256300D02*
X140972100Y-56706300D01*
%TO.N,/led1*%
X105122100Y-69430995D02*
X105122100Y-75056300D01*
X101747405Y-66056300D02*
X105122100Y-69430995D01*
X99522100Y-66056300D02*
X101747405Y-66056300D01*
%TO.N,Net-(R5-Pad2)*%
X140522100Y-71906300D02*
X141797100Y-73181300D01*
X141797100Y-73181300D02*
X141797100Y-77881300D01*
X141797100Y-77881300D02*
X140522100Y-79156300D01*
%TO.N,Net-(R6-Pad2)*%
X141797100Y-93781300D02*
X140522100Y-95056300D01*
X140522100Y-88106300D02*
X141797100Y-89381300D01*
X141797100Y-89381300D02*
X141797100Y-93781300D01*
%TO.N,/led2*%
X131847100Y-88056300D02*
X134022100Y-88056300D01*
X134022100Y-88056300D02*
X134072100Y-88106300D01*
X134072100Y-88106300D02*
X138522100Y-88106300D01*
X101522100Y-78856300D02*
X103122100Y-77256300D01*
X96722100Y-78856300D02*
X101522100Y-78856300D01*
X93062100Y-65916300D02*
X93062100Y-75196300D01*
X90722100Y-63576300D02*
X93062100Y-65916300D01*
X93062100Y-75196300D02*
X96722100Y-78856300D01*
%TO.N,/led3*%
X90722100Y-61036300D02*
X93532100Y-63846300D01*
%TO.N,/Buzzer*%
X122422100Y-97393800D02*
X112684600Y-87656300D01*
X122422100Y-98393800D02*
X122422100Y-97393800D01*
X112017100Y-87656300D02*
X111922100Y-87561300D01*
X112684600Y-87656300D02*
X112017100Y-87656300D01*
%TO.N,/relay1*%
X113522100Y-64456300D02*
X106722100Y-64456300D01*
X116022100Y-66956300D02*
X113522100Y-64456300D01*
%TO.N,/relay2*%
X115922100Y-71256300D02*
X115922100Y-69056300D01*
X114122100Y-67256300D02*
X106722100Y-67256300D01*
X115922100Y-69056300D02*
X114122100Y-67256300D01*
X99522100Y-70456300D02*
X99522100Y-69656300D01*
X99522100Y-69656300D02*
X101922100Y-67256300D01*
%TO.N,/relay3*%
X101822100Y-70256300D02*
X102122100Y-70256300D01*
X98797100Y-73106300D02*
X98972100Y-73106300D01*
X98972100Y-73106300D02*
X101822100Y-70256300D01*
%TO.N,/relay4*%
X101722100Y-74056300D02*
X102722100Y-73056300D01*
X95122100Y-74056300D02*
X101722100Y-74056300D01*
%TO.N,Net-(R16-Pad2)*%
X121522100Y-70056300D02*
X120522100Y-69056300D01*
X121522100Y-83256300D02*
X121522100Y-70056300D01*
X120522100Y-69056300D02*
X120522100Y-68996300D01*
%TO.N,Net-(R17-Pad2)*%
X131122100Y-81356300D02*
X131122100Y-90256300D01*
X122572100Y-72806300D02*
X128972100Y-79206300D01*
X128972100Y-79206300D02*
X131122100Y-81356300D01*
%TO.N,Net-(R18-Pad2)*%
X113822100Y-70956300D02*
X116122100Y-73256300D01*
X116122100Y-77856300D02*
X116722100Y-78456300D01*
X116122100Y-73256300D02*
X116122100Y-77856300D01*
%TO.N,Net-(R19-Pad2)*%
X116847100Y-75181300D02*
X116847100Y-75156300D01*
X120222100Y-78556300D02*
X116847100Y-75181300D01*
%TO.N,/button1*%
X96022100Y-74956300D02*
X95922100Y-74856300D01*
X97522100Y-76456300D02*
X96022100Y-74956300D01*
X93722100Y-77056300D02*
X92942100Y-76276300D01*
X102122100Y-76456300D02*
X101942100Y-76276300D01*
X92942100Y-76276300D02*
X90722100Y-76276300D01*
X102122100Y-76456300D02*
X97522100Y-76456300D01*
%TO.N,/button2*%
X89597100Y-79731300D02*
X89922100Y-80056300D01*
X118059905Y-92006300D02*
X111009905Y-84956300D01*
X100122100Y-80056300D02*
X105022100Y-84956300D01*
X89597100Y-74861300D02*
X89597100Y-79731300D01*
X133272100Y-92006300D02*
X118059905Y-92006300D01*
X90722100Y-73736300D02*
X89597100Y-74861300D01*
X89922100Y-80056300D02*
X100122100Y-80056300D01*
X111009905Y-84956300D02*
X105022100Y-84956300D01*
X134322100Y-90956300D02*
X133272100Y-92006300D01*
%TO.N,/button3*%
X146722100Y-106956300D02*
X134322100Y-106956300D01*
%TD*%
%TA.AperFunction,Conductor*%
%TO.N,GND*%
G36*
X74901688Y-112098630D02*
G01*
X75079770Y-112276712D01*
X75181400Y-112350551D01*
X73936017Y-113595933D01*
X73936017Y-113595934D01*
X74124100Y-113750289D01*
X74124104Y-113750292D01*
X74397772Y-113933151D01*
X74397790Y-113933162D01*
X74564821Y-114022442D01*
X74614665Y-114071404D01*
X74630126Y-114139542D01*
X74606294Y-114205222D01*
X74550737Y-114247590D01*
X74506368Y-114255800D01*
X73046600Y-114255800D01*
X72979561Y-114236115D01*
X72933806Y-114183311D01*
X72922600Y-114131800D01*
X72922600Y-112672032D01*
X72942285Y-112604993D01*
X72995089Y-112559238D01*
X73064247Y-112549294D01*
X73127803Y-112578319D01*
X73155958Y-112613579D01*
X73245237Y-112780609D01*
X73245248Y-112780627D01*
X73428107Y-113054295D01*
X73428110Y-113054299D01*
X73582464Y-113242381D01*
X73582465Y-113242381D01*
X74827848Y-111996998D01*
X74901688Y-112098630D01*
G37*
%TD.AperFunction*%
%TA.AperFunction,Conductor*%
G36*
X122303791Y-73679229D02*
G01*
X122364070Y-73691219D01*
X122482618Y-73714799D01*
X122482620Y-73714800D01*
X122482621Y-73714800D01*
X122533334Y-73714800D01*
X122600373Y-73734485D01*
X122621015Y-73751119D01*
X128572586Y-79702692D01*
X128572608Y-79702712D01*
X130452281Y-81582385D01*
X130485766Y-81643708D01*
X130488600Y-81670066D01*
X130488600Y-89553624D01*
X130468915Y-89620663D01*
X130452281Y-89641305D01*
X130416424Y-89677161D01*
X130416421Y-89677165D01*
X130317001Y-89825957D01*
X130316996Y-89825967D01*
X130248513Y-89991299D01*
X130248511Y-89991307D01*
X130213600Y-90166816D01*
X130213600Y-90345783D01*
X130248511Y-90521292D01*
X130248513Y-90521300D01*
X130316996Y-90686632D01*
X130317001Y-90686642D01*
X130416421Y-90835434D01*
X130416424Y-90835438D01*
X130542961Y-90961975D01*
X130542965Y-90961978D01*
X130691757Y-91061398D01*
X130691761Y-91061400D01*
X130691764Y-91061402D01*
X130857100Y-91129887D01*
X130857102Y-91129887D01*
X130857934Y-91130140D01*
X130858316Y-91130390D01*
X130862728Y-91132218D01*
X130862381Y-91133054D01*
X130916372Y-91168438D01*
X130944828Y-91232251D01*
X130934266Y-91301318D01*
X130888041Y-91353711D01*
X130821937Y-91372800D01*
X118373672Y-91372800D01*
X118306633Y-91353115D01*
X118285991Y-91336481D01*
X111413741Y-84464231D01*
X111413737Y-84464228D01*
X111309986Y-84394903D01*
X111309977Y-84394898D01*
X111194690Y-84347145D01*
X111194682Y-84347143D01*
X111072303Y-84322800D01*
X111072299Y-84322800D01*
X108946483Y-84322800D01*
X108933165Y-84318889D01*
X108919315Y-84319787D01*
X108900302Y-84309239D01*
X108879444Y-84303115D01*
X108870356Y-84292627D01*
X108858217Y-84285893D01*
X108847923Y-84266738D01*
X108833689Y-84250311D01*
X108831034Y-84235309D01*
X108825143Y-84224347D01*
X108825014Y-84201296D01*
X108822861Y-84189127D01*
X108823433Y-84181805D01*
X108830600Y-84145779D01*
X108830600Y-84090223D01*
X108830978Y-84085393D01*
X108841753Y-84057083D01*
X108850285Y-84028027D01*
X108855074Y-84022083D01*
X108855832Y-84020093D01*
X108857921Y-84018550D01*
X108866919Y-84007385D01*
X115214168Y-77660136D01*
X115214171Y-77660133D01*
X115251901Y-77603666D01*
X115261498Y-77589304D01*
X115315110Y-77544499D01*
X115384435Y-77535792D01*
X115447463Y-77565947D01*
X115484182Y-77625390D01*
X115488600Y-77658195D01*
X115488600Y-77918698D01*
X115512943Y-78041077D01*
X115512945Y-78041085D01*
X115560698Y-78156372D01*
X115560703Y-78156381D01*
X115630027Y-78260131D01*
X115630028Y-78260132D01*
X115630029Y-78260133D01*
X115777282Y-78407386D01*
X115810766Y-78468708D01*
X115813600Y-78495066D01*
X115813600Y-78545783D01*
X115848511Y-78721292D01*
X115848513Y-78721300D01*
X115916996Y-78886632D01*
X115917001Y-78886642D01*
X116016421Y-79035434D01*
X116016424Y-79035438D01*
X116142961Y-79161975D01*
X116142965Y-79161978D01*
X116291757Y-79261398D01*
X116291761Y-79261400D01*
X116291764Y-79261402D01*
X116457100Y-79329887D01*
X116615518Y-79361398D01*
X116632616Y-79364799D01*
X116632620Y-79364800D01*
X116632621Y-79364800D01*
X116811580Y-79364800D01*
X116811581Y-79364799D01*
X116987100Y-79329887D01*
X117152436Y-79261402D01*
X117301235Y-79161978D01*
X117427778Y-79035435D01*
X117527202Y-78886636D01*
X117595687Y-78721300D01*
X117630600Y-78545779D01*
X117630600Y-78366821D01*
X117595687Y-78191300D01*
X117527202Y-78025964D01*
X117527200Y-78025961D01*
X117527198Y-78025957D01*
X117427778Y-77877165D01*
X117427775Y-77877161D01*
X117301238Y-77750624D01*
X117301234Y-77750621D01*
X117152442Y-77651201D01*
X117152432Y-77651196D01*
X116987100Y-77582713D01*
X116987094Y-77582711D01*
X116855408Y-77556517D01*
X116793497Y-77524132D01*
X116758923Y-77463416D01*
X116755600Y-77434900D01*
X116755600Y-76285066D01*
X116775285Y-76218027D01*
X116828089Y-76172272D01*
X116897247Y-76162328D01*
X116960803Y-76191353D01*
X116967281Y-76197385D01*
X119277281Y-78507385D01*
X119310766Y-78568708D01*
X119313600Y-78595066D01*
X119313600Y-78645783D01*
X119348511Y-78821292D01*
X119348513Y-78821300D01*
X119416996Y-78986632D01*
X119417001Y-78986642D01*
X119516421Y-79135434D01*
X119516424Y-79135438D01*
X119642961Y-79261975D01*
X119642965Y-79261978D01*
X119791757Y-79361398D01*
X119791761Y-79361400D01*
X119791764Y-79361402D01*
X119957100Y-79429887D01*
X120132616Y-79464799D01*
X120132620Y-79464800D01*
X120132621Y-79464800D01*
X120311580Y-79464800D01*
X120311581Y-79464799D01*
X120487100Y-79429887D01*
X120652436Y-79361402D01*
X120695709Y-79332487D01*
X120762386Y-79311610D01*
X120829766Y-79330094D01*
X120876457Y-79382073D01*
X120888600Y-79435590D01*
X120888600Y-82553624D01*
X120868915Y-82620663D01*
X120852281Y-82641305D01*
X120816424Y-82677161D01*
X120816421Y-82677165D01*
X120717001Y-82825957D01*
X120716996Y-82825967D01*
X120648513Y-82991299D01*
X120648511Y-82991307D01*
X120613600Y-83166816D01*
X120613600Y-83345783D01*
X120648511Y-83521292D01*
X120648513Y-83521300D01*
X120716996Y-83686632D01*
X120717001Y-83686642D01*
X120816421Y-83835434D01*
X120816424Y-83835438D01*
X120942961Y-83961975D01*
X120942965Y-83961978D01*
X121091757Y-84061398D01*
X121091761Y-84061400D01*
X121091764Y-84061402D01*
X121257100Y-84129887D01*
X121432616Y-84164799D01*
X121432620Y-84164800D01*
X121432621Y-84164800D01*
X121611580Y-84164800D01*
X121611581Y-84164799D01*
X121787100Y-84129887D01*
X121952436Y-84061402D01*
X122101235Y-83961978D01*
X122227778Y-83835435D01*
X122327202Y-83686636D01*
X122395687Y-83521300D01*
X122430600Y-83345779D01*
X122430600Y-83166821D01*
X122426253Y-83144966D01*
X122401978Y-83022923D01*
X122398134Y-83003598D01*
X123713600Y-83003598D01*
X123713600Y-83193831D01*
X123743356Y-83381706D01*
X123802140Y-83562622D01*
X123848712Y-83654023D01*
X123888498Y-83732107D01*
X124000308Y-83886000D01*
X124134815Y-84020507D01*
X124288708Y-84132317D01*
X124368783Y-84173117D01*
X124458192Y-84218674D01*
X124458194Y-84218674D01*
X124458197Y-84218676D01*
X124536755Y-84244201D01*
X124639108Y-84277458D01*
X124826984Y-84307215D01*
X124826989Y-84307215D01*
X125017216Y-84307215D01*
X125205091Y-84277458D01*
X125386003Y-84218676D01*
X125555492Y-84132317D01*
X125709385Y-84020507D01*
X125843892Y-83886000D01*
X125955702Y-83732107D01*
X126042061Y-83562618D01*
X126100843Y-83381706D01*
X126106533Y-83345779D01*
X126130600Y-83193831D01*
X126130600Y-83003598D01*
X126100843Y-82815723D01*
X126065681Y-82707507D01*
X126042061Y-82634812D01*
X126042059Y-82634809D01*
X126042059Y-82634807D01*
X125960851Y-82475429D01*
X125955702Y-82465323D01*
X125843892Y-82311430D01*
X125709385Y-82176923D01*
X125555492Y-82065113D01*
X125386007Y-81978755D01*
X125205091Y-81919971D01*
X125017216Y-81890215D01*
X125017211Y-81890215D01*
X124826989Y-81890215D01*
X124826984Y-81890215D01*
X124639108Y-81919971D01*
X124458192Y-81978755D01*
X124288707Y-82065113D01*
X124215757Y-82118115D01*
X124134815Y-82176923D01*
X124134813Y-82176925D01*
X124134812Y-82176925D01*
X124000310Y-82311427D01*
X124000310Y-82311428D01*
X124000308Y-82311430D01*
X123969112Y-82354368D01*
X123888498Y-82465322D01*
X123802140Y-82634807D01*
X123743356Y-82815723D01*
X123713600Y-83003598D01*
X122398134Y-83003598D01*
X122395688Y-82991305D01*
X122395687Y-82991304D01*
X122395687Y-82991300D01*
X122327202Y-82825964D01*
X122327200Y-82825961D01*
X122327198Y-82825957D01*
X122227778Y-82677165D01*
X122227775Y-82677161D01*
X122191919Y-82641305D01*
X122158434Y-82579982D01*
X122155600Y-82553624D01*
X122155600Y-73800846D01*
X122175285Y-73733807D01*
X122228089Y-73688052D01*
X122297247Y-73678108D01*
X122303791Y-73679229D01*
G37*
%TD.AperFunction*%
%TA.AperFunction,Conductor*%
G36*
X99875373Y-80709485D02*
G01*
X99896015Y-80726119D01*
X103023430Y-83853534D01*
X103056915Y-83914857D01*
X103051931Y-83984549D01*
X103010059Y-84040482D01*
X102944595Y-84064899D01*
X102935749Y-84065215D01*
X99957048Y-84065215D01*
X99890009Y-84045530D01*
X99844254Y-83992726D01*
X99834310Y-83923568D01*
X99856729Y-83868331D01*
X99955702Y-83732107D01*
X100042061Y-83562618D01*
X100100843Y-83381706D01*
X100106533Y-83345779D01*
X100130600Y-83193831D01*
X100130600Y-83003598D01*
X100100843Y-82815723D01*
X100065681Y-82707507D01*
X100042061Y-82634812D01*
X100042059Y-82634809D01*
X100042059Y-82634807D01*
X99960851Y-82475429D01*
X99955702Y-82465323D01*
X99843892Y-82311430D01*
X99709385Y-82176923D01*
X99555492Y-82065113D01*
X99386007Y-81978755D01*
X99205091Y-81919971D01*
X99017216Y-81890215D01*
X99017211Y-81890215D01*
X98826989Y-81890215D01*
X98826984Y-81890215D01*
X98639108Y-81919971D01*
X98458192Y-81978755D01*
X98288707Y-82065113D01*
X98215757Y-82118115D01*
X98134815Y-82176923D01*
X98134813Y-82176925D01*
X98134812Y-82176925D01*
X98000310Y-82311427D01*
X98000310Y-82311428D01*
X98000308Y-82311430D01*
X97969112Y-82354368D01*
X97888498Y-82465322D01*
X97802140Y-82634807D01*
X97743356Y-82815723D01*
X97713600Y-83003598D01*
X97713600Y-83193831D01*
X97743356Y-83381706D01*
X97802140Y-83562622D01*
X97848712Y-83654023D01*
X97888498Y-83732107D01*
X97987470Y-83868331D01*
X98010950Y-83934135D01*
X97995125Y-84002189D01*
X97945019Y-84050884D01*
X97887152Y-84065215D01*
X96835866Y-84065215D01*
X96768827Y-84045530D01*
X96748185Y-84028896D01*
X94998521Y-82279231D01*
X94998517Y-82279228D01*
X94894766Y-82209903D01*
X94894757Y-82209898D01*
X94779470Y-82162145D01*
X94779462Y-82162143D01*
X94657083Y-82137800D01*
X94657079Y-82137800D01*
X91994819Y-82137800D01*
X91927780Y-82118115D01*
X91882025Y-82065311D01*
X91872081Y-81996153D01*
X91884334Y-81957505D01*
X91934732Y-81858594D01*
X91934732Y-81858593D01*
X91934734Y-81858590D01*
X91998380Y-81662708D01*
X92030600Y-81459281D01*
X92030600Y-81253319D01*
X92023153Y-81206300D01*
X91998380Y-81049891D01*
X91960099Y-80932076D01*
X91934734Y-80854010D01*
X91934732Y-80854006D01*
X91934119Y-80852119D01*
X91932124Y-80782277D01*
X91968204Y-80722444D01*
X92030905Y-80691616D01*
X92052050Y-80689800D01*
X99808334Y-80689800D01*
X99875373Y-80709485D01*
G37*
%TD.AperFunction*%
%TA.AperFunction,Conductor*%
G36*
X160428930Y-47846776D02*
G01*
X160474698Y-47899569D01*
X160484658Y-47968725D01*
X160455649Y-48032288D01*
X160420370Y-48060466D01*
X160197782Y-48179442D01*
X160197772Y-48179448D01*
X159924104Y-48362307D01*
X159924099Y-48362310D01*
X159736017Y-48516664D01*
X159736017Y-48516665D01*
X160981401Y-49762048D01*
X160879770Y-49835888D01*
X160701688Y-50013970D01*
X160627848Y-50115601D01*
X159382465Y-48870217D01*
X159382464Y-48870217D01*
X159228110Y-49058299D01*
X159228107Y-49058304D01*
X159045248Y-49331972D01*
X159045237Y-49331990D01*
X158890087Y-49622255D01*
X158890085Y-49622260D01*
X158764125Y-49926353D01*
X158668575Y-50241338D01*
X158668574Y-50241343D01*
X158604361Y-50564160D01*
X158572100Y-50891728D01*
X158572100Y-51220871D01*
X158604361Y-51548439D01*
X158668574Y-51871256D01*
X158668575Y-51871261D01*
X158764125Y-52186246D01*
X158890085Y-52490339D01*
X158890087Y-52490344D01*
X159045237Y-52780609D01*
X159045248Y-52780627D01*
X159228107Y-53054295D01*
X159228110Y-53054299D01*
X159382464Y-53242381D01*
X159382465Y-53242381D01*
X160627848Y-51996998D01*
X160701688Y-52098630D01*
X160879770Y-52276712D01*
X160981400Y-52350551D01*
X159736017Y-53595933D01*
X159736017Y-53595934D01*
X159924100Y-53750289D01*
X159924104Y-53750292D01*
X160197772Y-53933151D01*
X160197790Y-53933162D01*
X160488055Y-54088312D01*
X160488060Y-54088314D01*
X160792153Y-54214274D01*
X161107138Y-54309824D01*
X161107143Y-54309825D01*
X161429960Y-54374038D01*
X161757528Y-54406300D01*
X162086672Y-54406300D01*
X162414239Y-54374038D01*
X162737056Y-54309825D01*
X162737061Y-54309824D01*
X163052046Y-54214274D01*
X163356139Y-54088314D01*
X163356144Y-54088312D01*
X163646409Y-53933162D01*
X163646427Y-53933151D01*
X163920104Y-53750286D01*
X164108181Y-53595935D01*
X164108182Y-53595934D01*
X162862798Y-52350551D01*
X162964430Y-52276712D01*
X163142512Y-52098630D01*
X163216351Y-51996999D01*
X164461734Y-53242382D01*
X164461735Y-53242381D01*
X164616086Y-53054304D01*
X164798951Y-52780627D01*
X164798962Y-52780609D01*
X164888242Y-52613579D01*
X164937204Y-52563735D01*
X165005342Y-52548274D01*
X165071022Y-52572106D01*
X165113390Y-52627663D01*
X165121600Y-52672032D01*
X165121600Y-114102030D01*
X165101915Y-114169069D01*
X165049111Y-114214824D01*
X164997698Y-114226030D01*
X127286682Y-114255800D01*
X77737832Y-114255800D01*
X77670793Y-114236115D01*
X77625038Y-114183311D01*
X77615094Y-114114153D01*
X77644119Y-114050597D01*
X77679379Y-114022442D01*
X77846409Y-113933162D01*
X77846427Y-113933151D01*
X78120104Y-113750286D01*
X78308181Y-113595935D01*
X78308182Y-113595934D01*
X77062798Y-112350551D01*
X77164430Y-112276712D01*
X77342512Y-112098630D01*
X77416351Y-111996999D01*
X78661734Y-113242382D01*
X78661735Y-113242381D01*
X78816086Y-113054304D01*
X78998951Y-112780627D01*
X78998962Y-112780609D01*
X79154112Y-112490344D01*
X79154114Y-112490339D01*
X79280074Y-112186246D01*
X79375624Y-111871261D01*
X79375625Y-111871256D01*
X79439838Y-111548439D01*
X79472100Y-111220871D01*
X79472100Y-110891728D01*
X79439838Y-110564160D01*
X79375625Y-110241343D01*
X79375624Y-110241338D01*
X79280074Y-109926353D01*
X79154114Y-109622260D01*
X79154112Y-109622255D01*
X78998962Y-109331990D01*
X78998951Y-109331972D01*
X78816092Y-109058304D01*
X78816089Y-109058300D01*
X78661734Y-108870217D01*
X78661733Y-108870217D01*
X77416350Y-110115600D01*
X77342512Y-110013970D01*
X77164430Y-109835888D01*
X77062797Y-109762047D01*
X78308181Y-108516665D01*
X78308181Y-108516664D01*
X78120099Y-108362310D01*
X78120095Y-108362307D01*
X77846427Y-108179448D01*
X77846409Y-108179437D01*
X77556144Y-108024287D01*
X77556139Y-108024285D01*
X77252046Y-107898325D01*
X76937061Y-107802775D01*
X76937056Y-107802774D01*
X76614239Y-107738561D01*
X76286672Y-107706300D01*
X75957528Y-107706300D01*
X75629960Y-107738561D01*
X75307143Y-107802774D01*
X75307138Y-107802775D01*
X74992153Y-107898325D01*
X74688060Y-108024285D01*
X74688055Y-108024287D01*
X74397790Y-108179437D01*
X74397772Y-108179448D01*
X74124104Y-108362307D01*
X74124099Y-108362310D01*
X73936017Y-108516664D01*
X73936017Y-108516665D01*
X75181401Y-109762048D01*
X75079770Y-109835888D01*
X74901688Y-110013970D01*
X74827848Y-110115601D01*
X73582465Y-108870217D01*
X73582464Y-108870217D01*
X73428110Y-109058299D01*
X73428107Y-109058304D01*
X73245248Y-109331972D01*
X73245237Y-109331990D01*
X73155958Y-109499020D01*
X73106996Y-109548865D01*
X73038858Y-109564325D01*
X72973178Y-109540493D01*
X72930809Y-109484935D01*
X72922600Y-109440567D01*
X72922600Y-104938247D01*
X76622100Y-104938247D01*
X76622100Y-105174352D01*
X76659034Y-105407547D01*
X76731997Y-105632102D01*
X76839187Y-105842474D01*
X76899438Y-105925404D01*
X76899440Y-105925405D01*
X77639137Y-105185708D01*
X77656175Y-105249293D01*
X77722001Y-105363307D01*
X77815093Y-105456399D01*
X77929107Y-105522225D01*
X77992690Y-105539262D01*
X77252993Y-106278958D01*
X77335928Y-106339214D01*
X77546297Y-106446402D01*
X77770852Y-106519365D01*
X77770851Y-106519365D01*
X78004048Y-106556300D01*
X78240152Y-106556300D01*
X78473347Y-106519365D01*
X78697902Y-106446402D01*
X78908263Y-106339218D01*
X78908269Y-106339214D01*
X78991204Y-106278958D01*
X78991205Y-106278958D01*
X78251508Y-105539262D01*
X78315093Y-105522225D01*
X78429107Y-105456399D01*
X78522199Y-105363307D01*
X78588025Y-105249293D01*
X78605062Y-105185709D01*
X79344758Y-105925405D01*
X79344758Y-105925404D01*
X79405014Y-105842469D01*
X79405018Y-105842463D01*
X79512202Y-105632102D01*
X79585165Y-105407547D01*
X79622100Y-105174352D01*
X79622100Y-104938247D01*
X79585165Y-104705052D01*
X79512202Y-104480497D01*
X79405014Y-104270128D01*
X79344758Y-104187194D01*
X79344758Y-104187193D01*
X78605062Y-104926890D01*
X78588025Y-104863307D01*
X78522199Y-104749293D01*
X78429107Y-104656201D01*
X78315093Y-104590375D01*
X78251509Y-104573337D01*
X78991205Y-103833640D01*
X78991204Y-103833638D01*
X78908274Y-103773387D01*
X78697902Y-103666197D01*
X78473347Y-103593234D01*
X78473348Y-103593234D01*
X78240152Y-103556300D01*
X78004048Y-103556300D01*
X77770852Y-103593234D01*
X77546297Y-103666197D01*
X77335930Y-103773384D01*
X77252994Y-103833640D01*
X77992691Y-104573337D01*
X77929107Y-104590375D01*
X77815093Y-104656201D01*
X77722001Y-104749293D01*
X77656175Y-104863307D01*
X77639137Y-104926891D01*
X76899440Y-104187194D01*
X76839184Y-104270130D01*
X76731997Y-104480497D01*
X76659034Y-104705052D01*
X76622100Y-104938247D01*
X72922600Y-104938247D01*
X72922600Y-52672032D01*
X72942285Y-52604993D01*
X72995089Y-52559238D01*
X73064247Y-52549294D01*
X73127803Y-52578319D01*
X73155958Y-52613579D01*
X73245237Y-52780609D01*
X73245248Y-52780627D01*
X73428107Y-53054295D01*
X73428110Y-53054299D01*
X73582464Y-53242381D01*
X73582465Y-53242381D01*
X74827848Y-51996998D01*
X74901688Y-52098630D01*
X75079770Y-52276712D01*
X75181400Y-52350551D01*
X73936017Y-53595933D01*
X73936017Y-53595934D01*
X74124100Y-53750289D01*
X74124104Y-53750292D01*
X74397772Y-53933151D01*
X74397790Y-53933162D01*
X74688055Y-54088312D01*
X74688060Y-54088314D01*
X74992153Y-54214274D01*
X75307138Y-54309824D01*
X75307143Y-54309825D01*
X75629960Y-54374038D01*
X75957528Y-54406300D01*
X76286672Y-54406300D01*
X76614239Y-54374038D01*
X76937056Y-54309825D01*
X76937061Y-54309824D01*
X77252046Y-54214274D01*
X77556139Y-54088314D01*
X77556144Y-54088312D01*
X77846409Y-53933162D01*
X77846427Y-53933151D01*
X78120104Y-53750286D01*
X78308181Y-53595935D01*
X78308182Y-53595934D01*
X77062798Y-52350551D01*
X77164430Y-52276712D01*
X77342512Y-52098630D01*
X77416351Y-51996999D01*
X78661734Y-53242382D01*
X78661735Y-53242381D01*
X78816086Y-53054304D01*
X78998951Y-52780627D01*
X78998962Y-52780609D01*
X79154112Y-52490344D01*
X79154114Y-52490339D01*
X79280074Y-52186246D01*
X79375624Y-51871261D01*
X79375625Y-51871256D01*
X79439838Y-51548439D01*
X79472100Y-51220871D01*
X79472100Y-50891728D01*
X79439838Y-50564160D01*
X79375625Y-50241343D01*
X79375624Y-50241338D01*
X79280074Y-49926353D01*
X79154114Y-49622260D01*
X79154112Y-49622255D01*
X78998962Y-49331990D01*
X78998951Y-49331972D01*
X78816092Y-49058304D01*
X78816089Y-49058300D01*
X78661734Y-48870217D01*
X78661733Y-48870217D01*
X77416350Y-50115600D01*
X77342512Y-50013970D01*
X77164430Y-49835888D01*
X77062797Y-49762047D01*
X78308181Y-48516665D01*
X78308181Y-48516664D01*
X78120099Y-48362310D01*
X78120095Y-48362307D01*
X77846427Y-48179448D01*
X77846417Y-48179442D01*
X77662033Y-48080886D01*
X77612189Y-48031923D01*
X77596729Y-47963786D01*
X77620561Y-47898106D01*
X77676119Y-47855737D01*
X77720448Y-47847529D01*
X88738299Y-47844806D01*
X88805341Y-47864474D01*
X88851109Y-47917267D01*
X88861069Y-47986423D01*
X88832060Y-48049986D01*
X88826008Y-48056487D01*
X88624850Y-48257646D01*
X88518267Y-48364229D01*
X88474147Y-48408349D01*
X88430027Y-48452468D01*
X88360703Y-48556218D01*
X88360698Y-48556227D01*
X88312945Y-48671514D01*
X88312943Y-48671522D01*
X88288600Y-48793901D01*
X88288600Y-48953624D01*
X88268915Y-49020663D01*
X88252281Y-49041305D01*
X88216424Y-49077161D01*
X88216421Y-49077165D01*
X88117001Y-49225957D01*
X88116996Y-49225967D01*
X88048513Y-49391299D01*
X88048511Y-49391307D01*
X88013600Y-49566816D01*
X88013600Y-49745783D01*
X88048511Y-49921292D01*
X88048513Y-49921300D01*
X88073242Y-49981001D01*
X88080710Y-50050470D01*
X88049434Y-50112949D01*
X88046361Y-50116133D01*
X77002281Y-61160214D01*
X76940958Y-61193699D01*
X76871266Y-61188715D01*
X76815333Y-61146843D01*
X76790916Y-61081379D01*
X76790600Y-61072533D01*
X76790600Y-60933319D01*
X76758380Y-60729891D01*
X76716376Y-60600618D01*
X76694734Y-60534010D01*
X76694732Y-60534007D01*
X76694732Y-60534005D01*
X76653611Y-60453302D01*
X76601229Y-60350497D01*
X76569485Y-60306805D01*
X76480173Y-60183876D01*
X76480169Y-60183871D01*
X76334528Y-60038230D01*
X76334523Y-60038226D01*
X76167906Y-59917173D01*
X76167905Y-59917172D01*
X76167903Y-59917171D01*
X76110596Y-59887971D01*
X75984394Y-59823667D01*
X75788508Y-59760019D01*
X75612894Y-59732205D01*
X75585081Y-59727800D01*
X75379119Y-59727800D01*
X75354650Y-59731675D01*
X75175691Y-59760019D01*
X74979805Y-59823667D01*
X74796293Y-59917173D01*
X74629676Y-60038226D01*
X74629671Y-60038230D01*
X74484030Y-60183871D01*
X74484026Y-60183876D01*
X74362973Y-60350493D01*
X74269467Y-60534005D01*
X74205819Y-60729891D01*
X74173600Y-60933319D01*
X74173600Y-61139281D01*
X74178005Y-61167094D01*
X74205819Y-61342708D01*
X74269467Y-61538594D01*
X74362973Y-61722106D01*
X74484026Y-61888723D01*
X74484030Y-61888728D01*
X74629671Y-62034369D01*
X74629676Y-62034373D01*
X74796295Y-62155428D01*
X74875559Y-62195816D01*
X74926354Y-62243790D01*
X74943149Y-62311611D01*
X74920611Y-62377746D01*
X74875559Y-62416784D01*
X74796295Y-62457171D01*
X74629676Y-62578226D01*
X74629671Y-62578230D01*
X74484030Y-62723871D01*
X74484026Y-62723876D01*
X74362973Y-62890493D01*
X74269467Y-63074005D01*
X74205819Y-63269891D01*
X74173600Y-63473319D01*
X74173600Y-63679280D01*
X74205819Y-63882708D01*
X74269467Y-64078594D01*
X74293595Y-64125946D01*
X74361967Y-64260133D01*
X74362973Y-64262106D01*
X74484026Y-64428723D01*
X74484030Y-64428728D01*
X74629671Y-64574369D01*
X74629676Y-64574373D01*
X74796295Y-64695428D01*
X74875559Y-64735816D01*
X74926354Y-64783790D01*
X74943149Y-64851611D01*
X74920611Y-64917746D01*
X74875559Y-64956784D01*
X74796295Y-64997171D01*
X74629676Y-65118226D01*
X74629671Y-65118230D01*
X74484030Y-65263871D01*
X74484026Y-65263876D01*
X74362973Y-65430493D01*
X74269467Y-65614005D01*
X74205819Y-65809891D01*
X74173600Y-66013319D01*
X74173600Y-66219280D01*
X74205819Y-66422708D01*
X74269467Y-66618594D01*
X74362973Y-66802106D01*
X74484026Y-66968723D01*
X74484030Y-66968728D01*
X74629671Y-67114369D01*
X74629676Y-67114373D01*
X74796295Y-67235428D01*
X74875559Y-67275816D01*
X74926354Y-67323790D01*
X74943149Y-67391611D01*
X74920611Y-67457746D01*
X74875559Y-67496784D01*
X74796295Y-67537171D01*
X74629676Y-67658226D01*
X74629671Y-67658230D01*
X74484030Y-67803871D01*
X74484026Y-67803876D01*
X74362973Y-67970493D01*
X74269467Y-68154005D01*
X74205819Y-68349891D01*
X74173600Y-68553319D01*
X74173600Y-68759280D01*
X74205819Y-68962708D01*
X74269467Y-69158594D01*
X74362973Y-69342106D01*
X74484026Y-69508723D01*
X74484030Y-69508728D01*
X74629671Y-69654369D01*
X74629676Y-69654373D01*
X74796295Y-69775428D01*
X74875559Y-69815816D01*
X74926354Y-69863790D01*
X74943149Y-69931611D01*
X74920611Y-69997746D01*
X74875559Y-70036784D01*
X74796295Y-70077171D01*
X74629676Y-70198226D01*
X74629671Y-70198230D01*
X74484030Y-70343871D01*
X74484026Y-70343876D01*
X74362973Y-70510493D01*
X74269467Y-70694005D01*
X74205819Y-70889891D01*
X74173600Y-71093319D01*
X74173600Y-71299280D01*
X74205819Y-71502708D01*
X74269467Y-71698594D01*
X74327126Y-71811753D01*
X74336365Y-71829887D01*
X74362973Y-71882106D01*
X74484026Y-72048723D01*
X74484030Y-72048728D01*
X74629671Y-72194369D01*
X74629676Y-72194373D01*
X74796295Y-72315428D01*
X74875559Y-72355816D01*
X74926354Y-72403790D01*
X74943149Y-72471611D01*
X74920611Y-72537746D01*
X74875559Y-72576784D01*
X74796295Y-72617171D01*
X74629676Y-72738226D01*
X74629671Y-72738230D01*
X74484030Y-72883871D01*
X74484026Y-72883876D01*
X74362973Y-73050493D01*
X74269467Y-73234005D01*
X74205819Y-73429891D01*
X74173600Y-73633319D01*
X74173600Y-73839280D01*
X74205819Y-74042708D01*
X74269467Y-74238594D01*
X74315864Y-74329651D01*
X74362237Y-74420663D01*
X74362973Y-74422106D01*
X74484026Y-74588723D01*
X74484030Y-74588728D01*
X74629671Y-74734369D01*
X74629676Y-74734373D01*
X74796295Y-74855428D01*
X74875559Y-74895816D01*
X74926354Y-74943790D01*
X74943149Y-75011611D01*
X74920611Y-75077746D01*
X74875559Y-75116784D01*
X74796295Y-75157171D01*
X74629676Y-75278226D01*
X74629671Y-75278230D01*
X74484030Y-75423871D01*
X74484026Y-75423876D01*
X74362973Y-75590493D01*
X74269467Y-75774005D01*
X74205819Y-75969891D01*
X74175341Y-76162328D01*
X74173600Y-76173319D01*
X74173600Y-76379281D01*
X74178005Y-76407094D01*
X74205819Y-76582708D01*
X74269467Y-76778594D01*
X74362973Y-76962106D01*
X74484026Y-77128723D01*
X74484030Y-77128728D01*
X74629671Y-77274369D01*
X74629676Y-77274373D01*
X74796295Y-77395428D01*
X74875559Y-77435816D01*
X74926354Y-77483790D01*
X74943149Y-77551611D01*
X74920611Y-77617746D01*
X74875559Y-77656784D01*
X74796295Y-77697171D01*
X74629676Y-77818226D01*
X74629671Y-77818230D01*
X74484030Y-77963871D01*
X74484026Y-77963876D01*
X74362973Y-78130493D01*
X74269467Y-78314005D01*
X74205819Y-78509891D01*
X74173600Y-78713319D01*
X74173600Y-78919281D01*
X74178005Y-78947094D01*
X74205819Y-79122708D01*
X74269467Y-79318594D01*
X74312534Y-79403115D01*
X74356863Y-79490116D01*
X74362973Y-79502106D01*
X74484026Y-79668723D01*
X74484030Y-79668728D01*
X74629671Y-79814369D01*
X74629676Y-79814373D01*
X74796295Y-79935428D01*
X74875559Y-79975816D01*
X74926354Y-80023790D01*
X74943149Y-80091611D01*
X74920611Y-80157746D01*
X74875559Y-80196784D01*
X74796295Y-80237171D01*
X74629676Y-80358226D01*
X74629671Y-80358230D01*
X74484030Y-80503871D01*
X74484026Y-80503876D01*
X74362973Y-80670493D01*
X74269467Y-80854005D01*
X74205819Y-81049891D01*
X74173600Y-81253319D01*
X74173600Y-81459280D01*
X74205819Y-81662708D01*
X74269467Y-81858594D01*
X74362973Y-82042106D01*
X74484026Y-82208723D01*
X74484030Y-82208728D01*
X74629671Y-82354369D01*
X74629676Y-82354373D01*
X74796295Y-82475428D01*
X74875559Y-82515816D01*
X74926354Y-82563790D01*
X74943149Y-82631611D01*
X74920611Y-82697746D01*
X74875559Y-82736784D01*
X74796295Y-82777171D01*
X74629676Y-82898226D01*
X74629671Y-82898230D01*
X74484030Y-83043871D01*
X74484026Y-83043876D01*
X74362973Y-83210493D01*
X74269467Y-83394005D01*
X74205819Y-83589891D01*
X74173600Y-83793319D01*
X74173600Y-83999280D01*
X74205819Y-84202708D01*
X74269467Y-84398594D01*
X74362973Y-84582106D01*
X74484026Y-84748723D01*
X74484030Y-84748728D01*
X74629671Y-84894369D01*
X74629676Y-84894373D01*
X74796295Y-85015428D01*
X74875559Y-85055816D01*
X74926354Y-85103790D01*
X74943149Y-85171611D01*
X74920611Y-85237746D01*
X74875559Y-85276784D01*
X74796295Y-85317171D01*
X74629676Y-85438226D01*
X74629671Y-85438230D01*
X74484030Y-85583871D01*
X74484026Y-85583876D01*
X74362973Y-85750493D01*
X74269467Y-85934005D01*
X74205819Y-86129891D01*
X74173600Y-86333319D01*
X74173600Y-86539280D01*
X74205819Y-86742708D01*
X74269467Y-86938594D01*
X74312883Y-87023800D01*
X74358679Y-87113680D01*
X74362973Y-87122106D01*
X74484026Y-87288723D01*
X74484030Y-87288728D01*
X74629671Y-87434369D01*
X74629676Y-87434373D01*
X74796295Y-87555428D01*
X74875559Y-87595816D01*
X74926354Y-87643790D01*
X74943149Y-87711611D01*
X74920611Y-87777746D01*
X74875559Y-87816784D01*
X74796295Y-87857171D01*
X74629676Y-87978226D01*
X74629671Y-87978230D01*
X74484030Y-88123871D01*
X74484026Y-88123876D01*
X74362973Y-88290493D01*
X74269467Y-88474005D01*
X74205819Y-88669891D01*
X74173600Y-88873319D01*
X74173600Y-89079280D01*
X74205819Y-89282708D01*
X74269467Y-89478594D01*
X74321128Y-89579982D01*
X74353596Y-89643704D01*
X74362973Y-89662106D01*
X74484026Y-89828723D01*
X74484030Y-89828728D01*
X74629671Y-89974369D01*
X74629676Y-89974373D01*
X74796295Y-90095428D01*
X74875559Y-90135816D01*
X74926354Y-90183790D01*
X74943149Y-90251611D01*
X74920611Y-90317746D01*
X74875559Y-90356784D01*
X74796295Y-90397171D01*
X74629676Y-90518226D01*
X74629671Y-90518230D01*
X74484030Y-90663871D01*
X74484026Y-90663876D01*
X74362973Y-90830493D01*
X74269467Y-91014005D01*
X74205819Y-91209891D01*
X74173600Y-91413319D01*
X74173600Y-91619280D01*
X74205819Y-91822708D01*
X74269467Y-92018594D01*
X74362973Y-92202106D01*
X74484026Y-92368723D01*
X74484030Y-92368728D01*
X74629671Y-92514369D01*
X74629676Y-92514373D01*
X74738257Y-92593261D01*
X74796297Y-92635429D01*
X74884919Y-92680584D01*
X74935715Y-92728559D01*
X74952510Y-92796380D01*
X74929973Y-92862514D01*
X74884919Y-92901554D01*
X74800750Y-92944440D01*
X74635205Y-93064717D01*
X74635204Y-93064717D01*
X74490517Y-93209404D01*
X74490517Y-93209405D01*
X74370240Y-93374950D01*
X74277344Y-93557270D01*
X74214109Y-93751886D01*
X74205491Y-93806300D01*
X75049088Y-93806300D01*
X75016175Y-93863307D01*
X74982100Y-93990474D01*
X74982100Y-94122126D01*
X75016175Y-94249293D01*
X75049088Y-94306300D01*
X74205491Y-94306300D01*
X74214109Y-94360713D01*
X74277344Y-94555329D01*
X74370240Y-94737649D01*
X74490517Y-94903194D01*
X74490517Y-94903195D01*
X74635204Y-95047882D01*
X74800752Y-95168161D01*
X74884918Y-95211045D01*
X74935714Y-95259019D01*
X74952510Y-95326840D01*
X74929973Y-95392975D01*
X74884920Y-95432014D01*
X74796295Y-95477171D01*
X74629676Y-95598226D01*
X74629671Y-95598230D01*
X74484030Y-95743871D01*
X74484026Y-95743876D01*
X74362973Y-95910493D01*
X74269467Y-96094005D01*
X74205819Y-96289891D01*
X74173600Y-96493319D01*
X74173600Y-96699280D01*
X74205819Y-96902708D01*
X74269467Y-97098594D01*
X74325734Y-97209022D01*
X74362041Y-97280278D01*
X74362973Y-97282106D01*
X74484026Y-97448723D01*
X74484030Y-97448728D01*
X74629671Y-97594369D01*
X74629676Y-97594373D01*
X74737880Y-97672987D01*
X74796297Y-97715429D01*
X74880167Y-97758163D01*
X74979805Y-97808932D01*
X74979807Y-97808932D01*
X74979810Y-97808934D01*
X75077139Y-97840558D01*
X75175691Y-97872580D01*
X75277405Y-97888690D01*
X75379119Y-97904800D01*
X75379120Y-97904800D01*
X75585080Y-97904800D01*
X75585081Y-97904800D01*
X75788508Y-97872580D01*
X75984390Y-97808934D01*
X76167903Y-97715429D01*
X76334530Y-97594368D01*
X76480168Y-97448730D01*
X76601229Y-97282103D01*
X76694734Y-97098590D01*
X76758380Y-96902708D01*
X76790600Y-96699281D01*
X76790600Y-96493319D01*
X76758380Y-96289892D01*
X76738989Y-96230214D01*
X76728849Y-96199007D01*
X76694734Y-96094010D01*
X76694732Y-96094007D01*
X76694732Y-96094005D01*
X76658417Y-96022735D01*
X76601229Y-95910497D01*
X76563509Y-95858579D01*
X76480173Y-95743876D01*
X76480169Y-95743871D01*
X76334528Y-95598230D01*
X76334523Y-95598226D01*
X76167906Y-95477173D01*
X76167905Y-95477172D01*
X76167903Y-95477171D01*
X76085758Y-95435316D01*
X76079280Y-95432015D01*
X76028484Y-95384040D01*
X76011689Y-95316219D01*
X76034227Y-95250084D01*
X76079281Y-95211045D01*
X76163447Y-95168161D01*
X76328994Y-95047882D01*
X76328995Y-95047882D01*
X76473682Y-94903195D01*
X76473682Y-94903194D01*
X76593959Y-94737649D01*
X76686855Y-94555329D01*
X76750090Y-94360713D01*
X76758709Y-94306300D01*
X75915112Y-94306300D01*
X75948025Y-94249293D01*
X75982100Y-94122126D01*
X75982100Y-93990474D01*
X75948025Y-93863307D01*
X75915112Y-93806300D01*
X76758709Y-93806300D01*
X76750090Y-93751886D01*
X76686855Y-93557270D01*
X76593959Y-93374950D01*
X76473682Y-93209405D01*
X76473682Y-93209404D01*
X76328995Y-93064717D01*
X76163449Y-92944440D01*
X76079280Y-92901554D01*
X76028484Y-92853580D01*
X76011689Y-92785759D01*
X76034226Y-92719624D01*
X76079279Y-92680584D01*
X76167903Y-92635429D01*
X76334530Y-92514368D01*
X76480168Y-92368730D01*
X76601229Y-92202103D01*
X76694734Y-92018590D01*
X76758380Y-91822708D01*
X76790600Y-91619281D01*
X76790600Y-91413319D01*
X76764285Y-91247174D01*
X76758380Y-91209891D01*
X76722144Y-91098368D01*
X76694734Y-91014010D01*
X76694732Y-91014007D01*
X76694732Y-91014005D01*
X76646615Y-90919572D01*
X76601229Y-90830497D01*
X76563509Y-90778579D01*
X76480173Y-90663876D01*
X76480169Y-90663871D01*
X76334528Y-90518230D01*
X76334523Y-90518226D01*
X76167906Y-90397173D01*
X76167905Y-90397172D01*
X76167903Y-90397171D01*
X76088640Y-90356784D01*
X76037845Y-90308810D01*
X76021050Y-90240989D01*
X76043587Y-90174854D01*
X76088641Y-90135815D01*
X76167903Y-90095429D01*
X76334530Y-89974368D01*
X76480168Y-89828730D01*
X76601229Y-89662103D01*
X76694734Y-89478590D01*
X76758380Y-89282708D01*
X76790600Y-89079281D01*
X76790600Y-88873319D01*
X76772570Y-88759485D01*
X76758380Y-88669891D01*
X76711319Y-88525053D01*
X76694734Y-88474010D01*
X76694732Y-88474007D01*
X76694732Y-88474005D01*
X76653259Y-88392611D01*
X76601229Y-88290497D01*
X76532413Y-88195779D01*
X76480173Y-88123876D01*
X76480169Y-88123871D01*
X76334528Y-87978230D01*
X76334523Y-87978226D01*
X76167906Y-87857173D01*
X76167905Y-87857172D01*
X76167903Y-87857171D01*
X76088640Y-87816784D01*
X76037845Y-87768810D01*
X76021050Y-87700989D01*
X76043587Y-87634854D01*
X76088641Y-87595815D01*
X76167903Y-87555429D01*
X76334530Y-87434368D01*
X76480168Y-87288730D01*
X76601229Y-87122103D01*
X76694734Y-86938590D01*
X76758380Y-86742708D01*
X76790600Y-86539281D01*
X76790600Y-86333319D01*
X76773597Y-86225967D01*
X76758380Y-86129891D01*
X76724378Y-86025244D01*
X76694734Y-85934010D01*
X76694732Y-85934007D01*
X76694732Y-85934005D01*
X76660809Y-85867428D01*
X76601229Y-85750497D01*
X76563509Y-85698579D01*
X76480173Y-85583876D01*
X76480169Y-85583871D01*
X76334528Y-85438230D01*
X76334523Y-85438226D01*
X76167906Y-85317173D01*
X76167905Y-85317172D01*
X76167903Y-85317171D01*
X76088640Y-85276784D01*
X76037845Y-85228810D01*
X76021050Y-85160989D01*
X76043587Y-85094854D01*
X76088641Y-85055815D01*
X76167903Y-85015429D01*
X76334530Y-84894368D01*
X76480168Y-84748730D01*
X76601229Y-84582103D01*
X76694734Y-84398590D01*
X76758380Y-84202708D01*
X76790600Y-83999281D01*
X76790600Y-83793319D01*
X76773702Y-83686632D01*
X76758380Y-83589891D01*
X76713999Y-83453302D01*
X76694734Y-83394010D01*
X76694732Y-83394007D01*
X76694732Y-83394005D01*
X76657023Y-83319998D01*
X76601229Y-83210497D01*
X76529290Y-83111481D01*
X76480173Y-83043876D01*
X76480169Y-83043871D01*
X76334528Y-82898230D01*
X76334523Y-82898226D01*
X76167906Y-82777173D01*
X76167905Y-82777172D01*
X76167903Y-82777171D01*
X76088640Y-82736784D01*
X76037845Y-82688810D01*
X76021050Y-82620989D01*
X76043587Y-82554854D01*
X76088641Y-82515815D01*
X76167903Y-82475429D01*
X76334530Y-82354368D01*
X76480168Y-82208730D01*
X76601229Y-82042103D01*
X76694734Y-81858590D01*
X76758380Y-81662708D01*
X76790600Y-81459281D01*
X76790600Y-81253319D01*
X76783153Y-81206300D01*
X76758150Y-81048439D01*
X76767105Y-80979145D01*
X76792939Y-80941363D01*
X83014171Y-74720133D01*
X83083500Y-74616375D01*
X83094951Y-74588730D01*
X83131255Y-74501085D01*
X83155600Y-74378694D01*
X83155600Y-73333901D01*
X87888600Y-73333901D01*
X87888600Y-80809689D01*
X87912943Y-80932068D01*
X87912945Y-80932076D01*
X87960698Y-81047363D01*
X87960703Y-81047372D01*
X88030028Y-81151123D01*
X88030031Y-81151127D01*
X89735721Y-82856816D01*
X89769206Y-82918139D01*
X89764222Y-82987831D01*
X89735727Y-83032172D01*
X89724036Y-83043863D01*
X89724028Y-83043873D01*
X89602973Y-83210493D01*
X89509467Y-83394005D01*
X89445819Y-83589891D01*
X89413600Y-83793319D01*
X89413600Y-83999280D01*
X89445819Y-84202708D01*
X89509467Y-84398594D01*
X89602973Y-84582106D01*
X89724026Y-84748723D01*
X89724030Y-84748728D01*
X89869671Y-84894369D01*
X89869676Y-84894373D01*
X90036295Y-85015428D01*
X90115559Y-85055816D01*
X90166354Y-85103790D01*
X90183149Y-85171611D01*
X90160611Y-85237746D01*
X90115559Y-85276784D01*
X90036295Y-85317171D01*
X89869676Y-85438226D01*
X89869671Y-85438230D01*
X89724030Y-85583871D01*
X89724026Y-85583876D01*
X89602973Y-85750493D01*
X89509467Y-85934005D01*
X89445819Y-86129891D01*
X89413600Y-86333319D01*
X89413600Y-86539280D01*
X89445819Y-86742708D01*
X89509467Y-86938594D01*
X89552883Y-87023800D01*
X89598679Y-87113680D01*
X89602973Y-87122106D01*
X89724026Y-87288723D01*
X89724030Y-87288728D01*
X89869671Y-87434369D01*
X89869676Y-87434373D01*
X89922567Y-87472800D01*
X90036297Y-87555429D01*
X90124919Y-87600584D01*
X90175715Y-87648559D01*
X90192510Y-87716380D01*
X90169973Y-87782514D01*
X90124919Y-87821554D01*
X90040750Y-87864440D01*
X89875205Y-87984717D01*
X89875204Y-87984717D01*
X89730517Y-88129404D01*
X89730517Y-88129405D01*
X89610240Y-88294950D01*
X89517344Y-88477270D01*
X89454109Y-88671886D01*
X89445491Y-88726300D01*
X90289088Y-88726300D01*
X90256175Y-88783307D01*
X90222100Y-88910474D01*
X90222100Y-89042126D01*
X90256175Y-89169293D01*
X90289088Y-89226300D01*
X89445491Y-89226300D01*
X89454109Y-89280713D01*
X89517344Y-89475329D01*
X89610240Y-89657649D01*
X89730517Y-89823194D01*
X89730517Y-89823195D01*
X89875204Y-89967882D01*
X90040752Y-90088161D01*
X90124918Y-90131045D01*
X90175714Y-90179019D01*
X90192510Y-90246840D01*
X90169973Y-90312975D01*
X90124920Y-90352014D01*
X90036295Y-90397171D01*
X89869676Y-90518226D01*
X89869671Y-90518230D01*
X89724030Y-90663871D01*
X89724026Y-90663876D01*
X89602973Y-90830493D01*
X89509467Y-91014005D01*
X89445819Y-91209891D01*
X89413600Y-91413319D01*
X89413600Y-91619280D01*
X89445819Y-91822708D01*
X89509467Y-92018594D01*
X89602973Y-92202106D01*
X89724026Y-92368723D01*
X89724030Y-92368728D01*
X89869671Y-92514369D01*
X89869676Y-92514373D01*
X90036295Y-92635428D01*
X90115559Y-92675816D01*
X90166354Y-92723790D01*
X90183149Y-92791611D01*
X90160611Y-92857746D01*
X90115559Y-92896784D01*
X90036295Y-92937171D01*
X89869676Y-93058226D01*
X89869671Y-93058230D01*
X89724030Y-93203871D01*
X89724026Y-93203876D01*
X89602973Y-93370493D01*
X89509467Y-93554005D01*
X89445819Y-93749891D01*
X89413600Y-93953319D01*
X89413600Y-94159280D01*
X89445819Y-94362708D01*
X89509467Y-94558594D01*
X89573771Y-94684796D01*
X89586062Y-94708918D01*
X89602973Y-94742106D01*
X89724026Y-94908723D01*
X89724030Y-94908728D01*
X89724032Y-94908730D01*
X89869670Y-95054368D01*
X89869671Y-95054369D01*
X89869670Y-95054369D01*
X89886607Y-95066673D01*
X89889619Y-95068862D01*
X89889621Y-95068863D01*
X89932288Y-95124193D01*
X89938269Y-95193806D01*
X89905664Y-95255601D01*
X89844826Y-95289960D01*
X89829998Y-95292472D01*
X89812896Y-95294311D01*
X89812895Y-95294311D01*
X89675895Y-95345411D01*
X89558839Y-95433039D01*
X89471211Y-95550095D01*
X89420111Y-95687095D01*
X89420111Y-95687097D01*
X89413600Y-95747645D01*
X89413600Y-97444954D01*
X89420111Y-97505502D01*
X89420111Y-97505504D01*
X89459708Y-97611664D01*
X89471211Y-97642504D01*
X89558839Y-97759561D01*
X89675896Y-97847189D01*
X89812899Y-97898289D01*
X89840150Y-97901218D01*
X89873445Y-97904799D01*
X89873462Y-97904800D01*
X91570738Y-97904800D01*
X91570754Y-97904799D01*
X91597792Y-97901891D01*
X91631301Y-97898289D01*
X91768304Y-97847189D01*
X91885361Y-97759561D01*
X91972989Y-97642504D01*
X92024089Y-97505501D01*
X92027691Y-97471992D01*
X92030599Y-97444954D01*
X92030600Y-97444937D01*
X92030600Y-95747662D01*
X92030599Y-95747645D01*
X92027257Y-95716570D01*
X92024089Y-95687099D01*
X91979759Y-95568248D01*
X102638600Y-95568248D01*
X102638600Y-96594351D01*
X102649213Y-96698228D01*
X102704983Y-96866535D01*
X102704984Y-96866538D01*
X102798067Y-97017447D01*
X102798070Y-97017451D01*
X102923448Y-97142829D01*
X102923452Y-97142832D01*
X103074361Y-97235915D01*
X103074364Y-97235916D01*
X103208244Y-97280278D01*
X103242675Y-97291687D01*
X103277202Y-97295214D01*
X103341893Y-97321609D01*
X103382045Y-97378790D01*
X103388600Y-97418572D01*
X103388600Y-97691124D01*
X103368915Y-97758163D01*
X103352281Y-97778805D01*
X103316424Y-97814661D01*
X103316421Y-97814665D01*
X103217001Y-97963457D01*
X103216996Y-97963467D01*
X103148513Y-98128799D01*
X103148511Y-98128807D01*
X103113600Y-98304316D01*
X103113600Y-98483283D01*
X103148511Y-98658792D01*
X103148513Y-98658800D01*
X103216996Y-98824132D01*
X103217001Y-98824142D01*
X103316421Y-98972934D01*
X103316424Y-98972938D01*
X103442961Y-99099475D01*
X103442965Y-99099478D01*
X103591757Y-99198898D01*
X103591761Y-99198900D01*
X103591764Y-99198902D01*
X103757100Y-99267387D01*
X103932616Y-99302299D01*
X103932620Y-99302300D01*
X103932621Y-99302300D01*
X104111580Y-99302300D01*
X104111581Y-99302299D01*
X104287100Y-99267387D01*
X104452436Y-99198902D01*
X104601235Y-99099478D01*
X104727778Y-98972935D01*
X104827202Y-98824136D01*
X104895687Y-98658800D01*
X104930600Y-98483279D01*
X104930600Y-98304321D01*
X104895687Y-98128800D01*
X104873432Y-98075072D01*
X111113600Y-98075072D01*
X111113600Y-98312527D01*
X111150743Y-98547041D01*
X111224119Y-98772867D01*
X111326061Y-98972938D01*
X111331915Y-98984427D01*
X111471480Y-99176522D01*
X111639378Y-99344420D01*
X111831473Y-99483985D01*
X111931428Y-99534914D01*
X112043032Y-99591780D01*
X112043034Y-99591780D01*
X112043037Y-99591782D01*
X112164084Y-99631112D01*
X112268858Y-99665156D01*
X112503373Y-99702300D01*
X112503378Y-99702300D01*
X112740827Y-99702300D01*
X112975341Y-99665156D01*
X113201163Y-99591782D01*
X113412727Y-99483985D01*
X113604822Y-99344420D01*
X113772720Y-99176522D01*
X113912285Y-98984427D01*
X114020082Y-98772863D01*
X114093456Y-98547041D01*
X114111626Y-98432322D01*
X114130600Y-98312527D01*
X114130600Y-98075072D01*
X114093456Y-97840558D01*
X114052798Y-97715426D01*
X114020082Y-97614737D01*
X114020080Y-97614734D01*
X114020080Y-97614732D01*
X113933565Y-97444938D01*
X113912285Y-97403173D01*
X113772720Y-97211078D01*
X113604822Y-97043180D01*
X113412727Y-96903615D01*
X113410947Y-96902708D01*
X113201167Y-96795819D01*
X112975341Y-96722443D01*
X112740827Y-96685300D01*
X112740822Y-96685300D01*
X112503378Y-96685300D01*
X112503373Y-96685300D01*
X112268858Y-96722443D01*
X112043032Y-96795819D01*
X111831472Y-96903615D01*
X111639375Y-97043182D01*
X111471482Y-97211075D01*
X111331915Y-97403172D01*
X111224119Y-97614732D01*
X111150743Y-97840558D01*
X111113600Y-98075072D01*
X104873432Y-98075072D01*
X104827202Y-97963464D01*
X104827200Y-97963461D01*
X104827198Y-97963457D01*
X104727778Y-97814665D01*
X104727775Y-97814661D01*
X104691919Y-97778805D01*
X104658434Y-97717482D01*
X104655600Y-97691124D01*
X104655600Y-97418572D01*
X104675285Y-97351533D01*
X104728089Y-97305778D01*
X104766996Y-97295214D01*
X104801525Y-97291687D01*
X104969838Y-97235915D01*
X105120751Y-97142830D01*
X105246130Y-97017451D01*
X105339215Y-96866538D01*
X105394987Y-96698225D01*
X105405600Y-96594344D01*
X105405600Y-95568256D01*
X105394987Y-95464375D01*
X105394986Y-95464371D01*
X105339216Y-95296064D01*
X105339215Y-95296061D01*
X105246132Y-95145152D01*
X105246129Y-95145148D01*
X105120751Y-95019770D01*
X105120747Y-95019767D01*
X104969838Y-94926684D01*
X104969835Y-94926683D01*
X104801528Y-94870913D01*
X104697651Y-94860300D01*
X104697644Y-94860300D01*
X103346556Y-94860300D01*
X103346548Y-94860300D01*
X103242671Y-94870913D01*
X103074364Y-94926683D01*
X103074361Y-94926684D01*
X102923452Y-95019767D01*
X102923448Y-95019770D01*
X102798070Y-95145148D01*
X102798067Y-95145152D01*
X102704984Y-95296061D01*
X102704983Y-95296064D01*
X102649213Y-95464371D01*
X102638600Y-95568248D01*
X91979759Y-95568248D01*
X91972989Y-95550096D01*
X91885361Y-95433039D01*
X91768304Y-95345411D01*
X91631304Y-95294311D01*
X91614201Y-95292472D01*
X91549651Y-95265732D01*
X91509805Y-95208338D01*
X91507314Y-95138512D01*
X91542969Y-95078425D01*
X91554579Y-95068863D01*
X91574530Y-95054368D01*
X91720168Y-94908730D01*
X91841229Y-94742103D01*
X91934734Y-94558590D01*
X91998380Y-94362708D01*
X92030600Y-94159281D01*
X92030600Y-93953319D01*
X92010244Y-93824797D01*
X91998380Y-93749891D01*
X91966076Y-93650471D01*
X91934734Y-93554010D01*
X91934732Y-93554007D01*
X91934732Y-93554005D01*
X91886475Y-93459297D01*
X91841229Y-93370497D01*
X91788511Y-93297936D01*
X91720173Y-93203876D01*
X91720169Y-93203871D01*
X91574528Y-93058230D01*
X91574523Y-93058226D01*
X91407906Y-92937173D01*
X91407905Y-92937172D01*
X91407903Y-92937171D01*
X91328640Y-92896784D01*
X91277845Y-92848810D01*
X91261050Y-92780989D01*
X91283587Y-92714854D01*
X91328641Y-92675815D01*
X91407903Y-92635429D01*
X91574530Y-92514368D01*
X91720168Y-92368730D01*
X91841229Y-92202103D01*
X91934734Y-92018590D01*
X91998380Y-91822708D01*
X92030600Y-91619281D01*
X92030600Y-91588023D01*
X99392392Y-91588023D01*
X99392392Y-91766990D01*
X99427303Y-91942499D01*
X99427305Y-91942507D01*
X99495788Y-92107839D01*
X99495793Y-92107849D01*
X99595213Y-92256641D01*
X99595216Y-92256645D01*
X99721753Y-92383182D01*
X99721757Y-92383185D01*
X99870549Y-92482605D01*
X99870553Y-92482607D01*
X99870556Y-92482609D01*
X100035892Y-92551094D01*
X100211408Y-92586006D01*
X100211412Y-92586007D01*
X100211413Y-92586007D01*
X100262126Y-92586007D01*
X100329165Y-92605692D01*
X100349807Y-92622326D01*
X101237614Y-93510133D01*
X101283781Y-93556300D01*
X101325853Y-93598372D01*
X101429603Y-93667696D01*
X101429609Y-93667699D01*
X101429610Y-93667700D01*
X101544900Y-93715455D01*
X101667286Y-93739799D01*
X101667290Y-93739800D01*
X101667291Y-93739800D01*
X102565164Y-93739800D01*
X102632203Y-93759485D01*
X102677958Y-93812289D01*
X102682867Y-93824791D01*
X102689132Y-93843695D01*
X102704983Y-93891533D01*
X102704989Y-93891546D01*
X102798067Y-94042447D01*
X102798070Y-94042451D01*
X102923448Y-94167829D01*
X102923452Y-94167832D01*
X103074361Y-94260915D01*
X103074364Y-94260916D01*
X103242671Y-94316686D01*
X103242672Y-94316686D01*
X103242675Y-94316687D01*
X103346556Y-94327300D01*
X103346561Y-94327300D01*
X104697639Y-94327300D01*
X104697644Y-94327300D01*
X104801525Y-94316687D01*
X104969838Y-94260915D01*
X105120751Y-94167830D01*
X105246130Y-94042451D01*
X105339215Y-93891538D01*
X105394987Y-93723225D01*
X105405600Y-93619344D01*
X105405600Y-92593256D01*
X105394987Y-92489375D01*
X105394986Y-92489371D01*
X105339216Y-92321064D01*
X105339215Y-92321061D01*
X105246132Y-92170152D01*
X105246129Y-92170148D01*
X105120751Y-92044770D01*
X105120747Y-92044767D01*
X104969838Y-91951684D01*
X104969835Y-91951683D01*
X104801528Y-91895913D01*
X104697651Y-91885300D01*
X104697644Y-91885300D01*
X103346556Y-91885300D01*
X103346548Y-91885300D01*
X103242671Y-91895913D01*
X103074364Y-91951683D01*
X103074361Y-91951684D01*
X102923452Y-92044767D01*
X102923448Y-92044770D01*
X102798070Y-92170148D01*
X102798067Y-92170152D01*
X102704989Y-92321053D01*
X102704983Y-92321066D01*
X102682870Y-92387803D01*
X102643098Y-92445248D01*
X102578583Y-92472072D01*
X102565164Y-92472800D01*
X102043451Y-92472800D01*
X101976412Y-92453115D01*
X101955770Y-92436481D01*
X101245711Y-91726422D01*
X101212226Y-91665099D01*
X101209392Y-91638741D01*
X101209392Y-91588027D01*
X101209391Y-91588023D01*
X101203199Y-91556895D01*
X101174479Y-91412507D01*
X101105994Y-91247171D01*
X101105992Y-91247168D01*
X101105990Y-91247164D01*
X101006570Y-91098372D01*
X101006567Y-91098368D01*
X100880030Y-90971831D01*
X100880026Y-90971828D01*
X100731234Y-90872408D01*
X100731224Y-90872403D01*
X100565892Y-90803920D01*
X100565884Y-90803918D01*
X100390375Y-90769007D01*
X100390371Y-90769007D01*
X100211413Y-90769007D01*
X100211408Y-90769007D01*
X100035899Y-90803918D01*
X100035891Y-90803920D01*
X99870559Y-90872403D01*
X99870549Y-90872408D01*
X99721757Y-90971828D01*
X99721753Y-90971831D01*
X99595216Y-91098368D01*
X99595213Y-91098372D01*
X99495793Y-91247164D01*
X99495788Y-91247174D01*
X99427305Y-91412506D01*
X99427303Y-91412514D01*
X99392392Y-91588023D01*
X92030600Y-91588023D01*
X92030600Y-91413319D01*
X92004285Y-91247174D01*
X91998380Y-91209891D01*
X91962144Y-91098368D01*
X91934734Y-91014010D01*
X91934732Y-91014007D01*
X91934732Y-91014005D01*
X91886615Y-90919572D01*
X91841229Y-90830497D01*
X91803509Y-90778579D01*
X91720173Y-90663876D01*
X91720169Y-90663871D01*
X91574528Y-90518230D01*
X91574523Y-90518226D01*
X91407906Y-90397173D01*
X91407905Y-90397172D01*
X91407903Y-90397171D01*
X91328641Y-90356785D01*
X91319280Y-90352015D01*
X91268484Y-90304040D01*
X91251689Y-90236219D01*
X91274227Y-90170084D01*
X91319281Y-90131045D01*
X91403447Y-90088161D01*
X91568994Y-89967882D01*
X91568995Y-89967882D01*
X91713682Y-89823195D01*
X91713682Y-89823194D01*
X91833959Y-89657649D01*
X91926855Y-89475329D01*
X91990090Y-89280713D01*
X91998709Y-89226300D01*
X91155112Y-89226300D01*
X91188025Y-89169293D01*
X91222100Y-89042126D01*
X91222100Y-88910474D01*
X91188025Y-88783307D01*
X91155112Y-88726300D01*
X91998709Y-88726300D01*
X91990090Y-88671886D01*
X91926855Y-88477270D01*
X91833959Y-88294950D01*
X91713682Y-88129405D01*
X91713682Y-88129404D01*
X91568995Y-87984717D01*
X91403449Y-87864440D01*
X91319280Y-87821554D01*
X91268484Y-87773580D01*
X91251689Y-87705759D01*
X91274226Y-87639624D01*
X91319279Y-87600584D01*
X91407903Y-87555429D01*
X91574530Y-87434368D01*
X91720168Y-87288730D01*
X91841229Y-87122103D01*
X91934734Y-86938590D01*
X91998380Y-86742708D01*
X92030600Y-86539281D01*
X92030600Y-86333319D01*
X92013597Y-86225967D01*
X91998380Y-86129891D01*
X91964378Y-86025244D01*
X91934734Y-85934010D01*
X91934732Y-85934007D01*
X91934732Y-85934005D01*
X91900809Y-85867428D01*
X91841229Y-85750497D01*
X91803509Y-85698579D01*
X91720173Y-85583876D01*
X91720169Y-85583871D01*
X91574528Y-85438230D01*
X91574523Y-85438226D01*
X91407906Y-85317173D01*
X91407905Y-85317172D01*
X91407903Y-85317171D01*
X91328640Y-85276784D01*
X91277845Y-85228810D01*
X91261050Y-85160989D01*
X91283587Y-85094854D01*
X91328641Y-85055815D01*
X91407903Y-85015429D01*
X91574530Y-84894368D01*
X91720168Y-84748730D01*
X91841229Y-84582103D01*
X91934734Y-84398590D01*
X91998380Y-84202708D01*
X92030600Y-83999281D01*
X92030600Y-83793319D01*
X91998380Y-83589892D01*
X91998379Y-83589888D01*
X91998379Y-83589887D01*
X91990981Y-83567118D01*
X91988986Y-83497277D01*
X92025067Y-83437444D01*
X92087768Y-83406616D01*
X92108912Y-83404800D01*
X94280919Y-83404800D01*
X94347958Y-83424485D01*
X94368600Y-83441119D01*
X96030029Y-85102548D01*
X96088470Y-85160989D01*
X96118268Y-85190787D01*
X96222018Y-85260111D01*
X96222024Y-85260114D01*
X96222025Y-85260115D01*
X96337315Y-85307870D01*
X96459701Y-85332214D01*
X96459705Y-85332215D01*
X96459706Y-85332215D01*
X103450749Y-85332215D01*
X103517788Y-85351900D01*
X103538430Y-85368534D01*
X125618263Y-107448369D01*
X125618267Y-107448372D01*
X125722021Y-107517699D01*
X125722023Y-107517699D01*
X125722025Y-107517701D01*
X125803547Y-107551468D01*
X125837315Y-107565455D01*
X125837317Y-107565455D01*
X125837322Y-107565457D01*
X125959701Y-107589799D01*
X125959705Y-107589800D01*
X125959706Y-107589800D01*
X125959707Y-107589800D01*
X126084494Y-107589800D01*
X132819753Y-107589800D01*
X132886792Y-107609485D01*
X132930236Y-107657504D01*
X132989149Y-107773128D01*
X132989153Y-107773136D01*
X133026316Y-107824285D01*
X133133343Y-107971594D01*
X133306806Y-108145057D01*
X133505268Y-108289249D01*
X133723844Y-108400618D01*
X133957150Y-108476424D01*
X134199443Y-108514800D01*
X134199444Y-108514800D01*
X134444756Y-108514800D01*
X134444757Y-108514800D01*
X134687050Y-108476424D01*
X134920356Y-108400618D01*
X135138932Y-108289249D01*
X135337394Y-108145057D01*
X135510857Y-107971594D01*
X135655049Y-107773132D01*
X135713963Y-107657504D01*
X135761936Y-107606710D01*
X135824447Y-107589800D01*
X139957053Y-107589800D01*
X140024092Y-107609485D01*
X140069847Y-107662289D01*
X140079791Y-107731447D01*
X140050766Y-107795003D01*
X140013348Y-107824285D01*
X139919102Y-107872306D01*
X139772605Y-107978741D01*
X139772600Y-107978745D01*
X139644545Y-108106800D01*
X139644541Y-108106805D01*
X139538106Y-108253302D01*
X139455888Y-108414660D01*
X139455887Y-108414663D01*
X139399929Y-108586889D01*
X139371600Y-108765748D01*
X139371600Y-108946851D01*
X139399929Y-109125710D01*
X139455887Y-109297936D01*
X139455888Y-109297939D01*
X139511764Y-109407600D01*
X139536578Y-109456300D01*
X139538106Y-109459297D01*
X139644541Y-109605794D01*
X139644545Y-109605799D01*
X139689216Y-109650471D01*
X139722700Y-109711794D01*
X139717715Y-109781486D01*
X139675843Y-109837419D01*
X139674420Y-109838469D01*
X139555663Y-109924751D01*
X139390552Y-110089862D01*
X139390552Y-110089863D01*
X139390550Y-110089865D01*
X139331605Y-110170995D01*
X139253297Y-110278776D01*
X139147288Y-110486829D01*
X139075128Y-110708912D01*
X139038600Y-110939546D01*
X139038600Y-111173053D01*
X139075128Y-111403687D01*
X139147288Y-111625770D01*
X139253297Y-111833823D01*
X139390550Y-112022735D01*
X139555665Y-112187850D01*
X139744577Y-112325103D01*
X139842876Y-112375188D01*
X139952629Y-112431111D01*
X139952631Y-112431111D01*
X139952634Y-112431113D01*
X140071674Y-112469791D01*
X140174712Y-112503271D01*
X140290029Y-112521535D01*
X140405346Y-112539800D01*
X140405347Y-112539800D01*
X140638853Y-112539800D01*
X140638854Y-112539800D01*
X140869487Y-112503271D01*
X141091566Y-112431113D01*
X141299623Y-112325103D01*
X141488535Y-112187850D01*
X141653650Y-112022735D01*
X141790903Y-111833823D01*
X141896913Y-111625766D01*
X141931636Y-111518897D01*
X141958639Y-111435795D01*
X141958639Y-111435794D01*
X141969070Y-111403691D01*
X141969070Y-111403690D01*
X141969071Y-111403687D01*
X142005600Y-111173054D01*
X142005600Y-110939546D01*
X141969071Y-110708913D01*
X141967067Y-110702746D01*
X141922038Y-110564160D01*
X141896913Y-110486834D01*
X141896911Y-110486831D01*
X141896911Y-110486829D01*
X141801062Y-110298716D01*
X141790903Y-110278777D01*
X141719618Y-110180662D01*
X154222100Y-110180662D01*
X154222100Y-110416767D01*
X154259034Y-110649962D01*
X154331997Y-110874517D01*
X154439187Y-111084889D01*
X154499438Y-111167819D01*
X154499440Y-111167820D01*
X155239137Y-110428123D01*
X155256175Y-110491708D01*
X155322001Y-110605722D01*
X155415093Y-110698814D01*
X155529107Y-110764640D01*
X155592690Y-110781677D01*
X154852993Y-111521373D01*
X154935928Y-111581629D01*
X155146297Y-111688817D01*
X155370852Y-111761780D01*
X155370851Y-111761780D01*
X155604048Y-111798715D01*
X155840152Y-111798715D01*
X156073347Y-111761780D01*
X156297902Y-111688817D01*
X156508263Y-111581633D01*
X156508269Y-111581629D01*
X156591204Y-111521373D01*
X156591205Y-111521373D01*
X155851508Y-110781677D01*
X155915093Y-110764640D01*
X156029107Y-110698814D01*
X156122199Y-110605722D01*
X156188025Y-110491708D01*
X156205062Y-110428124D01*
X156944758Y-111167820D01*
X156944758Y-111167819D01*
X157005014Y-111084884D01*
X157005018Y-111084878D01*
X157112202Y-110874517D01*
X157185165Y-110649962D01*
X157222100Y-110416767D01*
X157222100Y-110180662D01*
X157185165Y-109947467D01*
X157112202Y-109722912D01*
X157005014Y-109512543D01*
X156944758Y-109429609D01*
X156944758Y-109429608D01*
X156205062Y-110169305D01*
X156188025Y-110105722D01*
X156122199Y-109991708D01*
X156029107Y-109898616D01*
X155915093Y-109832790D01*
X155851509Y-109815752D01*
X156591205Y-109076055D01*
X156591204Y-109076053D01*
X156508274Y-109015802D01*
X156297902Y-108908612D01*
X156073347Y-108835649D01*
X156073348Y-108835649D01*
X155840152Y-108798715D01*
X155604048Y-108798715D01*
X155370852Y-108835649D01*
X155146297Y-108908612D01*
X154935930Y-109015799D01*
X154852994Y-109076055D01*
X155592691Y-109815752D01*
X155529107Y-109832790D01*
X155415093Y-109898616D01*
X155322001Y-109991708D01*
X155256175Y-110105722D01*
X155239137Y-110169306D01*
X154499440Y-109429609D01*
X154439184Y-109512545D01*
X154331997Y-109722912D01*
X154259034Y-109947467D01*
X154222100Y-110180662D01*
X141719618Y-110180662D01*
X141653650Y-110089865D01*
X141488535Y-109924750D01*
X141369780Y-109838469D01*
X141369779Y-109838468D01*
X141327114Y-109783137D01*
X141321135Y-109713524D01*
X141353741Y-109651729D01*
X141354911Y-109650542D01*
X141399653Y-109605801D01*
X141506096Y-109459294D01*
X141588311Y-109297939D01*
X141644271Y-109125709D01*
X141647723Y-109103914D01*
X141672600Y-108946851D01*
X141672600Y-108765748D01*
X141656119Y-108661697D01*
X141644271Y-108586891D01*
X141588311Y-108414661D01*
X141588311Y-108414660D01*
X141559840Y-108358784D01*
X141506096Y-108253306D01*
X141492496Y-108234587D01*
X141399658Y-108106805D01*
X141399654Y-108106800D01*
X141271599Y-107978745D01*
X141271594Y-107978741D01*
X141125097Y-107872306D01*
X141125096Y-107872305D01*
X141125094Y-107872304D01*
X141030851Y-107824284D01*
X140980056Y-107776310D01*
X140963261Y-107708489D01*
X140985799Y-107642354D01*
X141040514Y-107598903D01*
X141087147Y-107589800D01*
X145219753Y-107589800D01*
X145286792Y-107609485D01*
X145330236Y-107657504D01*
X145389149Y-107773128D01*
X145389153Y-107773136D01*
X145426316Y-107824285D01*
X145533343Y-107971594D01*
X145706806Y-108145057D01*
X145905268Y-108289249D01*
X146123844Y-108400618D01*
X146357150Y-108476424D01*
X146599443Y-108514800D01*
X146599444Y-108514800D01*
X146844756Y-108514800D01*
X146844757Y-108514800D01*
X147087050Y-108476424D01*
X147320356Y-108400618D01*
X147538932Y-108289249D01*
X147737394Y-108145057D01*
X147910857Y-107971594D01*
X148055049Y-107773132D01*
X148166418Y-107554556D01*
X148242224Y-107321250D01*
X148280600Y-107078957D01*
X148280600Y-106833643D01*
X148242224Y-106591350D01*
X148166418Y-106358044D01*
X148055049Y-106139468D01*
X147910857Y-105941006D01*
X147737394Y-105767543D01*
X147538932Y-105623351D01*
X147320356Y-105511982D01*
X147087050Y-105436176D01*
X147087048Y-105436175D01*
X147087046Y-105436175D01*
X146906296Y-105407547D01*
X146844757Y-105397800D01*
X146599443Y-105397800D01*
X146543275Y-105406696D01*
X146357153Y-105436175D01*
X146123841Y-105511983D01*
X145905267Y-105623351D01*
X145792037Y-105705618D01*
X145706806Y-105767543D01*
X145706804Y-105767545D01*
X145706803Y-105767545D01*
X145533345Y-105941003D01*
X145533345Y-105941004D01*
X145533343Y-105941006D01*
X145497165Y-105990800D01*
X145389153Y-106139463D01*
X145389151Y-106139468D01*
X145330236Y-106255095D01*
X145282264Y-106305890D01*
X145219753Y-106322800D01*
X135824447Y-106322800D01*
X135757408Y-106303115D01*
X135713963Y-106255095D01*
X135655049Y-106139468D01*
X135655047Y-106139465D01*
X135655046Y-106139463D01*
X135613188Y-106081851D01*
X135510857Y-105941006D01*
X135337394Y-105767543D01*
X135138932Y-105623351D01*
X134920356Y-105511982D01*
X134687050Y-105436176D01*
X134687048Y-105436175D01*
X134687046Y-105436175D01*
X134506296Y-105407547D01*
X134444757Y-105397800D01*
X134199443Y-105397800D01*
X134143275Y-105406696D01*
X133957153Y-105436175D01*
X133723841Y-105511983D01*
X133505267Y-105623351D01*
X133392037Y-105705618D01*
X133306806Y-105767543D01*
X133306804Y-105767545D01*
X133306803Y-105767545D01*
X133133345Y-105941003D01*
X133133345Y-105941004D01*
X133133343Y-105941006D01*
X133097165Y-105990800D01*
X132989153Y-106139463D01*
X132989151Y-106139468D01*
X132930236Y-106255095D01*
X132882264Y-106305890D01*
X132819753Y-106322800D01*
X126335867Y-106322800D01*
X126268828Y-106303115D01*
X126248186Y-106286481D01*
X120820160Y-100858455D01*
X132772100Y-100858455D01*
X132772100Y-101706300D01*
X133667979Y-101706300D01*
X133649001Y-101752118D01*
X133622100Y-101887356D01*
X133622100Y-102025244D01*
X133649001Y-102160482D01*
X133667979Y-102206300D01*
X132772100Y-102206300D01*
X132772100Y-103054144D01*
X132778501Y-103113672D01*
X132778503Y-103113679D01*
X132828745Y-103248386D01*
X132828749Y-103248393D01*
X132914909Y-103363487D01*
X132914912Y-103363490D01*
X133030006Y-103449650D01*
X133030013Y-103449654D01*
X133164720Y-103499896D01*
X133164727Y-103499898D01*
X133224255Y-103506299D01*
X133224272Y-103506300D01*
X134072100Y-103506300D01*
X134072100Y-102610420D01*
X134117918Y-102629399D01*
X134253156Y-102656300D01*
X134391044Y-102656300D01*
X134526282Y-102629399D01*
X134572100Y-102610420D01*
X134572100Y-103506300D01*
X135419928Y-103506300D01*
X135419944Y-103506299D01*
X135479472Y-103499898D01*
X135479479Y-103499896D01*
X135614186Y-103449654D01*
X135614193Y-103449650D01*
X135729287Y-103363490D01*
X135729290Y-103363487D01*
X135815450Y-103248393D01*
X135815454Y-103248386D01*
X135861787Y-103124162D01*
X135861787Y-103124161D01*
X135865697Y-103113676D01*
X135865698Y-103113672D01*
X135872099Y-103054144D01*
X135872100Y-103054127D01*
X135872100Y-102206300D01*
X134976221Y-102206300D01*
X134995199Y-102160482D01*
X135022100Y-102025244D01*
X135022100Y-101887356D01*
X135011548Y-101834306D01*
X145172100Y-101834306D01*
X145172100Y-102078293D01*
X145210265Y-102319259D01*
X145285660Y-102551298D01*
X145396423Y-102768680D01*
X145463643Y-102861201D01*
X145463644Y-102861202D01*
X146082790Y-102242056D01*
X146101768Y-102287874D01*
X146178374Y-102402524D01*
X146275876Y-102500026D01*
X146390526Y-102576632D01*
X146436342Y-102595609D01*
X145817196Y-103214754D01*
X145817197Y-103214756D01*
X145909719Y-103281976D01*
X146127101Y-103392739D01*
X146359140Y-103468134D01*
X146600107Y-103506300D01*
X146844093Y-103506300D01*
X147085059Y-103468134D01*
X147317098Y-103392739D01*
X147534477Y-103281978D01*
X147627001Y-103214754D01*
X147627002Y-103214754D01*
X147007857Y-102595609D01*
X147053674Y-102576632D01*
X147168324Y-102500026D01*
X147265826Y-102402524D01*
X147342432Y-102287874D01*
X147361409Y-102242057D01*
X147980554Y-102861202D01*
X147980554Y-102861201D01*
X148047778Y-102768677D01*
X148158539Y-102551298D01*
X148233934Y-102319259D01*
X148272100Y-102078293D01*
X148272100Y-101834306D01*
X148233934Y-101593340D01*
X148158539Y-101361301D01*
X148047776Y-101143919D01*
X147980556Y-101051397D01*
X147980554Y-101051396D01*
X147361409Y-101670541D01*
X147342432Y-101624726D01*
X147265826Y-101510076D01*
X147168324Y-101412574D01*
X147053674Y-101335968D01*
X147007856Y-101316989D01*
X147627002Y-100697844D01*
X147627001Y-100697843D01*
X147534480Y-100630623D01*
X147317098Y-100519860D01*
X147085059Y-100444465D01*
X146844093Y-100406300D01*
X146600107Y-100406300D01*
X146359140Y-100444465D01*
X146127101Y-100519860D01*
X145909726Y-100630619D01*
X145817197Y-100697844D01*
X146436343Y-101316989D01*
X146390526Y-101335968D01*
X146275876Y-101412574D01*
X146178374Y-101510076D01*
X146101768Y-101624726D01*
X146082790Y-101670543D01*
X145463644Y-101051397D01*
X145396419Y-101143926D01*
X145285660Y-101361301D01*
X145210265Y-101593340D01*
X145172100Y-101834306D01*
X135011548Y-101834306D01*
X134995199Y-101752118D01*
X134976221Y-101706300D01*
X135872100Y-101706300D01*
X135872100Y-100858472D01*
X135872099Y-100858455D01*
X135865698Y-100798927D01*
X135865696Y-100798920D01*
X135815454Y-100664213D01*
X135815450Y-100664206D01*
X135729290Y-100549112D01*
X135729287Y-100549109D01*
X135614193Y-100462949D01*
X135614186Y-100462945D01*
X135479479Y-100412703D01*
X135479472Y-100412701D01*
X135419944Y-100406300D01*
X134572100Y-100406300D01*
X134572100Y-101302179D01*
X134526282Y-101283201D01*
X134391044Y-101256300D01*
X134253156Y-101256300D01*
X134117918Y-101283201D01*
X134072100Y-101302179D01*
X134072100Y-100406300D01*
X133224255Y-100406300D01*
X133164727Y-100412701D01*
X133164720Y-100412703D01*
X133030013Y-100462945D01*
X133030006Y-100462949D01*
X132914912Y-100549109D01*
X132914909Y-100549112D01*
X132828749Y-100664206D01*
X132828745Y-100664213D01*
X132778503Y-100798920D01*
X132778501Y-100798927D01*
X132772100Y-100858455D01*
X120820160Y-100858455D01*
X120010268Y-100048563D01*
X112275685Y-92313981D01*
X112242200Y-92252658D01*
X112247184Y-92182966D01*
X112289056Y-92127033D01*
X112354520Y-92102616D01*
X112363366Y-92102300D01*
X113670738Y-92102300D01*
X113670754Y-92102299D01*
X113697792Y-92099391D01*
X113731301Y-92095789D01*
X113868304Y-92044689D01*
X113985361Y-91957061D01*
X114072989Y-91840004D01*
X114124089Y-91703001D01*
X114128164Y-91665099D01*
X114130599Y-91642454D01*
X114130600Y-91642437D01*
X114130600Y-90297566D01*
X114150285Y-90230527D01*
X114203089Y-90184772D01*
X114272247Y-90174828D01*
X114335803Y-90203853D01*
X114342281Y-90209885D01*
X121744060Y-97611664D01*
X121777545Y-97672987D01*
X121772561Y-97742679D01*
X121744060Y-97787026D01*
X121716424Y-97814661D01*
X121716421Y-97814665D01*
X121617001Y-97963457D01*
X121616996Y-97963467D01*
X121548513Y-98128799D01*
X121548511Y-98128807D01*
X121513600Y-98304316D01*
X121513600Y-98483283D01*
X121548511Y-98658792D01*
X121548513Y-98658800D01*
X121616996Y-98824132D01*
X121617001Y-98824142D01*
X121716421Y-98972934D01*
X121716424Y-98972938D01*
X121842961Y-99099475D01*
X121842965Y-99099478D01*
X121991757Y-99198898D01*
X121991761Y-99198900D01*
X121991764Y-99198902D01*
X122157100Y-99267387D01*
X122332616Y-99302299D01*
X122332620Y-99302300D01*
X122332621Y-99302300D01*
X122511580Y-99302300D01*
X122511581Y-99302299D01*
X122687100Y-99267387D01*
X122852436Y-99198902D01*
X123001235Y-99099478D01*
X123127778Y-98972935D01*
X123227202Y-98824136D01*
X123295687Y-98658800D01*
X123330600Y-98483279D01*
X123330600Y-98304321D01*
X123295687Y-98128800D01*
X123227202Y-97963464D01*
X123227200Y-97963461D01*
X123227198Y-97963457D01*
X123129040Y-97816554D01*
X123127778Y-97814665D01*
X123091553Y-97778440D01*
X123091195Y-97778076D01*
X123074902Y-97747642D01*
X123058434Y-97717482D01*
X123058352Y-97716726D01*
X123058219Y-97716477D01*
X123058264Y-97715906D01*
X123055600Y-97691124D01*
X123055600Y-97331405D01*
X123055599Y-97331401D01*
X123047699Y-97291686D01*
X123031255Y-97209015D01*
X123003840Y-97142830D01*
X122983501Y-97093725D01*
X122949728Y-97043180D01*
X122914172Y-96989966D01*
X122914169Y-96989963D01*
X118775686Y-92851481D01*
X118742201Y-92790158D01*
X118747185Y-92720466D01*
X118789057Y-92664533D01*
X118854521Y-92640116D01*
X118863367Y-92639800D01*
X133334495Y-92639800D01*
X133334496Y-92639799D01*
X133456885Y-92615455D01*
X133572175Y-92567700D01*
X133675933Y-92498371D01*
X133707731Y-92466572D01*
X133769052Y-92433087D01*
X133833728Y-92436321D01*
X133957150Y-92476424D01*
X134199443Y-92514800D01*
X134199444Y-92514800D01*
X134444756Y-92514800D01*
X134444757Y-92514800D01*
X134687050Y-92476424D01*
X134920356Y-92400618D01*
X135138932Y-92289249D01*
X135337394Y-92145057D01*
X135510857Y-91971594D01*
X135655049Y-91773132D01*
X135766418Y-91554556D01*
X135842224Y-91321250D01*
X135880600Y-91078957D01*
X135880600Y-90833643D01*
X135842224Y-90591350D01*
X135766418Y-90358044D01*
X135655049Y-90139468D01*
X135510857Y-89941006D01*
X135337394Y-89767543D01*
X135138932Y-89623351D01*
X134920356Y-89511982D01*
X134687050Y-89436176D01*
X134687048Y-89436175D01*
X134687046Y-89436175D01*
X134517874Y-89409380D01*
X134444757Y-89397800D01*
X134199443Y-89397800D01*
X134143275Y-89406696D01*
X133957153Y-89436175D01*
X133723841Y-89511983D01*
X133505267Y-89623351D01*
X133406561Y-89695066D01*
X133306806Y-89767543D01*
X133306804Y-89767545D01*
X133306803Y-89767545D01*
X133133345Y-89941003D01*
X133133345Y-89941004D01*
X133133343Y-89941006D01*
X133106359Y-89978146D01*
X132989151Y-90139467D01*
X132877783Y-90358041D01*
X132801975Y-90591353D01*
X132772321Y-90778579D01*
X132763600Y-90833643D01*
X132763600Y-91078957D01*
X132766675Y-91098372D01*
X132787428Y-91229402D01*
X132778473Y-91298696D01*
X132733477Y-91352148D01*
X132666725Y-91372787D01*
X132664955Y-91372800D01*
X131422263Y-91372800D01*
X131355224Y-91353115D01*
X131309469Y-91300311D01*
X131299525Y-91231153D01*
X131328550Y-91167597D01*
X131381809Y-91133032D01*
X131381472Y-91132218D01*
X131385873Y-91130395D01*
X131386266Y-91130140D01*
X131387094Y-91129888D01*
X131387100Y-91129887D01*
X131552436Y-91061402D01*
X131701235Y-90961978D01*
X131827778Y-90835435D01*
X131927202Y-90686636D01*
X131995687Y-90521300D01*
X132030600Y-90345779D01*
X132030600Y-90166821D01*
X131995687Y-89991300D01*
X131927202Y-89825964D01*
X131927200Y-89825961D01*
X131927198Y-89825957D01*
X131827778Y-89677165D01*
X131827775Y-89677161D01*
X131791919Y-89641305D01*
X131758434Y-89579982D01*
X131755600Y-89553624D01*
X131755600Y-89088800D01*
X131775285Y-89021761D01*
X131828089Y-88976006D01*
X131879600Y-88964800D01*
X131936580Y-88964800D01*
X131936581Y-88964799D01*
X132112100Y-88929887D01*
X132277436Y-88861402D01*
X132426235Y-88761978D01*
X132462093Y-88726120D01*
X132523415Y-88692634D01*
X132549775Y-88689800D01*
X133800713Y-88689800D01*
X133848168Y-88699240D01*
X133853544Y-88701467D01*
X133853545Y-88701467D01*
X133853547Y-88701468D01*
X133887315Y-88715455D01*
X133887319Y-88715455D01*
X133887322Y-88715457D01*
X134009701Y-88739799D01*
X134009705Y-88739800D01*
X134009706Y-88739800D01*
X134009707Y-88739800D01*
X134134494Y-88739800D01*
X137819425Y-88739800D01*
X137886464Y-88759485D01*
X137907107Y-88776120D01*
X137942961Y-88811975D01*
X137942965Y-88811978D01*
X138091757Y-88911398D01*
X138091761Y-88911400D01*
X138091764Y-88911402D01*
X138257100Y-88979887D01*
X138381513Y-89004634D01*
X138432616Y-89014799D01*
X138432620Y-89014800D01*
X138432621Y-89014800D01*
X138611580Y-89014800D01*
X138611581Y-89014799D01*
X138787100Y-88979887D01*
X138952436Y-88911402D01*
X139101235Y-88811978D01*
X139227778Y-88685435D01*
X139327202Y-88536636D01*
X139395687Y-88371300D01*
X139398378Y-88357770D01*
X139400483Y-88347191D01*
X139432867Y-88285280D01*
X139493583Y-88250706D01*
X139563353Y-88254445D01*
X139620025Y-88295311D01*
X139643717Y-88347191D01*
X139648511Y-88371292D01*
X139648513Y-88371300D01*
X139716996Y-88536632D01*
X139717001Y-88536642D01*
X139816421Y-88685434D01*
X139816424Y-88685438D01*
X139942961Y-88811975D01*
X139942965Y-88811978D01*
X140091757Y-88911398D01*
X140091761Y-88911400D01*
X140091764Y-88911402D01*
X140257100Y-88979887D01*
X140381513Y-89004634D01*
X140432616Y-89014799D01*
X140432620Y-89014800D01*
X140432621Y-89014800D01*
X140483334Y-89014800D01*
X140550373Y-89034485D01*
X140571015Y-89051119D01*
X141127281Y-89607385D01*
X141160766Y-89668708D01*
X141163600Y-89695066D01*
X141163600Y-91689573D01*
X141143915Y-91756612D01*
X141091111Y-91802367D01*
X141021953Y-91812311D01*
X140983306Y-91800058D01*
X140963745Y-91790091D01*
X140963736Y-91790087D01*
X140791510Y-91734129D01*
X140612651Y-91705800D01*
X140612646Y-91705800D01*
X140431554Y-91705800D01*
X140431549Y-91705800D01*
X140252689Y-91734129D01*
X140080463Y-91790087D01*
X140080460Y-91790088D01*
X139919102Y-91872306D01*
X139772605Y-91978741D01*
X139772600Y-91978745D01*
X139644545Y-92106800D01*
X139644541Y-92106805D01*
X139538106Y-92253302D01*
X139455888Y-92414660D01*
X139455887Y-92414663D01*
X139399929Y-92586889D01*
X139371600Y-92765748D01*
X139371600Y-92946851D01*
X139399929Y-93125710D01*
X139455887Y-93297936D01*
X139455888Y-93297939D01*
X139492857Y-93370493D01*
X139519118Y-93422033D01*
X139538106Y-93459297D01*
X139644541Y-93605794D01*
X139644545Y-93605799D01*
X139689216Y-93650471D01*
X139722700Y-93711794D01*
X139717715Y-93781486D01*
X139675843Y-93837419D01*
X139674420Y-93838469D01*
X139555663Y-93924751D01*
X139390552Y-94089862D01*
X139390552Y-94089863D01*
X139390550Y-94089865D01*
X139331605Y-94170995D01*
X139253297Y-94278776D01*
X139147288Y-94486829D01*
X139075128Y-94708912D01*
X139038600Y-94939546D01*
X139038600Y-95173053D01*
X139075128Y-95403687D01*
X139147288Y-95625770D01*
X139253297Y-95833823D01*
X139390550Y-96022735D01*
X139555665Y-96187850D01*
X139696112Y-96289891D01*
X139744578Y-96325104D01*
X139794588Y-96350585D01*
X139845385Y-96398559D01*
X139862180Y-96466380D01*
X139839643Y-96532515D01*
X139794589Y-96571555D01*
X139749025Y-96594770D01*
X139670891Y-96651537D01*
X139670891Y-96651538D01*
X140274611Y-97255258D01*
X140214210Y-97280278D01*
X140107749Y-97351412D01*
X140017212Y-97441949D01*
X139946078Y-97548410D01*
X139921058Y-97608811D01*
X139317338Y-97005091D01*
X139317337Y-97005091D01*
X139260570Y-97083225D01*
X139155165Y-97290094D01*
X139083418Y-97510906D01*
X139047100Y-97740209D01*
X139047100Y-97972390D01*
X139083418Y-98201693D01*
X139155165Y-98422505D01*
X139260565Y-98629364D01*
X139317338Y-98707507D01*
X139921058Y-98103787D01*
X139946078Y-98164190D01*
X140017212Y-98270651D01*
X140107749Y-98361188D01*
X140214210Y-98432322D01*
X140274610Y-98457341D01*
X139670891Y-99061059D01*
X139670891Y-99061060D01*
X139680504Y-99068044D01*
X139723170Y-99123374D01*
X139729149Y-99192987D01*
X139696544Y-99254783D01*
X139695302Y-99256043D01*
X139644540Y-99306805D01*
X139538106Y-99453302D01*
X139455888Y-99614660D01*
X139455887Y-99614663D01*
X139399929Y-99786889D01*
X139371600Y-99965748D01*
X139371600Y-100146851D01*
X139399929Y-100325710D01*
X139455887Y-100497936D01*
X139455888Y-100497939D01*
X139481963Y-100549112D01*
X139538103Y-100659293D01*
X139538106Y-100659297D01*
X139644541Y-100805794D01*
X139644545Y-100805799D01*
X139772600Y-100933854D01*
X139772605Y-100933858D01*
X139900387Y-101026696D01*
X139919106Y-101040296D01*
X140024584Y-101094040D01*
X140080460Y-101122511D01*
X140080463Y-101122512D01*
X140166576Y-101150491D01*
X140252691Y-101178471D01*
X140335529Y-101191591D01*
X140431549Y-101206800D01*
X140431554Y-101206800D01*
X140612651Y-101206800D01*
X140699359Y-101193065D01*
X140791509Y-101178471D01*
X140963739Y-101122511D01*
X141125094Y-101040296D01*
X141271601Y-100933853D01*
X141399653Y-100805801D01*
X141506096Y-100659294D01*
X141588311Y-100497939D01*
X141644271Y-100325709D01*
X141658865Y-100233559D01*
X141672600Y-100146851D01*
X141672600Y-99965748D01*
X141656119Y-99861697D01*
X141644271Y-99786891D01*
X141588311Y-99614661D01*
X141588311Y-99614660D01*
X141559840Y-99558784D01*
X141506096Y-99453306D01*
X141492496Y-99434587D01*
X141399658Y-99306805D01*
X141399654Y-99306800D01*
X141348899Y-99256045D01*
X141315414Y-99194722D01*
X141316413Y-99180748D01*
X157213600Y-99180748D01*
X157213600Y-101181851D01*
X157224213Y-101285728D01*
X157279983Y-101454035D01*
X157279984Y-101454038D01*
X157373067Y-101604947D01*
X157373070Y-101604951D01*
X157498448Y-101730329D01*
X157498452Y-101730332D01*
X157649361Y-101823415D01*
X157649364Y-101823416D01*
X157817671Y-101879186D01*
X157817672Y-101879186D01*
X157817675Y-101879187D01*
X157921556Y-101889800D01*
X157921561Y-101889800D01*
X159922639Y-101889800D01*
X159922644Y-101889800D01*
X160026525Y-101879187D01*
X160194838Y-101823415D01*
X160345751Y-101730330D01*
X160471130Y-101604951D01*
X160564215Y-101454038D01*
X160619987Y-101285725D01*
X160630600Y-101181844D01*
X160630600Y-99180756D01*
X160619987Y-99076875D01*
X160619986Y-99076871D01*
X160564216Y-98908564D01*
X160564215Y-98908561D01*
X160471132Y-98757652D01*
X160471129Y-98757648D01*
X160345751Y-98632270D01*
X160345747Y-98632267D01*
X160194838Y-98539184D01*
X160194835Y-98539183D01*
X160026528Y-98483413D01*
X159922651Y-98472800D01*
X159922644Y-98472800D01*
X157921556Y-98472800D01*
X157921548Y-98472800D01*
X157817671Y-98483413D01*
X157649364Y-98539183D01*
X157649361Y-98539184D01*
X157498452Y-98632267D01*
X157498448Y-98632270D01*
X157373070Y-98757648D01*
X157373067Y-98757652D01*
X157279984Y-98908561D01*
X157279983Y-98908564D01*
X157224213Y-99076871D01*
X157213600Y-99180748D01*
X141316413Y-99180748D01*
X141320398Y-99125030D01*
X141362270Y-99069097D01*
X141363695Y-99068046D01*
X141373307Y-99061061D01*
X141373308Y-99061060D01*
X140769588Y-98457341D01*
X140829990Y-98432322D01*
X140936451Y-98361188D01*
X141026988Y-98270651D01*
X141098122Y-98164190D01*
X141123141Y-98103789D01*
X141726860Y-98707508D01*
X141726862Y-98707507D01*
X141783630Y-98629371D01*
X141889034Y-98422505D01*
X141960781Y-98201693D01*
X141997100Y-97972390D01*
X141997100Y-97740209D01*
X141960781Y-97510906D01*
X141889034Y-97290094D01*
X141783634Y-97083235D01*
X141726860Y-97005091D01*
X141726859Y-97005091D01*
X141123141Y-97608810D01*
X141098122Y-97548410D01*
X141026988Y-97441949D01*
X140936451Y-97351412D01*
X140829990Y-97280278D01*
X140769587Y-97255257D01*
X141373307Y-96651538D01*
X141295161Y-96594763D01*
X141249610Y-96571553D01*
X141198814Y-96523578D01*
X141182020Y-96455757D01*
X141204558Y-96389622D01*
X141249609Y-96350586D01*
X141299623Y-96325103D01*
X141488535Y-96187850D01*
X141653650Y-96022735D01*
X141790903Y-95833823D01*
X141896913Y-95625766D01*
X141969071Y-95403687D01*
X142005600Y-95173054D01*
X142005600Y-94989325D01*
X157213600Y-94989325D01*
X157213600Y-95213274D01*
X157213601Y-95213290D01*
X157242831Y-95435316D01*
X157242832Y-95435321D01*
X157242833Y-95435327D01*
X157273584Y-95550093D01*
X157300798Y-95651658D01*
X157386500Y-95858562D01*
X157386508Y-95858579D01*
X157498481Y-96052520D01*
X157498492Y-96052536D01*
X157634823Y-96230207D01*
X157634829Y-96230214D01*
X157793185Y-96388570D01*
X157793192Y-96388576D01*
X157894589Y-96466380D01*
X157970872Y-96524914D01*
X157970879Y-96524918D01*
X158164820Y-96636891D01*
X158164825Y-96636893D01*
X158164828Y-96636895D01*
X158164832Y-96636896D01*
X158164837Y-96636899D01*
X158200179Y-96651538D01*
X158371742Y-96722602D01*
X158588073Y-96780567D01*
X158810119Y-96809800D01*
X158810126Y-96809800D01*
X159034074Y-96809800D01*
X159034081Y-96809800D01*
X159256127Y-96780567D01*
X159472458Y-96722602D01*
X159679372Y-96636895D01*
X159873328Y-96524914D01*
X160051009Y-96388575D01*
X160209375Y-96230209D01*
X160345714Y-96052528D01*
X160457695Y-95858572D01*
X160543402Y-95651658D01*
X160601367Y-95435327D01*
X160630600Y-95213281D01*
X160630600Y-94989319D01*
X160601367Y-94767273D01*
X160543402Y-94550942D01*
X160457695Y-94344028D01*
X160457693Y-94344025D01*
X160457691Y-94344020D01*
X160345718Y-94150079D01*
X160345714Y-94150072D01*
X160209375Y-93972391D01*
X160209370Y-93972385D01*
X160051014Y-93814029D01*
X160051007Y-93814023D01*
X159873336Y-93677692D01*
X159873334Y-93677690D01*
X159873328Y-93677686D01*
X159873323Y-93677683D01*
X159873320Y-93677681D01*
X159679379Y-93565708D01*
X159679362Y-93565700D01*
X159472458Y-93479998D01*
X159256127Y-93422033D01*
X159256121Y-93422032D01*
X159256116Y-93422031D01*
X159034090Y-93392801D01*
X159034087Y-93392800D01*
X159034081Y-93392800D01*
X158810119Y-93392800D01*
X158810113Y-93392800D01*
X158810109Y-93392801D01*
X158588083Y-93422031D01*
X158588076Y-93422032D01*
X158588073Y-93422033D01*
X158496635Y-93446533D01*
X158371741Y-93479998D01*
X158164837Y-93565700D01*
X158164820Y-93565708D01*
X157970879Y-93677681D01*
X157970863Y-93677692D01*
X157793192Y-93814023D01*
X157793185Y-93814029D01*
X157634829Y-93972385D01*
X157634823Y-93972392D01*
X157498492Y-94150063D01*
X157498481Y-94150079D01*
X157386508Y-94344020D01*
X157386500Y-94344037D01*
X157300798Y-94550941D01*
X157280298Y-94627451D01*
X157249577Y-94742106D01*
X157242834Y-94767270D01*
X157242831Y-94767283D01*
X157213601Y-94989309D01*
X157213600Y-94989325D01*
X142005600Y-94989325D01*
X142005600Y-94939546D01*
X141969071Y-94708913D01*
X141942600Y-94627448D01*
X141940606Y-94557610D01*
X141972848Y-94501455D01*
X142289171Y-94185133D01*
X142358500Y-94081375D01*
X142406255Y-93966085D01*
X142430600Y-93843694D01*
X142430600Y-93718907D01*
X142430600Y-90833643D01*
X145163600Y-90833643D01*
X145163600Y-91078957D01*
X145166675Y-91098372D01*
X145199968Y-91308576D01*
X145201976Y-91321250D01*
X145277782Y-91554556D01*
X145389151Y-91773132D01*
X145533343Y-91971594D01*
X145706806Y-92145057D01*
X145905268Y-92289249D01*
X146123844Y-92400618D01*
X146357150Y-92476424D01*
X146599443Y-92514800D01*
X146599444Y-92514800D01*
X146844756Y-92514800D01*
X146844757Y-92514800D01*
X147087050Y-92476424D01*
X147320356Y-92400618D01*
X147538932Y-92289249D01*
X147737394Y-92145057D01*
X147910857Y-91971594D01*
X148055049Y-91773132D01*
X148166418Y-91554556D01*
X148242224Y-91321250D01*
X148280600Y-91078957D01*
X148280600Y-90833643D01*
X148242224Y-90591350D01*
X148166418Y-90358044D01*
X148055049Y-90139468D01*
X147910857Y-89941006D01*
X147879176Y-89909325D01*
X157213600Y-89909325D01*
X157213600Y-90133274D01*
X157213601Y-90133290D01*
X157242831Y-90355316D01*
X157242832Y-90355321D01*
X157242833Y-90355327D01*
X157286481Y-90518226D01*
X157300798Y-90571658D01*
X157386500Y-90778562D01*
X157386508Y-90778579D01*
X157498481Y-90972520D01*
X157498492Y-90972536D01*
X157634823Y-91150207D01*
X157634829Y-91150214D01*
X157793185Y-91308570D01*
X157793192Y-91308576D01*
X157876874Y-91372787D01*
X157970872Y-91444914D01*
X157970879Y-91444918D01*
X158164820Y-91556891D01*
X158164825Y-91556893D01*
X158164828Y-91556895D01*
X158164832Y-91556896D01*
X158164837Y-91556899D01*
X158230455Y-91584078D01*
X158371742Y-91642602D01*
X158588073Y-91700567D01*
X158810119Y-91729800D01*
X158810126Y-91729800D01*
X159034074Y-91729800D01*
X159034081Y-91729800D01*
X159256127Y-91700567D01*
X159472458Y-91642602D01*
X159679372Y-91556895D01*
X159873328Y-91444914D01*
X160051009Y-91308575D01*
X160209375Y-91150209D01*
X160345714Y-90972528D01*
X160457695Y-90778572D01*
X160543402Y-90571658D01*
X160601367Y-90355327D01*
X160630600Y-90133281D01*
X160630600Y-89909319D01*
X160601367Y-89687273D01*
X160543402Y-89470942D01*
X160457695Y-89264028D01*
X160457693Y-89264025D01*
X160457691Y-89264020D01*
X160345718Y-89070079D01*
X160345714Y-89070072D01*
X160264936Y-88964800D01*
X160209376Y-88892392D01*
X160209370Y-88892385D01*
X160051014Y-88734029D01*
X160051007Y-88734023D01*
X159873336Y-88597692D01*
X159873334Y-88597690D01*
X159873328Y-88597686D01*
X159873323Y-88597683D01*
X159873320Y-88597681D01*
X159679379Y-88485708D01*
X159679362Y-88485700D01*
X159472458Y-88399998D01*
X159444889Y-88392611D01*
X159256127Y-88342033D01*
X159256121Y-88342032D01*
X159256116Y-88342031D01*
X159034090Y-88312801D01*
X159034087Y-88312800D01*
X159034081Y-88312800D01*
X158810119Y-88312800D01*
X158810113Y-88312800D01*
X158810109Y-88312801D01*
X158588083Y-88342031D01*
X158588076Y-88342032D01*
X158588073Y-88342033D01*
X158512823Y-88362196D01*
X158371741Y-88399998D01*
X158164837Y-88485700D01*
X158164820Y-88485708D01*
X157970879Y-88597681D01*
X157970863Y-88597692D01*
X157793192Y-88734023D01*
X157793185Y-88734029D01*
X157634829Y-88892385D01*
X157634823Y-88892392D01*
X157498492Y-89070063D01*
X157498481Y-89070079D01*
X157386508Y-89264020D01*
X157386500Y-89264037D01*
X157300798Y-89470941D01*
X157289801Y-89511983D01*
X157245542Y-89677165D01*
X157242834Y-89687270D01*
X157242831Y-89687283D01*
X157213601Y-89909309D01*
X157213600Y-89909325D01*
X147879176Y-89909325D01*
X147737394Y-89767543D01*
X147538932Y-89623351D01*
X147320356Y-89511982D01*
X147087050Y-89436176D01*
X147087048Y-89436175D01*
X147087046Y-89436175D01*
X146917874Y-89409380D01*
X146844757Y-89397800D01*
X146599443Y-89397800D01*
X146543275Y-89406696D01*
X146357153Y-89436175D01*
X146123841Y-89511983D01*
X145905267Y-89623351D01*
X145806561Y-89695066D01*
X145706806Y-89767543D01*
X145706804Y-89767545D01*
X145706803Y-89767545D01*
X145533345Y-89941003D01*
X145533345Y-89941004D01*
X145533343Y-89941006D01*
X145506359Y-89978146D01*
X145389151Y-90139467D01*
X145277783Y-90358041D01*
X145201975Y-90591353D01*
X145172321Y-90778579D01*
X145163600Y-90833643D01*
X142430600Y-90833643D01*
X142430600Y-89318906D01*
X142406255Y-89196515D01*
X142358500Y-89081225D01*
X142358499Y-89081224D01*
X142358496Y-89081218D01*
X142289172Y-88977468D01*
X142246646Y-88934942D01*
X142200933Y-88889229D01*
X141466919Y-88155215D01*
X141433434Y-88093892D01*
X141430600Y-88067534D01*
X141430600Y-88016820D01*
X141430599Y-88016816D01*
X141419674Y-87961894D01*
X141395687Y-87841300D01*
X141327202Y-87675964D01*
X141327200Y-87675961D01*
X141327198Y-87675957D01*
X141227778Y-87527165D01*
X141227775Y-87527161D01*
X141101238Y-87400624D01*
X141101234Y-87400621D01*
X140952442Y-87301201D01*
X140952432Y-87301196D01*
X140906224Y-87282056D01*
X140787100Y-87232713D01*
X140787092Y-87232711D01*
X140611583Y-87197800D01*
X140611579Y-87197800D01*
X140432621Y-87197800D01*
X140432616Y-87197800D01*
X140257107Y-87232711D01*
X140257099Y-87232713D01*
X140091767Y-87301196D01*
X140091757Y-87301201D01*
X139942965Y-87400621D01*
X139942961Y-87400624D01*
X139816424Y-87527161D01*
X139816421Y-87527165D01*
X139717001Y-87675957D01*
X139716996Y-87675967D01*
X139648513Y-87841299D01*
X139648511Y-87841305D01*
X139643717Y-87865409D01*
X139611332Y-87927320D01*
X139550616Y-87961894D01*
X139480847Y-87958154D01*
X139424175Y-87917287D01*
X139400483Y-87865409D01*
X139395688Y-87841305D01*
X139395687Y-87841304D01*
X139395687Y-87841300D01*
X139327202Y-87675964D01*
X139327200Y-87675961D01*
X139327198Y-87675957D01*
X139227778Y-87527165D01*
X139227775Y-87527161D01*
X139101238Y-87400624D01*
X139101234Y-87400621D01*
X138952442Y-87301201D01*
X138952432Y-87301196D01*
X138787100Y-87232713D01*
X138787092Y-87232711D01*
X138611583Y-87197800D01*
X138611579Y-87197800D01*
X138432621Y-87197800D01*
X138432616Y-87197800D01*
X138257107Y-87232711D01*
X138257099Y-87232713D01*
X138091767Y-87301196D01*
X138091757Y-87301201D01*
X137942965Y-87400621D01*
X137942961Y-87400624D01*
X137907107Y-87436480D01*
X137845785Y-87469966D01*
X137819425Y-87472800D01*
X135895181Y-87472800D01*
X135828142Y-87453115D01*
X135782387Y-87400311D01*
X135772443Y-87331153D01*
X135795915Y-87274488D01*
X135815452Y-87248389D01*
X135815454Y-87248386D01*
X135865696Y-87113679D01*
X135865698Y-87113672D01*
X135872099Y-87054144D01*
X135872100Y-87054127D01*
X135872100Y-86206300D01*
X134976221Y-86206300D01*
X134995199Y-86160482D01*
X135022100Y-86025244D01*
X135022100Y-85887356D01*
X135011548Y-85834306D01*
X145172100Y-85834306D01*
X145172100Y-86078293D01*
X145210265Y-86319259D01*
X145285660Y-86551298D01*
X145396423Y-86768680D01*
X145463643Y-86861201D01*
X145463644Y-86861202D01*
X146082790Y-86242056D01*
X146101768Y-86287874D01*
X146178374Y-86402524D01*
X146275876Y-86500026D01*
X146390526Y-86576632D01*
X146436342Y-86595609D01*
X145817196Y-87214754D01*
X145817197Y-87214756D01*
X145909719Y-87281976D01*
X146127101Y-87392739D01*
X146359140Y-87468134D01*
X146600107Y-87506300D01*
X146844093Y-87506300D01*
X147085059Y-87468134D01*
X147317098Y-87392739D01*
X147534477Y-87281978D01*
X147627001Y-87214754D01*
X147627002Y-87214754D01*
X147007857Y-86595609D01*
X147053674Y-86576632D01*
X147168324Y-86500026D01*
X147265826Y-86402524D01*
X147342432Y-86287874D01*
X147361409Y-86242057D01*
X147980554Y-86861202D01*
X147980554Y-86861201D01*
X148047778Y-86768677D01*
X148158539Y-86551298D01*
X148233934Y-86319259D01*
X148272100Y-86078293D01*
X148272100Y-85834306D01*
X148233934Y-85593340D01*
X148158539Y-85361301D01*
X148047776Y-85143919D01*
X147980556Y-85051397D01*
X147980554Y-85051396D01*
X147361409Y-85670541D01*
X147342432Y-85624726D01*
X147265826Y-85510076D01*
X147168324Y-85412574D01*
X147053674Y-85335968D01*
X147007856Y-85316989D01*
X147495522Y-84829325D01*
X157213600Y-84829325D01*
X157213600Y-85053274D01*
X157213601Y-85053290D01*
X157242831Y-85275316D01*
X157242832Y-85275321D01*
X157242833Y-85275327D01*
X157279608Y-85412574D01*
X157300798Y-85491658D01*
X157386500Y-85698562D01*
X157386508Y-85698579D01*
X157498481Y-85892520D01*
X157498492Y-85892536D01*
X157634823Y-86070207D01*
X157634829Y-86070214D01*
X157793185Y-86228570D01*
X157793191Y-86228575D01*
X157970872Y-86364914D01*
X157970879Y-86364918D01*
X158164820Y-86476891D01*
X158164825Y-86476893D01*
X158164828Y-86476895D01*
X158164832Y-86476896D01*
X158164837Y-86476899D01*
X158220671Y-86500026D01*
X158371742Y-86562602D01*
X158588073Y-86620567D01*
X158810119Y-86649800D01*
X158810126Y-86649800D01*
X159034074Y-86649800D01*
X159034081Y-86649800D01*
X159256127Y-86620567D01*
X159472458Y-86562602D01*
X159679372Y-86476895D01*
X159873328Y-86364914D01*
X160051009Y-86228575D01*
X160209375Y-86070209D01*
X160345714Y-85892528D01*
X160457695Y-85698572D01*
X160543402Y-85491658D01*
X160601367Y-85275327D01*
X160630600Y-85053281D01*
X160630600Y-84829319D01*
X160601367Y-84607273D01*
X160543402Y-84390942D01*
X160457695Y-84184028D01*
X160457693Y-84184025D01*
X160457691Y-84184020D01*
X160345718Y-83990079D01*
X160345714Y-83990072D01*
X160227057Y-83835435D01*
X160209376Y-83812392D01*
X160209370Y-83812385D01*
X160051014Y-83654029D01*
X160051007Y-83654023D01*
X159873336Y-83517692D01*
X159873334Y-83517690D01*
X159873328Y-83517686D01*
X159873323Y-83517683D01*
X159873320Y-83517681D01*
X159679379Y-83405708D01*
X159679362Y-83405700D01*
X159472458Y-83319998D01*
X159423220Y-83306805D01*
X159256127Y-83262033D01*
X159256121Y-83262032D01*
X159256116Y-83262031D01*
X159034090Y-83232801D01*
X159034087Y-83232800D01*
X159034081Y-83232800D01*
X158810119Y-83232800D01*
X158810113Y-83232800D01*
X158810109Y-83232801D01*
X158588083Y-83262031D01*
X158588076Y-83262032D01*
X158588073Y-83262033D01*
X158496635Y-83286533D01*
X158371741Y-83319998D01*
X158164837Y-83405700D01*
X158164820Y-83405708D01*
X157970879Y-83517681D01*
X157970863Y-83517692D01*
X157793192Y-83654023D01*
X157793185Y-83654029D01*
X157634829Y-83812385D01*
X157634823Y-83812392D01*
X157498492Y-83990063D01*
X157498481Y-83990079D01*
X157386508Y-84184020D01*
X157386500Y-84184037D01*
X157300798Y-84390941D01*
X157272129Y-84497936D01*
X157249577Y-84582106D01*
X157242834Y-84607270D01*
X157242831Y-84607283D01*
X157213601Y-84829309D01*
X157213600Y-84829325D01*
X147495522Y-84829325D01*
X147587268Y-84737579D01*
X147627002Y-84697844D01*
X147627001Y-84697843D01*
X147534480Y-84630623D01*
X147317098Y-84519860D01*
X147085059Y-84444465D01*
X146844093Y-84406300D01*
X146600107Y-84406300D01*
X146359140Y-84444465D01*
X146127101Y-84519860D01*
X145909726Y-84630619D01*
X145817197Y-84697844D01*
X146436343Y-85316989D01*
X146390526Y-85335968D01*
X146275876Y-85412574D01*
X146178374Y-85510076D01*
X146101768Y-85624726D01*
X146082790Y-85670543D01*
X145463644Y-85051397D01*
X145396419Y-85143926D01*
X145285660Y-85361301D01*
X145210265Y-85593340D01*
X145172100Y-85834306D01*
X135011548Y-85834306D01*
X134995199Y-85752118D01*
X134976221Y-85706300D01*
X135872100Y-85706300D01*
X135872100Y-84858472D01*
X135872099Y-84858455D01*
X135865698Y-84798927D01*
X135865696Y-84798920D01*
X135815454Y-84664213D01*
X135815450Y-84664206D01*
X135729290Y-84549112D01*
X135729287Y-84549109D01*
X135614193Y-84462949D01*
X135614186Y-84462945D01*
X135479479Y-84412703D01*
X135479472Y-84412701D01*
X135419944Y-84406300D01*
X134572100Y-84406300D01*
X134572100Y-85302179D01*
X134526282Y-85283201D01*
X134391044Y-85256300D01*
X134253156Y-85256300D01*
X134117918Y-85283201D01*
X134072100Y-85302179D01*
X134072100Y-84406300D01*
X133224255Y-84406300D01*
X133164727Y-84412701D01*
X133164720Y-84412703D01*
X133030013Y-84462945D01*
X133030006Y-84462949D01*
X132914912Y-84549109D01*
X132914909Y-84549112D01*
X132828749Y-84664206D01*
X132828745Y-84664213D01*
X132778503Y-84798920D01*
X132778501Y-84798927D01*
X132772100Y-84858455D01*
X132772100Y-85706300D01*
X133667979Y-85706300D01*
X133649001Y-85752118D01*
X133622100Y-85887356D01*
X133622100Y-86025244D01*
X133649001Y-86160482D01*
X133667979Y-86206300D01*
X132772100Y-86206300D01*
X132772100Y-87054144D01*
X132778501Y-87113672D01*
X132778503Y-87113680D01*
X132831386Y-87255467D01*
X132833574Y-87286075D01*
X132837942Y-87316447D01*
X132836044Y-87320602D01*
X132836370Y-87325159D01*
X132821663Y-87352091D01*
X132808917Y-87380003D01*
X132805074Y-87382472D01*
X132802885Y-87386482D01*
X132775954Y-87401186D01*
X132750139Y-87417777D01*
X132743936Y-87418668D01*
X132741561Y-87419966D01*
X132715204Y-87422800D01*
X132549775Y-87422800D01*
X132482736Y-87403115D01*
X132462093Y-87386480D01*
X132426238Y-87350624D01*
X132426234Y-87350621D01*
X132277442Y-87251201D01*
X132277432Y-87251196D01*
X132112100Y-87182713D01*
X132112092Y-87182711D01*
X131936583Y-87147800D01*
X131936579Y-87147800D01*
X131879600Y-87147800D01*
X131812561Y-87128115D01*
X131766806Y-87075311D01*
X131755600Y-87023800D01*
X131755600Y-81293905D01*
X131755599Y-81293901D01*
X131731256Y-81171522D01*
X131731255Y-81171515D01*
X131683500Y-81056225D01*
X131683499Y-81056224D01*
X131683496Y-81056218D01*
X131614172Y-80952468D01*
X131593772Y-80932068D01*
X131525933Y-80864229D01*
X129701250Y-79039546D01*
X139038600Y-79039546D01*
X139038600Y-79273053D01*
X139075128Y-79503687D01*
X139147288Y-79725770D01*
X139192432Y-79814369D01*
X139253297Y-79933823D01*
X139390550Y-80122735D01*
X139555665Y-80287850D01*
X139725490Y-80411236D01*
X139768155Y-80466565D01*
X139774134Y-80536178D01*
X139741528Y-80597973D01*
X139725488Y-80611872D01*
X139670891Y-80651537D01*
X139670891Y-80651538D01*
X140274611Y-81255258D01*
X140214210Y-81280278D01*
X140107749Y-81351412D01*
X140017212Y-81441949D01*
X139946078Y-81548410D01*
X139921058Y-81608811D01*
X139317338Y-81005091D01*
X139317337Y-81005091D01*
X139260570Y-81083225D01*
X139155165Y-81290094D01*
X139083418Y-81510906D01*
X139047100Y-81740209D01*
X139047100Y-81972390D01*
X139083418Y-82201693D01*
X139155165Y-82422505D01*
X139260565Y-82629364D01*
X139317338Y-82707507D01*
X139921058Y-82103787D01*
X139946078Y-82164190D01*
X140017212Y-82270651D01*
X140107749Y-82361188D01*
X140214210Y-82432322D01*
X140274610Y-82457341D01*
X139670891Y-83061059D01*
X139670891Y-83061060D01*
X139680504Y-83068044D01*
X139723170Y-83123374D01*
X139729149Y-83192987D01*
X139696544Y-83254783D01*
X139695302Y-83256043D01*
X139644540Y-83306805D01*
X139538106Y-83453302D01*
X139455888Y-83614660D01*
X139455887Y-83614663D01*
X139399929Y-83786889D01*
X139371600Y-83965748D01*
X139371600Y-84146851D01*
X139399929Y-84325710D01*
X139455887Y-84497936D01*
X139455888Y-84497939D01*
X139511596Y-84607270D01*
X139538103Y-84659293D01*
X139538106Y-84659297D01*
X139644541Y-84805794D01*
X139644545Y-84805799D01*
X139772600Y-84933854D01*
X139772605Y-84933858D01*
X139884875Y-85015426D01*
X139919106Y-85040296D01*
X140024584Y-85094040D01*
X140080460Y-85122511D01*
X140080463Y-85122512D01*
X140166576Y-85150491D01*
X140252691Y-85178471D01*
X140335529Y-85191591D01*
X140431549Y-85206800D01*
X140431554Y-85206800D01*
X140612651Y-85206800D01*
X140699359Y-85193065D01*
X140791509Y-85178471D01*
X140963739Y-85122511D01*
X141125094Y-85040296D01*
X141271601Y-84933853D01*
X141399653Y-84805801D01*
X141506096Y-84659294D01*
X141588311Y-84497939D01*
X141644271Y-84325709D01*
X141661224Y-84218674D01*
X141672600Y-84146851D01*
X141672600Y-83965748D01*
X141651960Y-83835438D01*
X141644271Y-83786891D01*
X141601100Y-83654023D01*
X141588312Y-83614663D01*
X141588311Y-83614660D01*
X141540741Y-83521300D01*
X141506096Y-83453306D01*
X141471512Y-83405705D01*
X141399658Y-83306805D01*
X141399654Y-83306800D01*
X141348899Y-83256045D01*
X141315414Y-83194722D01*
X141320398Y-83125030D01*
X141362270Y-83069097D01*
X141363695Y-83068046D01*
X141373307Y-83061061D01*
X141373308Y-83061060D01*
X140769588Y-82457341D01*
X140829990Y-82432322D01*
X140936451Y-82361188D01*
X141026988Y-82270651D01*
X141098122Y-82164190D01*
X141123141Y-82103789D01*
X141726860Y-82707508D01*
X141726862Y-82707507D01*
X141783630Y-82629371D01*
X141889034Y-82422505D01*
X141960781Y-82201693D01*
X141997100Y-81972390D01*
X141997100Y-81740209D01*
X141960781Y-81510906D01*
X141889034Y-81290094D01*
X141783634Y-81083235D01*
X141726860Y-81005091D01*
X141726859Y-81005091D01*
X141123141Y-81608810D01*
X141098122Y-81548410D01*
X141026988Y-81441949D01*
X140936451Y-81351412D01*
X140829990Y-81280278D01*
X140769587Y-81255257D01*
X141373307Y-80651538D01*
X141318710Y-80611872D01*
X141276044Y-80556542D01*
X141270065Y-80486929D01*
X141302670Y-80425133D01*
X141318706Y-80411237D01*
X141488535Y-80287850D01*
X141653650Y-80122735D01*
X141790903Y-79933823D01*
X141896913Y-79725766D01*
X141969071Y-79503687D01*
X142005600Y-79273054D01*
X142005600Y-79039546D01*
X141969071Y-78808913D01*
X141942600Y-78727448D01*
X141940606Y-78657610D01*
X141972848Y-78601455D01*
X142289171Y-78285133D01*
X142358500Y-78181375D01*
X142406255Y-78066085D01*
X142430600Y-77943694D01*
X142430600Y-77818907D01*
X142430600Y-74933643D01*
X145163600Y-74933643D01*
X145163600Y-75178956D01*
X145193133Y-75365423D01*
X145201976Y-75421250D01*
X145276690Y-75651196D01*
X145277783Y-75654558D01*
X145353476Y-75803115D01*
X145389151Y-75873132D01*
X145533343Y-76071594D01*
X145706806Y-76245057D01*
X145905268Y-76389249D01*
X146123844Y-76500618D01*
X146357150Y-76576424D01*
X146599443Y-76614800D01*
X146599444Y-76614800D01*
X146844756Y-76614800D01*
X146844757Y-76614800D01*
X147087050Y-76576424D01*
X147320356Y-76500618D01*
X147538932Y-76389249D01*
X147737394Y-76245057D01*
X147910857Y-76071594D01*
X148055049Y-75873132D01*
X148166418Y-75654556D01*
X148242224Y-75421250D01*
X148280600Y-75178957D01*
X148280600Y-74933643D01*
X148242224Y-74691350D01*
X148166418Y-74458044D01*
X148148107Y-74422106D01*
X148111997Y-74351234D01*
X148111996Y-74351233D01*
X148077082Y-74282711D01*
X148055049Y-74239468D01*
X147910857Y-74041006D01*
X147737394Y-73867543D01*
X147538932Y-73723351D01*
X147320356Y-73611982D01*
X147087050Y-73536176D01*
X147087048Y-73536175D01*
X147087046Y-73536175D01*
X146917874Y-73509380D01*
X146844757Y-73497800D01*
X146599443Y-73497800D01*
X146543275Y-73506696D01*
X146357153Y-73536175D01*
X146123841Y-73611983D01*
X145905267Y-73723351D01*
X145798606Y-73800846D01*
X145706806Y-73867543D01*
X145706804Y-73867545D01*
X145706803Y-73867545D01*
X145533345Y-74041003D01*
X145533345Y-74041004D01*
X145533343Y-74041006D01*
X145497591Y-74090214D01*
X145389151Y-74239467D01*
X145277783Y-74458041D01*
X145277782Y-74458043D01*
X145277782Y-74458044D01*
X145271569Y-74477165D01*
X145201975Y-74691353D01*
X145163600Y-74933643D01*
X142430600Y-74933643D01*
X142430600Y-73118906D01*
X142426106Y-73096314D01*
X157222100Y-73096314D01*
X157222100Y-73846300D01*
X158159739Y-73846300D01*
X158152843Y-73862949D01*
X158122100Y-74017507D01*
X158122100Y-74175093D01*
X158152843Y-74329651D01*
X158159739Y-74346300D01*
X157222100Y-74346300D01*
X157222100Y-75096285D01*
X157232593Y-75198989D01*
X157232594Y-75198996D01*
X157287741Y-75365418D01*
X157287743Y-75365423D01*
X157379784Y-75514644D01*
X157503755Y-75638615D01*
X157652976Y-75730656D01*
X157652981Y-75730658D01*
X157819403Y-75785805D01*
X157819410Y-75785806D01*
X157922114Y-75796299D01*
X157922127Y-75796300D01*
X158672100Y-75796300D01*
X158672100Y-74858660D01*
X158688749Y-74865557D01*
X158843307Y-74896300D01*
X159000893Y-74896300D01*
X159155451Y-74865557D01*
X159172100Y-74858660D01*
X159172100Y-75796300D01*
X159922073Y-75796300D01*
X159922085Y-75796299D01*
X160024789Y-75785806D01*
X160024796Y-75785805D01*
X160191218Y-75730658D01*
X160191223Y-75730656D01*
X160340444Y-75638615D01*
X160464415Y-75514644D01*
X160556456Y-75365423D01*
X160556458Y-75365418D01*
X160611605Y-75198996D01*
X160611606Y-75198989D01*
X160622099Y-75096285D01*
X160622100Y-75096272D01*
X160622100Y-74346300D01*
X159684461Y-74346300D01*
X159691357Y-74329651D01*
X159722100Y-74175093D01*
X159722100Y-74017507D01*
X159691357Y-73862949D01*
X159684461Y-73846300D01*
X160622100Y-73846300D01*
X160622100Y-73096327D01*
X160622099Y-73096314D01*
X160611606Y-72993610D01*
X160611605Y-72993603D01*
X160556458Y-72827181D01*
X160556456Y-72827176D01*
X160464415Y-72677955D01*
X160340444Y-72553984D01*
X160191223Y-72461943D01*
X160191218Y-72461941D01*
X160024796Y-72406794D01*
X160024789Y-72406793D01*
X159922085Y-72396300D01*
X159172100Y-72396300D01*
X159172100Y-73333939D01*
X159155451Y-73327043D01*
X159000893Y-73296300D01*
X158843307Y-73296300D01*
X158688749Y-73327043D01*
X158672100Y-73333939D01*
X158672100Y-72396300D01*
X157922114Y-72396300D01*
X157819410Y-72406793D01*
X157819403Y-72406794D01*
X157652981Y-72461941D01*
X157652976Y-72461943D01*
X157503755Y-72553984D01*
X157379784Y-72677955D01*
X157287743Y-72827176D01*
X157287741Y-72827181D01*
X157232594Y-72993603D01*
X157232593Y-72993610D01*
X157222100Y-73096314D01*
X142426106Y-73096314D01*
X142426088Y-73096225D01*
X142416992Y-73050493D01*
X142406255Y-72996515D01*
X142358500Y-72881225D01*
X142358499Y-72881224D01*
X142358496Y-72881218D01*
X142289172Y-72777468D01*
X142249930Y-72738226D01*
X142200933Y-72689229D01*
X141466919Y-71955215D01*
X141433434Y-71893892D01*
X141430600Y-71867534D01*
X141430600Y-71816820D01*
X141430599Y-71816816D01*
X141419577Y-71761403D01*
X141395687Y-71641300D01*
X141327202Y-71475964D01*
X141327200Y-71475961D01*
X141327198Y-71475957D01*
X141233940Y-71336386D01*
X141227777Y-71327163D01*
X141101238Y-71200624D01*
X141101234Y-71200621D01*
X140952442Y-71101201D01*
X140952432Y-71101196D01*
X140787100Y-71032713D01*
X140787092Y-71032711D01*
X140611583Y-70997800D01*
X140611579Y-70997800D01*
X140432621Y-70997800D01*
X140432616Y-70997800D01*
X140257107Y-71032711D01*
X140257099Y-71032713D01*
X140091767Y-71101196D01*
X140091757Y-71101201D01*
X139942965Y-71200621D01*
X139942961Y-71200624D01*
X139816424Y-71327161D01*
X139816421Y-71327165D01*
X139717001Y-71475957D01*
X139716996Y-71475967D01*
X139648513Y-71641299D01*
X139648511Y-71641307D01*
X139613600Y-71816816D01*
X139613600Y-71995783D01*
X139648511Y-72171292D01*
X139648513Y-72171300D01*
X139716996Y-72336632D01*
X139717001Y-72336642D01*
X139816421Y-72485434D01*
X139816424Y-72485438D01*
X139942961Y-72611975D01*
X139942965Y-72611978D01*
X140091757Y-72711398D01*
X140091761Y-72711400D01*
X140091764Y-72711402D01*
X140257100Y-72779887D01*
X140432616Y-72814799D01*
X140432620Y-72814800D01*
X140432621Y-72814800D01*
X140483334Y-72814800D01*
X140550373Y-72834485D01*
X140571015Y-72851119D01*
X141127281Y-73407385D01*
X141160766Y-73468708D01*
X141163600Y-73495066D01*
X141163600Y-75789573D01*
X141143915Y-75856612D01*
X141091111Y-75902367D01*
X141021953Y-75912311D01*
X140983306Y-75900058D01*
X140963745Y-75890091D01*
X140963736Y-75890087D01*
X140791510Y-75834129D01*
X140612651Y-75805800D01*
X140612646Y-75805800D01*
X140431554Y-75805800D01*
X140431549Y-75805800D01*
X140252689Y-75834129D01*
X140080463Y-75890087D01*
X140080460Y-75890088D01*
X139919102Y-75972306D01*
X139772605Y-76078741D01*
X139772600Y-76078745D01*
X139644545Y-76206800D01*
X139644541Y-76206805D01*
X139538106Y-76353302D01*
X139455888Y-76514660D01*
X139455887Y-76514663D01*
X139399929Y-76686889D01*
X139371600Y-76865748D01*
X139371600Y-77046851D01*
X139399929Y-77225710D01*
X139455887Y-77397936D01*
X139455888Y-77397939D01*
X139504039Y-77492439D01*
X139534189Y-77551611D01*
X139538106Y-77559297D01*
X139644541Y-77705794D01*
X139644545Y-77705799D01*
X139689216Y-77750471D01*
X139722700Y-77811794D01*
X139717715Y-77881486D01*
X139675843Y-77937419D01*
X139674420Y-77938469D01*
X139555663Y-78024751D01*
X139390552Y-78189862D01*
X139390552Y-78189863D01*
X139390550Y-78189865D01*
X139339499Y-78260131D01*
X139253297Y-78378776D01*
X139147288Y-78586829D01*
X139075128Y-78808912D01*
X139038600Y-79039546D01*
X129701250Y-79039546D01*
X129468512Y-78806808D01*
X129468492Y-78806786D01*
X125595349Y-74933643D01*
X132763600Y-74933643D01*
X132763600Y-75178956D01*
X132793133Y-75365423D01*
X132801976Y-75421250D01*
X132876690Y-75651196D01*
X132877783Y-75654558D01*
X132953476Y-75803115D01*
X132989151Y-75873132D01*
X133133343Y-76071594D01*
X133306806Y-76245057D01*
X133505268Y-76389249D01*
X133723844Y-76500618D01*
X133957150Y-76576424D01*
X134199443Y-76614800D01*
X134199444Y-76614800D01*
X134444756Y-76614800D01*
X134444757Y-76614800D01*
X134687050Y-76576424D01*
X134920356Y-76500618D01*
X135138932Y-76389249D01*
X135337394Y-76245057D01*
X135510857Y-76071594D01*
X135655049Y-75873132D01*
X135766418Y-75654556D01*
X135842224Y-75421250D01*
X135880600Y-75178957D01*
X135880600Y-74933643D01*
X135842224Y-74691350D01*
X135766418Y-74458044D01*
X135655049Y-74239468D01*
X135510857Y-74041006D01*
X135337394Y-73867543D01*
X135138932Y-73723351D01*
X134920356Y-73611982D01*
X134687050Y-73536176D01*
X134687048Y-73536175D01*
X134687046Y-73536175D01*
X134517874Y-73509380D01*
X134444757Y-73497800D01*
X134199443Y-73497800D01*
X134143275Y-73506696D01*
X133957153Y-73536175D01*
X133723841Y-73611983D01*
X133505267Y-73723351D01*
X133398606Y-73800846D01*
X133306806Y-73867543D01*
X133306804Y-73867545D01*
X133306803Y-73867545D01*
X133133345Y-74041003D01*
X133133345Y-74041004D01*
X133133343Y-74041006D01*
X133097591Y-74090214D01*
X132989151Y-74239467D01*
X132877783Y-74458041D01*
X132877782Y-74458043D01*
X132877782Y-74458044D01*
X132871569Y-74477165D01*
X132801975Y-74691353D01*
X132763600Y-74933643D01*
X125595349Y-74933643D01*
X123516919Y-72855213D01*
X123483434Y-72793890D01*
X123480600Y-72767532D01*
X123480600Y-72716820D01*
X123480599Y-72716816D01*
X123462528Y-72625967D01*
X123445687Y-72541300D01*
X123377202Y-72375964D01*
X123377200Y-72375961D01*
X123377198Y-72375957D01*
X123277778Y-72227165D01*
X123277775Y-72227161D01*
X123151238Y-72100624D01*
X123151234Y-72100621D01*
X123002442Y-72001201D01*
X123002432Y-72001196D01*
X122837100Y-71932713D01*
X122837092Y-71932711D01*
X122661583Y-71897800D01*
X122661579Y-71897800D01*
X122482621Y-71897800D01*
X122362698Y-71921653D01*
X122303791Y-71933371D01*
X122234199Y-71927143D01*
X122179022Y-71884279D01*
X122155778Y-71818389D01*
X122155600Y-71811753D01*
X122155600Y-69993905D01*
X122155599Y-69993901D01*
X122150353Y-69967528D01*
X122131255Y-69871515D01*
X122118742Y-69841305D01*
X122091455Y-69775428D01*
X122091453Y-69775425D01*
X122083501Y-69756225D01*
X122058229Y-69718403D01*
X122014172Y-69652466D01*
X121466919Y-69105213D01*
X121452215Y-69078285D01*
X121435623Y-69052467D01*
X121434731Y-69046266D01*
X121433434Y-69043890D01*
X121430600Y-69017532D01*
X121430600Y-68958455D01*
X132772100Y-68958455D01*
X132772100Y-69806300D01*
X133667979Y-69806300D01*
X133649001Y-69852118D01*
X133622100Y-69987356D01*
X133622100Y-70125244D01*
X133649001Y-70260482D01*
X133667979Y-70306300D01*
X132772100Y-70306300D01*
X132772100Y-71154144D01*
X132778501Y-71213672D01*
X132778503Y-71213679D01*
X132828745Y-71348386D01*
X132828749Y-71348393D01*
X132914909Y-71463487D01*
X132914912Y-71463490D01*
X133030006Y-71549650D01*
X133030013Y-71549654D01*
X133164720Y-71599896D01*
X133164727Y-71599898D01*
X133224255Y-71606299D01*
X133224272Y-71606300D01*
X134072100Y-71606300D01*
X134072100Y-70710420D01*
X134117918Y-70729399D01*
X134253156Y-70756300D01*
X134391044Y-70756300D01*
X134526282Y-70729399D01*
X134572100Y-70710420D01*
X134572100Y-71606300D01*
X135419928Y-71606300D01*
X135419944Y-71606299D01*
X135479472Y-71599898D01*
X135479479Y-71599896D01*
X135614186Y-71549654D01*
X135614193Y-71549650D01*
X135729287Y-71463490D01*
X135729290Y-71463487D01*
X135815450Y-71348393D01*
X135815454Y-71348386D01*
X135865696Y-71213679D01*
X135865698Y-71213672D01*
X135872099Y-71154144D01*
X135872100Y-71154127D01*
X135872100Y-70306300D01*
X134976221Y-70306300D01*
X134995199Y-70260482D01*
X135022100Y-70125244D01*
X135022100Y-69987356D01*
X135011548Y-69934306D01*
X145172100Y-69934306D01*
X145172100Y-70178293D01*
X145210265Y-70419259D01*
X145285660Y-70651298D01*
X145396423Y-70868680D01*
X145463643Y-70961201D01*
X145463644Y-70961202D01*
X146082790Y-70342056D01*
X146101768Y-70387874D01*
X146178374Y-70502524D01*
X146275876Y-70600026D01*
X146390526Y-70676632D01*
X146436342Y-70695609D01*
X145817196Y-71314754D01*
X145817197Y-71314756D01*
X145909719Y-71381976D01*
X146127101Y-71492739D01*
X146359140Y-71568134D01*
X146600107Y-71606300D01*
X146844093Y-71606300D01*
X147085059Y-71568134D01*
X147317098Y-71492739D01*
X147534477Y-71381978D01*
X147627001Y-71314754D01*
X147627002Y-71314754D01*
X147007857Y-70695609D01*
X147053674Y-70676632D01*
X147168324Y-70600026D01*
X147265826Y-70502524D01*
X147342432Y-70387874D01*
X147361409Y-70342057D01*
X147980554Y-70961202D01*
X147980554Y-70961201D01*
X148047778Y-70868677D01*
X148158539Y-70651298D01*
X148233934Y-70419259D01*
X148272100Y-70178293D01*
X148272100Y-69934306D01*
X148233934Y-69693340D01*
X148158539Y-69461301D01*
X148047776Y-69243919D01*
X147980556Y-69151397D01*
X147980554Y-69151396D01*
X147361409Y-69770541D01*
X147342432Y-69724726D01*
X147265826Y-69610076D01*
X147168324Y-69512574D01*
X147053674Y-69435968D01*
X147007856Y-69416989D01*
X147520522Y-68904325D01*
X157213600Y-68904325D01*
X157213600Y-69128274D01*
X157213601Y-69128290D01*
X157242831Y-69350316D01*
X157242832Y-69350321D01*
X157242833Y-69350327D01*
X157296501Y-69550621D01*
X157300798Y-69566658D01*
X157386500Y-69773562D01*
X157386508Y-69773579D01*
X157498481Y-69967520D01*
X157498492Y-69967536D01*
X157634823Y-70145207D01*
X157634829Y-70145214D01*
X157793185Y-70303570D01*
X157793192Y-70303576D01*
X157875614Y-70366820D01*
X157970872Y-70439914D01*
X157970879Y-70439918D01*
X158164820Y-70551891D01*
X158164825Y-70551893D01*
X158164828Y-70551895D01*
X158164832Y-70551896D01*
X158164837Y-70551899D01*
X158169002Y-70553624D01*
X158371742Y-70637602D01*
X158588073Y-70695567D01*
X158810119Y-70724800D01*
X158810126Y-70724800D01*
X159034074Y-70724800D01*
X159034081Y-70724800D01*
X159256127Y-70695567D01*
X159472458Y-70637602D01*
X159679372Y-70551895D01*
X159873328Y-70439914D01*
X160051009Y-70303575D01*
X160209375Y-70145209D01*
X160345714Y-69967528D01*
X160457695Y-69773572D01*
X160543402Y-69566658D01*
X160601367Y-69350327D01*
X160630600Y-69128281D01*
X160630600Y-68904319D01*
X160601367Y-68682273D01*
X160543402Y-68465942D01*
X160457695Y-68259028D01*
X160457693Y-68259025D01*
X160457691Y-68259020D01*
X160345718Y-68065079D01*
X160345714Y-68065072D01*
X160273141Y-67970493D01*
X160209376Y-67887392D01*
X160209370Y-67887385D01*
X160051014Y-67729029D01*
X160051007Y-67729023D01*
X159873336Y-67592692D01*
X159873334Y-67592690D01*
X159873328Y-67592686D01*
X159873323Y-67592683D01*
X159873320Y-67592681D01*
X159679379Y-67480708D01*
X159679362Y-67480700D01*
X159472458Y-67394998D01*
X159459817Y-67391611D01*
X159256127Y-67337033D01*
X159256121Y-67337032D01*
X159256116Y-67337031D01*
X159034090Y-67307801D01*
X159034087Y-67307800D01*
X159034081Y-67307800D01*
X158810119Y-67307800D01*
X158810113Y-67307800D01*
X158810109Y-67307801D01*
X158588083Y-67337031D01*
X158588076Y-67337032D01*
X158588073Y-67337033D01*
X158496635Y-67361533D01*
X158371741Y-67394998D01*
X158164837Y-67480700D01*
X158164820Y-67480708D01*
X157970879Y-67592681D01*
X157970863Y-67592692D01*
X157793192Y-67729023D01*
X157793185Y-67729029D01*
X157634829Y-67887385D01*
X157634823Y-67887392D01*
X157498492Y-68065063D01*
X157498481Y-68065079D01*
X157386508Y-68259020D01*
X157386500Y-68259037D01*
X157300798Y-68465941D01*
X157273997Y-68565967D01*
X157250820Y-68652467D01*
X157242834Y-68682270D01*
X157242831Y-68682283D01*
X157213601Y-68904309D01*
X157213600Y-68904325D01*
X147520522Y-68904325D01*
X147612268Y-68812579D01*
X147627002Y-68797844D01*
X147627001Y-68797843D01*
X147534480Y-68730623D01*
X147317098Y-68619860D01*
X147085059Y-68544465D01*
X146844093Y-68506300D01*
X146600107Y-68506300D01*
X146359140Y-68544465D01*
X146127101Y-68619860D01*
X145909726Y-68730619D01*
X145817197Y-68797844D01*
X146436343Y-69416989D01*
X146390526Y-69435968D01*
X146275876Y-69512574D01*
X146178374Y-69610076D01*
X146101768Y-69724726D01*
X146082790Y-69770543D01*
X145463644Y-69151397D01*
X145396419Y-69243926D01*
X145285660Y-69461301D01*
X145210265Y-69693340D01*
X145172100Y-69934306D01*
X135011548Y-69934306D01*
X134995199Y-69852118D01*
X134976221Y-69806300D01*
X135872100Y-69806300D01*
X135872100Y-68958472D01*
X135872099Y-68958455D01*
X135865698Y-68898927D01*
X135865696Y-68898920D01*
X135815454Y-68764213D01*
X135815450Y-68764206D01*
X135729290Y-68649112D01*
X135729287Y-68649109D01*
X135614193Y-68562949D01*
X135614186Y-68562945D01*
X135479479Y-68512703D01*
X135479472Y-68512701D01*
X135419944Y-68506300D01*
X134572100Y-68506300D01*
X134572100Y-69402179D01*
X134526282Y-69383201D01*
X134391044Y-69356300D01*
X134253156Y-69356300D01*
X134117918Y-69383201D01*
X134072100Y-69402179D01*
X134072100Y-68506300D01*
X133224255Y-68506300D01*
X133164727Y-68512701D01*
X133164720Y-68512703D01*
X133030013Y-68562945D01*
X133030006Y-68562949D01*
X132914912Y-68649109D01*
X132914909Y-68649112D01*
X132828749Y-68764206D01*
X132828745Y-68764213D01*
X132778503Y-68898920D01*
X132778501Y-68898927D01*
X132772100Y-68958455D01*
X121430600Y-68958455D01*
X121430600Y-68906820D01*
X121430599Y-68906816D01*
X121408923Y-68797843D01*
X121395687Y-68731300D01*
X121327202Y-68565964D01*
X121327200Y-68565961D01*
X121327198Y-68565957D01*
X121227778Y-68417165D01*
X121227775Y-68417161D01*
X121101238Y-68290624D01*
X121101234Y-68290621D01*
X120952442Y-68191201D01*
X120952432Y-68191196D01*
X120914401Y-68175443D01*
X120787100Y-68122713D01*
X120787092Y-68122711D01*
X120611583Y-68087800D01*
X120611579Y-68087800D01*
X120432621Y-68087800D01*
X120432616Y-68087800D01*
X120257107Y-68122711D01*
X120257099Y-68122713D01*
X120091767Y-68191196D01*
X120091757Y-68191201D01*
X119942965Y-68290621D01*
X119942961Y-68290624D01*
X119816424Y-68417161D01*
X119816421Y-68417165D01*
X119717001Y-68565957D01*
X119716996Y-68565967D01*
X119648513Y-68731299D01*
X119648511Y-68731307D01*
X119613600Y-68906816D01*
X119613600Y-69085783D01*
X119648511Y-69261292D01*
X119648513Y-69261300D01*
X119716996Y-69426632D01*
X119717001Y-69426642D01*
X119816421Y-69575434D01*
X119816424Y-69575438D01*
X119942961Y-69701975D01*
X119942965Y-69701978D01*
X120091757Y-69801398D01*
X120091761Y-69801400D01*
X120091764Y-69801402D01*
X120257100Y-69869887D01*
X120327115Y-69883813D01*
X120432613Y-69904799D01*
X120432618Y-69904799D01*
X120432621Y-69904800D01*
X120432623Y-69904800D01*
X120435124Y-69905046D01*
X120436356Y-69905543D01*
X120438596Y-69905989D01*
X120438511Y-69906413D01*
X120499915Y-69931199D01*
X120510665Y-69940769D01*
X120852281Y-70282385D01*
X120885766Y-70343708D01*
X120888600Y-70370066D01*
X120888600Y-77677009D01*
X120868915Y-77744048D01*
X120816111Y-77789803D01*
X120746953Y-77799747D01*
X120695710Y-77780112D01*
X120652440Y-77751200D01*
X120652432Y-77751196D01*
X120487100Y-77682713D01*
X120487092Y-77682711D01*
X120311583Y-77647800D01*
X120311579Y-77647800D01*
X120260867Y-77647800D01*
X120193828Y-77628115D01*
X120173186Y-77611481D01*
X117791919Y-75230214D01*
X117758434Y-75168891D01*
X117755600Y-75142533D01*
X117755600Y-75066820D01*
X117755599Y-75066816D01*
X117754972Y-75063666D01*
X117720687Y-74891300D01*
X117652202Y-74725964D01*
X117652200Y-74725961D01*
X117652198Y-74725957D01*
X117552778Y-74577165D01*
X117552775Y-74577161D01*
X117426238Y-74450624D01*
X117426234Y-74450621D01*
X117277442Y-74351201D01*
X117277432Y-74351196D01*
X117112100Y-74282713D01*
X117112092Y-74282711D01*
X116936583Y-74247800D01*
X116936579Y-74247800D01*
X116879600Y-74247800D01*
X116812561Y-74228115D01*
X116766806Y-74175311D01*
X116755600Y-74123800D01*
X116755600Y-73193905D01*
X116755599Y-73193901D01*
X116740682Y-73118907D01*
X116731255Y-73071515D01*
X116683500Y-72956225D01*
X116683499Y-72956224D01*
X116683496Y-72956218D01*
X116614172Y-72852468D01*
X116576503Y-72814799D01*
X116525933Y-72764229D01*
X116104659Y-72342955D01*
X116071174Y-72281632D01*
X116076158Y-72211940D01*
X116118030Y-72156007D01*
X116168149Y-72133657D01*
X116176271Y-72132040D01*
X116187100Y-72129887D01*
X116352436Y-72061402D01*
X116501235Y-71961978D01*
X116627778Y-71835435D01*
X116727202Y-71686636D01*
X116795687Y-71521300D01*
X116830600Y-71345779D01*
X116830600Y-71166821D01*
X116795687Y-70991300D01*
X116727202Y-70825964D01*
X116727200Y-70825961D01*
X116727198Y-70825957D01*
X116627778Y-70677165D01*
X116627775Y-70677161D01*
X116591919Y-70641305D01*
X116558434Y-70579982D01*
X116555600Y-70553624D01*
X116555600Y-68993905D01*
X116555599Y-68993901D01*
X116548548Y-68958455D01*
X116531255Y-68871515D01*
X116486806Y-68764206D01*
X116483501Y-68756227D01*
X116483496Y-68756218D01*
X116414172Y-68652468D01*
X116381564Y-68619860D01*
X116325933Y-68564229D01*
X115838112Y-68076408D01*
X115804627Y-68015085D01*
X115809611Y-67945393D01*
X115851483Y-67889460D01*
X115916947Y-67865043D01*
X115926529Y-67865174D01*
X115926529Y-67864800D01*
X116111580Y-67864800D01*
X116111581Y-67864799D01*
X116287100Y-67829887D01*
X116452436Y-67761402D01*
X116601235Y-67661978D01*
X116727778Y-67535435D01*
X116827202Y-67386636D01*
X116895687Y-67221300D01*
X116930600Y-67045779D01*
X116930600Y-66866821D01*
X116895687Y-66691300D01*
X116827202Y-66525964D01*
X116827200Y-66525961D01*
X116827198Y-66525957D01*
X116727778Y-66377165D01*
X116727775Y-66377161D01*
X116601238Y-66250624D01*
X116601234Y-66250621D01*
X116452442Y-66151201D01*
X116452432Y-66151196D01*
X116287100Y-66082713D01*
X116287092Y-66082711D01*
X116111583Y-66047800D01*
X116111579Y-66047800D01*
X116060866Y-66047800D01*
X116031425Y-66039155D01*
X116001439Y-66032632D01*
X115996423Y-66028877D01*
X115993827Y-66028115D01*
X115973185Y-66011481D01*
X115884728Y-65923024D01*
X113925936Y-63964231D01*
X113925932Y-63964228D01*
X113822181Y-63894903D01*
X113822172Y-63894898D01*
X113706885Y-63847145D01*
X113706877Y-63847143D01*
X113584498Y-63822800D01*
X113584494Y-63822800D01*
X107424775Y-63822800D01*
X107357736Y-63803115D01*
X107337093Y-63786480D01*
X107301238Y-63750624D01*
X107301234Y-63750621D01*
X107152442Y-63651201D01*
X107152432Y-63651196D01*
X106987100Y-63582713D01*
X106987092Y-63582711D01*
X106811583Y-63547800D01*
X106811579Y-63547800D01*
X106632621Y-63547800D01*
X106632616Y-63547800D01*
X106457107Y-63582711D01*
X106457099Y-63582713D01*
X106291767Y-63651196D01*
X106291757Y-63651201D01*
X106142965Y-63750621D01*
X106142961Y-63750624D01*
X106016424Y-63877161D01*
X106016421Y-63877165D01*
X105917001Y-64025957D01*
X105916996Y-64025967D01*
X105848513Y-64191299D01*
X105848511Y-64191307D01*
X105813600Y-64366816D01*
X105813600Y-64545783D01*
X105848511Y-64721292D01*
X105848513Y-64721300D01*
X105916996Y-64886632D01*
X105917001Y-64886642D01*
X106016421Y-65035434D01*
X106016424Y-65035438D01*
X106142961Y-65161975D01*
X106142965Y-65161978D01*
X106291757Y-65261398D01*
X106291761Y-65261400D01*
X106291764Y-65261402D01*
X106457100Y-65329887D01*
X106632616Y-65364799D01*
X106632620Y-65364800D01*
X106632621Y-65364800D01*
X106811580Y-65364800D01*
X106811581Y-65364799D01*
X106987100Y-65329887D01*
X107152436Y-65261402D01*
X107301235Y-65161978D01*
X107337093Y-65126120D01*
X107398415Y-65092634D01*
X107424775Y-65089800D01*
X113208334Y-65089800D01*
X113275373Y-65109485D01*
X113296015Y-65126119D01*
X115077281Y-66907385D01*
X115091951Y-66934251D01*
X115108533Y-66959982D01*
X115109443Y-66966285D01*
X115110766Y-66968708D01*
X115113600Y-66994911D01*
X115113600Y-67045779D01*
X115113664Y-67046101D01*
X115113672Y-67052450D01*
X115105484Y-67080462D01*
X115100034Y-67109141D01*
X115095797Y-67113607D01*
X115094071Y-67119514D01*
X115072037Y-67138654D01*
X115051949Y-67159832D01*
X115045971Y-67161298D01*
X115041325Y-67165335D01*
X115012434Y-67169525D01*
X114984091Y-67176479D01*
X114978270Y-67174481D01*
X114972179Y-67175365D01*
X114945616Y-67163274D01*
X114918006Y-67153798D01*
X114910048Y-67147084D01*
X114908587Y-67146419D01*
X114907784Y-67145174D01*
X114901991Y-67140286D01*
X114525936Y-66764231D01*
X114525932Y-66764228D01*
X114422181Y-66694903D01*
X114422172Y-66694898D01*
X114306885Y-66647145D01*
X114306877Y-66647143D01*
X114184498Y-66622800D01*
X114184494Y-66622800D01*
X107424775Y-66622800D01*
X107357736Y-66603115D01*
X107337093Y-66586480D01*
X107301238Y-66550624D01*
X107301234Y-66550621D01*
X107152442Y-66451201D01*
X107152432Y-66451196D01*
X106987100Y-66382713D01*
X106987092Y-66382711D01*
X106811583Y-66347800D01*
X106811579Y-66347800D01*
X106632621Y-66347800D01*
X106632616Y-66347800D01*
X106457107Y-66382711D01*
X106457099Y-66382713D01*
X106291767Y-66451196D01*
X106291757Y-66451201D01*
X106142965Y-66550621D01*
X106142961Y-66550624D01*
X106016424Y-66677161D01*
X106016421Y-66677165D01*
X105917001Y-66825957D01*
X105916996Y-66825967D01*
X105848513Y-66991299D01*
X105848511Y-66991307D01*
X105813600Y-67166816D01*
X105813600Y-67345783D01*
X105848511Y-67521292D01*
X105848513Y-67521300D01*
X105916996Y-67686632D01*
X105917001Y-67686642D01*
X106016421Y-67835434D01*
X106016424Y-67835438D01*
X106142961Y-67961975D01*
X106142965Y-67961978D01*
X106291757Y-68061398D01*
X106291761Y-68061400D01*
X106291764Y-68061402D01*
X106457100Y-68129887D01*
X106578376Y-68154010D01*
X106632616Y-68164799D01*
X106632620Y-68164800D01*
X106632621Y-68164800D01*
X106811580Y-68164800D01*
X106811581Y-68164799D01*
X106987100Y-68129887D01*
X107152436Y-68061402D01*
X107301235Y-67961978D01*
X107337093Y-67926120D01*
X107398415Y-67892634D01*
X107424775Y-67889800D01*
X113808334Y-67889800D01*
X113875373Y-67909485D01*
X113896015Y-67926119D01*
X115252281Y-69282385D01*
X115285766Y-69343708D01*
X115288600Y-69370066D01*
X115288600Y-70553624D01*
X115268915Y-70620663D01*
X115252281Y-70641305D01*
X115216424Y-70677161D01*
X115216421Y-70677165D01*
X115117001Y-70825957D01*
X115116996Y-70825967D01*
X115048513Y-70991299D01*
X115048510Y-70991309D01*
X115044741Y-71010255D01*
X115040031Y-71019256D01*
X115039307Y-71029393D01*
X115024108Y-71049694D01*
X115012354Y-71072165D01*
X115003523Y-71077192D01*
X114997435Y-71085326D01*
X114973676Y-71094187D01*
X114951636Y-71106737D01*
X114941489Y-71106192D01*
X114931971Y-71109743D01*
X114907192Y-71104352D01*
X114881867Y-71102994D01*
X114871808Y-71096655D01*
X114863698Y-71094891D01*
X114835444Y-71073740D01*
X114766919Y-71005215D01*
X114733434Y-70943892D01*
X114730600Y-70917534D01*
X114730600Y-70866820D01*
X114730599Y-70866816D01*
X114724357Y-70835434D01*
X114695687Y-70691300D01*
X114627202Y-70525964D01*
X114627200Y-70525961D01*
X114627198Y-70525957D01*
X114527778Y-70377165D01*
X114527775Y-70377161D01*
X114401238Y-70250624D01*
X114401234Y-70250621D01*
X114252442Y-70151201D01*
X114252432Y-70151196D01*
X114087100Y-70082713D01*
X114087092Y-70082711D01*
X113911583Y-70047800D01*
X113911579Y-70047800D01*
X113732621Y-70047800D01*
X113732616Y-70047800D01*
X113557107Y-70082711D01*
X113557099Y-70082713D01*
X113391767Y-70151196D01*
X113391757Y-70151201D01*
X113242965Y-70250621D01*
X113242961Y-70250624D01*
X113116424Y-70377161D01*
X113116421Y-70377165D01*
X113017001Y-70525957D01*
X113016996Y-70525967D01*
X112948513Y-70691299D01*
X112948511Y-70691307D01*
X112913600Y-70866816D01*
X112913600Y-71045783D01*
X112948511Y-71221292D01*
X112948513Y-71221300D01*
X113016996Y-71386632D01*
X113017001Y-71386642D01*
X113116421Y-71535434D01*
X113116424Y-71535438D01*
X113242961Y-71661975D01*
X113242965Y-71661978D01*
X113391757Y-71761398D01*
X113391761Y-71761400D01*
X113391764Y-71761402D01*
X113557100Y-71829887D01*
X113732616Y-71864799D01*
X113732620Y-71864800D01*
X113732621Y-71864800D01*
X113783334Y-71864800D01*
X113850373Y-71884485D01*
X113871015Y-71901119D01*
X114262451Y-72292555D01*
X114295936Y-72353878D01*
X114290952Y-72423570D01*
X114249080Y-72479503D01*
X114243661Y-72483338D01*
X114142965Y-72550621D01*
X114142961Y-72550624D01*
X114016424Y-72677161D01*
X114016421Y-72677165D01*
X113917001Y-72825957D01*
X113916996Y-72825967D01*
X113848513Y-72991299D01*
X113848511Y-72991307D01*
X113813600Y-73166816D01*
X113813600Y-73345783D01*
X113848511Y-73521292D01*
X113848513Y-73521300D01*
X113916996Y-73686632D01*
X113917001Y-73686642D01*
X114016421Y-73835434D01*
X114016424Y-73835438D01*
X114052280Y-73871293D01*
X114085766Y-73932615D01*
X114088600Y-73958975D01*
X114088600Y-76942534D01*
X114068915Y-77009573D01*
X114052281Y-77030215D01*
X107971015Y-83111481D01*
X107909692Y-83144966D01*
X107883334Y-83147800D01*
X107832616Y-83147800D01*
X107657107Y-83182711D01*
X107657099Y-83182713D01*
X107491767Y-83251196D01*
X107491757Y-83251201D01*
X107342965Y-83350621D01*
X107342961Y-83350624D01*
X107216424Y-83477161D01*
X107216421Y-83477165D01*
X107117001Y-83625957D01*
X107116996Y-83625967D01*
X107048513Y-83791299D01*
X107048511Y-83791307D01*
X107013600Y-83966816D01*
X107013600Y-84145783D01*
X107019334Y-84174609D01*
X107013107Y-84244201D01*
X106970243Y-84299378D01*
X106904354Y-84322622D01*
X106897717Y-84322800D01*
X105335866Y-84322800D01*
X105268827Y-84303115D01*
X105248185Y-84286481D01*
X100663186Y-79701481D01*
X100629701Y-79640158D01*
X100634685Y-79570466D01*
X100676557Y-79514533D01*
X100742021Y-79490116D01*
X100750867Y-79489800D01*
X101584495Y-79489800D01*
X101584496Y-79489799D01*
X101706885Y-79465455D01*
X101822175Y-79417700D01*
X101925933Y-79348371D01*
X103073186Y-78201119D01*
X103134509Y-78167634D01*
X103160867Y-78164800D01*
X103211580Y-78164800D01*
X103211581Y-78164799D01*
X103387100Y-78129887D01*
X103552436Y-78061402D01*
X103701235Y-77961978D01*
X103827778Y-77835435D01*
X103927202Y-77686636D01*
X103995687Y-77521300D01*
X104030600Y-77345779D01*
X104030600Y-77166821D01*
X103995687Y-76991300D01*
X103927202Y-76825964D01*
X103927200Y-76825961D01*
X103927198Y-76825957D01*
X103827778Y-76677165D01*
X103827775Y-76677161D01*
X103701238Y-76550624D01*
X103701234Y-76550621D01*
X103552442Y-76451201D01*
X103552432Y-76451196D01*
X103387100Y-76382713D01*
X103387092Y-76382711D01*
X103211583Y-76347800D01*
X103211579Y-76347800D01*
X103128581Y-76347800D01*
X103061542Y-76328115D01*
X103015787Y-76275311D01*
X103006964Y-76247991D01*
X102996897Y-76197385D01*
X102995687Y-76191300D01*
X102927202Y-76025964D01*
X102927200Y-76025961D01*
X102927198Y-76025957D01*
X102827778Y-75877165D01*
X102827775Y-75877161D01*
X102701238Y-75750624D01*
X102701234Y-75750621D01*
X102552442Y-75651201D01*
X102552432Y-75651196D01*
X102387100Y-75582713D01*
X102387092Y-75582711D01*
X102211583Y-75547800D01*
X102211579Y-75547800D01*
X102032621Y-75547800D01*
X102032616Y-75547800D01*
X101857107Y-75582711D01*
X101857099Y-75582713D01*
X101691767Y-75651196D01*
X101691757Y-75651201D01*
X101542965Y-75750621D01*
X101542961Y-75750624D01*
X101507107Y-75786480D01*
X101445785Y-75819966D01*
X101419425Y-75822800D01*
X97835866Y-75822800D01*
X97768827Y-75803115D01*
X97748185Y-75786481D01*
X96966919Y-75005215D01*
X96954447Y-74982375D01*
X96938711Y-74961644D01*
X96936468Y-74949449D01*
X96933434Y-74943892D01*
X96930978Y-74927207D01*
X96930600Y-74922376D01*
X96930600Y-74866821D01*
X96923433Y-74830794D01*
X96922861Y-74823473D01*
X96928607Y-74796181D01*
X96931093Y-74768399D01*
X96935706Y-74762459D01*
X96937256Y-74755102D01*
X96956846Y-74735247D01*
X96973957Y-74713222D01*
X96981047Y-74710720D01*
X96986329Y-74705368D01*
X97013541Y-74699257D01*
X97039846Y-74689978D01*
X97046483Y-74689800D01*
X101784495Y-74689800D01*
X101784496Y-74689799D01*
X101906885Y-74665455D01*
X102022175Y-74617700D01*
X102125933Y-74548371D01*
X102673186Y-74001119D01*
X102734509Y-73967634D01*
X102760867Y-73964800D01*
X102811580Y-73964800D01*
X102811581Y-73964799D01*
X102987100Y-73929887D01*
X103152436Y-73861402D01*
X103301235Y-73761978D01*
X103427778Y-73635435D01*
X103527202Y-73486636D01*
X103595687Y-73321300D01*
X103630600Y-73145779D01*
X103630600Y-72966821D01*
X103595687Y-72791300D01*
X103527202Y-72625964D01*
X103527200Y-72625961D01*
X103527198Y-72625957D01*
X103427778Y-72477165D01*
X103427775Y-72477161D01*
X103301238Y-72350624D01*
X103301234Y-72350621D01*
X103152442Y-72251201D01*
X103152432Y-72251196D01*
X102987100Y-72182713D01*
X102987092Y-72182711D01*
X102811583Y-72147800D01*
X102811579Y-72147800D01*
X102632621Y-72147800D01*
X102632616Y-72147800D01*
X102457107Y-72182711D01*
X102457099Y-72182713D01*
X102291767Y-72251196D01*
X102291757Y-72251201D01*
X102142965Y-72350621D01*
X102142961Y-72350624D01*
X102016424Y-72477161D01*
X102016421Y-72477165D01*
X101917001Y-72625957D01*
X101916996Y-72625967D01*
X101848513Y-72791299D01*
X101848511Y-72791307D01*
X101813600Y-72966816D01*
X101813600Y-73017533D01*
X101793915Y-73084572D01*
X101777281Y-73105214D01*
X101496015Y-73386481D01*
X101434692Y-73419966D01*
X101408334Y-73422800D01*
X99850865Y-73422800D01*
X99783826Y-73403115D01*
X99738071Y-73350311D01*
X99728127Y-73281153D01*
X99757152Y-73217597D01*
X99763184Y-73211119D01*
X100762363Y-72211940D01*
X101799656Y-71174647D01*
X101860977Y-71141164D01*
X101911526Y-71140713D01*
X101947912Y-71147950D01*
X102032618Y-71164799D01*
X102032620Y-71164800D01*
X102032621Y-71164800D01*
X102211580Y-71164800D01*
X102211581Y-71164799D01*
X102387100Y-71129887D01*
X102552436Y-71061402D01*
X102701235Y-70961978D01*
X102827778Y-70835435D01*
X102927202Y-70686636D01*
X102995687Y-70521300D01*
X103030600Y-70345779D01*
X103030600Y-70166821D01*
X102995687Y-69991300D01*
X102927202Y-69825964D01*
X102927200Y-69825961D01*
X102927198Y-69825957D01*
X102827778Y-69677165D01*
X102827775Y-69677161D01*
X102701238Y-69550624D01*
X102701234Y-69550621D01*
X102552442Y-69451201D01*
X102552432Y-69451196D01*
X102387100Y-69382713D01*
X102387092Y-69382711D01*
X102211583Y-69347800D01*
X102211579Y-69347800D01*
X102032621Y-69347800D01*
X102032616Y-69347800D01*
X101857107Y-69382711D01*
X101857099Y-69382713D01*
X101691767Y-69451196D01*
X101691757Y-69451201D01*
X101542965Y-69550621D01*
X101542961Y-69550624D01*
X101416423Y-69677162D01*
X101316998Y-69825964D01*
X101298481Y-69870666D01*
X101271602Y-69910891D01*
X100642281Y-70540213D01*
X100580958Y-70573698D01*
X100511267Y-70568714D01*
X100455333Y-70526843D01*
X100430916Y-70461378D01*
X100430600Y-70452532D01*
X100430600Y-70366820D01*
X100430599Y-70366816D01*
X100426415Y-70345780D01*
X100395687Y-70191300D01*
X100327202Y-70025964D01*
X100327200Y-70025961D01*
X100327198Y-70025957D01*
X100272042Y-69943411D01*
X100251164Y-69876734D01*
X100269648Y-69809354D01*
X100287458Y-69786844D01*
X101873186Y-68201119D01*
X101934509Y-68167634D01*
X101960867Y-68164800D01*
X102011580Y-68164800D01*
X102011581Y-68164799D01*
X102187100Y-68129887D01*
X102352436Y-68061402D01*
X102501235Y-67961978D01*
X102541525Y-67921688D01*
X102602848Y-67888202D01*
X102672539Y-67893186D01*
X102716888Y-67921687D01*
X104452281Y-69657080D01*
X104485766Y-69718403D01*
X104488600Y-69744761D01*
X104488600Y-74353624D01*
X104468915Y-74420663D01*
X104452281Y-74441305D01*
X104416424Y-74477161D01*
X104416421Y-74477165D01*
X104317001Y-74625957D01*
X104316996Y-74625967D01*
X104248513Y-74791299D01*
X104248511Y-74791307D01*
X104213600Y-74966816D01*
X104213600Y-75145783D01*
X104248511Y-75321292D01*
X104248513Y-75321300D01*
X104316996Y-75486632D01*
X104317001Y-75486642D01*
X104416421Y-75635434D01*
X104416424Y-75635438D01*
X104542961Y-75761975D01*
X104542965Y-75761978D01*
X104691757Y-75861398D01*
X104691761Y-75861400D01*
X104691764Y-75861402D01*
X104857100Y-75929887D01*
X105032616Y-75964799D01*
X105032620Y-75964800D01*
X105032621Y-75964800D01*
X105211580Y-75964800D01*
X105211581Y-75964799D01*
X105387100Y-75929887D01*
X105552436Y-75861402D01*
X105701235Y-75761978D01*
X105827778Y-75635435D01*
X105927202Y-75486636D01*
X105995687Y-75321300D01*
X106030600Y-75145779D01*
X106030600Y-74966821D01*
X105995687Y-74791300D01*
X105927202Y-74625964D01*
X105927200Y-74625961D01*
X105927198Y-74625957D01*
X105827778Y-74477165D01*
X105827775Y-74477161D01*
X105791919Y-74441305D01*
X105758434Y-74379982D01*
X105755600Y-74353624D01*
X105755600Y-69368600D01*
X105755599Y-69368596D01*
X105743307Y-69306800D01*
X105731255Y-69246210D01*
X105691982Y-69151397D01*
X105683501Y-69130922D01*
X105683496Y-69130913D01*
X105614172Y-69027163D01*
X105580910Y-68993901D01*
X105525933Y-68938924D01*
X103855904Y-67268895D01*
X102151241Y-65564231D01*
X102151237Y-65564228D01*
X102047486Y-65494903D01*
X102047477Y-65494898D01*
X101932190Y-65447145D01*
X101932182Y-65447143D01*
X101809803Y-65422800D01*
X101809799Y-65422800D01*
X100224775Y-65422800D01*
X100157736Y-65403115D01*
X100137093Y-65386480D01*
X100101238Y-65350624D01*
X100101234Y-65350621D01*
X99952442Y-65251201D01*
X99952432Y-65251196D01*
X99787100Y-65182713D01*
X99787092Y-65182711D01*
X99611583Y-65147800D01*
X99611579Y-65147800D01*
X99432621Y-65147800D01*
X99432616Y-65147800D01*
X99257107Y-65182711D01*
X99257099Y-65182713D01*
X99091767Y-65251196D01*
X99091757Y-65251201D01*
X98942965Y-65350621D01*
X98942961Y-65350624D01*
X98816424Y-65477161D01*
X98816421Y-65477165D01*
X98717001Y-65625957D01*
X98716996Y-65625967D01*
X98648513Y-65791299D01*
X98648511Y-65791307D01*
X98613600Y-65966816D01*
X98613600Y-66145783D01*
X98648511Y-66321292D01*
X98648513Y-66321300D01*
X98716996Y-66486632D01*
X98717001Y-66486642D01*
X98816421Y-66635434D01*
X98816424Y-66635438D01*
X98942961Y-66761975D01*
X98942965Y-66761978D01*
X99091757Y-66861398D01*
X99091761Y-66861400D01*
X99091764Y-66861402D01*
X99257100Y-66929887D01*
X99408399Y-66959982D01*
X99432616Y-66964799D01*
X99432620Y-66964800D01*
X99432621Y-66964800D01*
X99611580Y-66964800D01*
X99611581Y-66964799D01*
X99787100Y-66929887D01*
X99952436Y-66861402D01*
X100101235Y-66761978D01*
X100137093Y-66726120D01*
X100198415Y-66692634D01*
X100224775Y-66689800D01*
X100987820Y-66689800D01*
X101054859Y-66709485D01*
X101100614Y-66762289D01*
X101110558Y-66831447D01*
X101102381Y-66861250D01*
X101083272Y-66907385D01*
X101048513Y-66991299D01*
X101048511Y-66991307D01*
X101013600Y-67166816D01*
X101013600Y-67217533D01*
X100993915Y-67284572D01*
X100977280Y-67305214D01*
X99118267Y-69164229D01*
X99074147Y-69208349D01*
X99030027Y-69252468D01*
X98960703Y-69356218D01*
X98960698Y-69356227D01*
X98912945Y-69471514D01*
X98912943Y-69471522D01*
X98888600Y-69593901D01*
X98888600Y-69753624D01*
X98868915Y-69820663D01*
X98852281Y-69841305D01*
X98816424Y-69877161D01*
X98816421Y-69877165D01*
X98717001Y-70025957D01*
X98716996Y-70025967D01*
X98648513Y-70191299D01*
X98648511Y-70191307D01*
X98613600Y-70366816D01*
X98613600Y-70545783D01*
X98648511Y-70721292D01*
X98648513Y-70721300D01*
X98716996Y-70886632D01*
X98717001Y-70886642D01*
X98816421Y-71035434D01*
X98816424Y-71035438D01*
X98942961Y-71161975D01*
X98942965Y-71161978D01*
X99091757Y-71261398D01*
X99091761Y-71261400D01*
X99091764Y-71261402D01*
X99257100Y-71329887D01*
X99432616Y-71364799D01*
X99432620Y-71364800D01*
X99518332Y-71364800D01*
X99585371Y-71384485D01*
X99631126Y-71437289D01*
X99641070Y-71506447D01*
X99612045Y-71570003D01*
X99606013Y-71576481D01*
X99015283Y-72167211D01*
X98953960Y-72200696D01*
X98903414Y-72201148D01*
X98886580Y-72197800D01*
X98886579Y-72197800D01*
X98707621Y-72197800D01*
X98707616Y-72197800D01*
X98532107Y-72232711D01*
X98532099Y-72232713D01*
X98366767Y-72301196D01*
X98366757Y-72301201D01*
X98217965Y-72400621D01*
X98217961Y-72400624D01*
X98091424Y-72527161D01*
X98091421Y-72527165D01*
X97992001Y-72675957D01*
X97991996Y-72675967D01*
X97923513Y-72841299D01*
X97923511Y-72841307D01*
X97888600Y-73016816D01*
X97888600Y-73195780D01*
X97904280Y-73274608D01*
X97898053Y-73344200D01*
X97855190Y-73399377D01*
X97789300Y-73422622D01*
X97782663Y-73422800D01*
X95824775Y-73422800D01*
X95757736Y-73403115D01*
X95737093Y-73386480D01*
X95701238Y-73350624D01*
X95701234Y-73350621D01*
X95552442Y-73251201D01*
X95552432Y-73251196D01*
X95387100Y-73182713D01*
X95387092Y-73182711D01*
X95211583Y-73147800D01*
X95211579Y-73147800D01*
X95032621Y-73147800D01*
X95032616Y-73147800D01*
X94857107Y-73182711D01*
X94857095Y-73182714D01*
X94727052Y-73236580D01*
X94657583Y-73244049D01*
X94595104Y-73212774D01*
X94559452Y-73152685D01*
X94555600Y-73122019D01*
X94555600Y-64193905D01*
X94555599Y-64193901D01*
X94531256Y-64071522D01*
X94531255Y-64071515D01*
X94486816Y-63964231D01*
X94483501Y-63956227D01*
X94483496Y-63956218D01*
X94414172Y-63852468D01*
X94384504Y-63822800D01*
X94325933Y-63764229D01*
X94073081Y-63511377D01*
X94057659Y-63492586D01*
X94044785Y-63473319D01*
X94024171Y-63442467D01*
X94024169Y-63442464D01*
X94024168Y-63442463D01*
X92032942Y-61451238D01*
X91999457Y-61389915D01*
X91998150Y-61344159D01*
X92027285Y-61160214D01*
X92030600Y-61139281D01*
X92030600Y-60933319D01*
X91998380Y-60729892D01*
X91993476Y-60714800D01*
X91956376Y-60600618D01*
X91934734Y-60534010D01*
X91934732Y-60534007D01*
X91934732Y-60534005D01*
X91893611Y-60453302D01*
X91841229Y-60350497D01*
X91809485Y-60306805D01*
X91720173Y-60183876D01*
X91720169Y-60183871D01*
X91574528Y-60038230D01*
X91574523Y-60038226D01*
X91407906Y-59917173D01*
X91407905Y-59917172D01*
X91407903Y-59917171D01*
X91350596Y-59887971D01*
X91224394Y-59823667D01*
X91028508Y-59760019D01*
X90852894Y-59732205D01*
X90825081Y-59727800D01*
X90619119Y-59727800D01*
X90594650Y-59731675D01*
X90415691Y-59760019D01*
X90219805Y-59823667D01*
X90036293Y-59917173D01*
X89869676Y-60038226D01*
X89869671Y-60038230D01*
X89724030Y-60183871D01*
X89724026Y-60183876D01*
X89602973Y-60350493D01*
X89509467Y-60534005D01*
X89445819Y-60729891D01*
X89413600Y-60933319D01*
X89413600Y-61139281D01*
X89418005Y-61167094D01*
X89445819Y-61342708D01*
X89509467Y-61538594D01*
X89602973Y-61722106D01*
X89724026Y-61888723D01*
X89724030Y-61888728D01*
X89869671Y-62034369D01*
X89869676Y-62034373D01*
X90036295Y-62155428D01*
X90115559Y-62195816D01*
X90166354Y-62243790D01*
X90183149Y-62311611D01*
X90160611Y-62377746D01*
X90115559Y-62416784D01*
X90036295Y-62457171D01*
X89869676Y-62578226D01*
X89869671Y-62578230D01*
X89724030Y-62723871D01*
X89724026Y-62723876D01*
X89602973Y-62890493D01*
X89509467Y-63074005D01*
X89445819Y-63269891D01*
X89413600Y-63473319D01*
X89413600Y-63679280D01*
X89445819Y-63882708D01*
X89509467Y-64078594D01*
X89533595Y-64125946D01*
X89601967Y-64260133D01*
X89602973Y-64262106D01*
X89724026Y-64428723D01*
X89724030Y-64428728D01*
X89869671Y-64574369D01*
X89869676Y-64574373D01*
X90036295Y-64695428D01*
X90115559Y-64735816D01*
X90166354Y-64783790D01*
X90183149Y-64851611D01*
X90160611Y-64917746D01*
X90115559Y-64956784D01*
X90036295Y-64997171D01*
X89869676Y-65118226D01*
X89869671Y-65118230D01*
X89724030Y-65263871D01*
X89724026Y-65263876D01*
X89602973Y-65430493D01*
X89509467Y-65614005D01*
X89445819Y-65809891D01*
X89413600Y-66013319D01*
X89413600Y-66219280D01*
X89445819Y-66422708D01*
X89509467Y-66618594D01*
X89602973Y-66802106D01*
X89724026Y-66968723D01*
X89724030Y-66968728D01*
X89869671Y-67114369D01*
X89869676Y-67114373D01*
X90036295Y-67235428D01*
X90115559Y-67275816D01*
X90166354Y-67323790D01*
X90183149Y-67391611D01*
X90160611Y-67457746D01*
X90115559Y-67496784D01*
X90036295Y-67537171D01*
X89869676Y-67658226D01*
X89869671Y-67658230D01*
X89724030Y-67803871D01*
X89724026Y-67803876D01*
X89602973Y-67970493D01*
X89509467Y-68154005D01*
X89445819Y-68349891D01*
X89413600Y-68553319D01*
X89413600Y-68759280D01*
X89445819Y-68962708D01*
X89509467Y-69158594D01*
X89602973Y-69342106D01*
X89724026Y-69508723D01*
X89724030Y-69508728D01*
X89869671Y-69654369D01*
X89869676Y-69654373D01*
X90036295Y-69775428D01*
X90115559Y-69815816D01*
X90166354Y-69863790D01*
X90183149Y-69931611D01*
X90160611Y-69997746D01*
X90115559Y-70036784D01*
X90036295Y-70077171D01*
X89869676Y-70198226D01*
X89869671Y-70198230D01*
X89724030Y-70343871D01*
X89724026Y-70343876D01*
X89602973Y-70510493D01*
X89509467Y-70694005D01*
X89445819Y-70889891D01*
X89413600Y-71093319D01*
X89413600Y-71299280D01*
X89446049Y-71504158D01*
X89437094Y-71573452D01*
X89411257Y-71611237D01*
X88410521Y-72611975D01*
X88118267Y-72904229D01*
X88074147Y-72948349D01*
X88030027Y-72992468D01*
X87960703Y-73096218D01*
X87960698Y-73096227D01*
X87912945Y-73211514D01*
X87912943Y-73211522D01*
X87888600Y-73333901D01*
X83155600Y-73333901D01*
X83155600Y-64370066D01*
X83175285Y-64303027D01*
X83191919Y-64282385D01*
X88770707Y-58703598D01*
X97713600Y-58703598D01*
X97713600Y-58893831D01*
X97743356Y-59081706D01*
X97802140Y-59262622D01*
X97888498Y-59432107D01*
X98000308Y-59586000D01*
X98134815Y-59720507D01*
X98288708Y-59832317D01*
X98338949Y-59857916D01*
X98458192Y-59918674D01*
X98458194Y-59918674D01*
X98458197Y-59918676D01*
X98544701Y-59946783D01*
X98639108Y-59977458D01*
X98826984Y-60007215D01*
X98826989Y-60007215D01*
X99017216Y-60007215D01*
X99205091Y-59977458D01*
X99218405Y-59973132D01*
X99386003Y-59918676D01*
X99555492Y-59832317D01*
X99709385Y-59720507D01*
X99843892Y-59586000D01*
X99955702Y-59432107D01*
X100042061Y-59262618D01*
X100100843Y-59081706D01*
X100130600Y-58893831D01*
X100130600Y-58703598D01*
X100100843Y-58515723D01*
X100046546Y-58348616D01*
X100042061Y-58334812D01*
X100042059Y-58334809D01*
X100042059Y-58334807D01*
X99985079Y-58222979D01*
X99955702Y-58165323D01*
X99843892Y-58011430D01*
X99709385Y-57876923D01*
X99555492Y-57765113D01*
X99515769Y-57744873D01*
X99386007Y-57678755D01*
X99205091Y-57619971D01*
X99017216Y-57590215D01*
X99017211Y-57590215D01*
X98826989Y-57590215D01*
X98826984Y-57590215D01*
X98639108Y-57619971D01*
X98458192Y-57678755D01*
X98288707Y-57765113D01*
X98208550Y-57823351D01*
X98134815Y-57876923D01*
X98134813Y-57876925D01*
X98134812Y-57876925D01*
X98000310Y-58011427D01*
X98000310Y-58011428D01*
X98000308Y-58011430D01*
X97974886Y-58046420D01*
X97888498Y-58165322D01*
X97802140Y-58334807D01*
X97743356Y-58515723D01*
X97713600Y-58703598D01*
X88770707Y-58703598D01*
X88863254Y-58611051D01*
X91414168Y-56060136D01*
X91414171Y-56060133D01*
X91483500Y-55956375D01*
X91531255Y-55841085D01*
X91555600Y-55718694D01*
X91555600Y-55593906D01*
X91555600Y-53946949D01*
X95422100Y-53946949D01*
X95424999Y-53983789D01*
X95425000Y-53983795D01*
X95470816Y-54141493D01*
X95470817Y-54141496D01*
X95554414Y-54282852D01*
X95554421Y-54282861D01*
X95670538Y-54398978D01*
X95670547Y-54398985D01*
X95811901Y-54482581D01*
X95969614Y-54528400D01*
X95969611Y-54528400D01*
X95972098Y-54528595D01*
X95972100Y-54528595D01*
X95972100Y-53506300D01*
X95422100Y-53506300D01*
X95422100Y-53946949D01*
X91555600Y-53946949D01*
X91555600Y-52813800D01*
X91575285Y-52746761D01*
X91628089Y-52701006D01*
X91679600Y-52689800D01*
X95298100Y-52689800D01*
X95365139Y-52709485D01*
X95410894Y-52762289D01*
X95422100Y-52813800D01*
X95422100Y-53006300D01*
X96098100Y-53006300D01*
X96165139Y-53025985D01*
X96210894Y-53078789D01*
X96222100Y-53130300D01*
X96222100Y-53256300D01*
X96289600Y-53256300D01*
X96356639Y-53275985D01*
X96402394Y-53328789D01*
X96413600Y-53380300D01*
X96413600Y-53947807D01*
X96416537Y-53985129D01*
X96465132Y-54152394D01*
X96464023Y-54152716D01*
X96472100Y-54191713D01*
X96472100Y-54528595D01*
X96479064Y-54535033D01*
X96523250Y-54544316D01*
X96573006Y-54593369D01*
X96588600Y-54653569D01*
X96588600Y-55018698D01*
X96612943Y-55141077D01*
X96612945Y-55141085D01*
X96660698Y-55256372D01*
X96660703Y-55256381D01*
X96730028Y-55360132D01*
X96730031Y-55360136D01*
X97630029Y-56260133D01*
X97677509Y-56307613D01*
X97718268Y-56348372D01*
X97822018Y-56417696D01*
X97822024Y-56417699D01*
X97822025Y-56417700D01*
X97937315Y-56465455D01*
X98059701Y-56489799D01*
X98059705Y-56489800D01*
X98059706Y-56489800D01*
X110408334Y-56489800D01*
X110475373Y-56509485D01*
X110496015Y-56526119D01*
X111147460Y-57177564D01*
X111180945Y-57238887D01*
X111175961Y-57308579D01*
X111134089Y-57364512D01*
X111068625Y-57388929D01*
X111003485Y-57375730D01*
X110941132Y-57343960D01*
X110746513Y-57280724D01*
X110692100Y-57272105D01*
X110692100Y-58315703D01*
X110635093Y-58282790D01*
X110507926Y-58248715D01*
X110376274Y-58248715D01*
X110249107Y-58282790D01*
X110192100Y-58315703D01*
X110192100Y-57272105D01*
X110137686Y-57280724D01*
X109943070Y-57343959D01*
X109760750Y-57436855D01*
X109595205Y-57557132D01*
X109595204Y-57557132D01*
X109450514Y-57701822D01*
X109430887Y-57728837D01*
X109375556Y-57771502D01*
X109305943Y-57777480D01*
X109244148Y-57744873D01*
X109209792Y-57684033D01*
X109207282Y-57669218D01*
X109204089Y-57639514D01*
X109152989Y-57502511D01*
X109065361Y-57385454D01*
X108948304Y-57297826D01*
X108915083Y-57285435D01*
X108811303Y-57246726D01*
X108750754Y-57240215D01*
X108750738Y-57240215D01*
X107053462Y-57240215D01*
X107053445Y-57240215D01*
X106992897Y-57246726D01*
X106992895Y-57246726D01*
X106855895Y-57297826D01*
X106738839Y-57385454D01*
X106651211Y-57502510D01*
X106600111Y-57639510D01*
X106600111Y-57639512D01*
X106593600Y-57700060D01*
X106593600Y-59797369D01*
X106600111Y-59857917D01*
X106600111Y-59857919D01*
X106643085Y-59973132D01*
X106651211Y-59994919D01*
X106738839Y-60111976D01*
X106855896Y-60199604D01*
X106992899Y-60250704D01*
X107020150Y-60253633D01*
X107053445Y-60257214D01*
X107053462Y-60257215D01*
X108750738Y-60257215D01*
X108750754Y-60257214D01*
X108777792Y-60254306D01*
X108811301Y-60250704D01*
X108948304Y-60199604D01*
X109065361Y-60111976D01*
X109152989Y-59994919D01*
X109204089Y-59857916D01*
X109207281Y-59828221D01*
X109234018Y-59763674D01*
X109291410Y-59723825D01*
X109361235Y-59721330D01*
X109421324Y-59756982D01*
X109430888Y-59768593D01*
X109450517Y-59795609D01*
X109450517Y-59795610D01*
X109595204Y-59940297D01*
X109760750Y-60060574D01*
X109943068Y-60153469D01*
X110137678Y-60216703D01*
X110192100Y-60225322D01*
X110192100Y-59181727D01*
X110249107Y-59214640D01*
X110376274Y-59248715D01*
X110507926Y-59248715D01*
X110635093Y-59214640D01*
X110692100Y-59181727D01*
X110692100Y-60225321D01*
X110746521Y-60216703D01*
X110941131Y-60153469D01*
X111123449Y-60060574D01*
X111288994Y-59940297D01*
X111288995Y-59940297D01*
X111433682Y-59795610D01*
X111433682Y-59795609D01*
X111553961Y-59630062D01*
X111596845Y-59545896D01*
X111644818Y-59495100D01*
X111712639Y-59478304D01*
X111778774Y-59500841D01*
X111817815Y-59545895D01*
X111862973Y-59634521D01*
X111984026Y-59801138D01*
X111984030Y-59801143D01*
X112129671Y-59946784D01*
X112129676Y-59946788D01*
X112212848Y-60007215D01*
X112296297Y-60067844D01*
X112382909Y-60111975D01*
X112479805Y-60161347D01*
X112479807Y-60161347D01*
X112479810Y-60161349D01*
X112549126Y-60183871D01*
X112675691Y-60224995D01*
X112777405Y-60241105D01*
X112879119Y-60257215D01*
X112879120Y-60257215D01*
X113085080Y-60257215D01*
X113085081Y-60257215D01*
X113288508Y-60224995D01*
X113484390Y-60161349D01*
X113667903Y-60067844D01*
X113834530Y-59946783D01*
X113980168Y-59801145D01*
X114101229Y-59634518D01*
X114141615Y-59555255D01*
X114189590Y-59504460D01*
X114257411Y-59487665D01*
X114323546Y-59510202D01*
X114362584Y-59555255D01*
X114378250Y-59586001D01*
X114402973Y-59634521D01*
X114524026Y-59801138D01*
X114524030Y-59801143D01*
X114669671Y-59946784D01*
X114669676Y-59946788D01*
X114752848Y-60007215D01*
X114836297Y-60067844D01*
X114922909Y-60111975D01*
X115019805Y-60161347D01*
X115019807Y-60161347D01*
X115019810Y-60161349D01*
X115089126Y-60183871D01*
X115215691Y-60224995D01*
X115317405Y-60241105D01*
X115419119Y-60257215D01*
X115419120Y-60257215D01*
X115625080Y-60257215D01*
X115625081Y-60257215D01*
X115828508Y-60224995D01*
X116024390Y-60161349D01*
X116207903Y-60067844D01*
X116374530Y-59946783D01*
X116520168Y-59801145D01*
X116641229Y-59634518D01*
X116734734Y-59451005D01*
X116798380Y-59255123D01*
X116830600Y-59051696D01*
X116830600Y-58445734D01*
X116798380Y-58242307D01*
X116734734Y-58046425D01*
X116734732Y-58046422D01*
X116734732Y-58046420D01*
X116694541Y-57967543D01*
X116641229Y-57862912D01*
X116593395Y-57797074D01*
X116520173Y-57696291D01*
X116520169Y-57696286D01*
X116374528Y-57550645D01*
X116374523Y-57550641D01*
X116206715Y-57428722D01*
X116164049Y-57373392D01*
X116155600Y-57328404D01*
X116155600Y-57193905D01*
X116155599Y-57193901D01*
X116152349Y-57177564D01*
X116131255Y-57071515D01*
X116083500Y-56956225D01*
X116083499Y-56956224D01*
X116083496Y-56956218D01*
X116014172Y-56852468D01*
X116014171Y-56852467D01*
X115925933Y-56764229D01*
X114728520Y-55566816D01*
X117413600Y-55566816D01*
X117413600Y-55745783D01*
X117448511Y-55921292D01*
X117448513Y-55921300D01*
X117516996Y-56086632D01*
X117517001Y-56086642D01*
X117616421Y-56235434D01*
X117616424Y-56235438D01*
X117652280Y-56271293D01*
X117685766Y-56332615D01*
X117688600Y-56358975D01*
X117688600Y-61903624D01*
X117668915Y-61970663D01*
X117652281Y-61991305D01*
X117616424Y-62027161D01*
X117616421Y-62027165D01*
X117517001Y-62175957D01*
X117516996Y-62175967D01*
X117448513Y-62341299D01*
X117448511Y-62341307D01*
X117413600Y-62516816D01*
X117413600Y-62695783D01*
X117448511Y-62871292D01*
X117448513Y-62871300D01*
X117516996Y-63036632D01*
X117517001Y-63036642D01*
X117616421Y-63185434D01*
X117616424Y-63185438D01*
X117742961Y-63311975D01*
X117742965Y-63311978D01*
X117891757Y-63411398D01*
X117891761Y-63411400D01*
X117891764Y-63411402D01*
X118057100Y-63479887D01*
X118171991Y-63502740D01*
X118232616Y-63514799D01*
X118232620Y-63514800D01*
X118232621Y-63514800D01*
X118411580Y-63514800D01*
X118411581Y-63514799D01*
X118587100Y-63479887D01*
X118752436Y-63411402D01*
X118901235Y-63311978D01*
X119027778Y-63185435D01*
X119027779Y-63185434D01*
X119058440Y-63139546D01*
X139038600Y-63139546D01*
X139038600Y-63373053D01*
X139075128Y-63603687D01*
X139147288Y-63825770D01*
X139217837Y-63964229D01*
X139253297Y-64033823D01*
X139390550Y-64222735D01*
X139555665Y-64387850D01*
X139725490Y-64511236D01*
X139768155Y-64566565D01*
X139774134Y-64636178D01*
X139741528Y-64697973D01*
X139725488Y-64711872D01*
X139670891Y-64751537D01*
X139670891Y-64751538D01*
X140274611Y-65355258D01*
X140214210Y-65380278D01*
X140107749Y-65451412D01*
X140017212Y-65541949D01*
X139946078Y-65648410D01*
X139921058Y-65708811D01*
X139317338Y-65105091D01*
X139317337Y-65105091D01*
X139260570Y-65183225D01*
X139155165Y-65390094D01*
X139083418Y-65610906D01*
X139047100Y-65840209D01*
X139047100Y-66072390D01*
X139083418Y-66301693D01*
X139155165Y-66522505D01*
X139260565Y-66729364D01*
X139317338Y-66807507D01*
X139921058Y-66203787D01*
X139946078Y-66264190D01*
X140017212Y-66370651D01*
X140107749Y-66461188D01*
X140214210Y-66532322D01*
X140274610Y-66557341D01*
X139670891Y-67161059D01*
X139670891Y-67161060D01*
X139680504Y-67168044D01*
X139723170Y-67223374D01*
X139729149Y-67292987D01*
X139696544Y-67354783D01*
X139695302Y-67356043D01*
X139644540Y-67406805D01*
X139538106Y-67553302D01*
X139455888Y-67714660D01*
X139455887Y-67714663D01*
X139399929Y-67886889D01*
X139371600Y-68065748D01*
X139371600Y-68246851D01*
X139399929Y-68425710D01*
X139455887Y-68597936D01*
X139455888Y-68597939D01*
X139511764Y-68707600D01*
X139538103Y-68759293D01*
X139538106Y-68759297D01*
X139644541Y-68905794D01*
X139644545Y-68905799D01*
X139772600Y-69033854D01*
X139772605Y-69033858D01*
X139844069Y-69085779D01*
X139919106Y-69140296D01*
X140024584Y-69194040D01*
X140080460Y-69222511D01*
X140080463Y-69222512D01*
X140153397Y-69246209D01*
X140252691Y-69278471D01*
X140335529Y-69291591D01*
X140431549Y-69306800D01*
X140431554Y-69306800D01*
X140612651Y-69306800D01*
X140699359Y-69293065D01*
X140791509Y-69278471D01*
X140963739Y-69222511D01*
X141125094Y-69140296D01*
X141271601Y-69033853D01*
X141399653Y-68905801D01*
X141506096Y-68759294D01*
X141588311Y-68597939D01*
X141644271Y-68425709D01*
X141665122Y-68294063D01*
X141672600Y-68246851D01*
X141672600Y-68065748D01*
X141649782Y-67921687D01*
X141644271Y-67886891D01*
X141603497Y-67761398D01*
X141588312Y-67714663D01*
X141588311Y-67714660D01*
X141526161Y-67592686D01*
X141506096Y-67553306D01*
X141430176Y-67448810D01*
X141399658Y-67406805D01*
X141399654Y-67406800D01*
X141348899Y-67356045D01*
X141315414Y-67294722D01*
X141320398Y-67225030D01*
X141362270Y-67169097D01*
X141363695Y-67168046D01*
X141373307Y-67161061D01*
X141373308Y-67161060D01*
X140769588Y-66557341D01*
X140829990Y-66532322D01*
X140936451Y-66461188D01*
X141026988Y-66370651D01*
X141098122Y-66264190D01*
X141123141Y-66203789D01*
X141726860Y-66807508D01*
X141726862Y-66807507D01*
X141783630Y-66729371D01*
X141889034Y-66522505D01*
X141960781Y-66301693D01*
X141997100Y-66072390D01*
X141997100Y-65840209D01*
X141960781Y-65610906D01*
X141889034Y-65390094D01*
X141783634Y-65183235D01*
X141726860Y-65105091D01*
X141726859Y-65105091D01*
X141123141Y-65708810D01*
X141098122Y-65648410D01*
X141026988Y-65541949D01*
X140936451Y-65451412D01*
X140829990Y-65380278D01*
X140769587Y-65355257D01*
X141373307Y-64751538D01*
X141318710Y-64711872D01*
X141276044Y-64656542D01*
X141270065Y-64586929D01*
X141302670Y-64525133D01*
X141318706Y-64511237D01*
X141488535Y-64387850D01*
X141653650Y-64222735D01*
X141790903Y-64033823D01*
X141896913Y-63825766D01*
X141969071Y-63603687D01*
X142005600Y-63373054D01*
X142005600Y-63139546D01*
X141969071Y-62908913D01*
X141942600Y-62827448D01*
X141940606Y-62757610D01*
X141972849Y-62701453D01*
X143014171Y-61660133D01*
X143083500Y-61556375D01*
X143131255Y-61441085D01*
X143155600Y-61318694D01*
X143155600Y-61193906D01*
X143155600Y-59033643D01*
X145163600Y-59033643D01*
X145163600Y-59278956D01*
X145199316Y-59504460D01*
X145201976Y-59521250D01*
X145269088Y-59727800D01*
X145277783Y-59754558D01*
X145280566Y-59760020D01*
X145389151Y-59973132D01*
X145533343Y-60171594D01*
X145706806Y-60345057D01*
X145905268Y-60489249D01*
X146123844Y-60600618D01*
X146357150Y-60676424D01*
X146599443Y-60714800D01*
X146599444Y-60714800D01*
X146844756Y-60714800D01*
X146844757Y-60714800D01*
X147087050Y-60676424D01*
X147320356Y-60600618D01*
X147538932Y-60489249D01*
X147737394Y-60345057D01*
X147910857Y-60171594D01*
X148055049Y-59973132D01*
X148166418Y-59754556D01*
X148242224Y-59521250D01*
X148280600Y-59278957D01*
X148280600Y-59033643D01*
X148242224Y-58791350D01*
X148166418Y-58558044D01*
X148055049Y-58339468D01*
X147910857Y-58141006D01*
X147737394Y-57967543D01*
X147538932Y-57823351D01*
X147320356Y-57711982D01*
X147087050Y-57636176D01*
X147087048Y-57636175D01*
X147087046Y-57636175D01*
X146917874Y-57609380D01*
X146844757Y-57597800D01*
X146599443Y-57597800D01*
X146543275Y-57606696D01*
X146357153Y-57636175D01*
X146123841Y-57711983D01*
X145905267Y-57823351D01*
X145850820Y-57862910D01*
X145706806Y-57967543D01*
X145706804Y-57967545D01*
X145706803Y-57967545D01*
X145533345Y-58141003D01*
X145533345Y-58141004D01*
X145533343Y-58141006D01*
X145494909Y-58193906D01*
X145389151Y-58339467D01*
X145277783Y-58558041D01*
X145201975Y-58791353D01*
X145163600Y-59033643D01*
X143155600Y-59033643D01*
X143155600Y-58193906D01*
X143131255Y-58071515D01*
X143083500Y-57956225D01*
X143083499Y-57956224D01*
X143083496Y-57956218D01*
X143014172Y-57852468D01*
X142985055Y-57823351D01*
X142925933Y-57764229D01*
X142233218Y-57071514D01*
X141375936Y-56214231D01*
X141375932Y-56214228D01*
X141272181Y-56144903D01*
X141272172Y-56144898D01*
X141156885Y-56097145D01*
X141156877Y-56097143D01*
X141034498Y-56072800D01*
X141034494Y-56072800D01*
X141024775Y-56072800D01*
X140957736Y-56053115D01*
X140937093Y-56036480D01*
X140901238Y-56000624D01*
X140901234Y-56000621D01*
X140752442Y-55901201D01*
X140752432Y-55901196D01*
X140587100Y-55832713D01*
X140587092Y-55832711D01*
X140411583Y-55797800D01*
X140411579Y-55797800D01*
X140232621Y-55797800D01*
X140232616Y-55797800D01*
X140057107Y-55832711D01*
X140057099Y-55832713D01*
X139891767Y-55901196D01*
X139891757Y-55901201D01*
X139742965Y-56000621D01*
X139742961Y-56000624D01*
X139616424Y-56127161D01*
X139616421Y-56127165D01*
X139517001Y-56275957D01*
X139516996Y-56275967D01*
X139448513Y-56441299D01*
X139448511Y-56441307D01*
X139413600Y-56616816D01*
X139413600Y-56795783D01*
X139448511Y-56971292D01*
X139448513Y-56971300D01*
X139516996Y-57136632D01*
X139517001Y-57136642D01*
X139616421Y-57285434D01*
X139616424Y-57285438D01*
X139742961Y-57411975D01*
X139742965Y-57411978D01*
X139891757Y-57511398D01*
X139891761Y-57511400D01*
X139891764Y-57511402D01*
X140057100Y-57579887D01*
X140147156Y-57597800D01*
X140232616Y-57614799D01*
X140232620Y-57614800D01*
X140232621Y-57614800D01*
X140411580Y-57614800D01*
X140411581Y-57614799D01*
X140587100Y-57579887D01*
X140752436Y-57511402D01*
X140752446Y-57511395D01*
X140755290Y-57509875D01*
X140756966Y-57509525D01*
X140758064Y-57509071D01*
X140758150Y-57509279D01*
X140823690Y-57495623D01*
X140888938Y-57520614D01*
X140901440Y-57531544D01*
X141852281Y-58482385D01*
X141885766Y-58543708D01*
X141888600Y-58570066D01*
X141888600Y-60756923D01*
X141868915Y-60823962D01*
X141816111Y-60869717D01*
X141746953Y-60879661D01*
X141683397Y-60850636D01*
X141645623Y-60791858D01*
X141644422Y-60787354D01*
X141588312Y-60614663D01*
X141588311Y-60614660D01*
X141547214Y-60534005D01*
X141506096Y-60453306D01*
X141492496Y-60434587D01*
X141399658Y-60306805D01*
X141399654Y-60306800D01*
X141271599Y-60178745D01*
X141271594Y-60178741D01*
X141125097Y-60072306D01*
X141125096Y-60072305D01*
X141125094Y-60072304D01*
X141073400Y-60045964D01*
X140963739Y-59990088D01*
X140963736Y-59990087D01*
X140791510Y-59934129D01*
X140612651Y-59905800D01*
X140612646Y-59905800D01*
X140431554Y-59905800D01*
X140431549Y-59905800D01*
X140252689Y-59934129D01*
X140080463Y-59990087D01*
X140080460Y-59990088D01*
X139919102Y-60072306D01*
X139772605Y-60178741D01*
X139772600Y-60178745D01*
X139644545Y-60306800D01*
X139644541Y-60306805D01*
X139538106Y-60453302D01*
X139455888Y-60614660D01*
X139455887Y-60614663D01*
X139399929Y-60786889D01*
X139371600Y-60965748D01*
X139371600Y-61146851D01*
X139399929Y-61325710D01*
X139455887Y-61497936D01*
X139455888Y-61497939D01*
X139538106Y-61659297D01*
X139644541Y-61805794D01*
X139644545Y-61805799D01*
X139689216Y-61850471D01*
X139722700Y-61911794D01*
X139717715Y-61981486D01*
X139675843Y-62037419D01*
X139674420Y-62038469D01*
X139555663Y-62124751D01*
X139390552Y-62289862D01*
X139390552Y-62289863D01*
X139390550Y-62289865D01*
X139361698Y-62329576D01*
X139253297Y-62478776D01*
X139147288Y-62686829D01*
X139075128Y-62908912D01*
X139038600Y-63139546D01*
X119058440Y-63139546D01*
X119107727Y-63065783D01*
X119114371Y-63055838D01*
X119127202Y-63036636D01*
X119195687Y-62871300D01*
X119230600Y-62695779D01*
X119230600Y-62516821D01*
X119195687Y-62341300D01*
X119127202Y-62175964D01*
X119127200Y-62175961D01*
X119127198Y-62175957D01*
X119027778Y-62027165D01*
X119027775Y-62027161D01*
X118991919Y-61991305D01*
X118958434Y-61929982D01*
X118955600Y-61903624D01*
X118955600Y-58703598D01*
X123713600Y-58703598D01*
X123713600Y-58893831D01*
X123743356Y-59081706D01*
X123802140Y-59262622D01*
X123888498Y-59432107D01*
X124000308Y-59586000D01*
X124134815Y-59720507D01*
X124288708Y-59832317D01*
X124338949Y-59857916D01*
X124458192Y-59918674D01*
X124458194Y-59918674D01*
X124458197Y-59918676D01*
X124544701Y-59946783D01*
X124639108Y-59977458D01*
X124826984Y-60007215D01*
X124826989Y-60007215D01*
X125017216Y-60007215D01*
X125205091Y-59977458D01*
X125218405Y-59973132D01*
X125386003Y-59918676D01*
X125555492Y-59832317D01*
X125709385Y-59720507D01*
X125843892Y-59586000D01*
X125955702Y-59432107D01*
X126042061Y-59262618D01*
X126100843Y-59081706D01*
X126108455Y-59033643D01*
X132763600Y-59033643D01*
X132763600Y-59278956D01*
X132799316Y-59504460D01*
X132801976Y-59521250D01*
X132869088Y-59727800D01*
X132877783Y-59754558D01*
X132880566Y-59760020D01*
X132989151Y-59973132D01*
X133133343Y-60171594D01*
X133306806Y-60345057D01*
X133505268Y-60489249D01*
X133723844Y-60600618D01*
X133957150Y-60676424D01*
X134199443Y-60714800D01*
X134199444Y-60714800D01*
X134444756Y-60714800D01*
X134444757Y-60714800D01*
X134687050Y-60676424D01*
X134920356Y-60600618D01*
X135138932Y-60489249D01*
X135337394Y-60345057D01*
X135510857Y-60171594D01*
X135655049Y-59973132D01*
X135766418Y-59754556D01*
X135842224Y-59521250D01*
X135880600Y-59278957D01*
X135880600Y-59033643D01*
X135842224Y-58791350D01*
X135766418Y-58558044D01*
X135655049Y-58339468D01*
X135510857Y-58141006D01*
X135337394Y-57967543D01*
X135138932Y-57823351D01*
X134920356Y-57711982D01*
X134687050Y-57636176D01*
X134687048Y-57636175D01*
X134687046Y-57636175D01*
X134517874Y-57609380D01*
X134444757Y-57597800D01*
X134199443Y-57597800D01*
X134143275Y-57606696D01*
X133957153Y-57636175D01*
X133723841Y-57711983D01*
X133505267Y-57823351D01*
X133450820Y-57862910D01*
X133306806Y-57967543D01*
X133306804Y-57967545D01*
X133306803Y-57967545D01*
X133133345Y-58141003D01*
X133133345Y-58141004D01*
X133133343Y-58141006D01*
X133094909Y-58193906D01*
X132989151Y-58339467D01*
X132877783Y-58558041D01*
X132801975Y-58791353D01*
X132763600Y-59033643D01*
X126108455Y-59033643D01*
X126112300Y-59009372D01*
X126112300Y-59009371D01*
X126130600Y-58893831D01*
X126130600Y-58703598D01*
X126100843Y-58515723D01*
X126046546Y-58348616D01*
X126042061Y-58334812D01*
X126042059Y-58334809D01*
X126042059Y-58334807D01*
X125985079Y-58222979D01*
X125955702Y-58165323D01*
X125843892Y-58011430D01*
X125709385Y-57876923D01*
X125555492Y-57765113D01*
X125515769Y-57744873D01*
X125386007Y-57678755D01*
X125205091Y-57619971D01*
X125017216Y-57590215D01*
X125017211Y-57590215D01*
X124826989Y-57590215D01*
X124826984Y-57590215D01*
X124639108Y-57619971D01*
X124458192Y-57678755D01*
X124288707Y-57765113D01*
X124208550Y-57823351D01*
X124134815Y-57876923D01*
X124134813Y-57876925D01*
X124134812Y-57876925D01*
X124000310Y-58011427D01*
X124000310Y-58011428D01*
X124000308Y-58011430D01*
X123974886Y-58046420D01*
X123888498Y-58165322D01*
X123802140Y-58334807D01*
X123743356Y-58515723D01*
X123713600Y-58703598D01*
X118955600Y-58703598D01*
X118955600Y-56358975D01*
X118975285Y-56291936D01*
X118991920Y-56271293D01*
X119027775Y-56235438D01*
X119027778Y-56235435D01*
X119127202Y-56086636D01*
X119195687Y-55921300D01*
X119230600Y-55745779D01*
X119230600Y-55566821D01*
X119195687Y-55391300D01*
X119127202Y-55225964D01*
X119127200Y-55225961D01*
X119127198Y-55225957D01*
X119027778Y-55077165D01*
X119027775Y-55077161D01*
X118901238Y-54950624D01*
X118901234Y-54950621D01*
X118752442Y-54851201D01*
X118752432Y-54851196D01*
X118587100Y-54782713D01*
X118587092Y-54782711D01*
X118411583Y-54747800D01*
X118411579Y-54747800D01*
X118232621Y-54747800D01*
X118232616Y-54747800D01*
X118057107Y-54782711D01*
X118057099Y-54782713D01*
X117891767Y-54851196D01*
X117891757Y-54851201D01*
X117742965Y-54950621D01*
X117742961Y-54950624D01*
X117616424Y-55077161D01*
X117616421Y-55077165D01*
X117517001Y-55225957D01*
X117516996Y-55225967D01*
X117448513Y-55391299D01*
X117448511Y-55391307D01*
X117413600Y-55566816D01*
X114728520Y-55566816D01*
X114222905Y-55061201D01*
X113604324Y-54442619D01*
X113400936Y-54239231D01*
X113400932Y-54239228D01*
X113297181Y-54169903D01*
X113297172Y-54169898D01*
X113181885Y-54122145D01*
X113181877Y-54122143D01*
X113059498Y-54097800D01*
X113059494Y-54097800D01*
X100152938Y-54097800D01*
X100085899Y-54078115D01*
X100040144Y-54025311D01*
X100029320Y-53964074D01*
X100030599Y-53947815D01*
X100030599Y-53947814D01*
X100030600Y-53947802D01*
X100030600Y-53182997D01*
X100032226Y-53174818D01*
X100031311Y-53169742D01*
X100040039Y-53135544D01*
X100071971Y-53058455D01*
X132772100Y-53058455D01*
X132772100Y-53906300D01*
X133667979Y-53906300D01*
X133649001Y-53952118D01*
X133622100Y-54087356D01*
X133622100Y-54225244D01*
X133649001Y-54360482D01*
X133667979Y-54406300D01*
X132772100Y-54406300D01*
X132772100Y-55254144D01*
X132778501Y-55313672D01*
X132778503Y-55313679D01*
X132828745Y-55448386D01*
X132828749Y-55448393D01*
X132914909Y-55563487D01*
X132914912Y-55563490D01*
X133030006Y-55649650D01*
X133030013Y-55649654D01*
X133164720Y-55699896D01*
X133164727Y-55699898D01*
X133224255Y-55706299D01*
X133224272Y-55706300D01*
X134072100Y-55706300D01*
X134072100Y-54810420D01*
X134117918Y-54829399D01*
X134253156Y-54856300D01*
X134391044Y-54856300D01*
X134526282Y-54829399D01*
X134572100Y-54810420D01*
X134572100Y-55706300D01*
X135419928Y-55706300D01*
X135419944Y-55706299D01*
X135479472Y-55699898D01*
X135479479Y-55699896D01*
X135614186Y-55649654D01*
X135614193Y-55649650D01*
X135729287Y-55563490D01*
X135729290Y-55563487D01*
X135815450Y-55448393D01*
X135815454Y-55448386D01*
X135861787Y-55324162D01*
X135861787Y-55324161D01*
X135865697Y-55313676D01*
X135865698Y-55313672D01*
X135872099Y-55254144D01*
X135872100Y-55254127D01*
X135872100Y-54406300D01*
X134976221Y-54406300D01*
X134995199Y-54360482D01*
X135022100Y-54225244D01*
X135022100Y-54087356D01*
X135011548Y-54034306D01*
X145172100Y-54034306D01*
X145172100Y-54278293D01*
X145210265Y-54519259D01*
X145285660Y-54751298D01*
X145396423Y-54968680D01*
X145463643Y-55061201D01*
X145463644Y-55061202D01*
X146082790Y-54442056D01*
X146101768Y-54487874D01*
X146178374Y-54602524D01*
X146275876Y-54700026D01*
X146390526Y-54776632D01*
X146436342Y-54795609D01*
X145817196Y-55414754D01*
X145817197Y-55414756D01*
X145909719Y-55481976D01*
X146127101Y-55592739D01*
X146359140Y-55668134D01*
X146600107Y-55706300D01*
X146844093Y-55706300D01*
X147085059Y-55668134D01*
X147317098Y-55592739D01*
X147534477Y-55481978D01*
X147627001Y-55414754D01*
X147627002Y-55414754D01*
X147007857Y-54795609D01*
X147053674Y-54776632D01*
X147168324Y-54700026D01*
X147265826Y-54602524D01*
X147342432Y-54487874D01*
X147361409Y-54442057D01*
X147980554Y-55061202D01*
X147980554Y-55061201D01*
X148047778Y-54968677D01*
X148158539Y-54751298D01*
X148233934Y-54519259D01*
X148272100Y-54278293D01*
X148272100Y-54034306D01*
X148233934Y-53793340D01*
X148166382Y-53585439D01*
X148158539Y-53561302D01*
X148047776Y-53343919D01*
X147980556Y-53251397D01*
X147980554Y-53251396D01*
X147361409Y-53870541D01*
X147342432Y-53824726D01*
X147265826Y-53710076D01*
X147168324Y-53612574D01*
X147053674Y-53535968D01*
X147007856Y-53516989D01*
X147627002Y-52897844D01*
X147627001Y-52897843D01*
X147534480Y-52830623D01*
X147317098Y-52719860D01*
X147085059Y-52644465D01*
X146844093Y-52606300D01*
X146600107Y-52606300D01*
X146359140Y-52644465D01*
X146127101Y-52719860D01*
X145909726Y-52830619D01*
X145817197Y-52897844D01*
X146436343Y-53516989D01*
X146390526Y-53535968D01*
X146275876Y-53612574D01*
X146178374Y-53710076D01*
X146101768Y-53824726D01*
X146082790Y-53870543D01*
X145463644Y-53251397D01*
X145396419Y-53343926D01*
X145285660Y-53561301D01*
X145210265Y-53793340D01*
X145172100Y-54034306D01*
X135011548Y-54034306D01*
X134995199Y-53952118D01*
X134976221Y-53906300D01*
X135872100Y-53906300D01*
X135872100Y-53058472D01*
X135872099Y-53058455D01*
X135865698Y-52998927D01*
X135865696Y-52998920D01*
X135815454Y-52864213D01*
X135815450Y-52864206D01*
X135729290Y-52749112D01*
X135729287Y-52749109D01*
X135614193Y-52662949D01*
X135614186Y-52662945D01*
X135479479Y-52612703D01*
X135479472Y-52612701D01*
X135419944Y-52606300D01*
X134572100Y-52606300D01*
X134572100Y-53502179D01*
X134526282Y-53483201D01*
X134391044Y-53456300D01*
X134253156Y-53456300D01*
X134117918Y-53483201D01*
X134072100Y-53502179D01*
X134072100Y-52606300D01*
X133224255Y-52606300D01*
X133164727Y-52612701D01*
X133164720Y-52612703D01*
X133030013Y-52662945D01*
X133030006Y-52662949D01*
X132914912Y-52749109D01*
X132914909Y-52749112D01*
X132828749Y-52864206D01*
X132828745Y-52864213D01*
X132778503Y-52998920D01*
X132778501Y-52998927D01*
X132772100Y-53058455D01*
X100071971Y-53058455D01*
X100095687Y-53001200D01*
X100130600Y-52825679D01*
X100130600Y-52646721D01*
X100095687Y-52471200D01*
X100027202Y-52305864D01*
X100010140Y-52280329D01*
X99976497Y-52229976D01*
X99955620Y-52163299D01*
X99955600Y-52161087D01*
X99955600Y-51793905D01*
X99955599Y-51793901D01*
X99947095Y-51751147D01*
X99943144Y-51731285D01*
X105334600Y-51731285D01*
X105345093Y-51833989D01*
X105345094Y-51833996D01*
X105400241Y-52000418D01*
X105400243Y-52000423D01*
X105492284Y-52149644D01*
X105616255Y-52273615D01*
X105765476Y-52365656D01*
X105765481Y-52365658D01*
X105931903Y-52420805D01*
X105931910Y-52420806D01*
X106034614Y-52431299D01*
X106034627Y-52431300D01*
X106297100Y-52431300D01*
X106797100Y-52431300D01*
X107059573Y-52431300D01*
X107059585Y-52431299D01*
X107162289Y-52420806D01*
X107162296Y-52420805D01*
X107328718Y-52365658D01*
X107328723Y-52365656D01*
X107477944Y-52273615D01*
X107601915Y-52149644D01*
X107693956Y-52000423D01*
X107693958Y-52000418D01*
X107749105Y-51833996D01*
X107749106Y-51833989D01*
X107759599Y-51731285D01*
X107759600Y-51731272D01*
X107759600Y-51306300D01*
X106797100Y-51306300D01*
X106797100Y-52431300D01*
X106297100Y-52431300D01*
X106297100Y-51306300D01*
X105334600Y-51306300D01*
X105334600Y-51731285D01*
X99943144Y-51731285D01*
X99931255Y-51671515D01*
X99883500Y-51556225D01*
X99883499Y-51556224D01*
X99883496Y-51556218D01*
X99814172Y-51452468D01*
X99771557Y-51409853D01*
X99725933Y-51364229D01*
X99117645Y-50755941D01*
X98525936Y-50164231D01*
X98525932Y-50164228D01*
X98422181Y-50094903D01*
X98422172Y-50094898D01*
X98306885Y-50047145D01*
X98306877Y-50047143D01*
X98184498Y-50022800D01*
X98184494Y-50022800D01*
X98059706Y-50022800D01*
X98059701Y-50022800D01*
X97945998Y-50045417D01*
X97921807Y-50047800D01*
X96154600Y-50047800D01*
X96087561Y-50028115D01*
X96041806Y-49975311D01*
X96030600Y-49923800D01*
X96030599Y-48680762D01*
X96030598Y-48680746D01*
X96024149Y-48617618D01*
X96019987Y-48576874D01*
X95964215Y-48408562D01*
X95871130Y-48257648D01*
X95745752Y-48132270D01*
X95649043Y-48072619D01*
X95602321Y-48020673D01*
X95591098Y-47951710D01*
X95618942Y-47887628D01*
X95677011Y-47848772D01*
X95714102Y-47843083D01*
X99731640Y-47842090D01*
X99798680Y-47861757D01*
X99844448Y-47914550D01*
X99854408Y-47983706D01*
X99825399Y-48047269D01*
X99796764Y-48071627D01*
X99698448Y-48132269D01*
X99573071Y-48257646D01*
X99479986Y-48408559D01*
X99479984Y-48408564D01*
X99424213Y-48576872D01*
X99413600Y-48680747D01*
X99413600Y-50081837D01*
X99413601Y-50081853D01*
X99424213Y-50185727D01*
X99454415Y-50276871D01*
X99479985Y-50354038D01*
X99573070Y-50504952D01*
X99698448Y-50630330D01*
X99849362Y-50723415D01*
X100017674Y-50779187D01*
X100121555Y-50789800D01*
X100922644Y-50789799D01*
X101026526Y-50779187D01*
X101194838Y-50723415D01*
X101345752Y-50630330D01*
X101471130Y-50504952D01*
X101547391Y-50381314D01*
X105334600Y-50381314D01*
X105334600Y-50806300D01*
X106297100Y-50806300D01*
X106797100Y-50806300D01*
X107759600Y-50806300D01*
X107759600Y-50381325D01*
X107759599Y-50381316D01*
X107759541Y-50380748D01*
X108301100Y-50380748D01*
X108301100Y-51731851D01*
X108311713Y-51835728D01*
X108367483Y-52004035D01*
X108367484Y-52004038D01*
X108460567Y-52154947D01*
X108460570Y-52154951D01*
X108585948Y-52280329D01*
X108585952Y-52280332D01*
X108736861Y-52373415D01*
X108736864Y-52373416D01*
X108905171Y-52429186D01*
X108905172Y-52429186D01*
X108905175Y-52429187D01*
X109009056Y-52439800D01*
X109009061Y-52439800D01*
X110035139Y-52439800D01*
X110035144Y-52439800D01*
X110139025Y-52429187D01*
X110307338Y-52373415D01*
X110458251Y-52280330D01*
X110583630Y-52154951D01*
X110598477Y-52130880D01*
X110620125Y-52095785D01*
X110676715Y-52004038D01*
X110676716Y-52004035D01*
X110732486Y-51835728D01*
X110732485Y-51835728D01*
X110732487Y-51835725D01*
X110743100Y-51731844D01*
X110743100Y-50380756D01*
X110732487Y-50276875D01*
X110732486Y-50276871D01*
X110676717Y-50108566D01*
X110668286Y-50094898D01*
X110604991Y-49992281D01*
X110583630Y-49957649D01*
X110566190Y-49940209D01*
X139047100Y-49940209D01*
X139047100Y-50172390D01*
X139083418Y-50401693D01*
X139155165Y-50622505D01*
X139260565Y-50829364D01*
X139317338Y-50907507D01*
X139921058Y-50303787D01*
X139946078Y-50364190D01*
X140017212Y-50470651D01*
X140107749Y-50561188D01*
X140214210Y-50632322D01*
X140274610Y-50657341D01*
X139670891Y-51261059D01*
X139670891Y-51261060D01*
X139680504Y-51268044D01*
X139723170Y-51323374D01*
X139729149Y-51392987D01*
X139696544Y-51454783D01*
X139695302Y-51456043D01*
X139644540Y-51506805D01*
X139538106Y-51653302D01*
X139455888Y-51814660D01*
X139455887Y-51814663D01*
X139399929Y-51986889D01*
X139371600Y-52165748D01*
X139371600Y-52346851D01*
X139399929Y-52525710D01*
X139455887Y-52697936D01*
X139455888Y-52697939D01*
X139498021Y-52780627D01*
X139538103Y-52859293D01*
X139538106Y-52859297D01*
X139644541Y-53005794D01*
X139644545Y-53005799D01*
X139772600Y-53133854D01*
X139772605Y-53133858D01*
X139840240Y-53182997D01*
X139919106Y-53240296D01*
X140024584Y-53294040D01*
X140080460Y-53322511D01*
X140080463Y-53322512D01*
X140166576Y-53350491D01*
X140252691Y-53378471D01*
X140335529Y-53391591D01*
X140431549Y-53406800D01*
X140431554Y-53406800D01*
X140612651Y-53406800D01*
X140699359Y-53393065D01*
X140791509Y-53378471D01*
X140963739Y-53322511D01*
X141125094Y-53240296D01*
X141271601Y-53133853D01*
X141399653Y-53005801D01*
X141506096Y-52859294D01*
X141588311Y-52697939D01*
X141644271Y-52525709D01*
X141660886Y-52420805D01*
X141672600Y-52346851D01*
X141672600Y-52165748D01*
X141655251Y-52056219D01*
X141644271Y-51986891D01*
X141611129Y-51884889D01*
X141588312Y-51814663D01*
X141588311Y-51814660D01*
X141546110Y-51731838D01*
X141506096Y-51653306D01*
X141441677Y-51564640D01*
X141399658Y-51506805D01*
X141399654Y-51506800D01*
X141348899Y-51456045D01*
X141315414Y-51394722D01*
X141320398Y-51325030D01*
X141362270Y-51269097D01*
X141363695Y-51268046D01*
X141373307Y-51261061D01*
X141373308Y-51261060D01*
X141092910Y-50980662D01*
X154222100Y-50980662D01*
X154222100Y-51216767D01*
X154259034Y-51449962D01*
X154331997Y-51674517D01*
X154439187Y-51884889D01*
X154499438Y-51967819D01*
X154499440Y-51967820D01*
X155239137Y-51228123D01*
X155256175Y-51291708D01*
X155322001Y-51405722D01*
X155415093Y-51498814D01*
X155529107Y-51564640D01*
X155592690Y-51581677D01*
X154852993Y-52321373D01*
X154935928Y-52381629D01*
X155146297Y-52488817D01*
X155370852Y-52561780D01*
X155370851Y-52561780D01*
X155604048Y-52598715D01*
X155840152Y-52598715D01*
X156073347Y-52561780D01*
X156297902Y-52488817D01*
X156508263Y-52381633D01*
X156508269Y-52381629D01*
X156591204Y-52321373D01*
X156591205Y-52321373D01*
X155851508Y-51581677D01*
X155915093Y-51564640D01*
X156029107Y-51498814D01*
X156122199Y-51405722D01*
X156188025Y-51291708D01*
X156205062Y-51228124D01*
X156944758Y-51967820D01*
X156944758Y-51967819D01*
X157005014Y-51884884D01*
X157005018Y-51884878D01*
X157112202Y-51674517D01*
X157185165Y-51449962D01*
X157222100Y-51216767D01*
X157222100Y-50980662D01*
X157210604Y-50908079D01*
X157185165Y-50747467D01*
X157112202Y-50522912D01*
X157005014Y-50312543D01*
X156944758Y-50229609D01*
X156944758Y-50229608D01*
X156205062Y-50969305D01*
X156188025Y-50905722D01*
X156122199Y-50791708D01*
X156029107Y-50698616D01*
X155915093Y-50632790D01*
X155851509Y-50615752D01*
X156591205Y-49876055D01*
X156591204Y-49876053D01*
X156508274Y-49815802D01*
X156297902Y-49708612D01*
X156073347Y-49635649D01*
X156073348Y-49635649D01*
X155840152Y-49598715D01*
X155604048Y-49598715D01*
X155370852Y-49635649D01*
X155146297Y-49708612D01*
X154935930Y-49815799D01*
X154852994Y-49876055D01*
X155592691Y-50615752D01*
X155529107Y-50632790D01*
X155415093Y-50698616D01*
X155322001Y-50791708D01*
X155256175Y-50905722D01*
X155239137Y-50969305D01*
X154499440Y-50229609D01*
X154439184Y-50312545D01*
X154331997Y-50522912D01*
X154259034Y-50747467D01*
X154222100Y-50980662D01*
X141092910Y-50980662D01*
X140769588Y-50657341D01*
X140829990Y-50632322D01*
X140936451Y-50561188D01*
X141026988Y-50470651D01*
X141098122Y-50364190D01*
X141123141Y-50303789D01*
X141726860Y-50907508D01*
X141726861Y-50907507D01*
X141730206Y-50902905D01*
X141783630Y-50829371D01*
X141889034Y-50622505D01*
X141960781Y-50401693D01*
X141997100Y-50172390D01*
X141997100Y-49940211D01*
X141960781Y-49710906D01*
X141889034Y-49490094D01*
X141783634Y-49283235D01*
X141726860Y-49205091D01*
X141726859Y-49205091D01*
X141123141Y-49808810D01*
X141098122Y-49748410D01*
X141026988Y-49641949D01*
X140936451Y-49551412D01*
X140829990Y-49480278D01*
X140769587Y-49455257D01*
X141373307Y-48851538D01*
X141295164Y-48794765D01*
X141088305Y-48689365D01*
X140867493Y-48617618D01*
X140638190Y-48581300D01*
X140406010Y-48581300D01*
X140176706Y-48617618D01*
X139955894Y-48689365D01*
X139749025Y-48794770D01*
X139670891Y-48851537D01*
X139670891Y-48851538D01*
X140274611Y-49455258D01*
X140214210Y-49480278D01*
X140107749Y-49551412D01*
X140017212Y-49641949D01*
X139946078Y-49748410D01*
X139921058Y-49808811D01*
X139317338Y-49205091D01*
X139317337Y-49205091D01*
X139260570Y-49283225D01*
X139155165Y-49490094D01*
X139083418Y-49710906D01*
X139047100Y-49940209D01*
X110566190Y-49940209D01*
X110458251Y-49832270D01*
X110458247Y-49832267D01*
X110307338Y-49739184D01*
X110307335Y-49739183D01*
X110139028Y-49683413D01*
X110035151Y-49672800D01*
X110035144Y-49672800D01*
X109009056Y-49672800D01*
X109009048Y-49672800D01*
X108905171Y-49683413D01*
X108736864Y-49739183D01*
X108736861Y-49739184D01*
X108585952Y-49832267D01*
X108585948Y-49832270D01*
X108460570Y-49957648D01*
X108460567Y-49957652D01*
X108367484Y-50108561D01*
X108367483Y-50108564D01*
X108311713Y-50276871D01*
X108301100Y-50380748D01*
X107759541Y-50380748D01*
X107749106Y-50278610D01*
X107749105Y-50278603D01*
X107693958Y-50112181D01*
X107693956Y-50112176D01*
X107601915Y-49962955D01*
X107477944Y-49838984D01*
X107328723Y-49746943D01*
X107328718Y-49746941D01*
X107162296Y-49691794D01*
X107162289Y-49691793D01*
X107059585Y-49681300D01*
X106797100Y-49681300D01*
X106797100Y-50806300D01*
X106297100Y-50806300D01*
X106297100Y-49681300D01*
X106034614Y-49681300D01*
X105931910Y-49691793D01*
X105931903Y-49691794D01*
X105765481Y-49746941D01*
X105765476Y-49746943D01*
X105616255Y-49838984D01*
X105492284Y-49962955D01*
X105400243Y-50112176D01*
X105400241Y-50112181D01*
X105345094Y-50278603D01*
X105345093Y-50278610D01*
X105334600Y-50381314D01*
X101547391Y-50381314D01*
X101564215Y-50354038D01*
X101619987Y-50185726D01*
X101630600Y-50081845D01*
X101630599Y-48680756D01*
X101619987Y-48576874D01*
X101564215Y-48408562D01*
X101471130Y-48257648D01*
X101345752Y-48132270D01*
X101246801Y-48071236D01*
X101200079Y-48019290D01*
X101188857Y-47950327D01*
X101216700Y-47886245D01*
X101274769Y-47847389D01*
X101311861Y-47841700D01*
X160361889Y-47827109D01*
X160428930Y-47846776D01*
G37*
%TD.AperFunction*%
%TA.AperFunction,Conductor*%
G36*
X81047462Y-64125946D02*
G01*
X81084182Y-64185389D01*
X81088600Y-64218195D01*
X81088600Y-72262533D01*
X81068915Y-72329572D01*
X81052281Y-72350214D01*
X77002281Y-76400214D01*
X76940958Y-76433699D01*
X76871266Y-76428715D01*
X76815333Y-76386843D01*
X76790916Y-76321379D01*
X76790600Y-76312533D01*
X76790600Y-76173319D01*
X76758380Y-75969891D01*
X76701976Y-75796299D01*
X76694734Y-75774010D01*
X76694732Y-75774007D01*
X76694732Y-75774005D01*
X76660809Y-75707428D01*
X76601229Y-75590497D01*
X76532846Y-75496375D01*
X76480173Y-75423876D01*
X76480169Y-75423871D01*
X76334528Y-75278230D01*
X76334523Y-75278226D01*
X76167906Y-75157173D01*
X76167905Y-75157172D01*
X76167903Y-75157171D01*
X76088640Y-75116784D01*
X76037845Y-75068810D01*
X76021050Y-75000989D01*
X76043587Y-74934854D01*
X76088641Y-74895815D01*
X76167903Y-74855429D01*
X76334530Y-74734368D01*
X76480168Y-74588730D01*
X76601229Y-74422103D01*
X76694734Y-74238590D01*
X76758380Y-74042708D01*
X76790600Y-73839281D01*
X76790600Y-73633319D01*
X76772858Y-73521300D01*
X76758380Y-73429891D01*
X76707925Y-73274608D01*
X76694734Y-73234010D01*
X76694732Y-73234007D01*
X76694732Y-73234005D01*
X76653297Y-73152685D01*
X76601229Y-73050497D01*
X76562008Y-72996514D01*
X76480173Y-72883876D01*
X76480169Y-72883871D01*
X76334528Y-72738230D01*
X76334523Y-72738226D01*
X76167906Y-72617173D01*
X76167905Y-72617172D01*
X76167903Y-72617171D01*
X76088640Y-72576784D01*
X76037845Y-72528810D01*
X76021050Y-72460989D01*
X76043587Y-72394854D01*
X76088641Y-72355815D01*
X76167903Y-72315429D01*
X76334530Y-72194368D01*
X76480168Y-72048730D01*
X76601229Y-71882103D01*
X76694734Y-71698590D01*
X76758380Y-71502708D01*
X76790600Y-71299281D01*
X76790600Y-71093319D01*
X76783070Y-71045779D01*
X76758380Y-70889891D01*
X76714973Y-70756300D01*
X76694734Y-70694010D01*
X76694732Y-70694007D01*
X76694732Y-70694005D01*
X76649374Y-70604987D01*
X76601229Y-70510497D01*
X76534941Y-70419259D01*
X76480173Y-70343876D01*
X76480169Y-70343871D01*
X76334528Y-70198230D01*
X76334523Y-70198226D01*
X76167906Y-70077173D01*
X76167905Y-70077172D01*
X76167903Y-70077171D01*
X76088640Y-70036784D01*
X76037845Y-69988810D01*
X76021050Y-69920989D01*
X76043587Y-69854854D01*
X76088641Y-69815815D01*
X76167903Y-69775429D01*
X76334530Y-69654368D01*
X76480168Y-69508730D01*
X76601229Y-69342103D01*
X76694734Y-69158590D01*
X76758380Y-68962708D01*
X76790600Y-68759281D01*
X76790600Y-68553319D01*
X76769035Y-68417165D01*
X76758150Y-68348439D01*
X76767105Y-68279145D01*
X76792939Y-68241363D01*
X80814172Y-64220133D01*
X80861498Y-64149303D01*
X80915109Y-64104500D01*
X80984434Y-64095792D01*
X81047462Y-64125946D01*
G37*
%TD.AperFunction*%
%TA.AperFunction,Conductor*%
G36*
X88107934Y-51948883D02*
G01*
X88163867Y-51990755D01*
X88188284Y-52056219D01*
X88188600Y-52065065D01*
X88188600Y-55842534D01*
X88168915Y-55909573D01*
X88152281Y-55930215D01*
X81318268Y-62764227D01*
X81318267Y-62764229D01*
X81299217Y-62783279D01*
X81285843Y-62796653D01*
X81224519Y-62830137D01*
X81154828Y-62825151D01*
X81098895Y-62783279D01*
X81095061Y-62777861D01*
X81027778Y-62677164D01*
X80901238Y-62550624D01*
X80901234Y-62550621D01*
X80752442Y-62451201D01*
X80752432Y-62451196D01*
X80587100Y-62382713D01*
X80587092Y-62382711D01*
X80411583Y-62347800D01*
X80411579Y-62347800D01*
X80232621Y-62347800D01*
X80232616Y-62347800D01*
X80057107Y-62382711D01*
X80057099Y-62382713D01*
X79891767Y-62451196D01*
X79891757Y-62451201D01*
X79742965Y-62550621D01*
X79742961Y-62550624D01*
X79616424Y-62677161D01*
X79616421Y-62677165D01*
X79517001Y-62825957D01*
X79516996Y-62825967D01*
X79448513Y-62991299D01*
X79448511Y-62991307D01*
X79413600Y-63166816D01*
X79413600Y-63345783D01*
X79448511Y-63521292D01*
X79448514Y-63521304D01*
X79496672Y-63637568D01*
X79504141Y-63707037D01*
X79472866Y-63769516D01*
X79469792Y-63772701D01*
X77002281Y-66240213D01*
X76940958Y-66273698D01*
X76871266Y-66268714D01*
X76815333Y-66226842D01*
X76790916Y-66161378D01*
X76790600Y-66152532D01*
X76790600Y-66013319D01*
X76758380Y-65809891D01*
X76698618Y-65625964D01*
X76694734Y-65614010D01*
X76694732Y-65614007D01*
X76694732Y-65614005D01*
X76658017Y-65541949D01*
X76601229Y-65430497D01*
X76543196Y-65350621D01*
X76480173Y-65263876D01*
X76480169Y-65263871D01*
X76334528Y-65118230D01*
X76334523Y-65118226D01*
X76167906Y-64997173D01*
X76167905Y-64997172D01*
X76167903Y-64997171D01*
X76088640Y-64956784D01*
X76037845Y-64908810D01*
X76021050Y-64840989D01*
X76043587Y-64774854D01*
X76088641Y-64735815D01*
X76167903Y-64695429D01*
X76334530Y-64574368D01*
X76480168Y-64428730D01*
X76601229Y-64262103D01*
X76694734Y-64078590D01*
X76758380Y-63882708D01*
X76790600Y-63679281D01*
X76790600Y-63473319D01*
X76770400Y-63345783D01*
X76758150Y-63268439D01*
X76767105Y-63199145D01*
X76792939Y-63161363D01*
X87976921Y-51977382D01*
X88038242Y-51943899D01*
X88107934Y-51948883D01*
G37*
%TD.AperFunction*%
%TA.AperFunction,Conductor*%
G36*
X74589248Y-47867986D02*
G01*
X74635016Y-47920779D01*
X74644976Y-47989935D01*
X74615967Y-48053498D01*
X74580688Y-48081676D01*
X74397782Y-48179442D01*
X74397772Y-48179448D01*
X74124104Y-48362307D01*
X74124099Y-48362310D01*
X73936017Y-48516664D01*
X73936017Y-48516665D01*
X75181401Y-49762048D01*
X75079770Y-49835888D01*
X74901688Y-50013970D01*
X74827848Y-50115601D01*
X73582465Y-48870217D01*
X73582464Y-48870217D01*
X73428110Y-49058299D01*
X73428107Y-49058304D01*
X73245248Y-49331972D01*
X73245237Y-49331990D01*
X73155958Y-49499020D01*
X73106996Y-49548865D01*
X73038858Y-49564325D01*
X72973178Y-49540493D01*
X72930809Y-49484935D01*
X72922600Y-49440567D01*
X72922600Y-47972683D01*
X72942285Y-47905644D01*
X72995089Y-47859889D01*
X73046563Y-47848684D01*
X74522208Y-47848319D01*
X74589248Y-47867986D01*
G37*
%TD.AperFunction*%
%TA.AperFunction,Conductor*%
G36*
X165064614Y-47845631D02*
G01*
X165110382Y-47898424D01*
X165121600Y-47949963D01*
X165121600Y-49440567D01*
X165101915Y-49507606D01*
X165049111Y-49553361D01*
X164979953Y-49563305D01*
X164916397Y-49534280D01*
X164888242Y-49499020D01*
X164798962Y-49331990D01*
X164798951Y-49331972D01*
X164616092Y-49058304D01*
X164616089Y-49058300D01*
X164461734Y-48870217D01*
X164461733Y-48870217D01*
X163216350Y-50115600D01*
X163142512Y-50013970D01*
X162964430Y-49835888D01*
X162862797Y-49762047D01*
X164108181Y-48516665D01*
X164108181Y-48516664D01*
X163920099Y-48362310D01*
X163920095Y-48362307D01*
X163646427Y-48179448D01*
X163646409Y-48179437D01*
X163422388Y-48059695D01*
X163372543Y-48010733D01*
X163357083Y-47942595D01*
X163380915Y-47876915D01*
X163436473Y-47834547D01*
X163480801Y-47826338D01*
X164997571Y-47825963D01*
X165064614Y-47845631D01*
G37*
%TD.AperFunction*%
%TD*%
M02*
