%TF.GenerationSoftware,KiCad,Pcbnew,9.0.9-9.0.9~ubuntu24.04.1*%
%TF.CreationDate,2026-05-26T11:11:06-07:00*%
%TF.ProjectId,matter_thread_relay_r1,6d617474-6572-45f7-9468-726561645f72,rev?*%
%TF.SameCoordinates,Original*%
%TF.FileFunction,Legend,Top*%
%TF.FilePolarity,Positive*%
%FSLAX46Y46*%
G04 Gerber Fmt 4.6, Leading zero omitted, Abs format (unit mm)*
G04 Created by KiCad (PCBNEW 9.0.9-9.0.9~ubuntu24.04.1) date 2026-05-26 11:11:06*
%MOMM*%
%LPD*%
G01*
G04 APERTURE LIST*
%ADD10C,0.150000*%
%ADD11C,0.152400*%
%ADD12C,0.300000*%
%ADD13C,0.100000*%
%ADD14C,0.120000*%
%ADD15C,0.127000*%
%ADD16C,0.200000*%
G04 APERTURE END LIST*
D10*
X130058879Y-112368534D02*
X130058879Y-111701867D01*
X130058879Y-111892343D02*
X130106498Y-111797105D01*
X130106498Y-111797105D02*
X130154117Y-111749486D01*
X130154117Y-111749486D02*
X130249355Y-111701867D01*
X130249355Y-111701867D02*
X130344593Y-111701867D01*
X130868403Y-111368534D02*
X130963641Y-111368534D01*
X130963641Y-111368534D02*
X131058879Y-111416153D01*
X131058879Y-111416153D02*
X131106498Y-111463772D01*
X131106498Y-111463772D02*
X131154117Y-111559010D01*
X131154117Y-111559010D02*
X131201736Y-111749486D01*
X131201736Y-111749486D02*
X131201736Y-111987581D01*
X131201736Y-111987581D02*
X131154117Y-112178057D01*
X131154117Y-112178057D02*
X131106498Y-112273295D01*
X131106498Y-112273295D02*
X131058879Y-112320915D01*
X131058879Y-112320915D02*
X130963641Y-112368534D01*
X130963641Y-112368534D02*
X130868403Y-112368534D01*
X130868403Y-112368534D02*
X130773165Y-112320915D01*
X130773165Y-112320915D02*
X130725546Y-112273295D01*
X130725546Y-112273295D02*
X130677927Y-112178057D01*
X130677927Y-112178057D02*
X130630308Y-111987581D01*
X130630308Y-111987581D02*
X130630308Y-111749486D01*
X130630308Y-111749486D02*
X130677927Y-111559010D01*
X130677927Y-111559010D02*
X130725546Y-111463772D01*
X130725546Y-111463772D02*
X130773165Y-111416153D01*
X130773165Y-111416153D02*
X130868403Y-111368534D01*
X131630308Y-112273295D02*
X131677927Y-112320915D01*
X131677927Y-112320915D02*
X131630308Y-112368534D01*
X131630308Y-112368534D02*
X131582689Y-112320915D01*
X131582689Y-112320915D02*
X131630308Y-112273295D01*
X131630308Y-112273295D02*
X131630308Y-112368534D01*
X132630307Y-112368534D02*
X132058879Y-112368534D01*
X132344593Y-112368534D02*
X132344593Y-111368534D01*
X132344593Y-111368534D02*
X132249355Y-111511391D01*
X132249355Y-111511391D02*
X132154117Y-111606629D01*
X132154117Y-111606629D02*
X132058879Y-111654248D01*
X110992212Y-108402309D02*
X110658879Y-108402309D01*
X110658879Y-108926119D02*
X110658879Y-107926119D01*
X110658879Y-107926119D02*
X111135069Y-107926119D01*
X111706498Y-107926119D02*
X111896974Y-107926119D01*
X111896974Y-107926119D02*
X111992212Y-107973738D01*
X111992212Y-107973738D02*
X112087450Y-108068976D01*
X112087450Y-108068976D02*
X112135069Y-108259452D01*
X112135069Y-108259452D02*
X112135069Y-108592785D01*
X112135069Y-108592785D02*
X112087450Y-108783261D01*
X112087450Y-108783261D02*
X111992212Y-108878500D01*
X111992212Y-108878500D02*
X111896974Y-108926119D01*
X111896974Y-108926119D02*
X111706498Y-108926119D01*
X111706498Y-108926119D02*
X111611260Y-108878500D01*
X111611260Y-108878500D02*
X111516022Y-108783261D01*
X111516022Y-108783261D02*
X111468403Y-108592785D01*
X111468403Y-108592785D02*
X111468403Y-108259452D01*
X111468403Y-108259452D02*
X111516022Y-108068976D01*
X111516022Y-108068976D02*
X111611260Y-107973738D01*
X111611260Y-107973738D02*
X111706498Y-107926119D01*
X113325546Y-108926119D02*
X113325546Y-107926119D01*
X113325546Y-107926119D02*
X113563641Y-107926119D01*
X113563641Y-107926119D02*
X113706498Y-107973738D01*
X113706498Y-107973738D02*
X113801736Y-108068976D01*
X113801736Y-108068976D02*
X113849355Y-108164214D01*
X113849355Y-108164214D02*
X113896974Y-108354690D01*
X113896974Y-108354690D02*
X113896974Y-108497547D01*
X113896974Y-108497547D02*
X113849355Y-108688023D01*
X113849355Y-108688023D02*
X113801736Y-108783261D01*
X113801736Y-108783261D02*
X113706498Y-108878500D01*
X113706498Y-108878500D02*
X113563641Y-108926119D01*
X113563641Y-108926119D02*
X113325546Y-108926119D01*
X114706498Y-108878500D02*
X114611260Y-108926119D01*
X114611260Y-108926119D02*
X114420784Y-108926119D01*
X114420784Y-108926119D02*
X114325546Y-108878500D01*
X114325546Y-108878500D02*
X114277927Y-108783261D01*
X114277927Y-108783261D02*
X114277927Y-108402309D01*
X114277927Y-108402309D02*
X114325546Y-108307071D01*
X114325546Y-108307071D02*
X114420784Y-108259452D01*
X114420784Y-108259452D02*
X114611260Y-108259452D01*
X114611260Y-108259452D02*
X114706498Y-108307071D01*
X114706498Y-108307071D02*
X114754117Y-108402309D01*
X114754117Y-108402309D02*
X114754117Y-108497547D01*
X114754117Y-108497547D02*
X114277927Y-108592785D01*
X115135070Y-108878500D02*
X115230308Y-108926119D01*
X115230308Y-108926119D02*
X115420784Y-108926119D01*
X115420784Y-108926119D02*
X115516022Y-108878500D01*
X115516022Y-108878500D02*
X115563641Y-108783261D01*
X115563641Y-108783261D02*
X115563641Y-108735642D01*
X115563641Y-108735642D02*
X115516022Y-108640404D01*
X115516022Y-108640404D02*
X115420784Y-108592785D01*
X115420784Y-108592785D02*
X115277927Y-108592785D01*
X115277927Y-108592785D02*
X115182689Y-108545166D01*
X115182689Y-108545166D02*
X115135070Y-108449928D01*
X115135070Y-108449928D02*
X115135070Y-108402309D01*
X115135070Y-108402309D02*
X115182689Y-108307071D01*
X115182689Y-108307071D02*
X115277927Y-108259452D01*
X115277927Y-108259452D02*
X115420784Y-108259452D01*
X115420784Y-108259452D02*
X115516022Y-108307071D01*
X115992213Y-108926119D02*
X115992213Y-108259452D01*
X115992213Y-107926119D02*
X115944594Y-107973738D01*
X115944594Y-107973738D02*
X115992213Y-108021357D01*
X115992213Y-108021357D02*
X116039832Y-107973738D01*
X116039832Y-107973738D02*
X115992213Y-107926119D01*
X115992213Y-107926119D02*
X115992213Y-108021357D01*
X116896974Y-108259452D02*
X116896974Y-109068976D01*
X116896974Y-109068976D02*
X116849355Y-109164214D01*
X116849355Y-109164214D02*
X116801736Y-109211833D01*
X116801736Y-109211833D02*
X116706498Y-109259452D01*
X116706498Y-109259452D02*
X116563641Y-109259452D01*
X116563641Y-109259452D02*
X116468403Y-109211833D01*
X116896974Y-108878500D02*
X116801736Y-108926119D01*
X116801736Y-108926119D02*
X116611260Y-108926119D01*
X116611260Y-108926119D02*
X116516022Y-108878500D01*
X116516022Y-108878500D02*
X116468403Y-108830880D01*
X116468403Y-108830880D02*
X116420784Y-108735642D01*
X116420784Y-108735642D02*
X116420784Y-108449928D01*
X116420784Y-108449928D02*
X116468403Y-108354690D01*
X116468403Y-108354690D02*
X116516022Y-108307071D01*
X116516022Y-108307071D02*
X116611260Y-108259452D01*
X116611260Y-108259452D02*
X116801736Y-108259452D01*
X116801736Y-108259452D02*
X116896974Y-108307071D01*
X117373165Y-108259452D02*
X117373165Y-108926119D01*
X117373165Y-108354690D02*
X117420784Y-108307071D01*
X117420784Y-108307071D02*
X117516022Y-108259452D01*
X117516022Y-108259452D02*
X117658879Y-108259452D01*
X117658879Y-108259452D02*
X117754117Y-108307071D01*
X117754117Y-108307071D02*
X117801736Y-108402309D01*
X117801736Y-108402309D02*
X117801736Y-108926119D01*
X118944594Y-107926119D02*
X119182689Y-108926119D01*
X119182689Y-108926119D02*
X119373165Y-108211833D01*
X119373165Y-108211833D02*
X119563641Y-108926119D01*
X119563641Y-108926119D02*
X119801737Y-107926119D01*
X120325546Y-108926119D02*
X120230308Y-108878500D01*
X120230308Y-108878500D02*
X120182689Y-108830880D01*
X120182689Y-108830880D02*
X120135070Y-108735642D01*
X120135070Y-108735642D02*
X120135070Y-108449928D01*
X120135070Y-108449928D02*
X120182689Y-108354690D01*
X120182689Y-108354690D02*
X120230308Y-108307071D01*
X120230308Y-108307071D02*
X120325546Y-108259452D01*
X120325546Y-108259452D02*
X120468403Y-108259452D01*
X120468403Y-108259452D02*
X120563641Y-108307071D01*
X120563641Y-108307071D02*
X120611260Y-108354690D01*
X120611260Y-108354690D02*
X120658879Y-108449928D01*
X120658879Y-108449928D02*
X120658879Y-108735642D01*
X120658879Y-108735642D02*
X120611260Y-108830880D01*
X120611260Y-108830880D02*
X120563641Y-108878500D01*
X120563641Y-108878500D02*
X120468403Y-108926119D01*
X120468403Y-108926119D02*
X120325546Y-108926119D01*
X121087451Y-108926119D02*
X121087451Y-108259452D01*
X121087451Y-108449928D02*
X121135070Y-108354690D01*
X121135070Y-108354690D02*
X121182689Y-108307071D01*
X121182689Y-108307071D02*
X121277927Y-108259452D01*
X121277927Y-108259452D02*
X121373165Y-108259452D01*
X121706499Y-108926119D02*
X121706499Y-107926119D01*
X121801737Y-108545166D02*
X122087451Y-108926119D01*
X122087451Y-108259452D02*
X121706499Y-108640404D01*
X122468404Y-108878500D02*
X122563642Y-108926119D01*
X122563642Y-108926119D02*
X122754118Y-108926119D01*
X122754118Y-108926119D02*
X122849356Y-108878500D01*
X122849356Y-108878500D02*
X122896975Y-108783261D01*
X122896975Y-108783261D02*
X122896975Y-108735642D01*
X122896975Y-108735642D02*
X122849356Y-108640404D01*
X122849356Y-108640404D02*
X122754118Y-108592785D01*
X122754118Y-108592785D02*
X122611261Y-108592785D01*
X122611261Y-108592785D02*
X122516023Y-108545166D01*
X122516023Y-108545166D02*
X122468404Y-108449928D01*
X122468404Y-108449928D02*
X122468404Y-108402309D01*
X122468404Y-108402309D02*
X122516023Y-108307071D01*
X122516023Y-108307071D02*
X122611261Y-108259452D01*
X122611261Y-108259452D02*
X122754118Y-108259452D01*
X122754118Y-108259452D02*
X122849356Y-108307071D01*
X150858879Y-74187581D02*
X151620784Y-74187581D01*
X151058879Y-69187581D02*
X151820784Y-69187581D01*
X151439831Y-69568534D02*
X151439831Y-68806629D01*
D11*
X119857791Y-48708035D02*
X119954553Y-48708035D01*
X119954553Y-48708035D02*
X120051315Y-48756416D01*
X120051315Y-48756416D02*
X120099696Y-48804797D01*
X120099696Y-48804797D02*
X120148077Y-48901559D01*
X120148077Y-48901559D02*
X120196458Y-49095083D01*
X120196458Y-49095083D02*
X120196458Y-49336988D01*
X120196458Y-49336988D02*
X120148077Y-49530512D01*
X120148077Y-49530512D02*
X120099696Y-49627274D01*
X120099696Y-49627274D02*
X120051315Y-49675655D01*
X120051315Y-49675655D02*
X119954553Y-49724035D01*
X119954553Y-49724035D02*
X119857791Y-49724035D01*
X119857791Y-49724035D02*
X119761029Y-49675655D01*
X119761029Y-49675655D02*
X119712648Y-49627274D01*
X119712648Y-49627274D02*
X119664267Y-49530512D01*
X119664267Y-49530512D02*
X119615886Y-49336988D01*
X119615886Y-49336988D02*
X119615886Y-49095083D01*
X119615886Y-49095083D02*
X119664267Y-48901559D01*
X119664267Y-48901559D02*
X119712648Y-48804797D01*
X119712648Y-48804797D02*
X119761029Y-48756416D01*
X119761029Y-48756416D02*
X119857791Y-48708035D01*
X121115696Y-48708035D02*
X120631886Y-48708035D01*
X120631886Y-48708035D02*
X120583505Y-49191845D01*
X120583505Y-49191845D02*
X120631886Y-49143464D01*
X120631886Y-49143464D02*
X120728648Y-49095083D01*
X120728648Y-49095083D02*
X120970553Y-49095083D01*
X120970553Y-49095083D02*
X121067315Y-49143464D01*
X121067315Y-49143464D02*
X121115696Y-49191845D01*
X121115696Y-49191845D02*
X121164077Y-49288607D01*
X121164077Y-49288607D02*
X121164077Y-49530512D01*
X121164077Y-49530512D02*
X121115696Y-49627274D01*
X121115696Y-49627274D02*
X121067315Y-49675655D01*
X121067315Y-49675655D02*
X120970553Y-49724035D01*
X120970553Y-49724035D02*
X120728648Y-49724035D01*
X120728648Y-49724035D02*
X120631886Y-49675655D01*
X120631886Y-49675655D02*
X120583505Y-49627274D01*
X122325220Y-48659655D02*
X121454362Y-49965940D01*
X122615505Y-48804797D02*
X122663886Y-48756416D01*
X122663886Y-48756416D02*
X122760648Y-48708035D01*
X122760648Y-48708035D02*
X123002553Y-48708035D01*
X123002553Y-48708035D02*
X123099315Y-48756416D01*
X123099315Y-48756416D02*
X123147696Y-48804797D01*
X123147696Y-48804797D02*
X123196077Y-48901559D01*
X123196077Y-48901559D02*
X123196077Y-48998321D01*
X123196077Y-48998321D02*
X123147696Y-49143464D01*
X123147696Y-49143464D02*
X122567124Y-49724035D01*
X122567124Y-49724035D02*
X123196077Y-49724035D01*
X124066934Y-48708035D02*
X123873410Y-48708035D01*
X123873410Y-48708035D02*
X123776648Y-48756416D01*
X123776648Y-48756416D02*
X123728267Y-48804797D01*
X123728267Y-48804797D02*
X123631505Y-48949940D01*
X123631505Y-48949940D02*
X123583124Y-49143464D01*
X123583124Y-49143464D02*
X123583124Y-49530512D01*
X123583124Y-49530512D02*
X123631505Y-49627274D01*
X123631505Y-49627274D02*
X123679886Y-49675655D01*
X123679886Y-49675655D02*
X123776648Y-49724035D01*
X123776648Y-49724035D02*
X123970172Y-49724035D01*
X123970172Y-49724035D02*
X124066934Y-49675655D01*
X124066934Y-49675655D02*
X124115315Y-49627274D01*
X124115315Y-49627274D02*
X124163696Y-49530512D01*
X124163696Y-49530512D02*
X124163696Y-49288607D01*
X124163696Y-49288607D02*
X124115315Y-49191845D01*
X124115315Y-49191845D02*
X124066934Y-49143464D01*
X124066934Y-49143464D02*
X123970172Y-49095083D01*
X123970172Y-49095083D02*
X123776648Y-49095083D01*
X123776648Y-49095083D02*
X123679886Y-49143464D01*
X123679886Y-49143464D02*
X123631505Y-49191845D01*
X123631505Y-49191845D02*
X123583124Y-49288607D01*
X125324839Y-48659655D02*
X124453981Y-49965940D01*
X125615124Y-48804797D02*
X125663505Y-48756416D01*
X125663505Y-48756416D02*
X125760267Y-48708035D01*
X125760267Y-48708035D02*
X126002172Y-48708035D01*
X126002172Y-48708035D02*
X126098934Y-48756416D01*
X126098934Y-48756416D02*
X126147315Y-48804797D01*
X126147315Y-48804797D02*
X126195696Y-48901559D01*
X126195696Y-48901559D02*
X126195696Y-48998321D01*
X126195696Y-48998321D02*
X126147315Y-49143464D01*
X126147315Y-49143464D02*
X125566743Y-49724035D01*
X125566743Y-49724035D02*
X126195696Y-49724035D01*
X127066553Y-48708035D02*
X126873029Y-48708035D01*
X126873029Y-48708035D02*
X126776267Y-48756416D01*
X126776267Y-48756416D02*
X126727886Y-48804797D01*
X126727886Y-48804797D02*
X126631124Y-48949940D01*
X126631124Y-48949940D02*
X126582743Y-49143464D01*
X126582743Y-49143464D02*
X126582743Y-49530512D01*
X126582743Y-49530512D02*
X126631124Y-49627274D01*
X126631124Y-49627274D02*
X126679505Y-49675655D01*
X126679505Y-49675655D02*
X126776267Y-49724035D01*
X126776267Y-49724035D02*
X126969791Y-49724035D01*
X126969791Y-49724035D02*
X127066553Y-49675655D01*
X127066553Y-49675655D02*
X127114934Y-49627274D01*
X127114934Y-49627274D02*
X127163315Y-49530512D01*
X127163315Y-49530512D02*
X127163315Y-49288607D01*
X127163315Y-49288607D02*
X127114934Y-49191845D01*
X127114934Y-49191845D02*
X127066553Y-49143464D01*
X127066553Y-49143464D02*
X126969791Y-49095083D01*
X126969791Y-49095083D02*
X126776267Y-49095083D01*
X126776267Y-49095083D02*
X126679505Y-49143464D01*
X126679505Y-49143464D02*
X126631124Y-49191845D01*
X126631124Y-49191845D02*
X126582743Y-49288607D01*
D12*
X91205182Y-111828557D02*
X91919468Y-111828557D01*
X91062325Y-112257128D02*
X91562325Y-110757128D01*
X91562325Y-110757128D02*
X92062325Y-112257128D01*
X92562324Y-112257128D02*
X92562324Y-111257128D01*
X92562324Y-111542842D02*
X92633753Y-111399985D01*
X92633753Y-111399985D02*
X92705182Y-111328557D01*
X92705182Y-111328557D02*
X92848039Y-111257128D01*
X92848039Y-111257128D02*
X92990896Y-111257128D01*
X94133753Y-112257128D02*
X94133753Y-110757128D01*
X94133753Y-112185700D02*
X93990895Y-112257128D01*
X93990895Y-112257128D02*
X93705181Y-112257128D01*
X93705181Y-112257128D02*
X93562324Y-112185700D01*
X93562324Y-112185700D02*
X93490895Y-112114271D01*
X93490895Y-112114271D02*
X93419467Y-111971414D01*
X93419467Y-111971414D02*
X93419467Y-111542842D01*
X93419467Y-111542842D02*
X93490895Y-111399985D01*
X93490895Y-111399985D02*
X93562324Y-111328557D01*
X93562324Y-111328557D02*
X93705181Y-111257128D01*
X93705181Y-111257128D02*
X93990895Y-111257128D01*
X93990895Y-111257128D02*
X94133753Y-111328557D01*
X95490896Y-111257128D02*
X95490896Y-112257128D01*
X94848038Y-111257128D02*
X94848038Y-112042842D01*
X94848038Y-112042842D02*
X94919467Y-112185700D01*
X94919467Y-112185700D02*
X95062324Y-112257128D01*
X95062324Y-112257128D02*
X95276610Y-112257128D01*
X95276610Y-112257128D02*
X95419467Y-112185700D01*
X95419467Y-112185700D02*
X95490896Y-112114271D01*
X96205181Y-112257128D02*
X96205181Y-111257128D01*
X96205181Y-110757128D02*
X96133753Y-110828557D01*
X96133753Y-110828557D02*
X96205181Y-110899985D01*
X96205181Y-110899985D02*
X96276610Y-110828557D01*
X96276610Y-110828557D02*
X96205181Y-110757128D01*
X96205181Y-110757128D02*
X96205181Y-110899985D01*
X96919467Y-111257128D02*
X96919467Y-112257128D01*
X96919467Y-111399985D02*
X96990896Y-111328557D01*
X96990896Y-111328557D02*
X97133753Y-111257128D01*
X97133753Y-111257128D02*
X97348039Y-111257128D01*
X97348039Y-111257128D02*
X97490896Y-111328557D01*
X97490896Y-111328557D02*
X97562325Y-111471414D01*
X97562325Y-111471414D02*
X97562325Y-112257128D01*
X98490896Y-112257128D02*
X98348039Y-112185700D01*
X98348039Y-112185700D02*
X98276610Y-112114271D01*
X98276610Y-112114271D02*
X98205182Y-111971414D01*
X98205182Y-111971414D02*
X98205182Y-111542842D01*
X98205182Y-111542842D02*
X98276610Y-111399985D01*
X98276610Y-111399985D02*
X98348039Y-111328557D01*
X98348039Y-111328557D02*
X98490896Y-111257128D01*
X98490896Y-111257128D02*
X98705182Y-111257128D01*
X98705182Y-111257128D02*
X98848039Y-111328557D01*
X98848039Y-111328557D02*
X98919468Y-111399985D01*
X98919468Y-111399985D02*
X98990896Y-111542842D01*
X98990896Y-111542842D02*
X98990896Y-111971414D01*
X98990896Y-111971414D02*
X98919468Y-112114271D01*
X98919468Y-112114271D02*
X98848039Y-112185700D01*
X98848039Y-112185700D02*
X98705182Y-112257128D01*
X98705182Y-112257128D02*
X98490896Y-112257128D01*
X100776610Y-112257128D02*
X100776610Y-110757128D01*
X100776610Y-110757128D02*
X101276610Y-111828557D01*
X101276610Y-111828557D02*
X101776610Y-110757128D01*
X101776610Y-110757128D02*
X101776610Y-112257128D01*
X103133754Y-112257128D02*
X103133754Y-111471414D01*
X103133754Y-111471414D02*
X103062325Y-111328557D01*
X103062325Y-111328557D02*
X102919468Y-111257128D01*
X102919468Y-111257128D02*
X102633754Y-111257128D01*
X102633754Y-111257128D02*
X102490896Y-111328557D01*
X103133754Y-112185700D02*
X102990896Y-112257128D01*
X102990896Y-112257128D02*
X102633754Y-112257128D01*
X102633754Y-112257128D02*
X102490896Y-112185700D01*
X102490896Y-112185700D02*
X102419468Y-112042842D01*
X102419468Y-112042842D02*
X102419468Y-111899985D01*
X102419468Y-111899985D02*
X102490896Y-111757128D01*
X102490896Y-111757128D02*
X102633754Y-111685700D01*
X102633754Y-111685700D02*
X102990896Y-111685700D01*
X102990896Y-111685700D02*
X103133754Y-111614271D01*
X103633754Y-111257128D02*
X104205182Y-111257128D01*
X103848039Y-110757128D02*
X103848039Y-112042842D01*
X103848039Y-112042842D02*
X103919468Y-112185700D01*
X103919468Y-112185700D02*
X104062325Y-112257128D01*
X104062325Y-112257128D02*
X104205182Y-112257128D01*
X104490897Y-111257128D02*
X105062325Y-111257128D01*
X104705182Y-110757128D02*
X104705182Y-112042842D01*
X104705182Y-112042842D02*
X104776611Y-112185700D01*
X104776611Y-112185700D02*
X104919468Y-112257128D01*
X104919468Y-112257128D02*
X105062325Y-112257128D01*
X106133754Y-112185700D02*
X105990897Y-112257128D01*
X105990897Y-112257128D02*
X105705183Y-112257128D01*
X105705183Y-112257128D02*
X105562325Y-112185700D01*
X105562325Y-112185700D02*
X105490897Y-112042842D01*
X105490897Y-112042842D02*
X105490897Y-111471414D01*
X105490897Y-111471414D02*
X105562325Y-111328557D01*
X105562325Y-111328557D02*
X105705183Y-111257128D01*
X105705183Y-111257128D02*
X105990897Y-111257128D01*
X105990897Y-111257128D02*
X106133754Y-111328557D01*
X106133754Y-111328557D02*
X106205183Y-111471414D01*
X106205183Y-111471414D02*
X106205183Y-111614271D01*
X106205183Y-111614271D02*
X105490897Y-111757128D01*
X106848039Y-112257128D02*
X106848039Y-111257128D01*
X106848039Y-111542842D02*
X106919468Y-111399985D01*
X106919468Y-111399985D02*
X106990897Y-111328557D01*
X106990897Y-111328557D02*
X107133754Y-111257128D01*
X107133754Y-111257128D02*
X107276611Y-111257128D01*
X108705182Y-110757128D02*
X109562325Y-110757128D01*
X109133753Y-112257128D02*
X109133753Y-110757128D01*
X110062324Y-112257128D02*
X110062324Y-110757128D01*
X110705182Y-112257128D02*
X110705182Y-111471414D01*
X110705182Y-111471414D02*
X110633753Y-111328557D01*
X110633753Y-111328557D02*
X110490896Y-111257128D01*
X110490896Y-111257128D02*
X110276610Y-111257128D01*
X110276610Y-111257128D02*
X110133753Y-111328557D01*
X110133753Y-111328557D02*
X110062324Y-111399985D01*
X111419467Y-112257128D02*
X111419467Y-111257128D01*
X111419467Y-111542842D02*
X111490896Y-111399985D01*
X111490896Y-111399985D02*
X111562325Y-111328557D01*
X111562325Y-111328557D02*
X111705182Y-111257128D01*
X111705182Y-111257128D02*
X111848039Y-111257128D01*
X112919467Y-112185700D02*
X112776610Y-112257128D01*
X112776610Y-112257128D02*
X112490896Y-112257128D01*
X112490896Y-112257128D02*
X112348038Y-112185700D01*
X112348038Y-112185700D02*
X112276610Y-112042842D01*
X112276610Y-112042842D02*
X112276610Y-111471414D01*
X112276610Y-111471414D02*
X112348038Y-111328557D01*
X112348038Y-111328557D02*
X112490896Y-111257128D01*
X112490896Y-111257128D02*
X112776610Y-111257128D01*
X112776610Y-111257128D02*
X112919467Y-111328557D01*
X112919467Y-111328557D02*
X112990896Y-111471414D01*
X112990896Y-111471414D02*
X112990896Y-111614271D01*
X112990896Y-111614271D02*
X112276610Y-111757128D01*
X114276610Y-112257128D02*
X114276610Y-111471414D01*
X114276610Y-111471414D02*
X114205181Y-111328557D01*
X114205181Y-111328557D02*
X114062324Y-111257128D01*
X114062324Y-111257128D02*
X113776610Y-111257128D01*
X113776610Y-111257128D02*
X113633752Y-111328557D01*
X114276610Y-112185700D02*
X114133752Y-112257128D01*
X114133752Y-112257128D02*
X113776610Y-112257128D01*
X113776610Y-112257128D02*
X113633752Y-112185700D01*
X113633752Y-112185700D02*
X113562324Y-112042842D01*
X113562324Y-112042842D02*
X113562324Y-111899985D01*
X113562324Y-111899985D02*
X113633752Y-111757128D01*
X113633752Y-111757128D02*
X113776610Y-111685700D01*
X113776610Y-111685700D02*
X114133752Y-111685700D01*
X114133752Y-111685700D02*
X114276610Y-111614271D01*
X115633753Y-112257128D02*
X115633753Y-110757128D01*
X115633753Y-112185700D02*
X115490895Y-112257128D01*
X115490895Y-112257128D02*
X115205181Y-112257128D01*
X115205181Y-112257128D02*
X115062324Y-112185700D01*
X115062324Y-112185700D02*
X114990895Y-112114271D01*
X114990895Y-112114271D02*
X114919467Y-111971414D01*
X114919467Y-111971414D02*
X114919467Y-111542842D01*
X114919467Y-111542842D02*
X114990895Y-111399985D01*
X114990895Y-111399985D02*
X115062324Y-111328557D01*
X115062324Y-111328557D02*
X115205181Y-111257128D01*
X115205181Y-111257128D02*
X115490895Y-111257128D01*
X115490895Y-111257128D02*
X115633753Y-111328557D01*
X118348038Y-112257128D02*
X117848038Y-111542842D01*
X117490895Y-112257128D02*
X117490895Y-110757128D01*
X117490895Y-110757128D02*
X118062324Y-110757128D01*
X118062324Y-110757128D02*
X118205181Y-110828557D01*
X118205181Y-110828557D02*
X118276610Y-110899985D01*
X118276610Y-110899985D02*
X118348038Y-111042842D01*
X118348038Y-111042842D02*
X118348038Y-111257128D01*
X118348038Y-111257128D02*
X118276610Y-111399985D01*
X118276610Y-111399985D02*
X118205181Y-111471414D01*
X118205181Y-111471414D02*
X118062324Y-111542842D01*
X118062324Y-111542842D02*
X117490895Y-111542842D01*
X119562324Y-112185700D02*
X119419467Y-112257128D01*
X119419467Y-112257128D02*
X119133753Y-112257128D01*
X119133753Y-112257128D02*
X118990895Y-112185700D01*
X118990895Y-112185700D02*
X118919467Y-112042842D01*
X118919467Y-112042842D02*
X118919467Y-111471414D01*
X118919467Y-111471414D02*
X118990895Y-111328557D01*
X118990895Y-111328557D02*
X119133753Y-111257128D01*
X119133753Y-111257128D02*
X119419467Y-111257128D01*
X119419467Y-111257128D02*
X119562324Y-111328557D01*
X119562324Y-111328557D02*
X119633753Y-111471414D01*
X119633753Y-111471414D02*
X119633753Y-111614271D01*
X119633753Y-111614271D02*
X118919467Y-111757128D01*
X120490895Y-112257128D02*
X120348038Y-112185700D01*
X120348038Y-112185700D02*
X120276609Y-112042842D01*
X120276609Y-112042842D02*
X120276609Y-110757128D01*
X121705181Y-112257128D02*
X121705181Y-111471414D01*
X121705181Y-111471414D02*
X121633752Y-111328557D01*
X121633752Y-111328557D02*
X121490895Y-111257128D01*
X121490895Y-111257128D02*
X121205181Y-111257128D01*
X121205181Y-111257128D02*
X121062323Y-111328557D01*
X121705181Y-112185700D02*
X121562323Y-112257128D01*
X121562323Y-112257128D02*
X121205181Y-112257128D01*
X121205181Y-112257128D02*
X121062323Y-112185700D01*
X121062323Y-112185700D02*
X120990895Y-112042842D01*
X120990895Y-112042842D02*
X120990895Y-111899985D01*
X120990895Y-111899985D02*
X121062323Y-111757128D01*
X121062323Y-111757128D02*
X121205181Y-111685700D01*
X121205181Y-111685700D02*
X121562323Y-111685700D01*
X121562323Y-111685700D02*
X121705181Y-111614271D01*
X122276609Y-111257128D02*
X122633752Y-112257128D01*
X122990895Y-111257128D02*
X122633752Y-112257128D01*
X122633752Y-112257128D02*
X122490895Y-112614271D01*
X122490895Y-112614271D02*
X122419466Y-112685700D01*
X122419466Y-112685700D02*
X122276609Y-112757128D01*
X125205180Y-111471414D02*
X125419466Y-111542842D01*
X125419466Y-111542842D02*
X125490895Y-111614271D01*
X125490895Y-111614271D02*
X125562323Y-111757128D01*
X125562323Y-111757128D02*
X125562323Y-111971414D01*
X125562323Y-111971414D02*
X125490895Y-112114271D01*
X125490895Y-112114271D02*
X125419466Y-112185700D01*
X125419466Y-112185700D02*
X125276609Y-112257128D01*
X125276609Y-112257128D02*
X124705180Y-112257128D01*
X124705180Y-112257128D02*
X124705180Y-110757128D01*
X124705180Y-110757128D02*
X125205180Y-110757128D01*
X125205180Y-110757128D02*
X125348038Y-110828557D01*
X125348038Y-110828557D02*
X125419466Y-110899985D01*
X125419466Y-110899985D02*
X125490895Y-111042842D01*
X125490895Y-111042842D02*
X125490895Y-111185700D01*
X125490895Y-111185700D02*
X125419466Y-111328557D01*
X125419466Y-111328557D02*
X125348038Y-111399985D01*
X125348038Y-111399985D02*
X125205180Y-111471414D01*
X125205180Y-111471414D02*
X124705180Y-111471414D01*
X126205180Y-112257128D02*
X126205180Y-111257128D01*
X126205180Y-111542842D02*
X126276609Y-111399985D01*
X126276609Y-111399985D02*
X126348038Y-111328557D01*
X126348038Y-111328557D02*
X126490895Y-111257128D01*
X126490895Y-111257128D02*
X126633752Y-111257128D01*
X127776609Y-112257128D02*
X127776609Y-110757128D01*
X127776609Y-112185700D02*
X127633751Y-112257128D01*
X127633751Y-112257128D02*
X127348037Y-112257128D01*
X127348037Y-112257128D02*
X127205180Y-112185700D01*
X127205180Y-112185700D02*
X127133751Y-112114271D01*
X127133751Y-112114271D02*
X127062323Y-111971414D01*
X127062323Y-111971414D02*
X127062323Y-111542842D01*
X127062323Y-111542842D02*
X127133751Y-111399985D01*
X127133751Y-111399985D02*
X127205180Y-111328557D01*
X127205180Y-111328557D02*
X127348037Y-111257128D01*
X127348037Y-111257128D02*
X127633751Y-111257128D01*
X127633751Y-111257128D02*
X127776609Y-111328557D01*
X105205182Y-62628115D02*
X105419468Y-62699543D01*
X105419468Y-62699543D02*
X105776610Y-62699543D01*
X105776610Y-62699543D02*
X105919468Y-62628115D01*
X105919468Y-62628115D02*
X105990896Y-62556686D01*
X105990896Y-62556686D02*
X106062325Y-62413829D01*
X106062325Y-62413829D02*
X106062325Y-62270972D01*
X106062325Y-62270972D02*
X105990896Y-62128115D01*
X105990896Y-62128115D02*
X105919468Y-62056686D01*
X105919468Y-62056686D02*
X105776610Y-61985257D01*
X105776610Y-61985257D02*
X105490896Y-61913829D01*
X105490896Y-61913829D02*
X105348039Y-61842400D01*
X105348039Y-61842400D02*
X105276610Y-61770972D01*
X105276610Y-61770972D02*
X105205182Y-61628115D01*
X105205182Y-61628115D02*
X105205182Y-61485257D01*
X105205182Y-61485257D02*
X105276610Y-61342400D01*
X105276610Y-61342400D02*
X105348039Y-61270972D01*
X105348039Y-61270972D02*
X105490896Y-61199543D01*
X105490896Y-61199543D02*
X105848039Y-61199543D01*
X105848039Y-61199543D02*
X106062325Y-61270972D01*
X106705181Y-62699543D02*
X106705181Y-61199543D01*
X106705181Y-61913829D02*
X107562324Y-61913829D01*
X107562324Y-62699543D02*
X107562324Y-61199543D01*
X109062325Y-62699543D02*
X108205182Y-62699543D01*
X108633753Y-62699543D02*
X108633753Y-61199543D01*
X108633753Y-61199543D02*
X108490896Y-61413829D01*
X108490896Y-61413829D02*
X108348039Y-61556686D01*
X108348039Y-61556686D02*
X108205182Y-61628115D01*
X110490896Y-62699543D02*
X109633753Y-62699543D01*
X110062324Y-62699543D02*
X110062324Y-61199543D01*
X110062324Y-61199543D02*
X109919467Y-61413829D01*
X109919467Y-61413829D02*
X109776610Y-61556686D01*
X109776610Y-61556686D02*
X109633753Y-61628115D01*
X111419467Y-61199543D02*
X111562324Y-61199543D01*
X111562324Y-61199543D02*
X111705181Y-61270972D01*
X111705181Y-61270972D02*
X111776610Y-61342400D01*
X111776610Y-61342400D02*
X111848038Y-61485257D01*
X111848038Y-61485257D02*
X111919467Y-61770972D01*
X111919467Y-61770972D02*
X111919467Y-62128115D01*
X111919467Y-62128115D02*
X111848038Y-62413829D01*
X111848038Y-62413829D02*
X111776610Y-62556686D01*
X111776610Y-62556686D02*
X111705181Y-62628115D01*
X111705181Y-62628115D02*
X111562324Y-62699543D01*
X111562324Y-62699543D02*
X111419467Y-62699543D01*
X111419467Y-62699543D02*
X111276610Y-62628115D01*
X111276610Y-62628115D02*
X111205181Y-62556686D01*
X111205181Y-62556686D02*
X111133752Y-62413829D01*
X111133752Y-62413829D02*
X111062324Y-62128115D01*
X111062324Y-62128115D02*
X111062324Y-61770972D01*
X111062324Y-61770972D02*
X111133752Y-61485257D01*
X111133752Y-61485257D02*
X111205181Y-61342400D01*
X111205181Y-61342400D02*
X111276610Y-61270972D01*
X111276610Y-61270972D02*
X111419467Y-61199543D01*
X113205181Y-61199543D02*
X112919466Y-61199543D01*
X112919466Y-61199543D02*
X112776609Y-61270972D01*
X112776609Y-61270972D02*
X112705181Y-61342400D01*
X112705181Y-61342400D02*
X112562323Y-61556686D01*
X112562323Y-61556686D02*
X112490895Y-61842400D01*
X112490895Y-61842400D02*
X112490895Y-62413829D01*
X112490895Y-62413829D02*
X112562323Y-62556686D01*
X112562323Y-62556686D02*
X112633752Y-62628115D01*
X112633752Y-62628115D02*
X112776609Y-62699543D01*
X112776609Y-62699543D02*
X113062323Y-62699543D01*
X113062323Y-62699543D02*
X113205181Y-62628115D01*
X113205181Y-62628115D02*
X113276609Y-62556686D01*
X113276609Y-62556686D02*
X113348038Y-62413829D01*
X113348038Y-62413829D02*
X113348038Y-62056686D01*
X113348038Y-62056686D02*
X113276609Y-61913829D01*
X113276609Y-61913829D02*
X113205181Y-61842400D01*
X113205181Y-61842400D02*
X113062323Y-61770972D01*
X113062323Y-61770972D02*
X112776609Y-61770972D01*
X112776609Y-61770972D02*
X112633752Y-61842400D01*
X112633752Y-61842400D02*
X112562323Y-61913829D01*
X112562323Y-61913829D02*
X112490895Y-62056686D01*
X115419466Y-61199543D02*
X115705180Y-61199543D01*
X115705180Y-61199543D02*
X115848037Y-61270972D01*
X115848037Y-61270972D02*
X115990894Y-61413829D01*
X115990894Y-61413829D02*
X116062323Y-61699543D01*
X116062323Y-61699543D02*
X116062323Y-62199543D01*
X116062323Y-62199543D02*
X115990894Y-62485257D01*
X115990894Y-62485257D02*
X115848037Y-62628115D01*
X115848037Y-62628115D02*
X115705180Y-62699543D01*
X115705180Y-62699543D02*
X115419466Y-62699543D01*
X115419466Y-62699543D02*
X115276609Y-62628115D01*
X115276609Y-62628115D02*
X115133751Y-62485257D01*
X115133751Y-62485257D02*
X115062323Y-62199543D01*
X115062323Y-62199543D02*
X115062323Y-61699543D01*
X115062323Y-61699543D02*
X115133751Y-61413829D01*
X115133751Y-61413829D02*
X115276609Y-61270972D01*
X115276609Y-61270972D02*
X115419466Y-61199543D01*
X116919466Y-62699543D02*
X116776609Y-62628115D01*
X116776609Y-62628115D02*
X116705180Y-62485257D01*
X116705180Y-62485257D02*
X116705180Y-61199543D01*
X118062323Y-62628115D02*
X117919466Y-62699543D01*
X117919466Y-62699543D02*
X117633752Y-62699543D01*
X117633752Y-62699543D02*
X117490894Y-62628115D01*
X117490894Y-62628115D02*
X117419466Y-62485257D01*
X117419466Y-62485257D02*
X117419466Y-61913829D01*
X117419466Y-61913829D02*
X117490894Y-61770972D01*
X117490894Y-61770972D02*
X117633752Y-61699543D01*
X117633752Y-61699543D02*
X117919466Y-61699543D01*
X117919466Y-61699543D02*
X118062323Y-61770972D01*
X118062323Y-61770972D02*
X118133752Y-61913829D01*
X118133752Y-61913829D02*
X118133752Y-62056686D01*
X118133752Y-62056686D02*
X117419466Y-62199543D01*
X119419466Y-62699543D02*
X119419466Y-61199543D01*
X119419466Y-62628115D02*
X119276608Y-62699543D01*
X119276608Y-62699543D02*
X118990894Y-62699543D01*
X118990894Y-62699543D02*
X118848037Y-62628115D01*
X118848037Y-62628115D02*
X118776608Y-62556686D01*
X118776608Y-62556686D02*
X118705180Y-62413829D01*
X118705180Y-62413829D02*
X118705180Y-61985257D01*
X118705180Y-61985257D02*
X118776608Y-61842400D01*
X118776608Y-61842400D02*
X118848037Y-61770972D01*
X118848037Y-61770972D02*
X118990894Y-61699543D01*
X118990894Y-61699543D02*
X119276608Y-61699543D01*
X119276608Y-61699543D02*
X119419466Y-61770972D01*
X106276610Y-54499543D02*
X106276610Y-52999543D01*
X106276610Y-52999543D02*
X106848039Y-52999543D01*
X106848039Y-52999543D02*
X106990896Y-53070972D01*
X106990896Y-53070972D02*
X107062325Y-53142400D01*
X107062325Y-53142400D02*
X107133753Y-53285257D01*
X107133753Y-53285257D02*
X107133753Y-53499543D01*
X107133753Y-53499543D02*
X107062325Y-53642400D01*
X107062325Y-53642400D02*
X106990896Y-53713829D01*
X106990896Y-53713829D02*
X106848039Y-53785257D01*
X106848039Y-53785257D02*
X106276610Y-53785257D01*
X107633753Y-52999543D02*
X107990896Y-54499543D01*
X107990896Y-54499543D02*
X108276610Y-53428115D01*
X108276610Y-53428115D02*
X108562325Y-54499543D01*
X108562325Y-54499543D02*
X108919468Y-52999543D01*
X110348039Y-54499543D02*
X109848039Y-53785257D01*
X109490896Y-54499543D02*
X109490896Y-52999543D01*
X109490896Y-52999543D02*
X110062325Y-52999543D01*
X110062325Y-52999543D02*
X110205182Y-53070972D01*
X110205182Y-53070972D02*
X110276611Y-53142400D01*
X110276611Y-53142400D02*
X110348039Y-53285257D01*
X110348039Y-53285257D02*
X110348039Y-53499543D01*
X110348039Y-53499543D02*
X110276611Y-53642400D01*
X110276611Y-53642400D02*
X110205182Y-53713829D01*
X110205182Y-53713829D02*
X110062325Y-53785257D01*
X110062325Y-53785257D02*
X109490896Y-53785257D01*
X150533753Y-93999543D02*
X151462325Y-93999543D01*
X151462325Y-93999543D02*
X150962325Y-94570972D01*
X150962325Y-94570972D02*
X151176610Y-94570972D01*
X151176610Y-94570972D02*
X151319468Y-94642400D01*
X151319468Y-94642400D02*
X151390896Y-94713829D01*
X151390896Y-94713829D02*
X151462325Y-94856686D01*
X151462325Y-94856686D02*
X151462325Y-95213829D01*
X151462325Y-95213829D02*
X151390896Y-95356686D01*
X151390896Y-95356686D02*
X151319468Y-95428115D01*
X151319468Y-95428115D02*
X151176610Y-95499543D01*
X151176610Y-95499543D02*
X150748039Y-95499543D01*
X150748039Y-95499543D02*
X150605182Y-95428115D01*
X150605182Y-95428115D02*
X150533753Y-95356686D01*
X150805182Y-89342400D02*
X150876610Y-89270972D01*
X150876610Y-89270972D02*
X151019468Y-89199543D01*
X151019468Y-89199543D02*
X151376610Y-89199543D01*
X151376610Y-89199543D02*
X151519468Y-89270972D01*
X151519468Y-89270972D02*
X151590896Y-89342400D01*
X151590896Y-89342400D02*
X151662325Y-89485257D01*
X151662325Y-89485257D02*
X151662325Y-89628115D01*
X151662325Y-89628115D02*
X151590896Y-89842400D01*
X151590896Y-89842400D02*
X150733753Y-90699543D01*
X150733753Y-90699543D02*
X151662325Y-90699543D01*
X151519468Y-99699543D02*
X151519468Y-100699543D01*
X151162325Y-99128115D02*
X150805182Y-100199543D01*
X150805182Y-100199543D02*
X151733753Y-100199543D01*
X151862325Y-85499543D02*
X151005182Y-85499543D01*
X151433753Y-85499543D02*
X151433753Y-83999543D01*
X151433753Y-83999543D02*
X151290896Y-84213829D01*
X151290896Y-84213829D02*
X151148039Y-84356686D01*
X151148039Y-84356686D02*
X151005182Y-84428115D01*
X153676610Y-64128115D02*
X154819468Y-64128115D01*
X154248039Y-64699543D02*
X154248039Y-63556686D01*
X156248039Y-63199543D02*
X155533753Y-63199543D01*
X155533753Y-63199543D02*
X155462325Y-63913829D01*
X155462325Y-63913829D02*
X155533753Y-63842400D01*
X155533753Y-63842400D02*
X155676611Y-63770972D01*
X155676611Y-63770972D02*
X156033753Y-63770972D01*
X156033753Y-63770972D02*
X156176611Y-63842400D01*
X156176611Y-63842400D02*
X156248039Y-63913829D01*
X156248039Y-63913829D02*
X156319468Y-64056686D01*
X156319468Y-64056686D02*
X156319468Y-64413829D01*
X156319468Y-64413829D02*
X156248039Y-64556686D01*
X156248039Y-64556686D02*
X156176611Y-64628115D01*
X156176611Y-64628115D02*
X156033753Y-64699543D01*
X156033753Y-64699543D02*
X155676611Y-64699543D01*
X155676611Y-64699543D02*
X155533753Y-64628115D01*
X155533753Y-64628115D02*
X155462325Y-64556686D01*
X156748039Y-63199543D02*
X157248039Y-64699543D01*
X157248039Y-64699543D02*
X157748039Y-63199543D01*
X159390895Y-64699543D02*
X159390895Y-63199543D01*
X159390895Y-63199543D02*
X159962324Y-63199543D01*
X159962324Y-63199543D02*
X160105181Y-63270972D01*
X160105181Y-63270972D02*
X160176610Y-63342400D01*
X160176610Y-63342400D02*
X160248038Y-63485257D01*
X160248038Y-63485257D02*
X160248038Y-63699543D01*
X160248038Y-63699543D02*
X160176610Y-63842400D01*
X160176610Y-63842400D02*
X160105181Y-63913829D01*
X160105181Y-63913829D02*
X159962324Y-63985257D01*
X159962324Y-63985257D02*
X159390895Y-63985257D01*
X160748038Y-63199543D02*
X161105181Y-64699543D01*
X161105181Y-64699543D02*
X161390895Y-63628115D01*
X161390895Y-63628115D02*
X161676610Y-64699543D01*
X161676610Y-64699543D02*
X162033753Y-63199543D01*
X163462324Y-64699543D02*
X162962324Y-63985257D01*
X162605181Y-64699543D02*
X162605181Y-63199543D01*
X162605181Y-63199543D02*
X163176610Y-63199543D01*
X163176610Y-63199543D02*
X163319467Y-63270972D01*
X163319467Y-63270972D02*
X163390896Y-63342400D01*
X163390896Y-63342400D02*
X163462324Y-63485257D01*
X163462324Y-63485257D02*
X163462324Y-63699543D01*
X163462324Y-63699543D02*
X163390896Y-63842400D01*
X163390896Y-63842400D02*
X163319467Y-63913829D01*
X163319467Y-63913829D02*
X163176610Y-63985257D01*
X163176610Y-63985257D02*
X162605181Y-63985257D01*
X154733753Y-104699543D02*
X154233753Y-103985257D01*
X153876610Y-104699543D02*
X153876610Y-103199543D01*
X153876610Y-103199543D02*
X154448039Y-103199543D01*
X154448039Y-103199543D02*
X154590896Y-103270972D01*
X154590896Y-103270972D02*
X154662325Y-103342400D01*
X154662325Y-103342400D02*
X154733753Y-103485257D01*
X154733753Y-103485257D02*
X154733753Y-103699543D01*
X154733753Y-103699543D02*
X154662325Y-103842400D01*
X154662325Y-103842400D02*
X154590896Y-103913829D01*
X154590896Y-103913829D02*
X154448039Y-103985257D01*
X154448039Y-103985257D02*
X153876610Y-103985257D01*
X155948039Y-104628115D02*
X155805182Y-104699543D01*
X155805182Y-104699543D02*
X155519468Y-104699543D01*
X155519468Y-104699543D02*
X155376610Y-104628115D01*
X155376610Y-104628115D02*
X155305182Y-104485257D01*
X155305182Y-104485257D02*
X155305182Y-103913829D01*
X155305182Y-103913829D02*
X155376610Y-103770972D01*
X155376610Y-103770972D02*
X155519468Y-103699543D01*
X155519468Y-103699543D02*
X155805182Y-103699543D01*
X155805182Y-103699543D02*
X155948039Y-103770972D01*
X155948039Y-103770972D02*
X156019468Y-103913829D01*
X156019468Y-103913829D02*
X156019468Y-104056686D01*
X156019468Y-104056686D02*
X155305182Y-104199543D01*
X156876610Y-104699543D02*
X156733753Y-104628115D01*
X156733753Y-104628115D02*
X156662324Y-104485257D01*
X156662324Y-104485257D02*
X156662324Y-103199543D01*
X158090896Y-104699543D02*
X158090896Y-103913829D01*
X158090896Y-103913829D02*
X158019467Y-103770972D01*
X158019467Y-103770972D02*
X157876610Y-103699543D01*
X157876610Y-103699543D02*
X157590896Y-103699543D01*
X157590896Y-103699543D02*
X157448038Y-103770972D01*
X158090896Y-104628115D02*
X157948038Y-104699543D01*
X157948038Y-104699543D02*
X157590896Y-104699543D01*
X157590896Y-104699543D02*
X157448038Y-104628115D01*
X157448038Y-104628115D02*
X157376610Y-104485257D01*
X157376610Y-104485257D02*
X157376610Y-104342400D01*
X157376610Y-104342400D02*
X157448038Y-104199543D01*
X157448038Y-104199543D02*
X157590896Y-104128115D01*
X157590896Y-104128115D02*
X157948038Y-104128115D01*
X157948038Y-104128115D02*
X158090896Y-104056686D01*
X158662324Y-103699543D02*
X159019467Y-104699543D01*
X159376610Y-103699543D02*
X159019467Y-104699543D01*
X159019467Y-104699543D02*
X158876610Y-105056686D01*
X158876610Y-105056686D02*
X158805181Y-105128115D01*
X158805181Y-105128115D02*
X158662324Y-105199543D01*
X161090895Y-104699543D02*
X161090895Y-103199543D01*
X161090895Y-103199543D02*
X161448038Y-103199543D01*
X161448038Y-103199543D02*
X161662324Y-103270972D01*
X161662324Y-103270972D02*
X161805181Y-103413829D01*
X161805181Y-103413829D02*
X161876610Y-103556686D01*
X161876610Y-103556686D02*
X161948038Y-103842400D01*
X161948038Y-103842400D02*
X161948038Y-104056686D01*
X161948038Y-104056686D02*
X161876610Y-104342400D01*
X161876610Y-104342400D02*
X161805181Y-104485257D01*
X161805181Y-104485257D02*
X161662324Y-104628115D01*
X161662324Y-104628115D02*
X161448038Y-104699543D01*
X161448038Y-104699543D02*
X161090895Y-104699543D01*
X162590895Y-104699543D02*
X162590895Y-103699543D01*
X162590895Y-103985257D02*
X162662324Y-103842400D01*
X162662324Y-103842400D02*
X162733753Y-103770972D01*
X162733753Y-103770972D02*
X162876610Y-103699543D01*
X162876610Y-103699543D02*
X163019467Y-103699543D01*
X163376609Y-103699543D02*
X163733752Y-104699543D01*
X163733752Y-104699543D02*
X164090895Y-103699543D01*
X83294357Y-89615632D02*
X83294357Y-88901347D01*
X83722928Y-89758489D02*
X82222928Y-89258489D01*
X82222928Y-89258489D02*
X83722928Y-88758489D01*
X83722928Y-88258490D02*
X82722928Y-88258490D01*
X83008642Y-88258490D02*
X82865785Y-88187061D01*
X82865785Y-88187061D02*
X82794357Y-88115633D01*
X82794357Y-88115633D02*
X82722928Y-87972775D01*
X82722928Y-87972775D02*
X82722928Y-87829918D01*
X83722928Y-86687062D02*
X82222928Y-86687062D01*
X83651500Y-86687062D02*
X83722928Y-86829919D01*
X83722928Y-86829919D02*
X83722928Y-87115633D01*
X83722928Y-87115633D02*
X83651500Y-87258490D01*
X83651500Y-87258490D02*
X83580071Y-87329919D01*
X83580071Y-87329919D02*
X83437214Y-87401347D01*
X83437214Y-87401347D02*
X83008642Y-87401347D01*
X83008642Y-87401347D02*
X82865785Y-87329919D01*
X82865785Y-87329919D02*
X82794357Y-87258490D01*
X82794357Y-87258490D02*
X82722928Y-87115633D01*
X82722928Y-87115633D02*
X82722928Y-86829919D01*
X82722928Y-86829919D02*
X82794357Y-86687062D01*
X82722928Y-85329919D02*
X83722928Y-85329919D01*
X82722928Y-85972776D02*
X83508642Y-85972776D01*
X83508642Y-85972776D02*
X83651500Y-85901347D01*
X83651500Y-85901347D02*
X83722928Y-85758490D01*
X83722928Y-85758490D02*
X83722928Y-85544204D01*
X83722928Y-85544204D02*
X83651500Y-85401347D01*
X83651500Y-85401347D02*
X83580071Y-85329919D01*
X83722928Y-84615633D02*
X82722928Y-84615633D01*
X82222928Y-84615633D02*
X82294357Y-84687061D01*
X82294357Y-84687061D02*
X82365785Y-84615633D01*
X82365785Y-84615633D02*
X82294357Y-84544204D01*
X82294357Y-84544204D02*
X82222928Y-84615633D01*
X82222928Y-84615633D02*
X82365785Y-84615633D01*
X82722928Y-83901347D02*
X83722928Y-83901347D01*
X82865785Y-83901347D02*
X82794357Y-83829918D01*
X82794357Y-83829918D02*
X82722928Y-83687061D01*
X82722928Y-83687061D02*
X82722928Y-83472775D01*
X82722928Y-83472775D02*
X82794357Y-83329918D01*
X82794357Y-83329918D02*
X82937214Y-83258490D01*
X82937214Y-83258490D02*
X83722928Y-83258490D01*
X83722928Y-82329918D02*
X83651500Y-82472775D01*
X83651500Y-82472775D02*
X83580071Y-82544204D01*
X83580071Y-82544204D02*
X83437214Y-82615632D01*
X83437214Y-82615632D02*
X83008642Y-82615632D01*
X83008642Y-82615632D02*
X82865785Y-82544204D01*
X82865785Y-82544204D02*
X82794357Y-82472775D01*
X82794357Y-82472775D02*
X82722928Y-82329918D01*
X82722928Y-82329918D02*
X82722928Y-82115632D01*
X82722928Y-82115632D02*
X82794357Y-81972775D01*
X82794357Y-81972775D02*
X82865785Y-81901347D01*
X82865785Y-81901347D02*
X83008642Y-81829918D01*
X83008642Y-81829918D02*
X83437214Y-81829918D01*
X83437214Y-81829918D02*
X83580071Y-81901347D01*
X83580071Y-81901347D02*
X83651500Y-81972775D01*
X83651500Y-81972775D02*
X83722928Y-82115632D01*
X83722928Y-82115632D02*
X83722928Y-82329918D01*
X83722928Y-80044204D02*
X82222928Y-80044204D01*
X82222928Y-80044204D02*
X83722928Y-79187061D01*
X83722928Y-79187061D02*
X82222928Y-79187061D01*
X83722928Y-77829918D02*
X82937214Y-77829918D01*
X82937214Y-77829918D02*
X82794357Y-77901346D01*
X82794357Y-77901346D02*
X82722928Y-78044203D01*
X82722928Y-78044203D02*
X82722928Y-78329918D01*
X82722928Y-78329918D02*
X82794357Y-78472775D01*
X83651500Y-77829918D02*
X83722928Y-77972775D01*
X83722928Y-77972775D02*
X83722928Y-78329918D01*
X83722928Y-78329918D02*
X83651500Y-78472775D01*
X83651500Y-78472775D02*
X83508642Y-78544203D01*
X83508642Y-78544203D02*
X83365785Y-78544203D01*
X83365785Y-78544203D02*
X83222928Y-78472775D01*
X83222928Y-78472775D02*
X83151500Y-78329918D01*
X83151500Y-78329918D02*
X83151500Y-77972775D01*
X83151500Y-77972775D02*
X83080071Y-77829918D01*
X82722928Y-77115632D02*
X83722928Y-77115632D01*
X82865785Y-77115632D02*
X82794357Y-77044203D01*
X82794357Y-77044203D02*
X82722928Y-76901346D01*
X82722928Y-76901346D02*
X82722928Y-76687060D01*
X82722928Y-76687060D02*
X82794357Y-76544203D01*
X82794357Y-76544203D02*
X82937214Y-76472775D01*
X82937214Y-76472775D02*
X83722928Y-76472775D01*
X83722928Y-75544203D02*
X83651500Y-75687060D01*
X83651500Y-75687060D02*
X83580071Y-75758489D01*
X83580071Y-75758489D02*
X83437214Y-75829917D01*
X83437214Y-75829917D02*
X83008642Y-75829917D01*
X83008642Y-75829917D02*
X82865785Y-75758489D01*
X82865785Y-75758489D02*
X82794357Y-75687060D01*
X82794357Y-75687060D02*
X82722928Y-75544203D01*
X82722928Y-75544203D02*
X82722928Y-75329917D01*
X82722928Y-75329917D02*
X82794357Y-75187060D01*
X82794357Y-75187060D02*
X82865785Y-75115632D01*
X82865785Y-75115632D02*
X83008642Y-75044203D01*
X83008642Y-75044203D02*
X83437214Y-75044203D01*
X83437214Y-75044203D02*
X83580071Y-75115632D01*
X83580071Y-75115632D02*
X83651500Y-75187060D01*
X83651500Y-75187060D02*
X83722928Y-75329917D01*
X83722928Y-75329917D02*
X83722928Y-75544203D01*
X83722928Y-73258489D02*
X82222928Y-73258489D01*
X82222928Y-73258489D02*
X83294357Y-72758489D01*
X83294357Y-72758489D02*
X82222928Y-72258489D01*
X82222928Y-72258489D02*
X83722928Y-72258489D01*
X83722928Y-70901346D02*
X82937214Y-70901346D01*
X82937214Y-70901346D02*
X82794357Y-70972774D01*
X82794357Y-70972774D02*
X82722928Y-71115631D01*
X82722928Y-71115631D02*
X82722928Y-71401346D01*
X82722928Y-71401346D02*
X82794357Y-71544203D01*
X83651500Y-70901346D02*
X83722928Y-71044203D01*
X83722928Y-71044203D02*
X83722928Y-71401346D01*
X83722928Y-71401346D02*
X83651500Y-71544203D01*
X83651500Y-71544203D02*
X83508642Y-71615631D01*
X83508642Y-71615631D02*
X83365785Y-71615631D01*
X83365785Y-71615631D02*
X83222928Y-71544203D01*
X83222928Y-71544203D02*
X83151500Y-71401346D01*
X83151500Y-71401346D02*
X83151500Y-71044203D01*
X83151500Y-71044203D02*
X83080071Y-70901346D01*
X82722928Y-70401345D02*
X82722928Y-69829917D01*
X82222928Y-70187060D02*
X83508642Y-70187060D01*
X83508642Y-70187060D02*
X83651500Y-70115631D01*
X83651500Y-70115631D02*
X83722928Y-69972774D01*
X83722928Y-69972774D02*
X83722928Y-69829917D01*
X82722928Y-69544202D02*
X82722928Y-68972774D01*
X82222928Y-69329917D02*
X83508642Y-69329917D01*
X83508642Y-69329917D02*
X83651500Y-69258488D01*
X83651500Y-69258488D02*
X83722928Y-69115631D01*
X83722928Y-69115631D02*
X83722928Y-68972774D01*
X83651500Y-67901345D02*
X83722928Y-68044202D01*
X83722928Y-68044202D02*
X83722928Y-68329917D01*
X83722928Y-68329917D02*
X83651500Y-68472774D01*
X83651500Y-68472774D02*
X83508642Y-68544202D01*
X83508642Y-68544202D02*
X82937214Y-68544202D01*
X82937214Y-68544202D02*
X82794357Y-68472774D01*
X82794357Y-68472774D02*
X82722928Y-68329917D01*
X82722928Y-68329917D02*
X82722928Y-68044202D01*
X82722928Y-68044202D02*
X82794357Y-67901345D01*
X82794357Y-67901345D02*
X82937214Y-67829917D01*
X82937214Y-67829917D02*
X83080071Y-67829917D01*
X83080071Y-67829917D02*
X83222928Y-68544202D01*
X83722928Y-67187060D02*
X82722928Y-67187060D01*
X83008642Y-67187060D02*
X82865785Y-67115631D01*
X82865785Y-67115631D02*
X82794357Y-67044203D01*
X82794357Y-67044203D02*
X82722928Y-66901345D01*
X82722928Y-66901345D02*
X82722928Y-66758488D01*
X149722928Y-73487061D02*
X149008642Y-73987061D01*
X149722928Y-74344204D02*
X148222928Y-74344204D01*
X148222928Y-74344204D02*
X148222928Y-73772775D01*
X148222928Y-73772775D02*
X148294357Y-73629918D01*
X148294357Y-73629918D02*
X148365785Y-73558489D01*
X148365785Y-73558489D02*
X148508642Y-73487061D01*
X148508642Y-73487061D02*
X148722928Y-73487061D01*
X148722928Y-73487061D02*
X148865785Y-73558489D01*
X148865785Y-73558489D02*
X148937214Y-73629918D01*
X148937214Y-73629918D02*
X149008642Y-73772775D01*
X149008642Y-73772775D02*
X149008642Y-74344204D01*
X149722928Y-72129918D02*
X149722928Y-72844204D01*
X149722928Y-72844204D02*
X148222928Y-72844204D01*
X149008642Y-71344203D02*
X149722928Y-71344203D01*
X148222928Y-71844203D02*
X149008642Y-71344203D01*
X149008642Y-71344203D02*
X148222928Y-70844203D01*
X148365785Y-70415632D02*
X148294357Y-70344204D01*
X148294357Y-70344204D02*
X148222928Y-70201347D01*
X148222928Y-70201347D02*
X148222928Y-69844204D01*
X148222928Y-69844204D02*
X148294357Y-69701347D01*
X148294357Y-69701347D02*
X148365785Y-69629918D01*
X148365785Y-69629918D02*
X148508642Y-69558489D01*
X148508642Y-69558489D02*
X148651500Y-69558489D01*
X148651500Y-69558489D02*
X148865785Y-69629918D01*
X148865785Y-69629918D02*
X149722928Y-70487061D01*
X149722928Y-70487061D02*
X149722928Y-69558489D01*
X149722928Y-89687061D02*
X149008642Y-90187061D01*
X149722928Y-90544204D02*
X148222928Y-90544204D01*
X148222928Y-90544204D02*
X148222928Y-89972775D01*
X148222928Y-89972775D02*
X148294357Y-89829918D01*
X148294357Y-89829918D02*
X148365785Y-89758489D01*
X148365785Y-89758489D02*
X148508642Y-89687061D01*
X148508642Y-89687061D02*
X148722928Y-89687061D01*
X148722928Y-89687061D02*
X148865785Y-89758489D01*
X148865785Y-89758489D02*
X148937214Y-89829918D01*
X148937214Y-89829918D02*
X149008642Y-89972775D01*
X149008642Y-89972775D02*
X149008642Y-90544204D01*
X149722928Y-88329918D02*
X149722928Y-89044204D01*
X149722928Y-89044204D02*
X148222928Y-89044204D01*
X149008642Y-87544203D02*
X149722928Y-87544203D01*
X148222928Y-88044203D02*
X149008642Y-87544203D01*
X149008642Y-87544203D02*
X148222928Y-87044203D01*
X148222928Y-86687061D02*
X148222928Y-85758489D01*
X148222928Y-85758489D02*
X148794357Y-86258489D01*
X148794357Y-86258489D02*
X148794357Y-86044204D01*
X148794357Y-86044204D02*
X148865785Y-85901347D01*
X148865785Y-85901347D02*
X148937214Y-85829918D01*
X148937214Y-85829918D02*
X149080071Y-85758489D01*
X149080071Y-85758489D02*
X149437214Y-85758489D01*
X149437214Y-85758489D02*
X149580071Y-85829918D01*
X149580071Y-85829918D02*
X149651500Y-85901347D01*
X149651500Y-85901347D02*
X149722928Y-86044204D01*
X149722928Y-86044204D02*
X149722928Y-86472775D01*
X149722928Y-86472775D02*
X149651500Y-86615632D01*
X149651500Y-86615632D02*
X149580071Y-86687061D01*
X149922928Y-57687061D02*
X149208642Y-58187061D01*
X149922928Y-58544204D02*
X148422928Y-58544204D01*
X148422928Y-58544204D02*
X148422928Y-57972775D01*
X148422928Y-57972775D02*
X148494357Y-57829918D01*
X148494357Y-57829918D02*
X148565785Y-57758489D01*
X148565785Y-57758489D02*
X148708642Y-57687061D01*
X148708642Y-57687061D02*
X148922928Y-57687061D01*
X148922928Y-57687061D02*
X149065785Y-57758489D01*
X149065785Y-57758489D02*
X149137214Y-57829918D01*
X149137214Y-57829918D02*
X149208642Y-57972775D01*
X149208642Y-57972775D02*
X149208642Y-58544204D01*
X149922928Y-56329918D02*
X149922928Y-57044204D01*
X149922928Y-57044204D02*
X148422928Y-57044204D01*
X149208642Y-55544203D02*
X149922928Y-55544203D01*
X148422928Y-56044203D02*
X149208642Y-55544203D01*
X149208642Y-55544203D02*
X148422928Y-55044203D01*
X149922928Y-53758489D02*
X149922928Y-54615632D01*
X149922928Y-54187061D02*
X148422928Y-54187061D01*
X148422928Y-54187061D02*
X148637214Y-54329918D01*
X148637214Y-54329918D02*
X148780071Y-54472775D01*
X148780071Y-54472775D02*
X148851500Y-54615632D01*
X150122928Y-105687061D02*
X149408642Y-106187061D01*
X150122928Y-106544204D02*
X148622928Y-106544204D01*
X148622928Y-106544204D02*
X148622928Y-105972775D01*
X148622928Y-105972775D02*
X148694357Y-105829918D01*
X148694357Y-105829918D02*
X148765785Y-105758489D01*
X148765785Y-105758489D02*
X148908642Y-105687061D01*
X148908642Y-105687061D02*
X149122928Y-105687061D01*
X149122928Y-105687061D02*
X149265785Y-105758489D01*
X149265785Y-105758489D02*
X149337214Y-105829918D01*
X149337214Y-105829918D02*
X149408642Y-105972775D01*
X149408642Y-105972775D02*
X149408642Y-106544204D01*
X150122928Y-104329918D02*
X150122928Y-105044204D01*
X150122928Y-105044204D02*
X148622928Y-105044204D01*
X149408642Y-103544203D02*
X150122928Y-103544203D01*
X148622928Y-104044203D02*
X149408642Y-103544203D01*
X149408642Y-103544203D02*
X148622928Y-103044203D01*
X149122928Y-101901347D02*
X150122928Y-101901347D01*
X148551500Y-102258489D02*
X149622928Y-102615632D01*
X149622928Y-102615632D02*
X149622928Y-101687061D01*
D13*
X111435195Y-66906134D02*
X111435195Y-67715657D01*
X111435195Y-67715657D02*
X111482814Y-67810895D01*
X111482814Y-67810895D02*
X111530433Y-67858515D01*
X111530433Y-67858515D02*
X111625671Y-67906134D01*
X111625671Y-67906134D02*
X111816147Y-67906134D01*
X111816147Y-67906134D02*
X111911385Y-67858515D01*
X111911385Y-67858515D02*
X111959004Y-67810895D01*
X111959004Y-67810895D02*
X112006623Y-67715657D01*
X112006623Y-67715657D02*
X112006623Y-66906134D01*
X112387576Y-66906134D02*
X113006623Y-66906134D01*
X113006623Y-66906134D02*
X112673290Y-67287086D01*
X112673290Y-67287086D02*
X112816147Y-67287086D01*
X112816147Y-67287086D02*
X112911385Y-67334705D01*
X112911385Y-67334705D02*
X112959004Y-67382324D01*
X112959004Y-67382324D02*
X113006623Y-67477562D01*
X113006623Y-67477562D02*
X113006623Y-67715657D01*
X113006623Y-67715657D02*
X112959004Y-67810895D01*
X112959004Y-67810895D02*
X112911385Y-67858515D01*
X112911385Y-67858515D02*
X112816147Y-67906134D01*
X112816147Y-67906134D02*
X112530433Y-67906134D01*
X112530433Y-67906134D02*
X112435195Y-67858515D01*
X112435195Y-67858515D02*
X112387576Y-67810895D01*
D10*
X77384004Y-102058738D02*
X77288766Y-102011119D01*
X77288766Y-102011119D02*
X77145909Y-102011119D01*
X77145909Y-102011119D02*
X77003052Y-102058738D01*
X77003052Y-102058738D02*
X76907814Y-102153976D01*
X76907814Y-102153976D02*
X76860195Y-102249214D01*
X76860195Y-102249214D02*
X76812576Y-102439690D01*
X76812576Y-102439690D02*
X76812576Y-102582547D01*
X76812576Y-102582547D02*
X76860195Y-102773023D01*
X76860195Y-102773023D02*
X76907814Y-102868261D01*
X76907814Y-102868261D02*
X77003052Y-102963500D01*
X77003052Y-102963500D02*
X77145909Y-103011119D01*
X77145909Y-103011119D02*
X77241147Y-103011119D01*
X77241147Y-103011119D02*
X77384004Y-102963500D01*
X77384004Y-102963500D02*
X77431623Y-102915880D01*
X77431623Y-102915880D02*
X77431623Y-102582547D01*
X77431623Y-102582547D02*
X77241147Y-102582547D01*
X77860195Y-103011119D02*
X77860195Y-102011119D01*
X77860195Y-102011119D02*
X78431623Y-103011119D01*
X78431623Y-103011119D02*
X78431623Y-102011119D01*
X78907814Y-103011119D02*
X78907814Y-102011119D01*
X78907814Y-102011119D02*
X79145909Y-102011119D01*
X79145909Y-102011119D02*
X79288766Y-102058738D01*
X79288766Y-102058738D02*
X79384004Y-102153976D01*
X79384004Y-102153976D02*
X79431623Y-102249214D01*
X79431623Y-102249214D02*
X79479242Y-102439690D01*
X79479242Y-102439690D02*
X79479242Y-102582547D01*
X79479242Y-102582547D02*
X79431623Y-102773023D01*
X79431623Y-102773023D02*
X79384004Y-102868261D01*
X79384004Y-102868261D02*
X79288766Y-102963500D01*
X79288766Y-102963500D02*
X79145909Y-103011119D01*
X79145909Y-103011119D02*
X78907814Y-103011119D01*
X80431623Y-103011119D02*
X79860195Y-103011119D01*
X80145909Y-103011119D02*
X80145909Y-102011119D01*
X80145909Y-102011119D02*
X80050671Y-102153976D01*
X80050671Y-102153976D02*
X79955433Y-102249214D01*
X79955433Y-102249214D02*
X79860195Y-102296833D01*
X152474538Y-112286810D02*
X152426919Y-112382048D01*
X152426919Y-112382048D02*
X152426919Y-112524905D01*
X152426919Y-112524905D02*
X152474538Y-112667762D01*
X152474538Y-112667762D02*
X152569776Y-112763000D01*
X152569776Y-112763000D02*
X152665014Y-112810619D01*
X152665014Y-112810619D02*
X152855490Y-112858238D01*
X152855490Y-112858238D02*
X152998347Y-112858238D01*
X152998347Y-112858238D02*
X153188823Y-112810619D01*
X153188823Y-112810619D02*
X153284061Y-112763000D01*
X153284061Y-112763000D02*
X153379300Y-112667762D01*
X153379300Y-112667762D02*
X153426919Y-112524905D01*
X153426919Y-112524905D02*
X153426919Y-112429667D01*
X153426919Y-112429667D02*
X153379300Y-112286810D01*
X153379300Y-112286810D02*
X153331680Y-112239191D01*
X153331680Y-112239191D02*
X152998347Y-112239191D01*
X152998347Y-112239191D02*
X152998347Y-112429667D01*
X153426919Y-111810619D02*
X152426919Y-111810619D01*
X152426919Y-111810619D02*
X153426919Y-111239191D01*
X153426919Y-111239191D02*
X152426919Y-111239191D01*
X153426919Y-110763000D02*
X152426919Y-110763000D01*
X152426919Y-110763000D02*
X152426919Y-110524905D01*
X152426919Y-110524905D02*
X152474538Y-110382048D01*
X152474538Y-110382048D02*
X152569776Y-110286810D01*
X152569776Y-110286810D02*
X152665014Y-110239191D01*
X152665014Y-110239191D02*
X152855490Y-110191572D01*
X152855490Y-110191572D02*
X152998347Y-110191572D01*
X152998347Y-110191572D02*
X153188823Y-110239191D01*
X153188823Y-110239191D02*
X153284061Y-110286810D01*
X153284061Y-110286810D02*
X153379300Y-110382048D01*
X153379300Y-110382048D02*
X153426919Y-110524905D01*
X153426919Y-110524905D02*
X153426919Y-110763000D01*
X152522157Y-109810619D02*
X152474538Y-109763000D01*
X152474538Y-109763000D02*
X152426919Y-109667762D01*
X152426919Y-109667762D02*
X152426919Y-109429667D01*
X152426919Y-109429667D02*
X152474538Y-109334429D01*
X152474538Y-109334429D02*
X152522157Y-109286810D01*
X152522157Y-109286810D02*
X152617395Y-109239191D01*
X152617395Y-109239191D02*
X152712633Y-109239191D01*
X152712633Y-109239191D02*
X152855490Y-109286810D01*
X152855490Y-109286810D02*
X153426919Y-109858238D01*
X153426919Y-109858238D02*
X153426919Y-109239191D01*
X154984004Y-52851153D02*
X154888766Y-52803534D01*
X154888766Y-52803534D02*
X154745909Y-52803534D01*
X154745909Y-52803534D02*
X154603052Y-52851153D01*
X154603052Y-52851153D02*
X154507814Y-52946391D01*
X154507814Y-52946391D02*
X154460195Y-53041629D01*
X154460195Y-53041629D02*
X154412576Y-53232105D01*
X154412576Y-53232105D02*
X154412576Y-53374962D01*
X154412576Y-53374962D02*
X154460195Y-53565438D01*
X154460195Y-53565438D02*
X154507814Y-53660676D01*
X154507814Y-53660676D02*
X154603052Y-53755915D01*
X154603052Y-53755915D02*
X154745909Y-53803534D01*
X154745909Y-53803534D02*
X154841147Y-53803534D01*
X154841147Y-53803534D02*
X154984004Y-53755915D01*
X154984004Y-53755915D02*
X155031623Y-53708295D01*
X155031623Y-53708295D02*
X155031623Y-53374962D01*
X155031623Y-53374962D02*
X154841147Y-53374962D01*
X155460195Y-53803534D02*
X155460195Y-52803534D01*
X155460195Y-52803534D02*
X156031623Y-53803534D01*
X156031623Y-53803534D02*
X156031623Y-52803534D01*
X156507814Y-53803534D02*
X156507814Y-52803534D01*
X156507814Y-52803534D02*
X156745909Y-52803534D01*
X156745909Y-52803534D02*
X156888766Y-52851153D01*
X156888766Y-52851153D02*
X156984004Y-52946391D01*
X156984004Y-52946391D02*
X157031623Y-53041629D01*
X157031623Y-53041629D02*
X157079242Y-53232105D01*
X157079242Y-53232105D02*
X157079242Y-53374962D01*
X157079242Y-53374962D02*
X157031623Y-53565438D01*
X157031623Y-53565438D02*
X156984004Y-53660676D01*
X156984004Y-53660676D02*
X156888766Y-53755915D01*
X156888766Y-53755915D02*
X156745909Y-53803534D01*
X156745909Y-53803534D02*
X156507814Y-53803534D01*
X157412576Y-52803534D02*
X158031623Y-52803534D01*
X158031623Y-52803534D02*
X157698290Y-53184486D01*
X157698290Y-53184486D02*
X157841147Y-53184486D01*
X157841147Y-53184486D02*
X157936385Y-53232105D01*
X157936385Y-53232105D02*
X157984004Y-53279724D01*
X157984004Y-53279724D02*
X158031623Y-53374962D01*
X158031623Y-53374962D02*
X158031623Y-53613057D01*
X158031623Y-53613057D02*
X157984004Y-53708295D01*
X157984004Y-53708295D02*
X157936385Y-53755915D01*
X157936385Y-53755915D02*
X157841147Y-53803534D01*
X157841147Y-53803534D02*
X157555433Y-53803534D01*
X157555433Y-53803534D02*
X157460195Y-53755915D01*
X157460195Y-53755915D02*
X157412576Y-53708295D01*
X102646919Y-95331894D02*
X101646919Y-95331894D01*
X101646919Y-95331894D02*
X101646919Y-95093799D01*
X101646919Y-95093799D02*
X101694538Y-94950942D01*
X101694538Y-94950942D02*
X101789776Y-94855704D01*
X101789776Y-94855704D02*
X101885014Y-94808085D01*
X101885014Y-94808085D02*
X102075490Y-94760466D01*
X102075490Y-94760466D02*
X102218347Y-94760466D01*
X102218347Y-94760466D02*
X102408823Y-94808085D01*
X102408823Y-94808085D02*
X102504061Y-94855704D01*
X102504061Y-94855704D02*
X102599300Y-94950942D01*
X102599300Y-94950942D02*
X102646919Y-95093799D01*
X102646919Y-95093799D02*
X102646919Y-95331894D01*
X101742157Y-94379513D02*
X101694538Y-94331894D01*
X101694538Y-94331894D02*
X101646919Y-94236656D01*
X101646919Y-94236656D02*
X101646919Y-93998561D01*
X101646919Y-93998561D02*
X101694538Y-93903323D01*
X101694538Y-93903323D02*
X101742157Y-93855704D01*
X101742157Y-93855704D02*
X101837395Y-93808085D01*
X101837395Y-93808085D02*
X101932633Y-93808085D01*
X101932633Y-93808085D02*
X102075490Y-93855704D01*
X102075490Y-93855704D02*
X102646919Y-94427132D01*
X102646919Y-94427132D02*
X102646919Y-93808085D01*
X101788766Y-51436119D02*
X101788766Y-52150404D01*
X101788766Y-52150404D02*
X101741147Y-52293261D01*
X101741147Y-52293261D02*
X101645909Y-52388500D01*
X101645909Y-52388500D02*
X101503052Y-52436119D01*
X101503052Y-52436119D02*
X101407814Y-52436119D01*
X102788766Y-52436119D02*
X102217338Y-52436119D01*
X102503052Y-52436119D02*
X102503052Y-51436119D01*
X102503052Y-51436119D02*
X102407814Y-51578976D01*
X102407814Y-51578976D02*
X102312576Y-51674214D01*
X102312576Y-51674214D02*
X102217338Y-51721833D01*
X152356919Y-92594633D02*
X153071204Y-92594633D01*
X153071204Y-92594633D02*
X153214061Y-92642252D01*
X153214061Y-92642252D02*
X153309300Y-92737490D01*
X153309300Y-92737490D02*
X153356919Y-92880347D01*
X153356919Y-92880347D02*
X153356919Y-92975585D01*
X152356919Y-92213680D02*
X152356919Y-91594633D01*
X152356919Y-91594633D02*
X152737871Y-91927966D01*
X152737871Y-91927966D02*
X152737871Y-91785109D01*
X152737871Y-91785109D02*
X152785490Y-91689871D01*
X152785490Y-91689871D02*
X152833109Y-91642252D01*
X152833109Y-91642252D02*
X152928347Y-91594633D01*
X152928347Y-91594633D02*
X153166442Y-91594633D01*
X153166442Y-91594633D02*
X153261680Y-91642252D01*
X153261680Y-91642252D02*
X153309300Y-91689871D01*
X153309300Y-91689871D02*
X153356919Y-91785109D01*
X153356919Y-91785109D02*
X153356919Y-92070823D01*
X153356919Y-92070823D02*
X153309300Y-92166061D01*
X153309300Y-92166061D02*
X153261680Y-92213680D01*
X107296505Y-49681119D02*
X107296505Y-48681119D01*
X107296505Y-48681119D02*
X107534600Y-48681119D01*
X107534600Y-48681119D02*
X107677457Y-48728738D01*
X107677457Y-48728738D02*
X107772695Y-48823976D01*
X107772695Y-48823976D02*
X107820314Y-48919214D01*
X107820314Y-48919214D02*
X107867933Y-49109690D01*
X107867933Y-49109690D02*
X107867933Y-49252547D01*
X107867933Y-49252547D02*
X107820314Y-49443023D01*
X107820314Y-49443023D02*
X107772695Y-49538261D01*
X107772695Y-49538261D02*
X107677457Y-49633500D01*
X107677457Y-49633500D02*
X107534600Y-49681119D01*
X107534600Y-49681119D02*
X107296505Y-49681119D01*
X108820314Y-49681119D02*
X108248886Y-49681119D01*
X108534600Y-49681119D02*
X108534600Y-48681119D01*
X108534600Y-48681119D02*
X108439362Y-48823976D01*
X108439362Y-48823976D02*
X108344124Y-48919214D01*
X108344124Y-48919214D02*
X108248886Y-48966833D01*
X130960195Y-82163500D02*
X131103052Y-82211119D01*
X131103052Y-82211119D02*
X131341147Y-82211119D01*
X131341147Y-82211119D02*
X131436385Y-82163500D01*
X131436385Y-82163500D02*
X131484004Y-82115880D01*
X131484004Y-82115880D02*
X131531623Y-82020642D01*
X131531623Y-82020642D02*
X131531623Y-81925404D01*
X131531623Y-81925404D02*
X131484004Y-81830166D01*
X131484004Y-81830166D02*
X131436385Y-81782547D01*
X131436385Y-81782547D02*
X131341147Y-81734928D01*
X131341147Y-81734928D02*
X131150671Y-81687309D01*
X131150671Y-81687309D02*
X131055433Y-81639690D01*
X131055433Y-81639690D02*
X131007814Y-81592071D01*
X131007814Y-81592071D02*
X130960195Y-81496833D01*
X130960195Y-81496833D02*
X130960195Y-81401595D01*
X130960195Y-81401595D02*
X131007814Y-81306357D01*
X131007814Y-81306357D02*
X131055433Y-81258738D01*
X131055433Y-81258738D02*
X131150671Y-81211119D01*
X131150671Y-81211119D02*
X131388766Y-81211119D01*
X131388766Y-81211119D02*
X131531623Y-81258738D01*
X131864957Y-81211119D02*
X132484004Y-81211119D01*
X132484004Y-81211119D02*
X132150671Y-81592071D01*
X132150671Y-81592071D02*
X132293528Y-81592071D01*
X132293528Y-81592071D02*
X132388766Y-81639690D01*
X132388766Y-81639690D02*
X132436385Y-81687309D01*
X132436385Y-81687309D02*
X132484004Y-81782547D01*
X132484004Y-81782547D02*
X132484004Y-82020642D01*
X132484004Y-82020642D02*
X132436385Y-82115880D01*
X132436385Y-82115880D02*
X132388766Y-82163500D01*
X132388766Y-82163500D02*
X132293528Y-82211119D01*
X132293528Y-82211119D02*
X132007814Y-82211119D01*
X132007814Y-82211119D02*
X131912576Y-82163500D01*
X131912576Y-82163500D02*
X131864957Y-82115880D01*
X82340195Y-101131119D02*
X82340195Y-101940642D01*
X82340195Y-101940642D02*
X82387814Y-102035880D01*
X82387814Y-102035880D02*
X82435433Y-102083500D01*
X82435433Y-102083500D02*
X82530671Y-102131119D01*
X82530671Y-102131119D02*
X82721147Y-102131119D01*
X82721147Y-102131119D02*
X82816385Y-102083500D01*
X82816385Y-102083500D02*
X82864004Y-102035880D01*
X82864004Y-102035880D02*
X82911623Y-101940642D01*
X82911623Y-101940642D02*
X82911623Y-101131119D01*
X83911623Y-102131119D02*
X83340195Y-102131119D01*
X83625909Y-102131119D02*
X83625909Y-101131119D01*
X83625909Y-101131119D02*
X83530671Y-101273976D01*
X83530671Y-101273976D02*
X83435433Y-101369214D01*
X83435433Y-101369214D02*
X83340195Y-101416833D01*
X84364004Y-61581480D02*
X84364004Y-60771957D01*
X84364004Y-60771957D02*
X84316385Y-60676719D01*
X84316385Y-60676719D02*
X84268766Y-60629100D01*
X84268766Y-60629100D02*
X84173528Y-60581480D01*
X84173528Y-60581480D02*
X83983052Y-60581480D01*
X83983052Y-60581480D02*
X83887814Y-60629100D01*
X83887814Y-60629100D02*
X83840195Y-60676719D01*
X83840195Y-60676719D02*
X83792576Y-60771957D01*
X83792576Y-60771957D02*
X83792576Y-61581480D01*
X83364004Y-60629100D02*
X83221147Y-60581480D01*
X83221147Y-60581480D02*
X82983052Y-60581480D01*
X82983052Y-60581480D02*
X82887814Y-60629100D01*
X82887814Y-60629100D02*
X82840195Y-60676719D01*
X82840195Y-60676719D02*
X82792576Y-60771957D01*
X82792576Y-60771957D02*
X82792576Y-60867195D01*
X82792576Y-60867195D02*
X82840195Y-60962433D01*
X82840195Y-60962433D02*
X82887814Y-61010052D01*
X82887814Y-61010052D02*
X82983052Y-61057671D01*
X82983052Y-61057671D02*
X83173528Y-61105290D01*
X83173528Y-61105290D02*
X83268766Y-61152909D01*
X83268766Y-61152909D02*
X83316385Y-61200528D01*
X83316385Y-61200528D02*
X83364004Y-61295766D01*
X83364004Y-61295766D02*
X83364004Y-61391004D01*
X83364004Y-61391004D02*
X83316385Y-61486242D01*
X83316385Y-61486242D02*
X83268766Y-61533861D01*
X83268766Y-61533861D02*
X83173528Y-61581480D01*
X83173528Y-61581480D02*
X82935433Y-61581480D01*
X82935433Y-61581480D02*
X82792576Y-61533861D01*
X82030671Y-61105290D02*
X81887814Y-61057671D01*
X81887814Y-61057671D02*
X81840195Y-61010052D01*
X81840195Y-61010052D02*
X81792576Y-60914814D01*
X81792576Y-60914814D02*
X81792576Y-60771957D01*
X81792576Y-60771957D02*
X81840195Y-60676719D01*
X81840195Y-60676719D02*
X81887814Y-60629100D01*
X81887814Y-60629100D02*
X81983052Y-60581480D01*
X81983052Y-60581480D02*
X82364004Y-60581480D01*
X82364004Y-60581480D02*
X82364004Y-61581480D01*
X82364004Y-61581480D02*
X82030671Y-61581480D01*
X82030671Y-61581480D02*
X81935433Y-61533861D01*
X81935433Y-61533861D02*
X81887814Y-61486242D01*
X81887814Y-61486242D02*
X81840195Y-61391004D01*
X81840195Y-61391004D02*
X81840195Y-61295766D01*
X81840195Y-61295766D02*
X81887814Y-61200528D01*
X81887814Y-61200528D02*
X81935433Y-61152909D01*
X81935433Y-61152909D02*
X82030671Y-61105290D01*
X82030671Y-61105290D02*
X82364004Y-61105290D01*
X130760195Y-98363500D02*
X130903052Y-98411119D01*
X130903052Y-98411119D02*
X131141147Y-98411119D01*
X131141147Y-98411119D02*
X131236385Y-98363500D01*
X131236385Y-98363500D02*
X131284004Y-98315880D01*
X131284004Y-98315880D02*
X131331623Y-98220642D01*
X131331623Y-98220642D02*
X131331623Y-98125404D01*
X131331623Y-98125404D02*
X131284004Y-98030166D01*
X131284004Y-98030166D02*
X131236385Y-97982547D01*
X131236385Y-97982547D02*
X131141147Y-97934928D01*
X131141147Y-97934928D02*
X130950671Y-97887309D01*
X130950671Y-97887309D02*
X130855433Y-97839690D01*
X130855433Y-97839690D02*
X130807814Y-97792071D01*
X130807814Y-97792071D02*
X130760195Y-97696833D01*
X130760195Y-97696833D02*
X130760195Y-97601595D01*
X130760195Y-97601595D02*
X130807814Y-97506357D01*
X130807814Y-97506357D02*
X130855433Y-97458738D01*
X130855433Y-97458738D02*
X130950671Y-97411119D01*
X130950671Y-97411119D02*
X131188766Y-97411119D01*
X131188766Y-97411119D02*
X131331623Y-97458738D01*
X132188766Y-97744452D02*
X132188766Y-98411119D01*
X131950671Y-97363500D02*
X131712576Y-98077785D01*
X131712576Y-98077785D02*
X132331623Y-98077785D01*
X131160195Y-50063500D02*
X131303052Y-50111119D01*
X131303052Y-50111119D02*
X131541147Y-50111119D01*
X131541147Y-50111119D02*
X131636385Y-50063500D01*
X131636385Y-50063500D02*
X131684004Y-50015880D01*
X131684004Y-50015880D02*
X131731623Y-49920642D01*
X131731623Y-49920642D02*
X131731623Y-49825404D01*
X131731623Y-49825404D02*
X131684004Y-49730166D01*
X131684004Y-49730166D02*
X131636385Y-49682547D01*
X131636385Y-49682547D02*
X131541147Y-49634928D01*
X131541147Y-49634928D02*
X131350671Y-49587309D01*
X131350671Y-49587309D02*
X131255433Y-49539690D01*
X131255433Y-49539690D02*
X131207814Y-49492071D01*
X131207814Y-49492071D02*
X131160195Y-49396833D01*
X131160195Y-49396833D02*
X131160195Y-49301595D01*
X131160195Y-49301595D02*
X131207814Y-49206357D01*
X131207814Y-49206357D02*
X131255433Y-49158738D01*
X131255433Y-49158738D02*
X131350671Y-49111119D01*
X131350671Y-49111119D02*
X131588766Y-49111119D01*
X131588766Y-49111119D02*
X131731623Y-49158738D01*
X132684004Y-50111119D02*
X132112576Y-50111119D01*
X132398290Y-50111119D02*
X132398290Y-49111119D01*
X132398290Y-49111119D02*
X132303052Y-49253976D01*
X132303052Y-49253976D02*
X132207814Y-49349214D01*
X132207814Y-49349214D02*
X132112576Y-49396833D01*
X119753109Y-95274752D02*
X119800728Y-95131895D01*
X119800728Y-95131895D02*
X119848347Y-95084276D01*
X119848347Y-95084276D02*
X119943585Y-95036657D01*
X119943585Y-95036657D02*
X120086442Y-95036657D01*
X120086442Y-95036657D02*
X120181680Y-95084276D01*
X120181680Y-95084276D02*
X120229300Y-95131895D01*
X120229300Y-95131895D02*
X120276919Y-95227133D01*
X120276919Y-95227133D02*
X120276919Y-95608085D01*
X120276919Y-95608085D02*
X119276919Y-95608085D01*
X119276919Y-95608085D02*
X119276919Y-95274752D01*
X119276919Y-95274752D02*
X119324538Y-95179514D01*
X119324538Y-95179514D02*
X119372157Y-95131895D01*
X119372157Y-95131895D02*
X119467395Y-95084276D01*
X119467395Y-95084276D02*
X119562633Y-95084276D01*
X119562633Y-95084276D02*
X119657871Y-95131895D01*
X119657871Y-95131895D02*
X119705490Y-95179514D01*
X119705490Y-95179514D02*
X119753109Y-95274752D01*
X119753109Y-95274752D02*
X119753109Y-95608085D01*
X119276919Y-94703323D02*
X119276919Y-94036657D01*
X119276919Y-94036657D02*
X120276919Y-94703323D01*
X120276919Y-94703323D02*
X120276919Y-94036657D01*
X120276919Y-93131895D02*
X120276919Y-93703323D01*
X120276919Y-93417609D02*
X119276919Y-93417609D01*
X119276919Y-93417609D02*
X119419776Y-93512847D01*
X119419776Y-93512847D02*
X119515014Y-93608085D01*
X119515014Y-93608085D02*
X119562633Y-93703323D01*
X115235966Y-90964751D02*
X115235966Y-90202847D01*
X115616919Y-90583799D02*
X114855014Y-90583799D01*
X131160195Y-65763500D02*
X131303052Y-65811119D01*
X131303052Y-65811119D02*
X131541147Y-65811119D01*
X131541147Y-65811119D02*
X131636385Y-65763500D01*
X131636385Y-65763500D02*
X131684004Y-65715880D01*
X131684004Y-65715880D02*
X131731623Y-65620642D01*
X131731623Y-65620642D02*
X131731623Y-65525404D01*
X131731623Y-65525404D02*
X131684004Y-65430166D01*
X131684004Y-65430166D02*
X131636385Y-65382547D01*
X131636385Y-65382547D02*
X131541147Y-65334928D01*
X131541147Y-65334928D02*
X131350671Y-65287309D01*
X131350671Y-65287309D02*
X131255433Y-65239690D01*
X131255433Y-65239690D02*
X131207814Y-65192071D01*
X131207814Y-65192071D02*
X131160195Y-65096833D01*
X131160195Y-65096833D02*
X131160195Y-65001595D01*
X131160195Y-65001595D02*
X131207814Y-64906357D01*
X131207814Y-64906357D02*
X131255433Y-64858738D01*
X131255433Y-64858738D02*
X131350671Y-64811119D01*
X131350671Y-64811119D02*
X131588766Y-64811119D01*
X131588766Y-64811119D02*
X131731623Y-64858738D01*
X132112576Y-64906357D02*
X132160195Y-64858738D01*
X132160195Y-64858738D02*
X132255433Y-64811119D01*
X132255433Y-64811119D02*
X132493528Y-64811119D01*
X132493528Y-64811119D02*
X132588766Y-64858738D01*
X132588766Y-64858738D02*
X132636385Y-64906357D01*
X132636385Y-64906357D02*
X132684004Y-65001595D01*
X132684004Y-65001595D02*
X132684004Y-65096833D01*
X132684004Y-65096833D02*
X132636385Y-65239690D01*
X132636385Y-65239690D02*
X132064957Y-65811119D01*
X132064957Y-65811119D02*
X132684004Y-65811119D01*
X154388766Y-78353534D02*
X154388766Y-79067819D01*
X154388766Y-79067819D02*
X154341147Y-79210676D01*
X154341147Y-79210676D02*
X154245909Y-79305915D01*
X154245909Y-79305915D02*
X154103052Y-79353534D01*
X154103052Y-79353534D02*
X154007814Y-79353534D01*
X154817338Y-78448772D02*
X154864957Y-78401153D01*
X154864957Y-78401153D02*
X154960195Y-78353534D01*
X154960195Y-78353534D02*
X155198290Y-78353534D01*
X155198290Y-78353534D02*
X155293528Y-78401153D01*
X155293528Y-78401153D02*
X155341147Y-78448772D01*
X155341147Y-78448772D02*
X155388766Y-78544010D01*
X155388766Y-78544010D02*
X155388766Y-78639248D01*
X155388766Y-78639248D02*
X155341147Y-78782105D01*
X155341147Y-78782105D02*
X154769719Y-79353534D01*
X154769719Y-79353534D02*
X155388766Y-79353534D01*
D14*
%TO.C,U3*%
X93875100Y-57128715D02*
X129922100Y-57128715D01*
X93875100Y-84428715D02*
X93875100Y-57128715D01*
X94297100Y-60423715D02*
X117397100Y-60423715D01*
X94297100Y-81798715D02*
X94297100Y-60423715D01*
X106823100Y-57537715D02*
X106823100Y-59950715D01*
X106823100Y-57537715D02*
X116602100Y-57537715D01*
X116602100Y-57537715D02*
X116602100Y-59950715D01*
X116602100Y-59950715D02*
X106823100Y-59950715D01*
X117397100Y-60423715D02*
X120483100Y-60423715D01*
X129422100Y-60411715D02*
X120483100Y-60423715D01*
X129422100Y-81798715D02*
X94297100Y-81798715D01*
X129422100Y-81798715D02*
X129422100Y-60411715D01*
X129922100Y-57128715D02*
X129922100Y-84428715D01*
X129922100Y-84428715D02*
X93875100Y-84428715D01*
%TO.C,GND1*%
X79322100Y-105056300D02*
G75*
G02*
X76922100Y-105056300I-1200000J0D01*
G01*
X76922100Y-105056300D02*
G75*
G02*
X79322100Y-105056300I1200000J0D01*
G01*
%TO.C,GND2*%
X156922100Y-110298715D02*
G75*
G02*
X154522100Y-110298715I-1200000J0D01*
G01*
X154522100Y-110298715D02*
G75*
G02*
X156922100Y-110298715I1200000J0D01*
G01*
%TO.C,GND3*%
X156922100Y-51098715D02*
G75*
G02*
X154522100Y-51098715I-1200000J0D01*
G01*
X154522100Y-51098715D02*
G75*
G02*
X156922100Y-51098715I1200000J0D01*
G01*
%TO.C,D2*%
X102887100Y-92993800D02*
X102887100Y-97053800D01*
X102887100Y-97053800D02*
X105157100Y-97053800D01*
X105157100Y-97053800D02*
X105157100Y-92993800D01*
%TO.C,J1*%
X94612100Y-50541300D02*
X94612100Y-53041300D01*
X94612100Y-53041300D02*
X95662100Y-53041300D01*
X99662100Y-48571300D02*
X95782100Y-48571300D01*
X99782100Y-53041300D02*
X99782100Y-54031300D01*
X100832100Y-50541300D02*
X100832100Y-53041300D01*
X100832100Y-53041300D02*
X99782100Y-53041300D01*
%TO.C,J3*%
X153902100Y-81681300D02*
X164392100Y-81681300D01*
X153902100Y-102841300D02*
X153902100Y-81681300D01*
X155522100Y-102841300D02*
X155522100Y-81681300D01*
X163272100Y-102841300D02*
X163272100Y-81681300D01*
X164392100Y-81681300D02*
X164392100Y-99881300D01*
X164392100Y-100481300D02*
X164392100Y-102841300D01*
X164392100Y-102841300D02*
X153902100Y-102841300D01*
X165002100Y-100621300D02*
X164392100Y-100181300D01*
X165002100Y-99741300D01*
X165002100Y-100621300D01*
G36*
X165002100Y-100621300D02*
G01*
X164392100Y-100181300D01*
X165002100Y-99741300D01*
X165002100Y-100621300D01*
G37*
%TO.C,D1*%
X105574600Y-49921300D02*
X105574600Y-52191300D01*
X105574600Y-52191300D02*
X109634600Y-52191300D01*
X109634600Y-49921300D02*
X105574600Y-49921300D01*
D15*
%TO.C,S3*%
X134522100Y-82456300D02*
X134522100Y-84586300D01*
X134522100Y-89586300D02*
X134522100Y-87326300D01*
X134522100Y-92326300D02*
X134522100Y-94456300D01*
X134522100Y-94456300D02*
X139227100Y-94456300D01*
X139227100Y-82456300D02*
X134522100Y-82456300D01*
X141817100Y-94456300D02*
X146522100Y-94456300D01*
X146522100Y-82456300D02*
X141817100Y-82456300D01*
X146522100Y-82456300D02*
X146522100Y-84586300D01*
X146522100Y-89586300D02*
X146522100Y-87326300D01*
X146522100Y-94456300D02*
X146522100Y-92326300D01*
D16*
X132372100Y-85956300D02*
G75*
G02*
X132172100Y-85956300I-100000J0D01*
G01*
X132172100Y-85956300D02*
G75*
G02*
X132372100Y-85956300I100000J0D01*
G01*
D14*
%TO.C,U1*%
X74082100Y-57096300D02*
X74082100Y-100536300D01*
X74082100Y-57096300D02*
X79162100Y-57096300D01*
X74082100Y-100536300D02*
X92122100Y-100536300D01*
X76752100Y-59766300D02*
X74082100Y-59766300D01*
X76752100Y-97866300D02*
X74082100Y-97866300D01*
X76752100Y-97866300D02*
X76752100Y-59766300D01*
X79162100Y-54556300D02*
X87042100Y-54556300D01*
X79162100Y-64976300D02*
X79162100Y-54556300D01*
X87042100Y-54556300D02*
X87042100Y-64976300D01*
X87042100Y-64976300D02*
X79162100Y-64976300D01*
X89452100Y-59766300D02*
X92122100Y-59766300D01*
X89452100Y-95326300D02*
X89452100Y-59766300D01*
X89452100Y-95326300D02*
X89452100Y-97866300D01*
X89452100Y-95326300D02*
X92122100Y-95326300D01*
X89452100Y-97866300D02*
X92122100Y-97866300D01*
X92122100Y-57096300D02*
X87042100Y-57096300D01*
X92122100Y-95326300D02*
X92122100Y-57096300D01*
X92122100Y-100536300D02*
X92122100Y-97866300D01*
D15*
%TO.C,S4*%
X134522100Y-98456300D02*
X134522100Y-100586300D01*
X134522100Y-105586300D02*
X134522100Y-103326300D01*
X134522100Y-108326300D02*
X134522100Y-110456300D01*
X134522100Y-110456300D02*
X139227100Y-110456300D01*
X139227100Y-98456300D02*
X134522100Y-98456300D01*
X141817100Y-110456300D02*
X146522100Y-110456300D01*
X146522100Y-98456300D02*
X141817100Y-98456300D01*
X146522100Y-98456300D02*
X146522100Y-100586300D01*
X146522100Y-105586300D02*
X146522100Y-103326300D01*
X146522100Y-110456300D02*
X146522100Y-108326300D01*
D16*
X132372100Y-101956300D02*
G75*
G02*
X132172100Y-101956300I-100000J0D01*
G01*
X132172100Y-101956300D02*
G75*
G02*
X132372100Y-101956300I100000J0D01*
G01*
D15*
%TO.C,S1*%
X134522100Y-50656300D02*
X134522100Y-52786300D01*
X134522100Y-57786300D02*
X134522100Y-55526300D01*
X134522100Y-60526300D02*
X134522100Y-62656300D01*
X134522100Y-62656300D02*
X139227100Y-62656300D01*
X139227100Y-50656300D02*
X134522100Y-50656300D01*
X141817100Y-62656300D02*
X146522100Y-62656300D01*
X146522100Y-50656300D02*
X141817100Y-50656300D01*
X146522100Y-50656300D02*
X146522100Y-52786300D01*
X146522100Y-57786300D02*
X146522100Y-55526300D01*
X146522100Y-62656300D02*
X146522100Y-60526300D01*
D16*
X132372100Y-54156300D02*
G75*
G02*
X132172100Y-54156300I-100000J0D01*
G01*
X132172100Y-54156300D02*
G75*
G02*
X132372100Y-54156300I100000J0D01*
G01*
D14*
%TO.C,BZ1*%
X118722100Y-94393800D02*
G75*
G02*
X106522100Y-94393800I-6100000J0D01*
G01*
X106522100Y-94393800D02*
G75*
G02*
X118722100Y-94393800I6100000J0D01*
G01*
D15*
%TO.C,S2*%
X134522100Y-66556300D02*
X134522100Y-68686300D01*
X134522100Y-73686300D02*
X134522100Y-71426300D01*
X134522100Y-76426300D02*
X134522100Y-78556300D01*
X134522100Y-78556300D02*
X139227100Y-78556300D01*
X139227100Y-66556300D02*
X134522100Y-66556300D01*
X141817100Y-78556300D02*
X146522100Y-78556300D01*
X146522100Y-66556300D02*
X141817100Y-66556300D01*
X146522100Y-66556300D02*
X146522100Y-68686300D01*
X146522100Y-73686300D02*
X146522100Y-71426300D01*
X146522100Y-78556300D02*
X146522100Y-76426300D01*
D16*
X132372100Y-70056300D02*
G75*
G02*
X132172100Y-70056300I-100000J0D01*
G01*
X132172100Y-70056300D02*
G75*
G02*
X132372100Y-70056300I100000J0D01*
G01*
D14*
%TO.C,J2*%
X153902100Y-65756300D02*
X164392100Y-65756300D01*
X153902100Y-76756300D02*
X153902100Y-65756300D01*
X155522100Y-76756300D02*
X155522100Y-65756300D01*
X163272100Y-76756300D02*
X163272100Y-65756300D01*
X164392100Y-65756300D02*
X164392100Y-73796300D01*
X164392100Y-74396300D02*
X164392100Y-76756300D01*
X164392100Y-76756300D02*
X153902100Y-76756300D01*
X165002100Y-74536300D02*
X164392100Y-74096300D01*
X165002100Y-73656300D01*
X165002100Y-74536300D01*
G36*
X165002100Y-74536300D02*
G01*
X164392100Y-74096300D01*
X165002100Y-73656300D01*
X165002100Y-74536300D01*
G37*
%TD*%
M02*
