%TF.GenerationSoftware,KiCad,Pcbnew,9.0.9-9.0.9~ubuntu24.04.1*%
%TF.CreationDate,2026-05-26T11:11:07-07:00*%
%TF.ProjectId,matter_thread_relay_r1,6d617474-6572-45f7-9468-726561645f72,rev?*%
%TF.SameCoordinates,Original*%
%TF.FileFunction,Soldermask,Bot*%
%TF.FilePolarity,Negative*%
%FSLAX46Y46*%
G04 Gerber Fmt 4.6, Leading zero omitted, Abs format (unit mm)*
G04 Created by KiCad (PCBNEW 9.0.9-9.0.9~ubuntu24.04.1) date 2026-05-26 11:11:07*
%MOMM*%
%LPD*%
G01*
G04 APERTURE LIST*
G04 Aperture macros list*
%AMRoundRect*
0 Rectangle with rounded corners*
0 $1 Rounding radius*
0 $2 $3 $4 $5 $6 $7 $8 $9 X,Y pos of 4 corners*
0 Add a 4 corners polygon primitive as box body*
4,1,4,$2,$3,$4,$5,$6,$7,$8,$9,$2,$3,0*
0 Add four circle primitives for the rounded corners*
1,1,$1+$1,$2,$3*
1,1,$1+$1,$4,$5*
1,1,$1+$1,$6,$7*
1,1,$1+$1,$8,$9*
0 Add four rect primitives between the rounded corners*
20,1,$1+$1,$2,$3,$4,$5,0*
20,1,$1+$1,$4,$5,$6,$7,0*
20,1,$1+$1,$6,$7,$8,$9,0*
20,1,$1+$1,$8,$9,$2,$3,0*%
G04 Aperture macros list end*
%ADD10C,1.400000*%
%ADD11R,1.600000X2.000000*%
%ADD12O,1.600000X2.000000*%
%ADD13C,2.000000*%
%ADD14C,3.600000*%
%ADD15C,5.700000*%
%ADD16RoundRect,0.250001X0.949999X-0.949999X0.949999X0.949999X-0.949999X0.949999X-0.949999X-0.949999X0*%
%ADD17C,2.400000*%
%ADD18C,1.800000*%
%ADD19RoundRect,0.102000X-1.050000X-1.050000X1.050000X-1.050000X1.050000X1.050000X-1.050000X1.050000X0*%
%ADD20C,2.304000*%
%ADD21C,2.154000*%
%ADD22R,1.600000X1.600000*%
%ADD23O,1.600000X1.600000*%
%ADD24R,2.000000X2.000000*%
%ADD25RoundRect,0.250000X-0.350000X-0.450000X0.350000X-0.450000X0.350000X0.450000X-0.350000X0.450000X0*%
%ADD26RoundRect,0.250000X-0.450000X0.350000X-0.450000X-0.350000X0.450000X-0.350000X0.450000X0.350000X0*%
%ADD27RoundRect,0.250000X0.337500X0.475000X-0.337500X0.475000X-0.337500X-0.475000X0.337500X-0.475000X0*%
%ADD28RoundRect,0.225000X0.375000X-0.225000X0.375000X0.225000X-0.375000X0.225000X-0.375000X-0.225000X0*%
%ADD29RoundRect,0.250000X0.350000X0.450000X-0.350000X0.450000X-0.350000X-0.450000X0.350000X-0.450000X0*%
%ADD30RoundRect,0.150000X0.587500X0.150000X-0.587500X0.150000X-0.587500X-0.150000X0.587500X-0.150000X0*%
%ADD31RoundRect,0.250000X-0.475000X0.337500X-0.475000X-0.337500X0.475000X-0.337500X0.475000X0.337500X0*%
%ADD32RoundRect,0.225000X-0.375000X0.225000X-0.375000X-0.225000X0.375000X-0.225000X0.375000X0.225000X0*%
%ADD33RoundRect,0.250000X-0.337500X-0.475000X0.337500X-0.475000X0.337500X0.475000X-0.337500X0.475000X0*%
%ADD34RoundRect,0.150000X0.837500X0.150000X-0.837500X0.150000X-0.837500X-0.150000X0.837500X-0.150000X0*%
G04 APERTURE END LIST*
D10*
%TO.C,U3*%
X98922100Y-58798715D03*
X98922100Y-83098715D03*
X124922100Y-58798715D03*
X124922100Y-83098715D03*
D11*
X107902100Y-58748715D03*
D12*
X110442100Y-58748715D03*
X112982100Y-58748715D03*
X115522100Y-58748715D03*
%TD*%
D13*
%TO.C,GND1*%
X78122100Y-105056300D03*
%TD*%
D14*
%TO.C,H1*%
X76122100Y-111056300D03*
D15*
X76122100Y-111056300D03*
%TD*%
D13*
%TO.C,GND2*%
X155722100Y-110298715D03*
%TD*%
%TO.C,GND3*%
X155722100Y-51098715D03*
%TD*%
D16*
%TO.C,J3*%
X158922100Y-100181300D03*
D17*
X158922100Y-95101300D03*
X158922100Y-90021300D03*
X158922100Y-84941300D03*
%TD*%
D14*
%TO.C,H6*%
X161922100Y-110256300D03*
D15*
X161922100Y-110256300D03*
%TD*%
D18*
%TO.C,S3*%
X140522100Y-84056300D03*
X140522100Y-92856300D03*
D19*
X134322100Y-85956300D03*
D20*
X146722100Y-85956300D03*
X134322100Y-90956300D03*
X146722100Y-90956300D03*
D21*
X140522100Y-81856300D03*
X140522100Y-95056300D03*
%TD*%
D22*
%TO.C,U1*%
X90722100Y-96596300D03*
D23*
X90722100Y-94056300D03*
X90722100Y-91516300D03*
X90722100Y-88976300D03*
X90722100Y-86436300D03*
X90722100Y-83896300D03*
X90722100Y-81356300D03*
X90722100Y-78816300D03*
X90722100Y-76276300D03*
X90722100Y-73736300D03*
X90722100Y-71196300D03*
X90722100Y-68656300D03*
X90722100Y-66116300D03*
X90722100Y-63576300D03*
X90722100Y-61036300D03*
X75482100Y-61036300D03*
X75482100Y-63576300D03*
X75482100Y-66116300D03*
X75482100Y-68656300D03*
X75482100Y-71196300D03*
X75482100Y-73736300D03*
X75482100Y-76276300D03*
X75482100Y-78816300D03*
X75482100Y-81356300D03*
X75482100Y-83896300D03*
X75482100Y-86436300D03*
X75482100Y-88976300D03*
X75482100Y-91516300D03*
X75482100Y-94056300D03*
X75482100Y-96596300D03*
%TD*%
D18*
%TO.C,S4*%
X140522100Y-100056300D03*
X140522100Y-108856300D03*
D19*
X134322100Y-101956300D03*
D20*
X146722100Y-101956300D03*
X134322100Y-106956300D03*
X146722100Y-106956300D03*
D21*
X140522100Y-97856300D03*
X140522100Y-111056300D03*
%TD*%
D18*
%TO.C,S1*%
X140522100Y-52256300D03*
X140522100Y-61056300D03*
D19*
X134322100Y-54156300D03*
D20*
X146722100Y-54156300D03*
X134322100Y-59156300D03*
X146722100Y-59156300D03*
D21*
X140522100Y-50056300D03*
X140522100Y-63256300D03*
%TD*%
D14*
%TO.C,H2*%
X76122100Y-51056300D03*
D15*
X76122100Y-51056300D03*
%TD*%
D24*
%TO.C,BZ1*%
X112622100Y-90593800D03*
D13*
X112622100Y-98193800D03*
%TD*%
D18*
%TO.C,S2*%
X140522100Y-68156300D03*
X140522100Y-76956300D03*
D19*
X134322100Y-70056300D03*
D20*
X146722100Y-70056300D03*
X134322100Y-75056300D03*
X146722100Y-75056300D03*
D21*
X140522100Y-65956300D03*
X140522100Y-79156300D03*
%TD*%
D14*
%TO.C,H4*%
X161922100Y-51056300D03*
D15*
X161922100Y-51056300D03*
%TD*%
D16*
%TO.C,J2*%
X158922100Y-74096300D03*
D17*
X158922100Y-69016300D03*
%TD*%
D25*
%TO.C,R9*%
X120422100Y-98393800D03*
X122422100Y-98393800D03*
%TD*%
D26*
%TO.C,R8*%
X104022100Y-98393800D03*
X104022100Y-100393800D03*
%TD*%
D27*
%TO.C,C2*%
X115959600Y-63656300D03*
X113884600Y-63656300D03*
%TD*%
D28*
%TO.C,D4*%
X121822100Y-94193800D03*
X121822100Y-90893800D03*
%TD*%
D29*
%TO.C,R15*%
X108722100Y-73056300D03*
X106722100Y-73056300D03*
%TD*%
D30*
%TO.C,Q1*%
X117897100Y-100443800D03*
X117897100Y-102343800D03*
X116022100Y-101393800D03*
%TD*%
D31*
%TO.C,C1*%
X95722100Y-99181300D03*
X95722100Y-101256300D03*
%TD*%
D29*
%TO.C,R17*%
X151922100Y-94656300D03*
X149922100Y-94656300D03*
%TD*%
D32*
%TO.C,D3*%
X109022100Y-92943800D03*
X109022100Y-96243800D03*
%TD*%
D25*
%TO.C,R4*%
X138322100Y-56706300D03*
X140322100Y-56706300D03*
%TD*%
D31*
%TO.C,C6*%
X151322100Y-69261215D03*
X151322100Y-71336215D03*
%TD*%
D29*
%TO.C,R14*%
X108722100Y-70256300D03*
X106722100Y-70256300D03*
%TD*%
D25*
%TO.C,R6*%
X138522100Y-88106300D03*
X140522100Y-88106300D03*
%TD*%
D29*
%TO.C,R2*%
X90922100Y-49456300D03*
X88922100Y-49456300D03*
%TD*%
D31*
%TO.C,C4*%
X104122100Y-88818800D03*
X104122100Y-90893800D03*
%TD*%
D33*
%TO.C,C3*%
X78247100Y-96656300D03*
X80322100Y-96656300D03*
%TD*%
D25*
%TO.C,R10*%
X120422100Y-100793800D03*
X122422100Y-100793800D03*
%TD*%
D34*
%TO.C,U2*%
X118647100Y-66456300D03*
X118647100Y-67726300D03*
X118647100Y-68996300D03*
X118647100Y-70266300D03*
X118647100Y-71536300D03*
X118647100Y-72806300D03*
X118647100Y-74076300D03*
X111722100Y-74076300D03*
X111722100Y-72806300D03*
X111722100Y-71536300D03*
X111722100Y-70266300D03*
X111722100Y-68996300D03*
X111722100Y-67726300D03*
X111722100Y-66456300D03*
%TD*%
D29*
%TO.C,R13*%
X108722100Y-67256300D03*
X106722100Y-67256300D03*
%TD*%
D25*
%TO.C,R3*%
X112322100Y-51056300D03*
X114322100Y-51056300D03*
%TD*%
D29*
%TO.C,R11*%
X112422100Y-102193800D03*
X110422100Y-102193800D03*
%TD*%
D25*
%TO.C,R5*%
X138522100Y-71906300D03*
X140522100Y-71906300D03*
%TD*%
D29*
%TO.C,R16*%
X151922100Y-99856300D03*
X149922100Y-99856300D03*
%TD*%
%TO.C,R12*%
X108722100Y-64456300D03*
X106722100Y-64456300D03*
%TD*%
D25*
%TO.C,R7*%
X138722100Y-103106300D03*
X140722100Y-103106300D03*
%TD*%
D29*
%TO.C,R1*%
X90922100Y-51856300D03*
X88922100Y-51856300D03*
%TD*%
%TO.C,R19*%
X152322100Y-84856300D03*
X150322100Y-84856300D03*
%TD*%
D31*
%TO.C,C5*%
X115122100Y-93256300D03*
X115122100Y-95331300D03*
%TD*%
D29*
%TO.C,R18*%
X152122100Y-89856300D03*
X150122100Y-89856300D03*
%TD*%
M02*
