%TF.GenerationSoftware,KiCad,Pcbnew,9.0.9-9.0.9~ubuntu24.04.1*%
%TF.CreationDate,2026-05-26T11:11:06-07:00*%
%TF.ProjectId,matter_thread_relay_r1,6d617474-6572-45f7-9468-726561645f72,rev?*%
%TF.SameCoordinates,Original*%
%TF.FileFunction,Paste,Bot*%
%TF.FilePolarity,Positive*%
%FSLAX46Y46*%
G04 Gerber Fmt 4.6, Leading zero omitted, Abs format (unit mm)*
G04 Created by KiCad (PCBNEW 9.0.9-9.0.9~ubuntu24.04.1) date 2026-05-26 11:11:06*
%MOMM*%
%LPD*%
G01*
G04 APERTURE LIST*
G04 Aperture macros list*
%AMRoundRect*
0 Rectangle with rounded corners*
0 $1 Rounding radius*
0 $2 $3 $4 $5 $6 $7 $8 $9 X,Y pos of 4 corners*
0 Add a 4 corners polygon primitive as box body*
4,1,4,$2,$3,$4,$5,$6,$7,$8,$9,$2,$3,0*
0 Add four circle primitives for the rounded corners*
1,1,$1+$1,$2,$3*
1,1,$1+$1,$4,$5*
1,1,$1+$1,$6,$7*
1,1,$1+$1,$8,$9*
0 Add four rect primitives between the rounded corners*
20,1,$1+$1,$2,$3,$4,$5,0*
20,1,$1+$1,$4,$5,$6,$7,0*
20,1,$1+$1,$6,$7,$8,$9,0*
20,1,$1+$1,$8,$9,$2,$3,0*%
G04 Aperture macros list end*
%ADD10RoundRect,0.250000X-0.350000X-0.450000X0.350000X-0.450000X0.350000X0.450000X-0.350000X0.450000X0*%
%ADD11RoundRect,0.250000X-0.450000X0.350000X-0.450000X-0.350000X0.450000X-0.350000X0.450000X0.350000X0*%
%ADD12RoundRect,0.250000X0.337500X0.475000X-0.337500X0.475000X-0.337500X-0.475000X0.337500X-0.475000X0*%
%ADD13RoundRect,0.225000X0.375000X-0.225000X0.375000X0.225000X-0.375000X0.225000X-0.375000X-0.225000X0*%
%ADD14RoundRect,0.250000X0.350000X0.450000X-0.350000X0.450000X-0.350000X-0.450000X0.350000X-0.450000X0*%
%ADD15RoundRect,0.150000X0.587500X0.150000X-0.587500X0.150000X-0.587500X-0.150000X0.587500X-0.150000X0*%
%ADD16RoundRect,0.250000X-0.475000X0.337500X-0.475000X-0.337500X0.475000X-0.337500X0.475000X0.337500X0*%
%ADD17RoundRect,0.225000X-0.375000X0.225000X-0.375000X-0.225000X0.375000X-0.225000X0.375000X0.225000X0*%
%ADD18RoundRect,0.250000X-0.337500X-0.475000X0.337500X-0.475000X0.337500X0.475000X-0.337500X0.475000X0*%
%ADD19RoundRect,0.150000X0.837500X0.150000X-0.837500X0.150000X-0.837500X-0.150000X0.837500X-0.150000X0*%
G04 APERTURE END LIST*
D10*
%TO.C,R9*%
X120422100Y-98393800D03*
X122422100Y-98393800D03*
%TD*%
D11*
%TO.C,R8*%
X104022100Y-98393800D03*
X104022100Y-100393800D03*
%TD*%
D12*
%TO.C,C2*%
X115959600Y-63656300D03*
X113884600Y-63656300D03*
%TD*%
D13*
%TO.C,D4*%
X121822100Y-94193800D03*
X121822100Y-90893800D03*
%TD*%
D14*
%TO.C,R15*%
X108722100Y-73056300D03*
X106722100Y-73056300D03*
%TD*%
D15*
%TO.C,Q1*%
X117897100Y-100443800D03*
X117897100Y-102343800D03*
X116022100Y-101393800D03*
%TD*%
D16*
%TO.C,C1*%
X95722100Y-99181300D03*
X95722100Y-101256300D03*
%TD*%
D14*
%TO.C,R17*%
X151922100Y-94656300D03*
X149922100Y-94656300D03*
%TD*%
D17*
%TO.C,D3*%
X109022100Y-92943800D03*
X109022100Y-96243800D03*
%TD*%
D10*
%TO.C,R4*%
X138322100Y-56706300D03*
X140322100Y-56706300D03*
%TD*%
D16*
%TO.C,C6*%
X151322100Y-69261215D03*
X151322100Y-71336215D03*
%TD*%
D14*
%TO.C,R14*%
X108722100Y-70256300D03*
X106722100Y-70256300D03*
%TD*%
D10*
%TO.C,R6*%
X138522100Y-88106300D03*
X140522100Y-88106300D03*
%TD*%
D14*
%TO.C,R2*%
X90922100Y-49456300D03*
X88922100Y-49456300D03*
%TD*%
D16*
%TO.C,C4*%
X104122100Y-88818800D03*
X104122100Y-90893800D03*
%TD*%
D18*
%TO.C,C3*%
X78247100Y-96656300D03*
X80322100Y-96656300D03*
%TD*%
D10*
%TO.C,R10*%
X120422100Y-100793800D03*
X122422100Y-100793800D03*
%TD*%
D19*
%TO.C,U2*%
X118647100Y-66456300D03*
X118647100Y-67726300D03*
X118647100Y-68996300D03*
X118647100Y-70266300D03*
X118647100Y-71536300D03*
X118647100Y-72806300D03*
X118647100Y-74076300D03*
X111722100Y-74076300D03*
X111722100Y-72806300D03*
X111722100Y-71536300D03*
X111722100Y-70266300D03*
X111722100Y-68996300D03*
X111722100Y-67726300D03*
X111722100Y-66456300D03*
%TD*%
D14*
%TO.C,R13*%
X108722100Y-67256300D03*
X106722100Y-67256300D03*
%TD*%
D10*
%TO.C,R3*%
X112322100Y-51056300D03*
X114322100Y-51056300D03*
%TD*%
D14*
%TO.C,R11*%
X112422100Y-102193800D03*
X110422100Y-102193800D03*
%TD*%
D10*
%TO.C,R5*%
X138522100Y-71906300D03*
X140522100Y-71906300D03*
%TD*%
D14*
%TO.C,R16*%
X151922100Y-99856300D03*
X149922100Y-99856300D03*
%TD*%
%TO.C,R12*%
X108722100Y-64456300D03*
X106722100Y-64456300D03*
%TD*%
D10*
%TO.C,R7*%
X138722100Y-103106300D03*
X140722100Y-103106300D03*
%TD*%
D14*
%TO.C,R1*%
X90922100Y-51856300D03*
X88922100Y-51856300D03*
%TD*%
%TO.C,R19*%
X152322100Y-84856300D03*
X150322100Y-84856300D03*
%TD*%
D16*
%TO.C,C5*%
X115122100Y-93256300D03*
X115122100Y-95331300D03*
%TD*%
D14*
%TO.C,R18*%
X152122100Y-89856300D03*
X150122100Y-89856300D03*
%TD*%
M02*
