%TF.GenerationSoftware,KiCad,Pcbnew,9.0.9-9.0.9~ubuntu24.04.1*%
%TF.CreationDate,2026-05-26T11:11:06-07:00*%
%TF.ProjectId,matter_thread_relay_r1,6d617474-6572-45f7-9468-726561645f72,rev?*%
%TF.SameCoordinates,Original*%
%TF.FileFunction,Soldermask,Top*%
%TF.FilePolarity,Negative*%
%FSLAX46Y46*%
G04 Gerber Fmt 4.6, Leading zero omitted, Abs format (unit mm)*
G04 Created by KiCad (PCBNEW 9.0.9-9.0.9~ubuntu24.04.1) date 2026-05-26 11:11:06*
%MOMM*%
%LPD*%
G01*
G04 APERTURE LIST*
G04 Aperture macros list*
%AMRoundRect*
0 Rectangle with rounded corners*
0 $1 Rounding radius*
0 $2 $3 $4 $5 $6 $7 $8 $9 X,Y pos of 4 corners*
0 Add a 4 corners polygon primitive as box body*
4,1,4,$2,$3,$4,$5,$6,$7,$8,$9,$2,$3,0*
0 Add four circle primitives for the rounded corners*
1,1,$1+$1,$2,$3*
1,1,$1+$1,$4,$5*
1,1,$1+$1,$6,$7*
1,1,$1+$1,$8,$9*
0 Add four rect primitives between the rounded corners*
20,1,$1+$1,$2,$3,$4,$5,0*
20,1,$1+$1,$4,$5,$6,$7,0*
20,1,$1+$1,$6,$7,$8,$9,0*
20,1,$1+$1,$8,$9,$2,$3,0*%
G04 Aperture macros list end*
%ADD10C,1.400000*%
%ADD11R,1.600000X2.000000*%
%ADD12O,1.600000X2.000000*%
%ADD13C,2.000000*%
%ADD14C,3.600000*%
%ADD15C,5.700000*%
%ADD16RoundRect,0.250001X0.624999X-0.462499X0.624999X0.462499X-0.624999X0.462499X-0.624999X-0.462499X0*%
%ADD17RoundRect,0.150000X0.150000X0.625000X-0.150000X0.625000X-0.150000X-0.625000X0.150000X-0.625000X0*%
%ADD18RoundRect,0.250000X0.350000X0.650000X-0.350000X0.650000X-0.350000X-0.650000X0.350000X-0.650000X0*%
%ADD19RoundRect,0.250001X0.949999X-0.949999X0.949999X0.949999X-0.949999X0.949999X-0.949999X-0.949999X0*%
%ADD20C,2.400000*%
%ADD21RoundRect,0.250001X-0.462499X-0.624999X0.462499X-0.624999X0.462499X0.624999X-0.462499X0.624999X0*%
%ADD22C,1.800000*%
%ADD23RoundRect,0.102000X-1.050000X-1.050000X1.050000X-1.050000X1.050000X1.050000X-1.050000X1.050000X0*%
%ADD24C,2.304000*%
%ADD25C,2.154000*%
%ADD26R,1.600000X1.600000*%
%ADD27O,1.600000X1.600000*%
%ADD28R,2.000000X2.000000*%
G04 APERTURE END LIST*
D10*
%TO.C,U3*%
X98922100Y-58798715D03*
X98922100Y-83098715D03*
X124922100Y-58798715D03*
X124922100Y-83098715D03*
D11*
X107902100Y-58748715D03*
D12*
X110442100Y-58748715D03*
X112982100Y-58748715D03*
X115522100Y-58748715D03*
%TD*%
D13*
%TO.C,GND1*%
X78122100Y-105056300D03*
%TD*%
D14*
%TO.C,H1*%
X76122100Y-111056300D03*
D15*
X76122100Y-111056300D03*
%TD*%
D13*
%TO.C,GND2*%
X155722100Y-110298715D03*
%TD*%
%TO.C,GND3*%
X155722100Y-51098715D03*
%TD*%
D16*
%TO.C,D2*%
X104022100Y-96081300D03*
X104022100Y-93106300D03*
%TD*%
D17*
%TO.C,J1*%
X99222100Y-53256300D03*
X98222100Y-53256300D03*
X97222100Y-53256300D03*
X96222100Y-53256300D03*
D18*
X100522100Y-49381300D03*
X94922100Y-49381300D03*
%TD*%
D19*
%TO.C,J3*%
X158922100Y-100181300D03*
D20*
X158922100Y-95101300D03*
X158922100Y-90021300D03*
X158922100Y-84941300D03*
%TD*%
D21*
%TO.C,D1*%
X106547100Y-51056300D03*
X109522100Y-51056300D03*
%TD*%
D14*
%TO.C,H6*%
X161922100Y-110256300D03*
D15*
X161922100Y-110256300D03*
%TD*%
D22*
%TO.C,S3*%
X140522100Y-84056300D03*
X140522100Y-92856300D03*
D23*
X134322100Y-85956300D03*
D24*
X146722100Y-85956300D03*
X134322100Y-90956300D03*
X146722100Y-90956300D03*
D25*
X140522100Y-81856300D03*
X140522100Y-95056300D03*
%TD*%
D26*
%TO.C,U1*%
X90722100Y-96596300D03*
D27*
X90722100Y-94056300D03*
X90722100Y-91516300D03*
X90722100Y-88976300D03*
X90722100Y-86436300D03*
X90722100Y-83896300D03*
X90722100Y-81356300D03*
X90722100Y-78816300D03*
X90722100Y-76276300D03*
X90722100Y-73736300D03*
X90722100Y-71196300D03*
X90722100Y-68656300D03*
X90722100Y-66116300D03*
X90722100Y-63576300D03*
X90722100Y-61036300D03*
X75482100Y-61036300D03*
X75482100Y-63576300D03*
X75482100Y-66116300D03*
X75482100Y-68656300D03*
X75482100Y-71196300D03*
X75482100Y-73736300D03*
X75482100Y-76276300D03*
X75482100Y-78816300D03*
X75482100Y-81356300D03*
X75482100Y-83896300D03*
X75482100Y-86436300D03*
X75482100Y-88976300D03*
X75482100Y-91516300D03*
X75482100Y-94056300D03*
X75482100Y-96596300D03*
%TD*%
D22*
%TO.C,S4*%
X140522100Y-100056300D03*
X140522100Y-108856300D03*
D23*
X134322100Y-101956300D03*
D24*
X146722100Y-101956300D03*
X134322100Y-106956300D03*
X146722100Y-106956300D03*
D25*
X140522100Y-97856300D03*
X140522100Y-111056300D03*
%TD*%
D22*
%TO.C,S1*%
X140522100Y-52256300D03*
X140522100Y-61056300D03*
D23*
X134322100Y-54156300D03*
D24*
X146722100Y-54156300D03*
X134322100Y-59156300D03*
X146722100Y-59156300D03*
D25*
X140522100Y-50056300D03*
X140522100Y-63256300D03*
%TD*%
D14*
%TO.C,H2*%
X76122100Y-51056300D03*
D15*
X76122100Y-51056300D03*
%TD*%
D28*
%TO.C,BZ1*%
X112622100Y-90593800D03*
D13*
X112622100Y-98193800D03*
%TD*%
D22*
%TO.C,S2*%
X140522100Y-68156300D03*
X140522100Y-76956300D03*
D23*
X134322100Y-70056300D03*
D24*
X146722100Y-70056300D03*
X134322100Y-75056300D03*
X146722100Y-75056300D03*
D25*
X140522100Y-65956300D03*
X140522100Y-79156300D03*
%TD*%
D14*
%TO.C,H4*%
X161922100Y-51056300D03*
D15*
X161922100Y-51056300D03*
%TD*%
D19*
%TO.C,J2*%
X158922100Y-74096300D03*
D20*
X158922100Y-69016300D03*
%TD*%
M02*
