%TF.GenerationSoftware,KiCad,Pcbnew,9.0.9-9.0.9~ubuntu24.04.1*%
%TF.CreationDate,2026-05-26T11:11:06-07:00*%
%TF.ProjectId,matter_thread_relay_r1,6d617474-6572-45f7-9468-726561645f72,rev?*%
%TF.SameCoordinates,Original*%
%TF.FileFunction,Legend,Bot*%
%TF.FilePolarity,Positive*%
%FSLAX46Y46*%
G04 Gerber Fmt 4.6, Leading zero omitted, Abs format (unit mm)*
G04 Created by KiCad (PCBNEW 9.0.9-9.0.9~ubuntu24.04.1) date 2026-05-26 11:11:06*
%MOMM*%
%LPD*%
G01*
G04 APERTURE LIST*
%ADD10C,0.150000*%
%ADD11C,0.120000*%
G04 APERTURE END LIST*
D10*
X121788766Y-97248619D02*
X122122099Y-96772428D01*
X122360194Y-97248619D02*
X122360194Y-96248619D01*
X122360194Y-96248619D02*
X121979242Y-96248619D01*
X121979242Y-96248619D02*
X121884004Y-96296238D01*
X121884004Y-96296238D02*
X121836385Y-96343857D01*
X121836385Y-96343857D02*
X121788766Y-96439095D01*
X121788766Y-96439095D02*
X121788766Y-96581952D01*
X121788766Y-96581952D02*
X121836385Y-96677190D01*
X121836385Y-96677190D02*
X121884004Y-96724809D01*
X121884004Y-96724809D02*
X121979242Y-96772428D01*
X121979242Y-96772428D02*
X122360194Y-96772428D01*
X121312575Y-97248619D02*
X121122099Y-97248619D01*
X121122099Y-97248619D02*
X121026861Y-97201000D01*
X121026861Y-97201000D02*
X120979242Y-97153380D01*
X120979242Y-97153380D02*
X120884004Y-97010523D01*
X120884004Y-97010523D02*
X120836385Y-96820047D01*
X120836385Y-96820047D02*
X120836385Y-96439095D01*
X120836385Y-96439095D02*
X120884004Y-96343857D01*
X120884004Y-96343857D02*
X120931623Y-96296238D01*
X120931623Y-96296238D02*
X121026861Y-96248619D01*
X121026861Y-96248619D02*
X121217337Y-96248619D01*
X121217337Y-96248619D02*
X121312575Y-96296238D01*
X121312575Y-96296238D02*
X121360194Y-96343857D01*
X121360194Y-96343857D02*
X121407813Y-96439095D01*
X121407813Y-96439095D02*
X121407813Y-96677190D01*
X121407813Y-96677190D02*
X121360194Y-96772428D01*
X121360194Y-96772428D02*
X121312575Y-96820047D01*
X121312575Y-96820047D02*
X121217337Y-96867666D01*
X121217337Y-96867666D02*
X121026861Y-96867666D01*
X121026861Y-96867666D02*
X120931623Y-96820047D01*
X120931623Y-96820047D02*
X120884004Y-96772428D01*
X120884004Y-96772428D02*
X120836385Y-96677190D01*
X102876919Y-99627133D02*
X102400728Y-99293800D01*
X102876919Y-99055705D02*
X101876919Y-99055705D01*
X101876919Y-99055705D02*
X101876919Y-99436657D01*
X101876919Y-99436657D02*
X101924538Y-99531895D01*
X101924538Y-99531895D02*
X101972157Y-99579514D01*
X101972157Y-99579514D02*
X102067395Y-99627133D01*
X102067395Y-99627133D02*
X102210252Y-99627133D01*
X102210252Y-99627133D02*
X102305490Y-99579514D01*
X102305490Y-99579514D02*
X102353109Y-99531895D01*
X102353109Y-99531895D02*
X102400728Y-99436657D01*
X102400728Y-99436657D02*
X102400728Y-99055705D01*
X102305490Y-100198562D02*
X102257871Y-100103324D01*
X102257871Y-100103324D02*
X102210252Y-100055705D01*
X102210252Y-100055705D02*
X102115014Y-100008086D01*
X102115014Y-100008086D02*
X102067395Y-100008086D01*
X102067395Y-100008086D02*
X101972157Y-100055705D01*
X101972157Y-100055705D02*
X101924538Y-100103324D01*
X101924538Y-100103324D02*
X101876919Y-100198562D01*
X101876919Y-100198562D02*
X101876919Y-100389038D01*
X101876919Y-100389038D02*
X101924538Y-100484276D01*
X101924538Y-100484276D02*
X101972157Y-100531895D01*
X101972157Y-100531895D02*
X102067395Y-100579514D01*
X102067395Y-100579514D02*
X102115014Y-100579514D01*
X102115014Y-100579514D02*
X102210252Y-100531895D01*
X102210252Y-100531895D02*
X102257871Y-100484276D01*
X102257871Y-100484276D02*
X102305490Y-100389038D01*
X102305490Y-100389038D02*
X102305490Y-100198562D01*
X102305490Y-100198562D02*
X102353109Y-100103324D01*
X102353109Y-100103324D02*
X102400728Y-100055705D01*
X102400728Y-100055705D02*
X102495966Y-100008086D01*
X102495966Y-100008086D02*
X102686442Y-100008086D01*
X102686442Y-100008086D02*
X102781680Y-100055705D01*
X102781680Y-100055705D02*
X102829300Y-100103324D01*
X102829300Y-100103324D02*
X102876919Y-100198562D01*
X102876919Y-100198562D02*
X102876919Y-100389038D01*
X102876919Y-100389038D02*
X102829300Y-100484276D01*
X102829300Y-100484276D02*
X102781680Y-100531895D01*
X102781680Y-100531895D02*
X102686442Y-100579514D01*
X102686442Y-100579514D02*
X102495966Y-100579514D01*
X102495966Y-100579514D02*
X102400728Y-100531895D01*
X102400728Y-100531895D02*
X102353109Y-100484276D01*
X102353109Y-100484276D02*
X102305490Y-100389038D01*
X115088766Y-62335880D02*
X115136385Y-62383500D01*
X115136385Y-62383500D02*
X115279242Y-62431119D01*
X115279242Y-62431119D02*
X115374480Y-62431119D01*
X115374480Y-62431119D02*
X115517337Y-62383500D01*
X115517337Y-62383500D02*
X115612575Y-62288261D01*
X115612575Y-62288261D02*
X115660194Y-62193023D01*
X115660194Y-62193023D02*
X115707813Y-62002547D01*
X115707813Y-62002547D02*
X115707813Y-61859690D01*
X115707813Y-61859690D02*
X115660194Y-61669214D01*
X115660194Y-61669214D02*
X115612575Y-61573976D01*
X115612575Y-61573976D02*
X115517337Y-61478738D01*
X115517337Y-61478738D02*
X115374480Y-61431119D01*
X115374480Y-61431119D02*
X115279242Y-61431119D01*
X115279242Y-61431119D02*
X115136385Y-61478738D01*
X115136385Y-61478738D02*
X115088766Y-61526357D01*
X114707813Y-61526357D02*
X114660194Y-61478738D01*
X114660194Y-61478738D02*
X114564956Y-61431119D01*
X114564956Y-61431119D02*
X114326861Y-61431119D01*
X114326861Y-61431119D02*
X114231623Y-61478738D01*
X114231623Y-61478738D02*
X114184004Y-61526357D01*
X114184004Y-61526357D02*
X114136385Y-61621595D01*
X114136385Y-61621595D02*
X114136385Y-61716833D01*
X114136385Y-61716833D02*
X114184004Y-61859690D01*
X114184004Y-61859690D02*
X114755432Y-62431119D01*
X114755432Y-62431119D02*
X114136385Y-62431119D01*
X124276919Y-92255705D02*
X123276919Y-92255705D01*
X123276919Y-92255705D02*
X123276919Y-92493800D01*
X123276919Y-92493800D02*
X123324538Y-92636657D01*
X123324538Y-92636657D02*
X123419776Y-92731895D01*
X123419776Y-92731895D02*
X123515014Y-92779514D01*
X123515014Y-92779514D02*
X123705490Y-92827133D01*
X123705490Y-92827133D02*
X123848347Y-92827133D01*
X123848347Y-92827133D02*
X124038823Y-92779514D01*
X124038823Y-92779514D02*
X124134061Y-92731895D01*
X124134061Y-92731895D02*
X124229300Y-92636657D01*
X124229300Y-92636657D02*
X124276919Y-92493800D01*
X124276919Y-92493800D02*
X124276919Y-92255705D01*
X123610252Y-93684276D02*
X124276919Y-93684276D01*
X123229300Y-93446181D02*
X123943585Y-93208086D01*
X123943585Y-93208086D02*
X123943585Y-93827133D01*
X104964957Y-73711119D02*
X105298290Y-73234928D01*
X105536385Y-73711119D02*
X105536385Y-72711119D01*
X105536385Y-72711119D02*
X105155433Y-72711119D01*
X105155433Y-72711119D02*
X105060195Y-72758738D01*
X105060195Y-72758738D02*
X105012576Y-72806357D01*
X105012576Y-72806357D02*
X104964957Y-72901595D01*
X104964957Y-72901595D02*
X104964957Y-73044452D01*
X104964957Y-73044452D02*
X105012576Y-73139690D01*
X105012576Y-73139690D02*
X105060195Y-73187309D01*
X105060195Y-73187309D02*
X105155433Y-73234928D01*
X105155433Y-73234928D02*
X105536385Y-73234928D01*
X104012576Y-73711119D02*
X104584004Y-73711119D01*
X104298290Y-73711119D02*
X104298290Y-72711119D01*
X104298290Y-72711119D02*
X104393528Y-72853976D01*
X104393528Y-72853976D02*
X104488766Y-72949214D01*
X104488766Y-72949214D02*
X104584004Y-72996833D01*
X103107814Y-72711119D02*
X103584004Y-72711119D01*
X103584004Y-72711119D02*
X103631623Y-73187309D01*
X103631623Y-73187309D02*
X103584004Y-73139690D01*
X103584004Y-73139690D02*
X103488766Y-73092071D01*
X103488766Y-73092071D02*
X103250671Y-73092071D01*
X103250671Y-73092071D02*
X103155433Y-73139690D01*
X103155433Y-73139690D02*
X103107814Y-73187309D01*
X103107814Y-73187309D02*
X103060195Y-73282547D01*
X103060195Y-73282547D02*
X103060195Y-73520642D01*
X103060195Y-73520642D02*
X103107814Y-73615880D01*
X103107814Y-73615880D02*
X103155433Y-73663500D01*
X103155433Y-73663500D02*
X103250671Y-73711119D01*
X103250671Y-73711119D02*
X103488766Y-73711119D01*
X103488766Y-73711119D02*
X103584004Y-73663500D01*
X103584004Y-73663500D02*
X103631623Y-73615880D01*
X115317338Y-104343857D02*
X115412576Y-104296238D01*
X115412576Y-104296238D02*
X115507814Y-104201000D01*
X115507814Y-104201000D02*
X115650671Y-104058142D01*
X115650671Y-104058142D02*
X115745909Y-104010523D01*
X115745909Y-104010523D02*
X115841147Y-104010523D01*
X115793528Y-104248619D02*
X115888766Y-104201000D01*
X115888766Y-104201000D02*
X115984004Y-104105761D01*
X115984004Y-104105761D02*
X116031623Y-103915285D01*
X116031623Y-103915285D02*
X116031623Y-103581952D01*
X116031623Y-103581952D02*
X115984004Y-103391476D01*
X115984004Y-103391476D02*
X115888766Y-103296238D01*
X115888766Y-103296238D02*
X115793528Y-103248619D01*
X115793528Y-103248619D02*
X115603052Y-103248619D01*
X115603052Y-103248619D02*
X115507814Y-103296238D01*
X115507814Y-103296238D02*
X115412576Y-103391476D01*
X115412576Y-103391476D02*
X115364957Y-103581952D01*
X115364957Y-103581952D02*
X115364957Y-103915285D01*
X115364957Y-103915285D02*
X115412576Y-104105761D01*
X115412576Y-104105761D02*
X115507814Y-104201000D01*
X115507814Y-104201000D02*
X115603052Y-104248619D01*
X115603052Y-104248619D02*
X115793528Y-104248619D01*
X114412576Y-104248619D02*
X114984004Y-104248619D01*
X114698290Y-104248619D02*
X114698290Y-103248619D01*
X114698290Y-103248619D02*
X114793528Y-103391476D01*
X114793528Y-103391476D02*
X114888766Y-103486714D01*
X114888766Y-103486714D02*
X114984004Y-103534333D01*
X94401680Y-100052133D02*
X94449300Y-100004514D01*
X94449300Y-100004514D02*
X94496919Y-99861657D01*
X94496919Y-99861657D02*
X94496919Y-99766419D01*
X94496919Y-99766419D02*
X94449300Y-99623562D01*
X94449300Y-99623562D02*
X94354061Y-99528324D01*
X94354061Y-99528324D02*
X94258823Y-99480705D01*
X94258823Y-99480705D02*
X94068347Y-99433086D01*
X94068347Y-99433086D02*
X93925490Y-99433086D01*
X93925490Y-99433086D02*
X93735014Y-99480705D01*
X93735014Y-99480705D02*
X93639776Y-99528324D01*
X93639776Y-99528324D02*
X93544538Y-99623562D01*
X93544538Y-99623562D02*
X93496919Y-99766419D01*
X93496919Y-99766419D02*
X93496919Y-99861657D01*
X93496919Y-99861657D02*
X93544538Y-100004514D01*
X93544538Y-100004514D02*
X93592157Y-100052133D01*
X94496919Y-101004514D02*
X94496919Y-100433086D01*
X94496919Y-100718800D02*
X93496919Y-100718800D01*
X93496919Y-100718800D02*
X93639776Y-100623562D01*
X93639776Y-100623562D02*
X93735014Y-100528324D01*
X93735014Y-100528324D02*
X93782633Y-100433086D01*
X151564957Y-93461119D02*
X151898290Y-92984928D01*
X152136385Y-93461119D02*
X152136385Y-92461119D01*
X152136385Y-92461119D02*
X151755433Y-92461119D01*
X151755433Y-92461119D02*
X151660195Y-92508738D01*
X151660195Y-92508738D02*
X151612576Y-92556357D01*
X151612576Y-92556357D02*
X151564957Y-92651595D01*
X151564957Y-92651595D02*
X151564957Y-92794452D01*
X151564957Y-92794452D02*
X151612576Y-92889690D01*
X151612576Y-92889690D02*
X151660195Y-92937309D01*
X151660195Y-92937309D02*
X151755433Y-92984928D01*
X151755433Y-92984928D02*
X152136385Y-92984928D01*
X150612576Y-93461119D02*
X151184004Y-93461119D01*
X150898290Y-93461119D02*
X150898290Y-92461119D01*
X150898290Y-92461119D02*
X150993528Y-92603976D01*
X150993528Y-92603976D02*
X151088766Y-92699214D01*
X151088766Y-92699214D02*
X151184004Y-92746833D01*
X150279242Y-92461119D02*
X149612576Y-92461119D01*
X149612576Y-92461119D02*
X150041147Y-93461119D01*
X107476919Y-93855705D02*
X106476919Y-93855705D01*
X106476919Y-93855705D02*
X106476919Y-94093800D01*
X106476919Y-94093800D02*
X106524538Y-94236657D01*
X106524538Y-94236657D02*
X106619776Y-94331895D01*
X106619776Y-94331895D02*
X106715014Y-94379514D01*
X106715014Y-94379514D02*
X106905490Y-94427133D01*
X106905490Y-94427133D02*
X107048347Y-94427133D01*
X107048347Y-94427133D02*
X107238823Y-94379514D01*
X107238823Y-94379514D02*
X107334061Y-94331895D01*
X107334061Y-94331895D02*
X107429300Y-94236657D01*
X107429300Y-94236657D02*
X107476919Y-94093800D01*
X107476919Y-94093800D02*
X107476919Y-93855705D01*
X106476919Y-94760467D02*
X106476919Y-95379514D01*
X106476919Y-95379514D02*
X106857871Y-95046181D01*
X106857871Y-95046181D02*
X106857871Y-95189038D01*
X106857871Y-95189038D02*
X106905490Y-95284276D01*
X106905490Y-95284276D02*
X106953109Y-95331895D01*
X106953109Y-95331895D02*
X107048347Y-95379514D01*
X107048347Y-95379514D02*
X107286442Y-95379514D01*
X107286442Y-95379514D02*
X107381680Y-95331895D01*
X107381680Y-95331895D02*
X107429300Y-95284276D01*
X107429300Y-95284276D02*
X107476919Y-95189038D01*
X107476919Y-95189038D02*
X107476919Y-94903324D01*
X107476919Y-94903324D02*
X107429300Y-94808086D01*
X107429300Y-94808086D02*
X107381680Y-94760467D01*
X139488766Y-58811119D02*
X139822099Y-58334928D01*
X140060194Y-58811119D02*
X140060194Y-57811119D01*
X140060194Y-57811119D02*
X139679242Y-57811119D01*
X139679242Y-57811119D02*
X139584004Y-57858738D01*
X139584004Y-57858738D02*
X139536385Y-57906357D01*
X139536385Y-57906357D02*
X139488766Y-58001595D01*
X139488766Y-58001595D02*
X139488766Y-58144452D01*
X139488766Y-58144452D02*
X139536385Y-58239690D01*
X139536385Y-58239690D02*
X139584004Y-58287309D01*
X139584004Y-58287309D02*
X139679242Y-58334928D01*
X139679242Y-58334928D02*
X140060194Y-58334928D01*
X138631623Y-58144452D02*
X138631623Y-58811119D01*
X138869718Y-57763500D02*
X139107813Y-58477785D01*
X139107813Y-58477785D02*
X138488766Y-58477785D01*
X150081680Y-68132048D02*
X150129300Y-68084429D01*
X150129300Y-68084429D02*
X150176919Y-67941572D01*
X150176919Y-67941572D02*
X150176919Y-67846334D01*
X150176919Y-67846334D02*
X150129300Y-67703477D01*
X150129300Y-67703477D02*
X150034061Y-67608239D01*
X150034061Y-67608239D02*
X149938823Y-67560620D01*
X149938823Y-67560620D02*
X149748347Y-67513001D01*
X149748347Y-67513001D02*
X149605490Y-67513001D01*
X149605490Y-67513001D02*
X149415014Y-67560620D01*
X149415014Y-67560620D02*
X149319776Y-67608239D01*
X149319776Y-67608239D02*
X149224538Y-67703477D01*
X149224538Y-67703477D02*
X149176919Y-67846334D01*
X149176919Y-67846334D02*
X149176919Y-67941572D01*
X149176919Y-67941572D02*
X149224538Y-68084429D01*
X149224538Y-68084429D02*
X149272157Y-68132048D01*
X149176919Y-68989191D02*
X149176919Y-68798715D01*
X149176919Y-68798715D02*
X149224538Y-68703477D01*
X149224538Y-68703477D02*
X149272157Y-68655858D01*
X149272157Y-68655858D02*
X149415014Y-68560620D01*
X149415014Y-68560620D02*
X149605490Y-68513001D01*
X149605490Y-68513001D02*
X149986442Y-68513001D01*
X149986442Y-68513001D02*
X150081680Y-68560620D01*
X150081680Y-68560620D02*
X150129300Y-68608239D01*
X150129300Y-68608239D02*
X150176919Y-68703477D01*
X150176919Y-68703477D02*
X150176919Y-68893953D01*
X150176919Y-68893953D02*
X150129300Y-68989191D01*
X150129300Y-68989191D02*
X150081680Y-69036810D01*
X150081680Y-69036810D02*
X149986442Y-69084429D01*
X149986442Y-69084429D02*
X149748347Y-69084429D01*
X149748347Y-69084429D02*
X149653109Y-69036810D01*
X149653109Y-69036810D02*
X149605490Y-68989191D01*
X149605490Y-68989191D02*
X149557871Y-68893953D01*
X149557871Y-68893953D02*
X149557871Y-68703477D01*
X149557871Y-68703477D02*
X149605490Y-68608239D01*
X149605490Y-68608239D02*
X149653109Y-68560620D01*
X149653109Y-68560620D02*
X149748347Y-68513001D01*
X105164957Y-70911119D02*
X105498290Y-70434928D01*
X105736385Y-70911119D02*
X105736385Y-69911119D01*
X105736385Y-69911119D02*
X105355433Y-69911119D01*
X105355433Y-69911119D02*
X105260195Y-69958738D01*
X105260195Y-69958738D02*
X105212576Y-70006357D01*
X105212576Y-70006357D02*
X105164957Y-70101595D01*
X105164957Y-70101595D02*
X105164957Y-70244452D01*
X105164957Y-70244452D02*
X105212576Y-70339690D01*
X105212576Y-70339690D02*
X105260195Y-70387309D01*
X105260195Y-70387309D02*
X105355433Y-70434928D01*
X105355433Y-70434928D02*
X105736385Y-70434928D01*
X104212576Y-70911119D02*
X104784004Y-70911119D01*
X104498290Y-70911119D02*
X104498290Y-69911119D01*
X104498290Y-69911119D02*
X104593528Y-70053976D01*
X104593528Y-70053976D02*
X104688766Y-70149214D01*
X104688766Y-70149214D02*
X104784004Y-70196833D01*
X103355433Y-70244452D02*
X103355433Y-70911119D01*
X103593528Y-69863500D02*
X103831623Y-70577785D01*
X103831623Y-70577785D02*
X103212576Y-70577785D01*
X139688766Y-90311119D02*
X140022099Y-89834928D01*
X140260194Y-90311119D02*
X140260194Y-89311119D01*
X140260194Y-89311119D02*
X139879242Y-89311119D01*
X139879242Y-89311119D02*
X139784004Y-89358738D01*
X139784004Y-89358738D02*
X139736385Y-89406357D01*
X139736385Y-89406357D02*
X139688766Y-89501595D01*
X139688766Y-89501595D02*
X139688766Y-89644452D01*
X139688766Y-89644452D02*
X139736385Y-89739690D01*
X139736385Y-89739690D02*
X139784004Y-89787309D01*
X139784004Y-89787309D02*
X139879242Y-89834928D01*
X139879242Y-89834928D02*
X140260194Y-89834928D01*
X138831623Y-89311119D02*
X139022099Y-89311119D01*
X139022099Y-89311119D02*
X139117337Y-89358738D01*
X139117337Y-89358738D02*
X139164956Y-89406357D01*
X139164956Y-89406357D02*
X139260194Y-89549214D01*
X139260194Y-89549214D02*
X139307813Y-89739690D01*
X139307813Y-89739690D02*
X139307813Y-90120642D01*
X139307813Y-90120642D02*
X139260194Y-90215880D01*
X139260194Y-90215880D02*
X139212575Y-90263500D01*
X139212575Y-90263500D02*
X139117337Y-90311119D01*
X139117337Y-90311119D02*
X138926861Y-90311119D01*
X138926861Y-90311119D02*
X138831623Y-90263500D01*
X138831623Y-90263500D02*
X138784004Y-90215880D01*
X138784004Y-90215880D02*
X138736385Y-90120642D01*
X138736385Y-90120642D02*
X138736385Y-89882547D01*
X138736385Y-89882547D02*
X138784004Y-89787309D01*
X138784004Y-89787309D02*
X138831623Y-89739690D01*
X138831623Y-89739690D02*
X138926861Y-89692071D01*
X138926861Y-89692071D02*
X139117337Y-89692071D01*
X139117337Y-89692071D02*
X139212575Y-89739690D01*
X139212575Y-89739690D02*
X139260194Y-89787309D01*
X139260194Y-89787309D02*
X139307813Y-89882547D01*
X87288766Y-49711119D02*
X87622099Y-49234928D01*
X87860194Y-49711119D02*
X87860194Y-48711119D01*
X87860194Y-48711119D02*
X87479242Y-48711119D01*
X87479242Y-48711119D02*
X87384004Y-48758738D01*
X87384004Y-48758738D02*
X87336385Y-48806357D01*
X87336385Y-48806357D02*
X87288766Y-48901595D01*
X87288766Y-48901595D02*
X87288766Y-49044452D01*
X87288766Y-49044452D02*
X87336385Y-49139690D01*
X87336385Y-49139690D02*
X87384004Y-49187309D01*
X87384004Y-49187309D02*
X87479242Y-49234928D01*
X87479242Y-49234928D02*
X87860194Y-49234928D01*
X86907813Y-48806357D02*
X86860194Y-48758738D01*
X86860194Y-48758738D02*
X86764956Y-48711119D01*
X86764956Y-48711119D02*
X86526861Y-48711119D01*
X86526861Y-48711119D02*
X86431623Y-48758738D01*
X86431623Y-48758738D02*
X86384004Y-48806357D01*
X86384004Y-48806357D02*
X86336385Y-48901595D01*
X86336385Y-48901595D02*
X86336385Y-48996833D01*
X86336385Y-48996833D02*
X86384004Y-49139690D01*
X86384004Y-49139690D02*
X86955432Y-49711119D01*
X86955432Y-49711119D02*
X86336385Y-49711119D01*
X102801680Y-89689633D02*
X102849300Y-89642014D01*
X102849300Y-89642014D02*
X102896919Y-89499157D01*
X102896919Y-89499157D02*
X102896919Y-89403919D01*
X102896919Y-89403919D02*
X102849300Y-89261062D01*
X102849300Y-89261062D02*
X102754061Y-89165824D01*
X102754061Y-89165824D02*
X102658823Y-89118205D01*
X102658823Y-89118205D02*
X102468347Y-89070586D01*
X102468347Y-89070586D02*
X102325490Y-89070586D01*
X102325490Y-89070586D02*
X102135014Y-89118205D01*
X102135014Y-89118205D02*
X102039776Y-89165824D01*
X102039776Y-89165824D02*
X101944538Y-89261062D01*
X101944538Y-89261062D02*
X101896919Y-89403919D01*
X101896919Y-89403919D02*
X101896919Y-89499157D01*
X101896919Y-89499157D02*
X101944538Y-89642014D01*
X101944538Y-89642014D02*
X101992157Y-89689633D01*
X102230252Y-90546776D02*
X102896919Y-90546776D01*
X101849300Y-90308681D02*
X102563585Y-90070586D01*
X102563585Y-90070586D02*
X102563585Y-90689633D01*
X79451266Y-98695880D02*
X79498885Y-98743500D01*
X79498885Y-98743500D02*
X79641742Y-98791119D01*
X79641742Y-98791119D02*
X79736980Y-98791119D01*
X79736980Y-98791119D02*
X79879837Y-98743500D01*
X79879837Y-98743500D02*
X79975075Y-98648261D01*
X79975075Y-98648261D02*
X80022694Y-98553023D01*
X80022694Y-98553023D02*
X80070313Y-98362547D01*
X80070313Y-98362547D02*
X80070313Y-98219690D01*
X80070313Y-98219690D02*
X80022694Y-98029214D01*
X80022694Y-98029214D02*
X79975075Y-97933976D01*
X79975075Y-97933976D02*
X79879837Y-97838738D01*
X79879837Y-97838738D02*
X79736980Y-97791119D01*
X79736980Y-97791119D02*
X79641742Y-97791119D01*
X79641742Y-97791119D02*
X79498885Y-97838738D01*
X79498885Y-97838738D02*
X79451266Y-97886357D01*
X79117932Y-97791119D02*
X78498885Y-97791119D01*
X78498885Y-97791119D02*
X78832218Y-98172071D01*
X78832218Y-98172071D02*
X78689361Y-98172071D01*
X78689361Y-98172071D02*
X78594123Y-98219690D01*
X78594123Y-98219690D02*
X78546504Y-98267309D01*
X78546504Y-98267309D02*
X78498885Y-98362547D01*
X78498885Y-98362547D02*
X78498885Y-98600642D01*
X78498885Y-98600642D02*
X78546504Y-98695880D01*
X78546504Y-98695880D02*
X78594123Y-98743500D01*
X78594123Y-98743500D02*
X78689361Y-98791119D01*
X78689361Y-98791119D02*
X78975075Y-98791119D01*
X78975075Y-98791119D02*
X79070313Y-98743500D01*
X79070313Y-98743500D02*
X79117932Y-98695880D01*
X122064957Y-102898619D02*
X122398290Y-102422428D01*
X122636385Y-102898619D02*
X122636385Y-101898619D01*
X122636385Y-101898619D02*
X122255433Y-101898619D01*
X122255433Y-101898619D02*
X122160195Y-101946238D01*
X122160195Y-101946238D02*
X122112576Y-101993857D01*
X122112576Y-101993857D02*
X122064957Y-102089095D01*
X122064957Y-102089095D02*
X122064957Y-102231952D01*
X122064957Y-102231952D02*
X122112576Y-102327190D01*
X122112576Y-102327190D02*
X122160195Y-102374809D01*
X122160195Y-102374809D02*
X122255433Y-102422428D01*
X122255433Y-102422428D02*
X122636385Y-102422428D01*
X121112576Y-102898619D02*
X121684004Y-102898619D01*
X121398290Y-102898619D02*
X121398290Y-101898619D01*
X121398290Y-101898619D02*
X121493528Y-102041476D01*
X121493528Y-102041476D02*
X121588766Y-102136714D01*
X121588766Y-102136714D02*
X121684004Y-102184333D01*
X120493528Y-101898619D02*
X120398290Y-101898619D01*
X120398290Y-101898619D02*
X120303052Y-101946238D01*
X120303052Y-101946238D02*
X120255433Y-101993857D01*
X120255433Y-101993857D02*
X120207814Y-102089095D01*
X120207814Y-102089095D02*
X120160195Y-102279571D01*
X120160195Y-102279571D02*
X120160195Y-102517666D01*
X120160195Y-102517666D02*
X120207814Y-102708142D01*
X120207814Y-102708142D02*
X120255433Y-102803380D01*
X120255433Y-102803380D02*
X120303052Y-102851000D01*
X120303052Y-102851000D02*
X120398290Y-102898619D01*
X120398290Y-102898619D02*
X120493528Y-102898619D01*
X120493528Y-102898619D02*
X120588766Y-102851000D01*
X120588766Y-102851000D02*
X120636385Y-102803380D01*
X120636385Y-102803380D02*
X120684004Y-102708142D01*
X120684004Y-102708142D02*
X120731623Y-102517666D01*
X120731623Y-102517666D02*
X120731623Y-102279571D01*
X120731623Y-102279571D02*
X120684004Y-102089095D01*
X120684004Y-102089095D02*
X120636385Y-101993857D01*
X120636385Y-101993857D02*
X120588766Y-101946238D01*
X120588766Y-101946238D02*
X120493528Y-101898619D01*
X111884004Y-63671119D02*
X111884004Y-64480642D01*
X111884004Y-64480642D02*
X111836385Y-64575880D01*
X111836385Y-64575880D02*
X111788766Y-64623500D01*
X111788766Y-64623500D02*
X111693528Y-64671119D01*
X111693528Y-64671119D02*
X111503052Y-64671119D01*
X111503052Y-64671119D02*
X111407814Y-64623500D01*
X111407814Y-64623500D02*
X111360195Y-64575880D01*
X111360195Y-64575880D02*
X111312576Y-64480642D01*
X111312576Y-64480642D02*
X111312576Y-63671119D01*
X110884004Y-63766357D02*
X110836385Y-63718738D01*
X110836385Y-63718738D02*
X110741147Y-63671119D01*
X110741147Y-63671119D02*
X110503052Y-63671119D01*
X110503052Y-63671119D02*
X110407814Y-63718738D01*
X110407814Y-63718738D02*
X110360195Y-63766357D01*
X110360195Y-63766357D02*
X110312576Y-63861595D01*
X110312576Y-63861595D02*
X110312576Y-63956833D01*
X110312576Y-63956833D02*
X110360195Y-64099690D01*
X110360195Y-64099690D02*
X110931623Y-64671119D01*
X110931623Y-64671119D02*
X110312576Y-64671119D01*
X104964957Y-67911119D02*
X105298290Y-67434928D01*
X105536385Y-67911119D02*
X105536385Y-66911119D01*
X105536385Y-66911119D02*
X105155433Y-66911119D01*
X105155433Y-66911119D02*
X105060195Y-66958738D01*
X105060195Y-66958738D02*
X105012576Y-67006357D01*
X105012576Y-67006357D02*
X104964957Y-67101595D01*
X104964957Y-67101595D02*
X104964957Y-67244452D01*
X104964957Y-67244452D02*
X105012576Y-67339690D01*
X105012576Y-67339690D02*
X105060195Y-67387309D01*
X105060195Y-67387309D02*
X105155433Y-67434928D01*
X105155433Y-67434928D02*
X105536385Y-67434928D01*
X104012576Y-67911119D02*
X104584004Y-67911119D01*
X104298290Y-67911119D02*
X104298290Y-66911119D01*
X104298290Y-66911119D02*
X104393528Y-67053976D01*
X104393528Y-67053976D02*
X104488766Y-67149214D01*
X104488766Y-67149214D02*
X104584004Y-67196833D01*
X103679242Y-66911119D02*
X103060195Y-66911119D01*
X103060195Y-66911119D02*
X103393528Y-67292071D01*
X103393528Y-67292071D02*
X103250671Y-67292071D01*
X103250671Y-67292071D02*
X103155433Y-67339690D01*
X103155433Y-67339690D02*
X103107814Y-67387309D01*
X103107814Y-67387309D02*
X103060195Y-67482547D01*
X103060195Y-67482547D02*
X103060195Y-67720642D01*
X103060195Y-67720642D02*
X103107814Y-67815880D01*
X103107814Y-67815880D02*
X103155433Y-67863500D01*
X103155433Y-67863500D02*
X103250671Y-67911119D01*
X103250671Y-67911119D02*
X103536385Y-67911119D01*
X103536385Y-67911119D02*
X103631623Y-67863500D01*
X103631623Y-67863500D02*
X103679242Y-67815880D01*
X116526919Y-50889633D02*
X116050728Y-50556300D01*
X116526919Y-50318205D02*
X115526919Y-50318205D01*
X115526919Y-50318205D02*
X115526919Y-50699157D01*
X115526919Y-50699157D02*
X115574538Y-50794395D01*
X115574538Y-50794395D02*
X115622157Y-50842014D01*
X115622157Y-50842014D02*
X115717395Y-50889633D01*
X115717395Y-50889633D02*
X115860252Y-50889633D01*
X115860252Y-50889633D02*
X115955490Y-50842014D01*
X115955490Y-50842014D02*
X116003109Y-50794395D01*
X116003109Y-50794395D02*
X116050728Y-50699157D01*
X116050728Y-50699157D02*
X116050728Y-50318205D01*
X115526919Y-51222967D02*
X115526919Y-51842014D01*
X115526919Y-51842014D02*
X115907871Y-51508681D01*
X115907871Y-51508681D02*
X115907871Y-51651538D01*
X115907871Y-51651538D02*
X115955490Y-51746776D01*
X115955490Y-51746776D02*
X116003109Y-51794395D01*
X116003109Y-51794395D02*
X116098347Y-51842014D01*
X116098347Y-51842014D02*
X116336442Y-51842014D01*
X116336442Y-51842014D02*
X116431680Y-51794395D01*
X116431680Y-51794395D02*
X116479300Y-51746776D01*
X116479300Y-51746776D02*
X116526919Y-51651538D01*
X116526919Y-51651538D02*
X116526919Y-51365824D01*
X116526919Y-51365824D02*
X116479300Y-51270586D01*
X116479300Y-51270586D02*
X116431680Y-51222967D01*
X111864957Y-104248619D02*
X112198290Y-103772428D01*
X112436385Y-104248619D02*
X112436385Y-103248619D01*
X112436385Y-103248619D02*
X112055433Y-103248619D01*
X112055433Y-103248619D02*
X111960195Y-103296238D01*
X111960195Y-103296238D02*
X111912576Y-103343857D01*
X111912576Y-103343857D02*
X111864957Y-103439095D01*
X111864957Y-103439095D02*
X111864957Y-103581952D01*
X111864957Y-103581952D02*
X111912576Y-103677190D01*
X111912576Y-103677190D02*
X111960195Y-103724809D01*
X111960195Y-103724809D02*
X112055433Y-103772428D01*
X112055433Y-103772428D02*
X112436385Y-103772428D01*
X110912576Y-104248619D02*
X111484004Y-104248619D01*
X111198290Y-104248619D02*
X111198290Y-103248619D01*
X111198290Y-103248619D02*
X111293528Y-103391476D01*
X111293528Y-103391476D02*
X111388766Y-103486714D01*
X111388766Y-103486714D02*
X111484004Y-103534333D01*
X109960195Y-104248619D02*
X110531623Y-104248619D01*
X110245909Y-104248619D02*
X110245909Y-103248619D01*
X110245909Y-103248619D02*
X110341147Y-103391476D01*
X110341147Y-103391476D02*
X110436385Y-103486714D01*
X110436385Y-103486714D02*
X110531623Y-103534333D01*
X139688766Y-74011119D02*
X140022099Y-73534928D01*
X140260194Y-74011119D02*
X140260194Y-73011119D01*
X140260194Y-73011119D02*
X139879242Y-73011119D01*
X139879242Y-73011119D02*
X139784004Y-73058738D01*
X139784004Y-73058738D02*
X139736385Y-73106357D01*
X139736385Y-73106357D02*
X139688766Y-73201595D01*
X139688766Y-73201595D02*
X139688766Y-73344452D01*
X139688766Y-73344452D02*
X139736385Y-73439690D01*
X139736385Y-73439690D02*
X139784004Y-73487309D01*
X139784004Y-73487309D02*
X139879242Y-73534928D01*
X139879242Y-73534928D02*
X140260194Y-73534928D01*
X138784004Y-73011119D02*
X139260194Y-73011119D01*
X139260194Y-73011119D02*
X139307813Y-73487309D01*
X139307813Y-73487309D02*
X139260194Y-73439690D01*
X139260194Y-73439690D02*
X139164956Y-73392071D01*
X139164956Y-73392071D02*
X138926861Y-73392071D01*
X138926861Y-73392071D02*
X138831623Y-73439690D01*
X138831623Y-73439690D02*
X138784004Y-73487309D01*
X138784004Y-73487309D02*
X138736385Y-73582547D01*
X138736385Y-73582547D02*
X138736385Y-73820642D01*
X138736385Y-73820642D02*
X138784004Y-73915880D01*
X138784004Y-73915880D02*
X138831623Y-73963500D01*
X138831623Y-73963500D02*
X138926861Y-74011119D01*
X138926861Y-74011119D02*
X139164956Y-74011119D01*
X139164956Y-74011119D02*
X139260194Y-73963500D01*
X139260194Y-73963500D02*
X139307813Y-73915880D01*
X151564957Y-98661119D02*
X151898290Y-98184928D01*
X152136385Y-98661119D02*
X152136385Y-97661119D01*
X152136385Y-97661119D02*
X151755433Y-97661119D01*
X151755433Y-97661119D02*
X151660195Y-97708738D01*
X151660195Y-97708738D02*
X151612576Y-97756357D01*
X151612576Y-97756357D02*
X151564957Y-97851595D01*
X151564957Y-97851595D02*
X151564957Y-97994452D01*
X151564957Y-97994452D02*
X151612576Y-98089690D01*
X151612576Y-98089690D02*
X151660195Y-98137309D01*
X151660195Y-98137309D02*
X151755433Y-98184928D01*
X151755433Y-98184928D02*
X152136385Y-98184928D01*
X150612576Y-98661119D02*
X151184004Y-98661119D01*
X150898290Y-98661119D02*
X150898290Y-97661119D01*
X150898290Y-97661119D02*
X150993528Y-97803976D01*
X150993528Y-97803976D02*
X151088766Y-97899214D01*
X151088766Y-97899214D02*
X151184004Y-97946833D01*
X149755433Y-97661119D02*
X149945909Y-97661119D01*
X149945909Y-97661119D02*
X150041147Y-97708738D01*
X150041147Y-97708738D02*
X150088766Y-97756357D01*
X150088766Y-97756357D02*
X150184004Y-97899214D01*
X150184004Y-97899214D02*
X150231623Y-98089690D01*
X150231623Y-98089690D02*
X150231623Y-98470642D01*
X150231623Y-98470642D02*
X150184004Y-98565880D01*
X150184004Y-98565880D02*
X150136385Y-98613500D01*
X150136385Y-98613500D02*
X150041147Y-98661119D01*
X150041147Y-98661119D02*
X149850671Y-98661119D01*
X149850671Y-98661119D02*
X149755433Y-98613500D01*
X149755433Y-98613500D02*
X149707814Y-98565880D01*
X149707814Y-98565880D02*
X149660195Y-98470642D01*
X149660195Y-98470642D02*
X149660195Y-98232547D01*
X149660195Y-98232547D02*
X149707814Y-98137309D01*
X149707814Y-98137309D02*
X149755433Y-98089690D01*
X149755433Y-98089690D02*
X149850671Y-98042071D01*
X149850671Y-98042071D02*
X150041147Y-98042071D01*
X150041147Y-98042071D02*
X150136385Y-98089690D01*
X150136385Y-98089690D02*
X150184004Y-98137309D01*
X150184004Y-98137309D02*
X150231623Y-98232547D01*
X104964957Y-64911119D02*
X105298290Y-64434928D01*
X105536385Y-64911119D02*
X105536385Y-63911119D01*
X105536385Y-63911119D02*
X105155433Y-63911119D01*
X105155433Y-63911119D02*
X105060195Y-63958738D01*
X105060195Y-63958738D02*
X105012576Y-64006357D01*
X105012576Y-64006357D02*
X104964957Y-64101595D01*
X104964957Y-64101595D02*
X104964957Y-64244452D01*
X104964957Y-64244452D02*
X105012576Y-64339690D01*
X105012576Y-64339690D02*
X105060195Y-64387309D01*
X105060195Y-64387309D02*
X105155433Y-64434928D01*
X105155433Y-64434928D02*
X105536385Y-64434928D01*
X104012576Y-64911119D02*
X104584004Y-64911119D01*
X104298290Y-64911119D02*
X104298290Y-63911119D01*
X104298290Y-63911119D02*
X104393528Y-64053976D01*
X104393528Y-64053976D02*
X104488766Y-64149214D01*
X104488766Y-64149214D02*
X104584004Y-64196833D01*
X103631623Y-64006357D02*
X103584004Y-63958738D01*
X103584004Y-63958738D02*
X103488766Y-63911119D01*
X103488766Y-63911119D02*
X103250671Y-63911119D01*
X103250671Y-63911119D02*
X103155433Y-63958738D01*
X103155433Y-63958738D02*
X103107814Y-64006357D01*
X103107814Y-64006357D02*
X103060195Y-64101595D01*
X103060195Y-64101595D02*
X103060195Y-64196833D01*
X103060195Y-64196833D02*
X103107814Y-64339690D01*
X103107814Y-64339690D02*
X103679242Y-64911119D01*
X103679242Y-64911119D02*
X103060195Y-64911119D01*
X142676919Y-102939633D02*
X142200728Y-102606300D01*
X142676919Y-102368205D02*
X141676919Y-102368205D01*
X141676919Y-102368205D02*
X141676919Y-102749157D01*
X141676919Y-102749157D02*
X141724538Y-102844395D01*
X141724538Y-102844395D02*
X141772157Y-102892014D01*
X141772157Y-102892014D02*
X141867395Y-102939633D01*
X141867395Y-102939633D02*
X142010252Y-102939633D01*
X142010252Y-102939633D02*
X142105490Y-102892014D01*
X142105490Y-102892014D02*
X142153109Y-102844395D01*
X142153109Y-102844395D02*
X142200728Y-102749157D01*
X142200728Y-102749157D02*
X142200728Y-102368205D01*
X141676919Y-103272967D02*
X141676919Y-103939633D01*
X141676919Y-103939633D02*
X142676919Y-103511062D01*
X87288766Y-52111119D02*
X87622099Y-51634928D01*
X87860194Y-52111119D02*
X87860194Y-51111119D01*
X87860194Y-51111119D02*
X87479242Y-51111119D01*
X87479242Y-51111119D02*
X87384004Y-51158738D01*
X87384004Y-51158738D02*
X87336385Y-51206357D01*
X87336385Y-51206357D02*
X87288766Y-51301595D01*
X87288766Y-51301595D02*
X87288766Y-51444452D01*
X87288766Y-51444452D02*
X87336385Y-51539690D01*
X87336385Y-51539690D02*
X87384004Y-51587309D01*
X87384004Y-51587309D02*
X87479242Y-51634928D01*
X87479242Y-51634928D02*
X87860194Y-51634928D01*
X86336385Y-52111119D02*
X86907813Y-52111119D01*
X86622099Y-52111119D02*
X86622099Y-51111119D01*
X86622099Y-51111119D02*
X86717337Y-51253976D01*
X86717337Y-51253976D02*
X86812575Y-51349214D01*
X86812575Y-51349214D02*
X86907813Y-51396833D01*
X151964957Y-83661119D02*
X152298290Y-83184928D01*
X152536385Y-83661119D02*
X152536385Y-82661119D01*
X152536385Y-82661119D02*
X152155433Y-82661119D01*
X152155433Y-82661119D02*
X152060195Y-82708738D01*
X152060195Y-82708738D02*
X152012576Y-82756357D01*
X152012576Y-82756357D02*
X151964957Y-82851595D01*
X151964957Y-82851595D02*
X151964957Y-82994452D01*
X151964957Y-82994452D02*
X152012576Y-83089690D01*
X152012576Y-83089690D02*
X152060195Y-83137309D01*
X152060195Y-83137309D02*
X152155433Y-83184928D01*
X152155433Y-83184928D02*
X152536385Y-83184928D01*
X151012576Y-83661119D02*
X151584004Y-83661119D01*
X151298290Y-83661119D02*
X151298290Y-82661119D01*
X151298290Y-82661119D02*
X151393528Y-82803976D01*
X151393528Y-82803976D02*
X151488766Y-82899214D01*
X151488766Y-82899214D02*
X151584004Y-82946833D01*
X150536385Y-83661119D02*
X150345909Y-83661119D01*
X150345909Y-83661119D02*
X150250671Y-83613500D01*
X150250671Y-83613500D02*
X150203052Y-83565880D01*
X150203052Y-83565880D02*
X150107814Y-83423023D01*
X150107814Y-83423023D02*
X150060195Y-83232547D01*
X150060195Y-83232547D02*
X150060195Y-82851595D01*
X150060195Y-82851595D02*
X150107814Y-82756357D01*
X150107814Y-82756357D02*
X150155433Y-82708738D01*
X150155433Y-82708738D02*
X150250671Y-82661119D01*
X150250671Y-82661119D02*
X150441147Y-82661119D01*
X150441147Y-82661119D02*
X150536385Y-82708738D01*
X150536385Y-82708738D02*
X150584004Y-82756357D01*
X150584004Y-82756357D02*
X150631623Y-82851595D01*
X150631623Y-82851595D02*
X150631623Y-83089690D01*
X150631623Y-83089690D02*
X150584004Y-83184928D01*
X150584004Y-83184928D02*
X150536385Y-83232547D01*
X150536385Y-83232547D02*
X150441147Y-83280166D01*
X150441147Y-83280166D02*
X150250671Y-83280166D01*
X150250671Y-83280166D02*
X150155433Y-83232547D01*
X150155433Y-83232547D02*
X150107814Y-83184928D01*
X150107814Y-83184928D02*
X150060195Y-83089690D01*
X113801680Y-94127133D02*
X113849300Y-94079514D01*
X113849300Y-94079514D02*
X113896919Y-93936657D01*
X113896919Y-93936657D02*
X113896919Y-93841419D01*
X113896919Y-93841419D02*
X113849300Y-93698562D01*
X113849300Y-93698562D02*
X113754061Y-93603324D01*
X113754061Y-93603324D02*
X113658823Y-93555705D01*
X113658823Y-93555705D02*
X113468347Y-93508086D01*
X113468347Y-93508086D02*
X113325490Y-93508086D01*
X113325490Y-93508086D02*
X113135014Y-93555705D01*
X113135014Y-93555705D02*
X113039776Y-93603324D01*
X113039776Y-93603324D02*
X112944538Y-93698562D01*
X112944538Y-93698562D02*
X112896919Y-93841419D01*
X112896919Y-93841419D02*
X112896919Y-93936657D01*
X112896919Y-93936657D02*
X112944538Y-94079514D01*
X112944538Y-94079514D02*
X112992157Y-94127133D01*
X112896919Y-95031895D02*
X112896919Y-94555705D01*
X112896919Y-94555705D02*
X113373109Y-94508086D01*
X113373109Y-94508086D02*
X113325490Y-94555705D01*
X113325490Y-94555705D02*
X113277871Y-94650943D01*
X113277871Y-94650943D02*
X113277871Y-94889038D01*
X113277871Y-94889038D02*
X113325490Y-94984276D01*
X113325490Y-94984276D02*
X113373109Y-95031895D01*
X113373109Y-95031895D02*
X113468347Y-95079514D01*
X113468347Y-95079514D02*
X113706442Y-95079514D01*
X113706442Y-95079514D02*
X113801680Y-95031895D01*
X113801680Y-95031895D02*
X113849300Y-94984276D01*
X113849300Y-94984276D02*
X113896919Y-94889038D01*
X113896919Y-94889038D02*
X113896919Y-94650943D01*
X113896919Y-94650943D02*
X113849300Y-94555705D01*
X113849300Y-94555705D02*
X113801680Y-94508086D01*
X151764957Y-88661119D02*
X152098290Y-88184928D01*
X152336385Y-88661119D02*
X152336385Y-87661119D01*
X152336385Y-87661119D02*
X151955433Y-87661119D01*
X151955433Y-87661119D02*
X151860195Y-87708738D01*
X151860195Y-87708738D02*
X151812576Y-87756357D01*
X151812576Y-87756357D02*
X151764957Y-87851595D01*
X151764957Y-87851595D02*
X151764957Y-87994452D01*
X151764957Y-87994452D02*
X151812576Y-88089690D01*
X151812576Y-88089690D02*
X151860195Y-88137309D01*
X151860195Y-88137309D02*
X151955433Y-88184928D01*
X151955433Y-88184928D02*
X152336385Y-88184928D01*
X150812576Y-88661119D02*
X151384004Y-88661119D01*
X151098290Y-88661119D02*
X151098290Y-87661119D01*
X151098290Y-87661119D02*
X151193528Y-87803976D01*
X151193528Y-87803976D02*
X151288766Y-87899214D01*
X151288766Y-87899214D02*
X151384004Y-87946833D01*
X150241147Y-88089690D02*
X150336385Y-88042071D01*
X150336385Y-88042071D02*
X150384004Y-87994452D01*
X150384004Y-87994452D02*
X150431623Y-87899214D01*
X150431623Y-87899214D02*
X150431623Y-87851595D01*
X150431623Y-87851595D02*
X150384004Y-87756357D01*
X150384004Y-87756357D02*
X150336385Y-87708738D01*
X150336385Y-87708738D02*
X150241147Y-87661119D01*
X150241147Y-87661119D02*
X150050671Y-87661119D01*
X150050671Y-87661119D02*
X149955433Y-87708738D01*
X149955433Y-87708738D02*
X149907814Y-87756357D01*
X149907814Y-87756357D02*
X149860195Y-87851595D01*
X149860195Y-87851595D02*
X149860195Y-87899214D01*
X149860195Y-87899214D02*
X149907814Y-87994452D01*
X149907814Y-87994452D02*
X149955433Y-88042071D01*
X149955433Y-88042071D02*
X150050671Y-88089690D01*
X150050671Y-88089690D02*
X150241147Y-88089690D01*
X150241147Y-88089690D02*
X150336385Y-88137309D01*
X150336385Y-88137309D02*
X150384004Y-88184928D01*
X150384004Y-88184928D02*
X150431623Y-88280166D01*
X150431623Y-88280166D02*
X150431623Y-88470642D01*
X150431623Y-88470642D02*
X150384004Y-88565880D01*
X150384004Y-88565880D02*
X150336385Y-88613500D01*
X150336385Y-88613500D02*
X150241147Y-88661119D01*
X150241147Y-88661119D02*
X150050671Y-88661119D01*
X150050671Y-88661119D02*
X149955433Y-88613500D01*
X149955433Y-88613500D02*
X149907814Y-88565880D01*
X149907814Y-88565880D02*
X149860195Y-88470642D01*
X149860195Y-88470642D02*
X149860195Y-88280166D01*
X149860195Y-88280166D02*
X149907814Y-88184928D01*
X149907814Y-88184928D02*
X149955433Y-88137309D01*
X149955433Y-88137309D02*
X150050671Y-88089690D01*
D11*
%TO.C,R9*%
X121195036Y-97658800D02*
X121649164Y-97658800D01*
X121195036Y-99128800D02*
X121649164Y-99128800D01*
%TO.C,R8*%
X103287100Y-99166736D02*
X103287100Y-99620864D01*
X104757100Y-99166736D02*
X104757100Y-99620864D01*
%TO.C,C2*%
X115183352Y-62921300D02*
X114660848Y-62921300D01*
X115183352Y-64391300D02*
X114660848Y-64391300D01*
%TO.C,D4*%
X120822100Y-94903800D02*
X120822100Y-90893800D01*
X122822100Y-94903800D02*
X120822100Y-94903800D01*
X122822100Y-94903800D02*
X122822100Y-90893800D01*
%TO.C,R15*%
X107949164Y-72321300D02*
X107495036Y-72321300D01*
X107949164Y-73791300D02*
X107495036Y-73791300D01*
%TO.C,Q1*%
X116199600Y-99833800D02*
X116199600Y-100833800D01*
X116199600Y-101953800D02*
X116199600Y-102953800D01*
X116199600Y-102953800D02*
X117719600Y-102953800D01*
X117719600Y-99833800D02*
X116199600Y-99833800D01*
X117719600Y-99883800D02*
X117719600Y-99833800D01*
X117719600Y-101783800D02*
X117719600Y-101003800D01*
X117719600Y-102953800D02*
X117719600Y-102903800D01*
X118499600Y-101343800D02*
X118019600Y-101343800D01*
X118259600Y-101013800D01*
X118499600Y-101343800D01*
G36*
X118499600Y-101343800D02*
G01*
X118019600Y-101343800D01*
X118259600Y-101013800D01*
X118499600Y-101343800D01*
G37*
%TO.C,C1*%
X94987100Y-99957548D02*
X94987100Y-100480052D01*
X96457100Y-99957548D02*
X96457100Y-100480052D01*
%TO.C,R17*%
X151149164Y-93921300D02*
X150695036Y-93921300D01*
X151149164Y-95391300D02*
X150695036Y-95391300D01*
%TO.C,D3*%
X108022100Y-92233800D02*
X108022100Y-96243800D01*
X108022100Y-92233800D02*
X110022100Y-92233800D01*
X110022100Y-92233800D02*
X110022100Y-96243800D01*
%TO.C,R4*%
X139095036Y-55971300D02*
X139549164Y-55971300D01*
X139095036Y-57441300D02*
X139549164Y-57441300D01*
%TO.C,C6*%
X150587100Y-70037463D02*
X150587100Y-70559967D01*
X152057100Y-70037463D02*
X152057100Y-70559967D01*
%TO.C,R14*%
X107949164Y-69521300D02*
X107495036Y-69521300D01*
X107949164Y-70991300D02*
X107495036Y-70991300D01*
%TO.C,R6*%
X139295036Y-87371300D02*
X139749164Y-87371300D01*
X139295036Y-88841300D02*
X139749164Y-88841300D01*
%TO.C,R2*%
X90149164Y-48721300D02*
X89695036Y-48721300D01*
X90149164Y-50191300D02*
X89695036Y-50191300D01*
%TO.C,C4*%
X103387100Y-89595048D02*
X103387100Y-90117552D01*
X104857100Y-89595048D02*
X104857100Y-90117552D01*
%TO.C,C3*%
X79023348Y-95921300D02*
X79545852Y-95921300D01*
X79023348Y-97391300D02*
X79545852Y-97391300D01*
%TO.C,R10*%
X121195036Y-100058800D02*
X121649164Y-100058800D01*
X121195036Y-101528800D02*
X121649164Y-101528800D01*
%TO.C,U2*%
X112424600Y-65056300D02*
X112424600Y-65896300D01*
X112424600Y-74636300D02*
X112424600Y-75476300D01*
X112424600Y-75476300D02*
X117944600Y-75476300D01*
X117944600Y-65056300D02*
X112424600Y-65056300D01*
X117944600Y-65896300D02*
X117944600Y-65056300D01*
X117944600Y-75476300D02*
X117944600Y-74636300D01*
X118654600Y-65896300D02*
X118314600Y-65426300D01*
X118994600Y-65426300D01*
X118654600Y-65896300D01*
G36*
X118654600Y-65896300D02*
G01*
X118314600Y-65426300D01*
X118994600Y-65426300D01*
X118654600Y-65896300D01*
G37*
%TO.C,R13*%
X107949164Y-66521300D02*
X107495036Y-66521300D01*
X107949164Y-67991300D02*
X107495036Y-67991300D01*
%TO.C,R3*%
X113095036Y-50321300D02*
X113549164Y-50321300D01*
X113095036Y-51791300D02*
X113549164Y-51791300D01*
%TO.C,R11*%
X111649164Y-101458800D02*
X111195036Y-101458800D01*
X111649164Y-102928800D02*
X111195036Y-102928800D01*
%TO.C,R5*%
X139295036Y-71171300D02*
X139749164Y-71171300D01*
X139295036Y-72641300D02*
X139749164Y-72641300D01*
%TO.C,R16*%
X151149164Y-99121300D02*
X150695036Y-99121300D01*
X151149164Y-100591300D02*
X150695036Y-100591300D01*
%TO.C,R12*%
X107949164Y-63721300D02*
X107495036Y-63721300D01*
X107949164Y-65191300D02*
X107495036Y-65191300D01*
%TO.C,R7*%
X139495036Y-102371300D02*
X139949164Y-102371300D01*
X139495036Y-103841300D02*
X139949164Y-103841300D01*
%TO.C,R1*%
X90149164Y-51121300D02*
X89695036Y-51121300D01*
X90149164Y-52591300D02*
X89695036Y-52591300D01*
%TO.C,R19*%
X151549164Y-84121300D02*
X151095036Y-84121300D01*
X151549164Y-85591300D02*
X151095036Y-85591300D01*
%TO.C,C5*%
X114387100Y-94032548D02*
X114387100Y-94555052D01*
X115857100Y-94032548D02*
X115857100Y-94555052D01*
%TO.C,R18*%
X151349164Y-89121300D02*
X150895036Y-89121300D01*
X151349164Y-90591300D02*
X150895036Y-90591300D01*
%TD*%
M02*
